solid OpenSCAD_Model
  facet normal -1 0 0
    outer loop
      vertex -20.5 -16.5 -12.5
      vertex -20.5 -16.5 -5.5
      vertex -20.5 16.5 -12.5
    endloop
  endfacet
  facet normal -1 0 0
    outer loop
      vertex -20.5 16.5 -12.5
      vertex -20.5 -16.5 -5.5
      vertex -20.5 16.5 -5.5
    endloop
  endfacet
  facet normal 0 -1 0
    outer loop
      vertex -20.5 -16.5 -5.5
      vertex -20.5 -16.5 -12.5
      vertex -20.3838 -16.5 -12.5
    endloop
  endfacet
  facet normal 0 -1 0
    outer loop
      vertex -20.3838 -16.5 -5.5
      vertex -20.5 -16.5 -5.5
      vertex -20.3838 -16.5 -12.5
    endloop
  endfacet
  facet normal 0 0 -1
    outer loop
      vertex -20.5 -16.5 -12.5
      vertex -20.5 16.5 -12.5
      vertex -20.3838 -16.5 -12.5
    endloop
  endfacet
  facet normal 0 0 -1
    outer loop
      vertex -20.3838 -16.5 -12.5
      vertex -20.5 16.5 -12.5
      vertex -20.3838 16.5 -12.5
    endloop
  endfacet
  facet normal 0 0 -1
    outer loop
      vertex -20.3838 16.5 -12.5
      vertex -20.3838 17.4573 -12.5
      vertex -19.494 19.1525 -12.5
    endloop
  endfacet
  facet normal 0 0 -1
    outer loop
      vertex -20.3838 16.5 -12.5
      vertex -19.494 19.1525 -12.5
      vertex -20.3838 -16.5 -12.5
    endloop
  endfacet
  facet normal 0 0 -1
    outer loop
      vertex -20.3838 -16.5 -12.5
      vertex -19.494 19.1525 -12.5
      vertex -17.9184 20.2401 -12.5
    endloop
  endfacet
  facet normal 0 0 -1
    outer loop
      vertex -20.3838 -16.5 -12.5
      vertex -17.9184 20.2401 -12.5
      vertex -16.5 20.4123 -12.5
    endloop
  endfacet
  facet normal 0 0 -1
    outer loop
      vertex -16.5 20.4123 -12.5
      vertex -16.5 20.5 -12.5
      vertex 16.5 20.5 -12.5
    endloop
  endfacet
  facet normal 0 0 -1
    outer loop
      vertex -16.5 20.4123 -12.5
      vertex 16.5 20.5 -12.5
      vertex -20.3838 -16.5 -12.5
    endloop
  endfacet
  facet normal 0 0 -1
    outer loop
      vertex -20.3838 -16.5 -12.5
      vertex 16.5 20.5 -12.5
      vertex 16.5 20.4123 -12.5
    endloop
  endfacet
  facet normal 0 0 -1
    outer loop
      vertex -20.3838 -16.5 -12.5
      vertex 16.5 20.4123 -12.5
      vertex 16.9821 20.4708 -12.5
    endloop
  endfacet
  facet normal 0 0 -1
    outer loop
      vertex -20.3838 -16.5 -12.5
      vertex 16.9821 20.4708 -12.5
      vertex 18.7723 19.7919 -12.5
    endloop
  endfacet
  facet normal 0 0 -1
    outer loop
      vertex -20.3838 -16.5 -12.5
      vertex 18.7723 19.7919 -12.5
      vertex 20.0418 18.3589 -12.5
    endloop
  endfacet
  facet normal 0 0 -1
    outer loop
      vertex -20.3838 -16.5 -12.5
      vertex 20.0418 18.3589 -12.5
      vertex 20.5 16.5 -12.5
    endloop
  endfacet
  facet normal 0 0 -1
    outer loop
      vertex -20.3838 -16.5 -12.5
      vertex 20.5 16.5 -12.5
      vertex 20.5 -16.5 -12.5
    endloop
  endfacet
  facet normal 0 0 -1
    outer loop
      vertex -20.3838 -16.5 -12.5
      vertex 20.5 -16.5 -12.5
      vertex 20.0418 -18.3589 -12.5
    endloop
  endfacet
  facet normal 0 0 -1
    outer loop
      vertex 16.5 -20.5 -12.5
      vertex -20.3838 -16.5 -12.5
      vertex 16.5 -20.4123 -12.5
    endloop
  endfacet
  facet normal 0 0 -1
    outer loop
      vertex 18.7723 -19.7919 -12.5
      vertex 16.9821 -20.4708 -12.5
      vertex 16.5 -20.4123 -12.5
    endloop
  endfacet
  facet normal 0 0 -1
    outer loop
      vertex 16.5 -20.5 -12.5
      vertex -16.5 -20.5 -12.5
      vertex -16.5 -20.4123 -12.5
    endloop
  endfacet
  facet normal 0 0 -1
    outer loop
      vertex -20.3838 -16.5 -12.5
      vertex 20.0418 -18.3589 -12.5
      vertex 18.7723 -19.7919 -12.5
    endloop
  endfacet
  facet normal 0 0 -1
    outer loop
      vertex -20.3838 -16.5 -12.5
      vertex 18.7723 -19.7919 -12.5
      vertex 16.5 -20.4123 -12.5
    endloop
  endfacet
  facet normal 0 0 -1
    outer loop
      vertex -17.9184 -20.2401 -12.5
      vertex -20.3838 -16.5 -12.5
      vertex -16.5 -20.4123 -12.5
    endloop
  endfacet
  facet normal 0 0 -1
    outer loop
      vertex -20.3838 -16.5 -12.5
      vertex 16.5 -20.5 -12.5
      vertex -16.5 -20.4123 -12.5
    endloop
  endfacet
  facet normal 0 0 -1
    outer loop
      vertex -20.3838 -16.5 -12.5
      vertex -17.9184 -20.2401 -12.5
      vertex -19.494 -19.1525 -12.5
    endloop
  endfacet
  facet normal 0 0 -1
    outer loop
      vertex -20.3838 -16.5 -12.5
      vertex -19.494 -19.1525 -12.5
      vertex -20.3838 -17.4573 -12.5
    endloop
  endfacet
  facet normal 0 1 0
    outer loop
      vertex -20.5 16.5 -12.5
      vertex -20.5 16.5 -5.5
      vertex -20.3838 16.5 -12.5
    endloop
  endfacet
  facet normal 0 1 0
    outer loop
      vertex -20.3838 16.5 -12.5
      vertex -20.5 16.5 -5.5
      vertex -20.3838 16.5 -5.5
    endloop
  endfacet
  facet normal 0 0 1
    outer loop
      vertex -16.5 -20.4123 -5.5
      vertex 16.5 -20.5 -5.5
      vertex 14.5 -18.5 -5.5
    endloop
  endfacet
  facet normal 0 0 1
    outer loop
      vertex -20.5 16.5 -5.5
      vertex -20.5 -16.5 -5.5
      vertex -20.3838 -16.5 -5.5
    endloop
  endfacet
  facet normal 0 0 1
    outer loop
      vertex -19.494 -19.1525 -5.5
      vertex -20.5 16.5 -5.5
      vertex -20.3838 -16.5 -5.5
    endloop
  endfacet
  facet normal 0 0 1
    outer loop
      vertex -20.3838 -17.4573 -5.5
      vertex -19.494 -19.1525 -5.5
      vertex -20.3838 -16.5 -5.5
    endloop
  endfacet
  facet normal 0 0 1
    outer loop
      vertex -18.5 14.5 -5.5
      vertex -18.3838 14.5 -5.5
      vertex -20.5 16.5 -5.5
    endloop
  endfacet
  facet normal 0 0 1
    outer loop
      vertex -14.5 -18.4123 -5.5
      vertex -15.9184 -18.2401 -5.5
      vertex -14.5 -18.5 -5.5
    endloop
  endfacet
  facet normal 0 0 1
    outer loop
      vertex -16.5 -20.5 -5.5
      vertex 16.5 -20.5 -5.5
      vertex -16.5 -20.4123 -5.5
    endloop
  endfacet
  facet normal 0 0 1
    outer loop
      vertex -17.494 -17.1525 -5.5
      vertex -18.3838 -15.4573 -5.5
      vertex -17.9184 -20.2401 -5.5
    endloop
  endfacet
  facet normal 0 0 1
    outer loop
      vertex -14.5 18.5 -5.5
      vertex 18.7723 19.7919 -5.5
      vertex 16.5 20.4123 -5.5
    endloop
  endfacet
  facet normal 0 0 1
    outer loop
      vertex 18.5 14.5 -5.5
      vertex 18.5 -14.5 -5.5
      vertex 20.5 -16.5 -5.5
    endloop
  endfacet
  facet normal 0 0 1
    outer loop
      vertex -14.5 18.5 -5.5
      vertex 16.5 20.4123 -5.5
      vertex 16.5 20.5 -5.5
    endloop
  endfacet
  facet normal 0 0 1
    outer loop
      vertex 14.9821 -18.4708 -5.5
      vertex 14.5 -18.4123 -5.5
      vertex 16.9821 -20.4708 -5.5
    endloop
  endfacet
  facet normal 0 0 1
    outer loop
      vertex -18.5 -14.5 -5.5
      vertex -18.5 14.5 -5.5
      vertex -20.5 16.5 -5.5
    endloop
  endfacet
  facet normal 0 0 1
    outer loop
      vertex 18.7723 19.7919 -5.5
      vertex 16.9821 20.4708 -5.5
      vertex 16.5 20.4123 -5.5
    endloop
  endfacet
  facet normal 0 0 1
    outer loop
      vertex -20.3838 17.4573 -5.5
      vertex -17.9184 20.2401 -5.5
      vertex -19.494 19.1525 -5.5
    endloop
  endfacet
  facet normal 0 0 1
    outer loop
      vertex 16.5 20.5 -5.5
      vertex -16.5 20.5 -5.5
      vertex -16.5 20.4123 -5.5
    endloop
  endfacet
  facet normal 0 0 1
    outer loop
      vertex 16.7723 -17.7919 -5.5
      vertex 14.9821 -18.4708 -5.5
      vertex 18.7723 -19.7919 -5.5
    endloop
  endfacet
  facet normal 0 0 1
    outer loop
      vertex -19.494 -19.1525 -5.5
      vertex -18.5 -14.5 -5.5
      vertex -20.5 16.5 -5.5
    endloop
  endfacet
  facet normal 0 0 1
    outer loop
      vertex -19.494 -19.1525 -5.5
      vertex -17.9184 -20.2401 -5.5
      vertex -18.5 -14.5 -5.5
    endloop
  endfacet
  facet normal 0 0 1
    outer loop
      vertex -18.3838 14.5 -5.5
      vertex -18.3838 15.4573 -5.5
      vertex -20.3838 16.5 -5.5
    endloop
  endfacet
  facet normal 0 0 1
    outer loop
      vertex -15.9184 18.2401 -5.5
      vertex -16.5 20.4123 -5.5
      vertex -17.494 17.1525 -5.5
    endloop
  endfacet
  facet normal 0 0 1
    outer loop
      vertex -14.5 18.4123 -5.5
      vertex -16.5 20.4123 -5.5
      vertex -15.9184 18.2401 -5.5
    endloop
  endfacet
  facet normal 0 0 1
    outer loop
      vertex -14.5 18.5 -5.5
      vertex -16.5 20.4123 -5.5
      vertex -14.5 18.4123 -5.5
    endloop
  endfacet
  facet normal 0 0 1
    outer loop
      vertex 16.5 20.5 -5.5
      vertex -16.5 20.4123 -5.5
      vertex -14.5 18.5 -5.5
    endloop
  endfacet
  facet normal 0 0 1
    outer loop
      vertex 20.0418 18.3589 -5.5
      vertex 18.7723 19.7919 -5.5
      vertex 14.5 18.5 -5.5
    endloop
  endfacet
  facet normal 0 0 1
    outer loop
      vertex -18.3838 -14.5 -5.5
      vertex -18.5 -14.5 -5.5
      vertex -18.3838 -15.4573 -5.5
    endloop
  endfacet
  facet normal 0 0 1
    outer loop
      vertex 14.9821 18.4708 -5.5
      vertex 14.5 18.5 -5.5
      vertex 14.5 18.4123 -5.5
    endloop
  endfacet
  facet normal 0 0 1
    outer loop
      vertex 16.7723 17.7919 -5.5
      vertex 18.0418 16.3589 -5.5
      vertex 20.5 16.5 -5.5
    endloop
  endfacet
  facet normal 0 0 1
    outer loop
      vertex 20.0418 18.3589 -5.5
      vertex 14.5 18.5 -5.5
      vertex 14.9821 18.4708 -5.5
    endloop
  endfacet
  facet normal 0 0 1
    outer loop
      vertex 20.5 16.5 -5.5
      vertex 20.0418 18.3589 -5.5
      vertex 16.7723 17.7919 -5.5
    endloop
  endfacet
  facet normal 0 0 1
    outer loop
      vertex 18.5 14.5 -5.5
      vertex 20.5 16.5 -5.5
      vertex 18.0418 16.3589 -5.5
    endloop
  endfacet
  facet normal 0 0 1
    outer loop
      vertex 18.5 -14.5 -5.5
      vertex 18.0418 -16.3589 -5.5
      vertex 20.5 -16.5 -5.5
    endloop
  endfacet
  facet normal 0 0 1
    outer loop
      vertex 20.5 -16.5 -5.5
      vertex 20.5 16.5 -5.5
      vertex 18.5 14.5 -5.5
    endloop
  endfacet
  facet normal 0 0 1
    outer loop
      vertex 18.0418 -16.3589 -5.5
      vertex 16.7723 -17.7919 -5.5
      vertex 20.0418 -18.3589 -5.5
    endloop
  endfacet
  facet normal 0 0 1
    outer loop
      vertex -18.3838 15.4573 -5.5
      vertex -17.494 17.1525 -5.5
      vertex -20.3838 16.5 -5.5
    endloop
  endfacet
  facet normal 0 0 1
    outer loop
      vertex 20.0418 -18.3589 -5.5
      vertex 20.5 -16.5 -5.5
      vertex 18.0418 -16.3589 -5.5
    endloop
  endfacet
  facet normal 0 0 1
    outer loop
      vertex -14.5 18.5 -5.5
      vertex 14.5 18.5 -5.5
      vertex 18.7723 19.7919 -5.5
    endloop
  endfacet
  facet normal 0 0 1
    outer loop
      vertex 18.7723 -19.7919 -5.5
      vertex 20.0418 -18.3589 -5.5
      vertex 16.7723 -17.7919 -5.5
    endloop
  endfacet
  facet normal 0 0 1
    outer loop
      vertex 14.5 -18.4123 -5.5
      vertex 14.5 -18.5 -5.5
      vertex 16.5 -20.4123 -5.5
    endloop
  endfacet
  facet normal 0 0 1
    outer loop
      vertex 16.9821 -20.4708 -5.5
      vertex 18.7723 -19.7919 -5.5
      vertex 14.9821 -18.4708 -5.5
    endloop
  endfacet
  facet normal 0 0 1
    outer loop
      vertex 16.5 -20.4123 -5.5
      vertex 16.9821 -20.4708 -5.5
      vertex 14.5 -18.4123 -5.5
    endloop
  endfacet
  facet normal 0 0 1
    outer loop
      vertex 16.5 -20.5 -5.5
      vertex 16.5 -20.4123 -5.5
      vertex 14.5 -18.5 -5.5
    endloop
  endfacet
  facet normal 0 0 1
    outer loop
      vertex -16.5 -20.4123 -5.5
      vertex 14.5 -18.5 -5.5
      vertex -14.5 -18.5 -5.5
    endloop
  endfacet
  facet normal 0 0 1
    outer loop
      vertex -15.9184 -18.2401 -5.5
      vertex -17.494 -17.1525 -5.5
      vertex -16.5 -20.4123 -5.5
    endloop
  endfacet
  facet normal 0 0 1
    outer loop
      vertex -16.5 -20.4123 -5.5
      vertex -14.5 -18.5 -5.5
      vertex -15.9184 -18.2401 -5.5
    endloop
  endfacet
  facet normal 0 0 1
    outer loop
      vertex -17.9184 -20.2401 -5.5
      vertex -16.5 -20.4123 -5.5
      vertex -17.494 -17.1525 -5.5
    endloop
  endfacet
  facet normal 0 0 1
    outer loop
      vertex -18.5 -14.5 -5.5
      vertex -17.9184 -20.2401 -5.5
      vertex -18.3838 -15.4573 -5.5
    endloop
  endfacet
  facet normal 0 0 1
    outer loop
      vertex -18.3838 14.5 -5.5
      vertex -20.3838 16.5 -5.5
      vertex -20.5 16.5 -5.5
    endloop
  endfacet
  facet normal 0 0 1
    outer loop
      vertex -20.3838 17.4573 -5.5
      vertex -16.5 20.4123 -5.5
      vertex -17.9184 20.2401 -5.5
    endloop
  endfacet
  facet normal 0 0 1
    outer loop
      vertex -20.3838 17.4573 -5.5
      vertex -17.494 17.1525 -5.5
      vertex -16.5 20.4123 -5.5
    endloop
  endfacet
  facet normal 0 0 1
    outer loop
      vertex 14.9821 18.4708 -5.5
      vertex 16.7723 17.7919 -5.5
      vertex 20.0418 18.3589 -5.5
    endloop
  endfacet
  facet normal 0 0 1
    outer loop
      vertex -20.3838 17.4573 -5.5
      vertex -20.3838 16.5 -5.5
      vertex -17.494 17.1525 -5.5
    endloop
  endfacet
  facet normal -1 0 0
    outer loop
      vertex -20.3838 -17.4573 -12.5
      vertex -20.3838 -17.4573 -5.5
      vertex -20.3838 -16.5 -12.5
    endloop
  endfacet
  facet normal -1 0 0
    outer loop
      vertex -20.3838 -16.5 -12.5
      vertex -20.3838 -17.4573 -5.5
      vertex -20.3838 -16.5 -5.5
    endloop
  endfacet
  facet normal -0.885456 -0.464723 0
    outer loop
      vertex -20.3838 -17.4573 -12.5
      vertex -19.494 -19.1525 -12.5
      vertex -20.3838 -17.4573 -5.5
    endloop
  endfacet
  facet normal -0.885456 -0.464723 0
    outer loop
      vertex -20.3838 -17.4573 -5.5
      vertex -19.494 -19.1525 -12.5
      vertex -19.494 -19.1525 -5.5
    endloop
  endfacet
  facet normal -0.568065 -0.822984 0
    outer loop
      vertex -19.494 -19.1525 -5.5
      vertex -19.494 -19.1525 -12.5
      vertex -17.9184 -20.2401 -12.5
    endloop
  endfacet
  facet normal -0.568065 -0.822984 0
    outer loop
      vertex -17.9184 -20.2401 -5.5
      vertex -19.494 -19.1525 -5.5
      vertex -17.9184 -20.2401 -12.5
    endloop
  endfacet
  facet normal -0.120536 -0.992709 0
    outer loop
      vertex -17.9184 -20.2401 -5.5
      vertex -17.9184 -20.2401 -12.5
      vertex -16.5 -20.4123 -12.5
    endloop
  endfacet
  facet normal -0.120536 -0.992709 0
    outer loop
      vertex -16.5 -20.4123 -5.5
      vertex -17.9184 -20.2401 -5.5
      vertex -16.5 -20.4123 -12.5
    endloop
  endfacet
  facet normal -1 0 0
    outer loop
      vertex -16.5 -20.5 -12.5
      vertex -16.5 -20.5 -5.5
      vertex -16.5 -20.4123 -12.5
    endloop
  endfacet
  facet normal -1 0 0
    outer loop
      vertex -16.5 -20.4123 -12.5
      vertex -16.5 -20.5 -5.5
      vertex -16.5 -20.4123 -5.5
    endloop
  endfacet
  facet normal 0 -1 0
    outer loop
      vertex -16.5 -20.5 -5.5
      vertex -16.5 -20.5 -12.5
      vertex 16.5 -20.5 -12.5
    endloop
  endfacet
  facet normal 0 -1 0
    outer loop
      vertex 16.5 -20.5 -5.5
      vertex -16.5 -20.5 -5.5
      vertex 16.5 -20.5 -12.5
    endloop
  endfacet
  facet normal 1 0 0
    outer loop
      vertex 16.5 -20.5 -5.5
      vertex 16.5 -20.5 -12.5
      vertex 16.5 -20.4123 -12.5
    endloop
  endfacet
  facet normal 1 0 0
    outer loop
      vertex 16.5 -20.4123 -5.5
      vertex 16.5 -20.5 -5.5
      vertex 16.5 -20.4123 -12.5
    endloop
  endfacet
  facet normal -0.120536 -0.992709 0
    outer loop
      vertex 16.5 -20.4123 -5.5
      vertex 16.5 -20.4123 -12.5
      vertex 16.9821 -20.4708 -12.5
    endloop
  endfacet
  facet normal -0.120536 -0.992709 0
    outer loop
      vertex 16.9821 -20.4708 -5.5
      vertex 16.5 -20.4123 -5.5
      vertex 16.9821 -20.4708 -12.5
    endloop
  endfacet
  facet normal 0.354605 -0.935016 0
    outer loop
      vertex 16.9821 -20.4708 -5.5
      vertex 16.9821 -20.4708 -12.5
      vertex 18.7723 -19.7919 -12.5
    endloop
  endfacet
  facet normal 0.354605 -0.935016 0
    outer loop
      vertex 18.7723 -19.7919 -5.5
      vertex 16.9821 -20.4708 -5.5
      vertex 18.7723 -19.7919 -12.5
    endloop
  endfacet
  facet normal 0.748511 -0.663123 0
    outer loop
      vertex 18.7723 -19.7919 -5.5
      vertex 18.7723 -19.7919 -12.5
      vertex 20.0418 -18.3589 -12.5
    endloop
  endfacet
  facet normal 0.748511 -0.663123 0
    outer loop
      vertex 20.0418 -18.3589 -5.5
      vertex 18.7723 -19.7919 -5.5
      vertex 20.0418 -18.3589 -12.5
    endloop
  endfacet
  facet normal 0.970942 -0.239316 0
    outer loop
      vertex 20.0418 -18.3589 -5.5
      vertex 20.0418 -18.3589 -12.5
      vertex 20.5 -16.5 -12.5
    endloop
  endfacet
  facet normal 0.970942 -0.239316 0
    outer loop
      vertex 20.5 -16.5 -5.5
      vertex 20.0418 -18.3589 -5.5
      vertex 20.5 -16.5 -12.5
    endloop
  endfacet
  facet normal 1 0 0
    outer loop
      vertex 20.5 -16.5 -5.5
      vertex 20.5 -16.5 -12.5
      vertex 20.5 16.5 -12.5
    endloop
  endfacet
  facet normal 1 0 0
    outer loop
      vertex 20.5 16.5 -5.5
      vertex 20.5 -16.5 -5.5
      vertex 20.5 16.5 -12.5
    endloop
  endfacet
  facet normal 0.970942 0.239316 0
    outer loop
      vertex 20.5 16.5 -12.5
      vertex 20.0418 18.3589 -12.5
      vertex 20.0418 18.3589 -5.5
    endloop
  endfacet
  facet normal 0.970942 0.239316 0
    outer loop
      vertex 20.5 16.5 -5.5
      vertex 20.5 16.5 -12.5
      vertex 20.0418 18.3589 -5.5
    endloop
  endfacet
  facet normal 0.748511 0.663123 0
    outer loop
      vertex 20.0418 18.3589 -12.5
      vertex 18.7723 19.7919 -12.5
      vertex 18.7723 19.7919 -5.5
    endloop
  endfacet
  facet normal 0.748511 0.663123 0
    outer loop
      vertex 20.0418 18.3589 -5.5
      vertex 20.0418 18.3589 -12.5
      vertex 18.7723 19.7919 -5.5
    endloop
  endfacet
  facet normal 0.354605 0.935016 0
    outer loop
      vertex 16.9821 20.4708 -12.5
      vertex 16.9821 20.4708 -5.5
      vertex 18.7723 19.7919 -12.5
    endloop
  endfacet
  facet normal 0.354605 0.935016 0
    outer loop
      vertex 18.7723 19.7919 -12.5
      vertex 16.9821 20.4708 -5.5
      vertex 18.7723 19.7919 -5.5
    endloop
  endfacet
  facet normal -0.120536 0.992709 0
    outer loop
      vertex 16.5 20.4123 -12.5
      vertex 16.5 20.4123 -5.5
      vertex 16.9821 20.4708 -12.5
    endloop
  endfacet
  facet normal -0.120536 0.992709 0
    outer loop
      vertex 16.9821 20.4708 -12.5
      vertex 16.5 20.4123 -5.5
      vertex 16.9821 20.4708 -5.5
    endloop
  endfacet
  facet normal 1 0 0
    outer loop
      vertex 16.5 20.4123 -5.5
      vertex 16.5 20.4123 -12.5
      vertex 16.5 20.5 -12.5
    endloop
  endfacet
  facet normal 1 0 0
    outer loop
      vertex 16.5 20.5 -5.5
      vertex 16.5 20.4123 -5.5
      vertex 16.5 20.5 -12.5
    endloop
  endfacet
  facet normal 0 1 0
    outer loop
      vertex -16.5 20.5 -12.5
      vertex -16.5 20.5 -5.5
      vertex 16.5 20.5 -12.5
    endloop
  endfacet
  facet normal 0 1 0
    outer loop
      vertex 16.5 20.5 -12.5
      vertex -16.5 20.5 -5.5
      vertex 16.5 20.5 -5.5
    endloop
  endfacet
  facet normal -1 0 0
    outer loop
      vertex -16.5 20.4123 -12.5
      vertex -16.5 20.4123 -5.5
      vertex -16.5 20.5 -12.5
    endloop
  endfacet
  facet normal -1 0 0
    outer loop
      vertex -16.5 20.5 -12.5
      vertex -16.5 20.4123 -5.5
      vertex -16.5 20.5 -5.5
    endloop
  endfacet
  facet normal -0.120536 0.992709 0
    outer loop
      vertex -17.9184 20.2401 -12.5
      vertex -17.9184 20.2401 -5.5
      vertex -16.5 20.4123 -12.5
    endloop
  endfacet
  facet normal -0.120536 0.992709 0
    outer loop
      vertex -16.5 20.4123 -12.5
      vertex -17.9184 20.2401 -5.5
      vertex -16.5 20.4123 -5.5
    endloop
  endfacet
  facet normal -0.568065 0.822984 0
    outer loop
      vertex -19.494 19.1525 -12.5
      vertex -19.494 19.1525 -5.5
      vertex -17.9184 20.2401 -12.5
    endloop
  endfacet
  facet normal -0.568065 0.822984 0
    outer loop
      vertex -17.9184 20.2401 -12.5
      vertex -19.494 19.1525 -5.5
      vertex -17.9184 20.2401 -5.5
    endloop
  endfacet
  facet normal -0.885456 0.464723 0
    outer loop
      vertex -20.3838 17.4573 -12.5
      vertex -20.3838 17.4573 -5.5
      vertex -19.494 19.1525 -12.5
    endloop
  endfacet
  facet normal -0.885456 0.464723 0
    outer loop
      vertex -19.494 19.1525 -12.5
      vertex -20.3838 17.4573 -5.5
      vertex -19.494 19.1525 -5.5
    endloop
  endfacet
  facet normal -1 0 0
    outer loop
      vertex -20.3838 16.5 -12.5
      vertex -20.3838 16.5 -5.5
      vertex -20.3838 17.4573 -12.5
    endloop
  endfacet
  facet normal -1 0 0
    outer loop
      vertex -20.3838 17.4573 -12.5
      vertex -20.3838 16.5 -5.5
      vertex -20.3838 17.4573 -5.5
    endloop
  endfacet
  facet normal -1 0 0
    outer loop
      vertex -18.5 -14.5 -5.5
      vertex -18.5 -14.5 7
      vertex -18.5 14.5 -5.5
    endloop
  endfacet
  facet normal -1 0 0
    outer loop
      vertex -18.5 14.5 -5.5
      vertex -18.5 -14.5 7
      vertex -18.5 14.5 7
    endloop
  endfacet
  facet normal 0 -1 0
    outer loop
      vertex -18.5 -14.5 7
      vertex -18.5 -14.5 -5.5
      vertex -18.3838 -14.5 -5.5
    endloop
  endfacet
  facet normal 0 -1 0
    outer loop
      vertex -18.3838 -14.5 7
      vertex -18.5 -14.5 7
      vertex -18.3838 -14.5 -5.5
    endloop
  endfacet
  facet normal -1 0 0
    outer loop
      vertex -18.3838 -15.4573 -5.5
      vertex -18.3838 -15.4573 7
      vertex -18.3838 -14.5 -5.5
    endloop
  endfacet
  facet normal -1 0 0
    outer loop
      vertex -18.3838 -14.5 -5.5
      vertex -18.3838 -15.4573 7
      vertex -18.3838 -14.5 7
    endloop
  endfacet
  facet normal -0.885456 -0.464723 0
    outer loop
      vertex -18.3838 -15.4573 -5.5
      vertex -17.494 -17.1525 -5.5
      vertex -18.3838 -15.4573 7
    endloop
  endfacet
  facet normal -0.885456 -0.464723 0
    outer loop
      vertex -18.3838 -15.4573 7
      vertex -17.494 -17.1525 -5.5
      vertex -17.494 -17.1525 7
    endloop
  endfacet
  facet normal -0.568065 -0.822984 0
    outer loop
      vertex -17.494 -17.1525 7
      vertex -17.494 -17.1525 -5.5
      vertex -15.9184 -18.2401 -5.5
    endloop
  endfacet
  facet normal -0.568065 -0.822984 0
    outer loop
      vertex -15.9184 -18.2401 7
      vertex -17.494 -17.1525 7
      vertex -15.9184 -18.2401 -5.5
    endloop
  endfacet
  facet normal -0.120536 -0.992709 0
    outer loop
      vertex -15.9184 -18.2401 7
      vertex -15.9184 -18.2401 -5.5
      vertex -14.5 -18.4123 -5.5
    endloop
  endfacet
  facet normal -0.120536 -0.992709 0
    outer loop
      vertex -14.5 -18.4123 7
      vertex -15.9184 -18.2401 7
      vertex -14.5 -18.4123 -5.5
    endloop
  endfacet
  facet normal -1 0 0
    outer loop
      vertex -14.5 -18.5 -5.5
      vertex -14.5 -18.5 7
      vertex -14.5 -18.4123 -5.5
    endloop
  endfacet
  facet normal -1 0 0
    outer loop
      vertex -14.5 -18.4123 -5.5
      vertex -14.5 -18.5 7
      vertex -14.5 -18.4123 7
    endloop
  endfacet
  facet normal 0 -1 0
    outer loop
      vertex -14.5 -18.5 7
      vertex -14.5 -18.5 -5.5
      vertex 14.5 -18.5 -5.5
    endloop
  endfacet
  facet normal 0 -1 0
    outer loop
      vertex 14.5 -18.5 7
      vertex -14.5 -18.5 7
      vertex 14.5 -18.5 -5.5
    endloop
  endfacet
  facet normal 1 0 0
    outer loop
      vertex 14.5 -18.5 7
      vertex 14.5 -18.5 -5.5
      vertex 14.5 -18.4123 -5.5
    endloop
  endfacet
  facet normal 1 0 0
    outer loop
      vertex 14.5 -18.4123 7
      vertex 14.5 -18.5 7
      vertex 14.5 -18.4123 -5.5
    endloop
  endfacet
  facet normal -0.120536 -0.992709 0
    outer loop
      vertex 14.5 -18.4123 7
      vertex 14.5 -18.4123 -5.5
      vertex 14.9821 -18.4708 -5.5
    endloop
  endfacet
  facet normal -0.120536 -0.992709 0
    outer loop
      vertex 14.9821 -18.4708 7
      vertex 14.5 -18.4123 7
      vertex 14.9821 -18.4708 -5.5
    endloop
  endfacet
  facet normal 0.354605 -0.935016 0
    outer loop
      vertex 14.9821 -18.4708 7
      vertex 14.9821 -18.4708 -5.5
      vertex 16.7723 -17.7919 -5.5
    endloop
  endfacet
  facet normal 0.354605 -0.935016 0
    outer loop
      vertex 16.7723 -17.7919 7
      vertex 14.9821 -18.4708 7
      vertex 16.7723 -17.7919 -5.5
    endloop
  endfacet
  facet normal 0.748511 -0.663123 0
    outer loop
      vertex 16.7723 -17.7919 7
      vertex 16.7723 -17.7919 -5.5
      vertex 18.0418 -16.3589 -5.5
    endloop
  endfacet
  facet normal 0.748511 -0.663123 0
    outer loop
      vertex 18.0418 -16.3589 7
      vertex 16.7723 -17.7919 7
      vertex 18.0418 -16.3589 -5.5
    endloop
  endfacet
  facet normal 0.970942 -0.239316 0
    outer loop
      vertex 18.0418 -16.3589 7
      vertex 18.0418 -16.3589 -5.5
      vertex 18.5 -14.5 -5.5
    endloop
  endfacet
  facet normal 0.970942 -0.239316 0
    outer loop
      vertex 18.5 -14.5 7
      vertex 18.0418 -16.3589 7
      vertex 18.5 -14.5 -5.5
    endloop
  endfacet
  facet normal 1 0 0
    outer loop
      vertex 18.5 -14.5 7
      vertex 18.5 -14.5 -5.5
      vertex 18.5 14.5 -5.5
    endloop
  endfacet
  facet normal 1 0 0
    outer loop
      vertex 18.5 14.5 7
      vertex 18.5 -14.5 7
      vertex 18.5 14.5 -5.5
    endloop
  endfacet
  facet normal 0.970942 0.239316 0
    outer loop
      vertex 18.5 14.5 -5.5
      vertex 18.0418 16.3589 -5.5
      vertex 18.0418 16.3589 7
    endloop
  endfacet
  facet normal 0.970942 0.239316 0
    outer loop
      vertex 18.5 14.5 7
      vertex 18.5 14.5 -5.5
      vertex 18.0418 16.3589 7
    endloop
  endfacet
  facet normal 0.748511 0.663123 0
    outer loop
      vertex 18.0418 16.3589 -5.5
      vertex 16.7723 17.7919 -5.5
      vertex 16.7723 17.7919 7
    endloop
  endfacet
  facet normal 0.748511 0.663123 0
    outer loop
      vertex 18.0418 16.3589 7
      vertex 18.0418 16.3589 -5.5
      vertex 16.7723 17.7919 7
    endloop
  endfacet
  facet normal 0.354605 0.935016 0
    outer loop
      vertex 14.9821 18.4708 -5.5
      vertex 14.9821 18.4708 7
      vertex 16.7723 17.7919 -5.5
    endloop
  endfacet
  facet normal 0.354605 0.935016 0
    outer loop
      vertex 16.7723 17.7919 -5.5
      vertex 14.9821 18.4708 7
      vertex 16.7723 17.7919 7
    endloop
  endfacet
  facet normal -0.120536 0.992709 0
    outer loop
      vertex 14.5 18.4123 -5.5
      vertex 14.5 18.4123 7
      vertex 14.9821 18.4708 -5.5
    endloop
  endfacet
  facet normal -0.120536 0.992709 0
    outer loop
      vertex 14.9821 18.4708 -5.5
      vertex 14.5 18.4123 7
      vertex 14.9821 18.4708 7
    endloop
  endfacet
  facet normal 1 0 0
    outer loop
      vertex 14.5 18.4123 7
      vertex 14.5 18.4123 -5.5
      vertex 14.5 18.5 -5.5
    endloop
  endfacet
  facet normal 1 0 0
    outer loop
      vertex 14.5 18.5 7
      vertex 14.5 18.4123 7
      vertex 14.5 18.5 -5.5
    endloop
  endfacet
  facet normal 0 1 0
    outer loop
      vertex -14.5 18.5 -5.5
      vertex -14.5 18.5 7
      vertex 14.5 18.5 -5.5
    endloop
  endfacet
  facet normal 0 1 0
    outer loop
      vertex 14.5 18.5 -5.5
      vertex -14.5 18.5 7
      vertex 14.5 18.5 7
    endloop
  endfacet
  facet normal -1 0 0
    outer loop
      vertex -14.5 18.4123 -5.5
      vertex -14.5 18.4123 7
      vertex -14.5 18.5 -5.5
    endloop
  endfacet
  facet normal -1 0 0
    outer loop
      vertex -14.5 18.5 -5.5
      vertex -14.5 18.4123 7
      vertex -14.5 18.5 7
    endloop
  endfacet
  facet normal -0.120536 0.992709 0
    outer loop
      vertex -15.9184 18.2401 -5.5
      vertex -15.9184 18.2401 7
      vertex -14.5 18.4123 -5.5
    endloop
  endfacet
  facet normal -0.120536 0.992709 0
    outer loop
      vertex -14.5 18.4123 -5.5
      vertex -15.9184 18.2401 7
      vertex -14.5 18.4123 7
    endloop
  endfacet
  facet normal -0.568065 0.822984 0
    outer loop
      vertex -17.494 17.1525 -5.5
      vertex -17.494 17.1525 7
      vertex -15.9184 18.2401 -5.5
    endloop
  endfacet
  facet normal -0.568065 0.822984 0
    outer loop
      vertex -15.9184 18.2401 -5.5
      vertex -17.494 17.1525 7
      vertex -15.9184 18.2401 7
    endloop
  endfacet
  facet normal -0.885456 0.464723 0
    outer loop
      vertex -18.3838 15.4573 -5.5
      vertex -18.3838 15.4573 7
      vertex -17.494 17.1525 -5.5
    endloop
  endfacet
  facet normal -0.885456 0.464723 0
    outer loop
      vertex -17.494 17.1525 -5.5
      vertex -18.3838 15.4573 7
      vertex -17.494 17.1525 7
    endloop
  endfacet
  facet normal -1 0 0
    outer loop
      vertex -18.3838 14.5 -5.5
      vertex -18.3838 14.5 7
      vertex -18.3838 15.4573 -5.5
    endloop
  endfacet
  facet normal -1 0 0
    outer loop
      vertex -18.3838 15.4573 -5.5
      vertex -18.3838 14.5 7
      vertex -18.3838 15.4573 7
    endloop
  endfacet
  facet normal 0 1 0
    outer loop
      vertex -18.5 14.5 -5.5
      vertex -18.5 14.5 7
      vertex -18.3838 14.5 -5.5
    endloop
  endfacet
  facet normal 0 1 0
    outer loop
      vertex -18.3838 14.5 -5.5
      vertex -18.5 14.5 7
      vertex -18.3838 14.5 7
    endloop
  endfacet
  facet normal 0 0 1
    outer loop
      vertex -5.27684 2.85568 7
      vertex -18.3838 14.5 7
      vertex -18.5 14.5 7
    endloop
  endfacet
  facet normal 0 0 1
    outer loop
      vertex -18.5 14.5 7
      vertex -18.5 -14.5 7
      vertex -18.3838 -14.5 7
    endloop
  endfacet
  facet normal 0 0 1
    outer loop
      vertex -17.494 -17.1525 7
      vertex -18.5 14.5 7
      vertex -18.3838 -14.5 7
    endloop
  endfacet
  facet normal 0 0 1
    outer loop
      vertex -18.3838 -15.4573 7
      vertex -17.494 -17.1525 7
      vertex -18.3838 -14.5 7
    endloop
  endfacet
  facet normal 0 0 1
    outer loop
      vertex -17.494 -17.1525 7
      vertex -15.9184 -18.2401 7
      vertex -18.5 14.5 7
    endloop
  endfacet
  facet normal 0 0 1
    outer loop
      vertex -15.9184 -18.2401 7
      vertex -14.5 -18.4123 7
      vertex -18.5 14.5 7
    endloop
  endfacet
  facet normal 0 0 1
    outer loop
      vertex 3.28169 -5.023 7
      vertex 14.5 -18.4123 7
      vertex 14.9821 -18.4708 7
    endloop
  endfacet
  facet normal 0 0 1
    outer loop
      vertex -14.5 -18.5 7
      vertex 14.5 -18.5 7
      vertex -14.5 -18.4123 7
    endloop
  endfacet
  facet normal 0 0 1
    outer loop
      vertex 3.28169 -5.023 7
      vertex 14.9821 -18.4708 7
      vertex 16.7723 -17.7919 7
    endloop
  endfacet
  facet normal 0 0 1
    outer loop
      vertex 4.73484 -3.68528 7
      vertex 18.0418 -16.3589 7
      vertex 18.5 -14.5 7
    endloop
  endfacet
  facet normal 0 0 1
    outer loop
      vertex 3.28169 -5.023 7
      vertex 1.47291 -5.8164 7
      vertex 14.5 -18.5 7
    endloop
  endfacet
  facet normal 0 0 1
    outer loop
      vertex -2.41017 5.49464 7
      vertex 18.5 14.5 7
      vertex -18.3838 14.5 7
    endloop
  endfacet
  facet normal 0 0 1
    outer loop
      vertex 1.47291 -5.8164 7
      vertex -0.495476 -5.97951 7
      vertex 14.5 -18.5 7
    endloop
  endfacet
  facet normal 0 0 1
    outer loop
      vertex -5.91817 0.987568 7
      vertex -5.27684 2.85568 7
      vertex -18.5 14.5 7
    endloop
  endfacet
  facet normal 0 0 1
    outer loop
      vertex 16.7723 17.7919 7
      vertex 14.9821 18.4708 7
      vertex 14.5 18.4123 7
    endloop
  endfacet
  facet normal 0 0 1
    outer loop
      vertex -18.3838 15.4573 7
      vertex -15.9184 18.2401 7
      vertex -17.494 17.1525 7
    endloop
  endfacet
  facet normal 0 0 1
    outer loop
      vertex 14.5 18.5 7
      vertex -14.5 18.5 7
      vertex -14.5 18.4123 7
    endloop
  endfacet
  facet normal 0 0 1
    outer loop
      vertex 4.73484 -3.68528 7
      vertex 3.28169 -5.023 7
      vertex 18.0418 -16.3589 7
    endloop
  endfacet
  facet normal 0 0 1
    outer loop
      vertex 18.5 14.5 7
      vertex 18.0418 16.3589 7
      vertex -18.3838 14.5 7
    endloop
  endfacet
  facet normal 0 0 1
    outer loop
      vertex -14.5 -18.4123 7
      vertex -5.91817 -0.987568 7
      vertex -18.5 14.5 7
    endloop
  endfacet
  facet normal 0 0 1
    outer loop
      vertex -5.91817 -0.987568 7
      vertex -5.91817 0.987568 7
      vertex -18.5 14.5 7
    endloop
  endfacet
  facet normal 0 0 1
    outer loop
      vertex -4.06369 4.41434 7
      vertex -2.41017 5.49464 7
      vertex -18.3838 14.5 7
    endloop
  endfacet
  facet normal 0 0 1
    outer loop
      vertex 4.73484 3.68528 7
      vertex 5.6749 1.9482 7
      vertex 18.5 -14.5 7
    endloop
  endfacet
  facet normal 0 0 1
    outer loop
      vertex 1.47291 5.8164 7
      vertex 18.5 14.5 7
      vertex -0.495476 5.97951 7
    endloop
  endfacet
  facet normal 0 0 1
    outer loop
      vertex 3.28169 5.023 7
      vertex 18.5 14.5 7
      vertex 1.47291 5.8164 7
    endloop
  endfacet
  facet normal 0 0 1
    outer loop
      vertex 4.73484 3.68528 7
      vertex 18.5 14.5 7
      vertex 3.28169 5.023 7
    endloop
  endfacet
  facet normal 0 0 1
    outer loop
      vertex 5.6749 1.9482 7
      vertex 6 0 7
      vertex 18.5 -14.5 7
    endloop
  endfacet
  facet normal 0 0 1
    outer loop
      vertex 18.5 -14.5 7
      vertex 18.5 14.5 7
      vertex 4.73484 3.68528 7
    endloop
  endfacet
  facet normal 0 0 1
    outer loop
      vertex 6 0 7
      vertex 5.6749 -1.9482 7
      vertex 18.5 -14.5 7
    endloop
  endfacet
  facet normal 0 0 1
    outer loop
      vertex 5.6749 -1.9482 7
      vertex 4.73484 -3.68528 7
      vertex 18.5 -14.5 7
    endloop
  endfacet
  facet normal 0 0 1
    outer loop
      vertex 3.28169 -5.023 7
      vertex 14.5 -18.5 7
      vertex 14.5 -18.4123 7
    endloop
  endfacet
  facet normal 0 0 1
    outer loop
      vertex -2.41017 5.49464 7
      vertex -0.495476 5.97951 7
      vertex 18.5 14.5 7
    endloop
  endfacet
  facet normal 0 0 1
    outer loop
      vertex 16.7723 -17.7919 7
      vertex 18.0418 -16.3589 7
      vertex 3.28169 -5.023 7
    endloop
  endfacet
  facet normal 0 0 1
    outer loop
      vertex -5.27684 2.85568 7
      vertex -4.06369 4.41434 7
      vertex -18.3838 14.5 7
    endloop
  endfacet
  facet normal 0 0 1
    outer loop
      vertex -14.5 -18.4123 7
      vertex 14.5 -18.5 7
      vertex -0.495476 -5.97951 7
    endloop
  endfacet
  facet normal 0 0 1
    outer loop
      vertex -14.5 -18.4123 7
      vertex -0.495476 -5.97951 7
      vertex -2.41017 -5.49464 7
    endloop
  endfacet
  facet normal 0 0 1
    outer loop
      vertex -14.5 -18.4123 7
      vertex -2.41017 -5.49464 7
      vertex -4.06369 -4.41434 7
    endloop
  endfacet
  facet normal 0 0 1
    outer loop
      vertex -14.5 -18.4123 7
      vertex -5.27684 -2.85568 7
      vertex -5.91817 -0.987568 7
    endloop
  endfacet
  facet normal 0 0 1
    outer loop
      vertex -14.5 -18.4123 7
      vertex -4.06369 -4.41434 7
      vertex -5.27684 -2.85568 7
    endloop
  endfacet
  facet normal 0 0 1
    outer loop
      vertex -18.3838 15.4573 7
      vertex -14.5 18.4123 7
      vertex -15.9184 18.2401 7
    endloop
  endfacet
  facet normal 0 0 1
    outer loop
      vertex -18.3838 15.4573 7
      vertex 14.5 18.5 7
      vertex -14.5 18.4123 7
    endloop
  endfacet
  facet normal 0 0 1
    outer loop
      vertex -18.3838 15.4573 7
      vertex 14.5 18.4123 7
      vertex 14.5 18.5 7
    endloop
  endfacet
  facet normal 0 0 1
    outer loop
      vertex -18.3838 15.4573 7
      vertex 16.7723 17.7919 7
      vertex 14.5 18.4123 7
    endloop
  endfacet
  facet normal 0 0 1
    outer loop
      vertex -18.3838 15.4573 7
      vertex 18.0418 16.3589 7
      vertex 16.7723 17.7919 7
    endloop
  endfacet
  facet normal 0 0 1
    outer loop
      vertex -18.3838 15.4573 7
      vertex -18.3838 14.5 7
      vertex 18.0418 16.3589 7
    endloop
  endfacet
  facet normal 1 0 0
    outer loop
      vertex -5.91817 0.987568 0
      vertex -5.91817 0.987568 7
      vertex -5.91817 -0.987568 7
    endloop
  endfacet
  facet normal 1 0 0
    outer loop
      vertex -5.91817 -0.987568 0
      vertex -5.91817 0.987568 0
      vertex -5.91817 -0.987568 7
    endloop
  endfacet
  facet normal 0.945817 0.324699 0
    outer loop
      vertex -5.91817 -0.987568 7
      vertex -5.27684 -2.85568 7
      vertex -5.27684 -2.85568 0
    endloop
  endfacet
  facet normal 0.945817 0.324699 0
    outer loop
      vertex -5.91817 -0.987568 0
      vertex -5.91817 -0.987568 7
      vertex -5.27684 -2.85568 0
    endloop
  endfacet
  facet normal 0.78914 0.614213 0
    outer loop
      vertex -5.27684 -2.85568 7
      vertex -4.06369 -4.41434 7
      vertex -4.06369 -4.41434 0
    endloop
  endfacet
  facet normal 0.78914 0.614213 0
    outer loop
      vertex -5.27684 -2.85568 0
      vertex -5.27684 -2.85568 7
      vertex -4.06369 -4.41434 0
    endloop
  endfacet
  facet normal 0.546949 0.837166 0
    outer loop
      vertex -2.41017 -5.49464 7
      vertex -2.41017 -5.49464 0
      vertex -4.06369 -4.41434 7
    endloop
  endfacet
  facet normal 0.546949 0.837166 0
    outer loop
      vertex -4.06369 -4.41434 7
      vertex -2.41017 -5.49464 0
      vertex -4.06369 -4.41434 0
    endloop
  endfacet
  facet normal 0.245485 0.9694 0
    outer loop
      vertex -0.495476 -5.97951 7
      vertex -0.495476 -5.97951 0
      vertex -2.41017 -5.49464 7
    endloop
  endfacet
  facet normal 0.245485 0.9694 0
    outer loop
      vertex -2.41017 -5.49464 7
      vertex -0.495476 -5.97951 0
      vertex -2.41017 -5.49464 0
    endloop
  endfacet
  facet normal -0.0825792 0.996585 0
    outer loop
      vertex 1.47291 -5.8164 7
      vertex 1.47291 -5.8164 0
      vertex -0.495476 -5.97951 7
    endloop
  endfacet
  facet normal -0.0825792 0.996585 0
    outer loop
      vertex -0.495476 -5.97951 7
      vertex 1.47291 -5.8164 0
      vertex -0.495476 -5.97951 0
    endloop
  endfacet
  facet normal -0.401696 0.915773 0
    outer loop
      vertex 3.28169 -5.023 7
      vertex 3.28169 -5.023 0
      vertex 1.47291 -5.8164 7
    endloop
  endfacet
  facet normal -0.401696 0.915773 0
    outer loop
      vertex 1.47291 -5.8164 7
      vertex 3.28169 -5.023 0
      vertex 1.47291 -5.8164 0
    endloop
  endfacet
  facet normal -0.677282 0.735724 0
    outer loop
      vertex 4.73484 -3.68528 7
      vertex 4.73484 -3.68528 0
      vertex 3.28169 -5.023 7
    endloop
  endfacet
  facet normal -0.677282 0.735724 0
    outer loop
      vertex 3.28169 -5.023 7
      vertex 4.73484 -3.68528 0
      vertex 3.28169 -5.023 0
    endloop
  endfacet
  facet normal -0.879474 0.475947 0
    outer loop
      vertex 5.6749 -1.9482 7
      vertex 5.6749 -1.9482 0
      vertex 4.73484 -3.68528 7
    endloop
  endfacet
  facet normal -0.879474 0.475947 0
    outer loop
      vertex 4.73484 -3.68528 7
      vertex 5.6749 -1.9482 0
      vertex 4.73484 -3.68528 0
    endloop
  endfacet
  facet normal -0.986361 0.164595 0
    outer loop
      vertex 6 0 7
      vertex 6 0 0
      vertex 5.6749 -1.9482 7
    endloop
  endfacet
  facet normal -0.986361 0.164595 0
    outer loop
      vertex 5.6749 -1.9482 7
      vertex 6 0 0
      vertex 5.6749 -1.9482 0
    endloop
  endfacet
  facet normal -0.986361 -0.164595 0
    outer loop
      vertex 6 0 7
      vertex 5.6749 1.9482 7
      vertex 6 0 0
    endloop
  endfacet
  facet normal -0.986361 -0.164595 0
    outer loop
      vertex 6 0 0
      vertex 5.6749 1.9482 7
      vertex 5.6749 1.9482 0
    endloop
  endfacet
  facet normal -0.879474 -0.475947 0
    outer loop
      vertex 5.6749 1.9482 7
      vertex 4.73484 3.68528 7
      vertex 5.6749 1.9482 0
    endloop
  endfacet
  facet normal -0.879474 -0.475947 0
    outer loop
      vertex 5.6749 1.9482 0
      vertex 4.73484 3.68528 7
      vertex 4.73484 3.68528 0
    endloop
  endfacet
  facet normal -0.677282 -0.735724 0
    outer loop
      vertex 4.73484 3.68528 0
      vertex 4.73484 3.68528 7
      vertex 3.28169 5.023 7
    endloop
  endfacet
  facet normal -0.677282 -0.735724 0
    outer loop
      vertex 3.28169 5.023 0
      vertex 4.73484 3.68528 0
      vertex 3.28169 5.023 7
    endloop
  endfacet
  facet normal -0.401696 -0.915773 0
    outer loop
      vertex 3.28169 5.023 0
      vertex 3.28169 5.023 7
      vertex 1.47291 5.8164 7
    endloop
  endfacet
  facet normal -0.401696 -0.915773 0
    outer loop
      vertex 1.47291 5.8164 0
      vertex 3.28169 5.023 0
      vertex 1.47291 5.8164 7
    endloop
  endfacet
  facet normal -0.0825792 -0.996585 0
    outer loop
      vertex 1.47291 5.8164 0
      vertex 1.47291 5.8164 7
      vertex -0.495476 5.97951 7
    endloop
  endfacet
  facet normal -0.0825792 -0.996585 0
    outer loop
      vertex -0.495476 5.97951 0
      vertex 1.47291 5.8164 0
      vertex -0.495476 5.97951 7
    endloop
  endfacet
  facet normal 0.245485 -0.9694 0
    outer loop
      vertex -0.495476 5.97951 0
      vertex -0.495476 5.97951 7
      vertex -2.41017 5.49464 7
    endloop
  endfacet
  facet normal 0.245485 -0.9694 0
    outer loop
      vertex -2.41017 5.49464 0
      vertex -0.495476 5.97951 0
      vertex -2.41017 5.49464 7
    endloop
  endfacet
  facet normal 0.546949 -0.837166 0
    outer loop
      vertex -2.41017 5.49464 0
      vertex -2.41017 5.49464 7
      vertex -4.06369 4.41434 7
    endloop
  endfacet
  facet normal 0.546949 -0.837166 0
    outer loop
      vertex -4.06369 4.41434 0
      vertex -2.41017 5.49464 0
      vertex -4.06369 4.41434 7
    endloop
  endfacet
  facet normal 0.78914 -0.614213 0
    outer loop
      vertex -4.06369 4.41434 0
      vertex -4.06369 4.41434 7
      vertex -5.27684 2.85568 7
    endloop
  endfacet
  facet normal 0.78914 -0.614213 0
    outer loop
      vertex -5.27684 2.85568 0
      vertex -4.06369 4.41434 0
      vertex -5.27684 2.85568 7
    endloop
  endfacet
  facet normal 0.945817 -0.324699 0
    outer loop
      vertex -5.27684 2.85568 0
      vertex -5.27684 2.85568 7
      vertex -5.91817 0.987568 7
    endloop
  endfacet
  facet normal 0.945817 -0.324699 0
    outer loop
      vertex -5.91817 0.987568 0
      vertex -5.27684 2.85568 0
      vertex -5.91817 0.987568 7
    endloop
  endfacet
  facet normal 0 0 1
    outer loop
      vertex -5.27684 -2.85568 0
      vertex -4.06369 -4.41434 0
      vertex -2.41017 -5.49464 0
    endloop
  endfacet
  facet normal 0 0 1
    outer loop
      vertex 1.47291 -5.8164 0
      vertex -5.27684 -2.85568 0
      vertex -0.495476 -5.97951 0
    endloop
  endfacet
  facet normal 0 0 1
    outer loop
      vertex -0.495476 -5.97951 0
      vertex -5.27684 -2.85568 0
      vertex -2.41017 -5.49464 0
    endloop
  endfacet
  facet normal 0 0 1
    outer loop
      vertex 3.28169 -5.023 0
      vertex -5.27684 -2.85568 0
      vertex 1.47291 -5.8164 0
    endloop
  endfacet
  facet normal 0 0 1
    outer loop
      vertex 4.73484 -3.68528 0
      vertex -5.27684 -2.85568 0
      vertex 3.28169 -5.023 0
    endloop
  endfacet
  facet normal 0 0 1
    outer loop
      vertex 5.6749 -1.9482 0
      vertex -5.27684 -2.85568 0
      vertex 4.73484 -3.68528 0
    endloop
  endfacet
  facet normal 0 0 1
    outer loop
      vertex 6 0 0
      vertex -5.27684 -2.85568 0
      vertex 5.6749 -1.9482 0
    endloop
  endfacet
  facet normal 0 0 1
    outer loop
      vertex 5.6749 1.9482 0
      vertex -5.27684 -2.85568 0
      vertex 6 0 0
    endloop
  endfacet
  facet normal 0 0 1
    outer loop
      vertex 4.73484 3.68528 0
      vertex -5.27684 -2.85568 0
      vertex 5.6749 1.9482 0
    endloop
  endfacet
  facet normal 0 0 1
    outer loop
      vertex 3.28169 5.023 0
      vertex -5.27684 -2.85568 0
      vertex 4.73484 3.68528 0
    endloop
  endfacet
  facet normal 0 0 1
    outer loop
      vertex 1.47291 5.8164 0
      vertex -5.27684 -2.85568 0
      vertex 3.28169 5.023 0
    endloop
  endfacet
  facet normal 0 0 1
    outer loop
      vertex -0.495476 5.97951 0
      vertex -5.27684 -2.85568 0
      vertex 1.47291 5.8164 0
    endloop
  endfacet
  facet normal 0 0 1
    outer loop
      vertex -2.41017 5.49464 0
      vertex -5.27684 -2.85568 0
      vertex -0.495476 5.97951 0
    endloop
  endfacet
  facet normal 0 0 1
    outer loop
      vertex -4.06369 4.41434 0
      vertex -5.27684 -2.85568 0
      vertex -2.41017 5.49464 0
    endloop
  endfacet
  facet normal 0 0 1
    outer loop
      vertex -5.27684 2.85568 0
      vertex -5.27684 -2.85568 0
      vertex -4.06369 4.41434 0
    endloop
  endfacet
  facet normal 0 0 1
    outer loop
      vertex -5.91817 0.987568 0
      vertex -5.27684 -2.85568 0
      vertex -5.27684 2.85568 0
    endloop
  endfacet
  facet normal 0 0 1
    outer loop
      vertex -5.91817 -0.987568 0
      vertex -5.27684 -2.85568 0
      vertex -5.91817 0.987568 0
    endloop
  endfacet
endsolid OpenSCAD_Model
