solid OpenSCAD_Model
  facet normal -1 0 0
    outer loop
      vertex 1 0 -1.5
      vertex 1 0 -0.951057
      vertex 1 8 -1.5
    endloop
  endfacet
  facet normal -1 0 0
    outer loop
      vertex 1 8 -1.5
      vertex 1 0 -0.951057
      vertex 1 0.309017 -0.951057
    endloop
  endfacet
  facet normal -1 0 0
    outer loop
      vertex 1 8 -1.5
      vertex 1 0.309017 -0.951057
      vertex 1 0.809017 -0.587785
    endloop
  endfacet
  facet normal -1 0 0
    outer loop
      vertex 1 0.809017 -0.587785
      vertex 1 1 1.57047e-16
      vertex 1 8 -1.5
    endloop
  endfacet
  facet normal -1 0 0
    outer loop
      vertex 1 1 1.57047e-16
      vertex 1 0.809017 0.587785
      vertex 1 8 -1.5
    endloop
  endfacet
  facet normal -1 0 0
    outer loop
      vertex 1 0.809017 0.587785
      vertex 1 0.309017 0.951057
      vertex 1 8 -1.5
    endloop
  endfacet
  facet normal -1 0 0
    outer loop
      vertex 1 0.309017 0.951057
      vertex 1 0 0.951057
      vertex 1 0 1.04894
    endloop
  endfacet
  facet normal -1 0 0
    outer loop
      vertex 1 0.309017 0.951057
      vertex 1 0 1.04894
      vertex 1 0.309017 1.04894
    endloop
  endfacet
  facet normal -1 0 0
    outer loop
      vertex 1 0.309017 0.951057
      vertex 1 0.309017 1.04894
      vertex 1 8 -1.5
    endloop
  endfacet
  facet normal -1 0 0
    outer loop
      vertex 1 8 -1.5
      vertex 1 0.309017 1.04894
      vertex 1 0.809017 1.41221
    endloop
  endfacet
  facet normal -1 0 0
    outer loop
      vertex 1 0.809017 1.41221
      vertex 1 1 2
      vertex 1 8 -1.5
    endloop
  endfacet
  facet normal -1 0 0
    outer loop
      vertex 1 1 2
      vertex 1 0.809017 2.58778
      vertex 1 8 -1.5
    endloop
  endfacet
  facet normal -1 0 0
    outer loop
      vertex 1 0.809017 2.58778
      vertex 1 0.309017 2.95106
      vertex 1 8 -1.5
    endloop
  endfacet
  facet normal -1 0 0
    outer loop
      vertex 1 0.309017 2.95106
      vertex 1 0 2.95106
      vertex 1 0 3.04894
    endloop
  endfacet
  facet normal -1 0 0
    outer loop
      vertex 1 0.309017 2.95106
      vertex 1 0 3.04894
      vertex 1 0.309017 3.04894
    endloop
  endfacet
  facet normal -1 0 0
    outer loop
      vertex 1 0.309017 2.95106
      vertex 1 0.309017 3.04894
      vertex 1 8 -1.5
    endloop
  endfacet
  facet normal -1 0 0
    outer loop
      vertex 1 8 -1.5
      vertex 1 0.309017 3.04894
      vertex 1 0.809017 3.41221
    endloop
  endfacet
  facet normal -1 0 0
    outer loop
      vertex 1 0.809017 3.41221
      vertex 1 1 4
      vertex 1 8 -1.5
    endloop
  endfacet
  facet normal -1 0 0
    outer loop
      vertex 1 1 4
      vertex 1 0.809017 4.58778
      vertex 1 8 -1.5
    endloop
  endfacet
  facet normal -1 0 0
    outer loop
      vertex 1 0.809017 4.58778
      vertex 1 0.309017 5.04894
      vertex 1 8 -1.5
    endloop
  endfacet
  facet normal -1 0 0
    outer loop
      vertex 1 0.309017 4.95106
      vertex 1 0 4.95106
      vertex 1 0 5.04894
    endloop
  endfacet
  facet normal -1 0 0
    outer loop
      vertex 1 0.309017 4.95106
      vertex 1 0 5.04894
      vertex 1 0.309017 5.04894
    endloop
  endfacet
  facet normal -1 0 0
    outer loop
      vertex 1 0.309017 4.95106
      vertex 1 0.309017 5.04894
      vertex 1 0.809017 4.58778
    endloop
  endfacet
  facet normal -1 0 0
    outer loop
      vertex 1 8 -1.5
      vertex 1 0.309017 5.04894
      vertex 1 0.809017 5.41221
    endloop
  endfacet
  facet normal -1 0 0
    outer loop
      vertex 1 0.809017 5.41221
      vertex 1 1 6
      vertex 1 8 -1.5
    endloop
  endfacet
  facet normal -1 0 0
    outer loop
      vertex 1 1 6
      vertex 1 0.809017 6.58778
      vertex 1 8 -1.5
    endloop
  endfacet
  facet normal -1 0 0
    outer loop
      vertex 1 0.809017 6.58778
      vertex 1 0 7.5
      vertex 1 8 -1.5
    endloop
  endfacet
  facet normal -1 0 0
    outer loop
      vertex 1 0.309017 6.95106
      vertex 1 0 6.95106
      vertex 1 0 7.5
    endloop
  endfacet
  facet normal -1 0 0
    outer loop
      vertex 1 0.309017 6.95106
      vertex 1 0 7.5
      vertex 1 0.809017 6.58778
    endloop
  endfacet
  facet normal -1 0 0
    outer loop
      vertex 1 8 -1.5
      vertex 1 0 7.5
      vertex 1 8 7.5
    endloop
  endfacet
  facet normal 0 -1 0
    outer loop
      vertex 1 0 -0.951057
      vertex 1 0 -1.5
      vertex 20 0 -1.5
    endloop
  endfacet
  facet normal 0 -1 0
    outer loop
      vertex 20 0 -0.951057
      vertex 1 0 -0.951057
      vertex 20 0 -1.5
    endloop
  endfacet
  facet normal 0 0 -1
    outer loop
      vertex 1 0 -1.5
      vertex 1 8 -1.5
      vertex 20 0 -1.5
    endloop
  endfacet
  facet normal 0 0 -1
    outer loop
      vertex 20 0 -1.5
      vertex 1 8 -1.5
      vertex 31 8 -1.5
    endloop
  endfacet
  facet normal 0 0 -1
    outer loop
      vertex 20 0 -1.5
      vertex 31 8 -1.5
      vertex 31 -1 -1.5
    endloop
  endfacet
  facet normal 0 0 -1
    outer loop
      vertex 20 0 -1.5
      vertex 31 -1 -1.5
      vertex 20 -1 -1.5
    endloop
  endfacet
  facet normal 0 1 0
    outer loop
      vertex 14 8 5
      vertex 1 8 7.5
      vertex 31 8 7.5
    endloop
  endfacet
  facet normal 0 1 0
    outer loop
      vertex 1 8 -1.5
      vertex 1 8 7.5
      vertex 11.75 8 2.75
    endloop
  endfacet
  facet normal 0 1 0
    outer loop
      vertex 25 8 0.5
      vertex 31 8 -1.5
      vertex 16.25 8 2.75
    endloop
  endfacet
  facet normal 0 1 0
    outer loop
      vertex 1 8 -1.5
      vertex 11.75 8 2.75
      vertex 12.409 8 1.15901
    endloop
  endfacet
  facet normal 0 1 0
    outer loop
      vertex 1 8 -1.5
      vertex 12.409 8 1.15901
      vertex 14 8 0.5
    endloop
  endfacet
  facet normal 0 1 0
    outer loop
      vertex 1 8 -1.5
      vertex 14 8 0.5
      vertex 31 8 -1.5
    endloop
  endfacet
  facet normal 0 1 0
    outer loop
      vertex 16.25 8 2.75
      vertex 31 8 -1.5
      vertex 15.591 8 1.15901
    endloop
  endfacet
  facet normal 0 1 0
    outer loop
      vertex 15.591 8 1.15901
      vertex 31 8 -1.5
      vertex 14 8 0.5
    endloop
  endfacet
  facet normal 0 1 0
    outer loop
      vertex 15.591 8 4.34099
      vertex 23.409 8 1.15901
      vertex 25 8 0.5
    endloop
  endfacet
  facet normal 0 1 0
    outer loop
      vertex 23.409 8 1.15901
      vertex 15.591 8 4.34099
      vertex 22.75 8 2.75
    endloop
  endfacet
  facet normal 0 1 0
    outer loop
      vertex 25 8 5
      vertex 15.591 8 4.34099
      vertex 31 8 7.5
    endloop
  endfacet
  facet normal 0 1 0
    outer loop
      vertex 15.591 8 4.34099
      vertex 14 8 5
      vertex 31 8 7.5
    endloop
  endfacet
  facet normal 0 1 0
    outer loop
      vertex 15.591 8 4.34099
      vertex 25 8 0.5
      vertex 16.25 8 2.75
    endloop
  endfacet
  facet normal 0 1 0
    outer loop
      vertex 12.409 8 4.34099
      vertex 1 8 7.5
      vertex 14 8 5
    endloop
  endfacet
  facet normal 0 1 0
    outer loop
      vertex 26.591 8 1.15901
      vertex 31 8 -1.5
      vertex 25 8 0.5
    endloop
  endfacet
  facet normal 0 1 0
    outer loop
      vertex 25 8 5
      vertex 31 8 7.5
      vertex 26.591 8 4.34099
    endloop
  endfacet
  facet normal 0 1 0
    outer loop
      vertex 31 8 -1.5
      vertex 26.591 8 1.15901
      vertex 31 8 7.5
    endloop
  endfacet
  facet normal 0 1 0
    outer loop
      vertex 26.591 8 1.15901
      vertex 27.25 8 2.75
      vertex 31 8 7.5
    endloop
  endfacet
  facet normal 0 1 0
    outer loop
      vertex 27.25 8 2.75
      vertex 26.591 8 4.34099
      vertex 31 8 7.5
    endloop
  endfacet
  facet normal 0 1 0
    outer loop
      vertex 23.409 8 4.34099
      vertex 15.591 8 4.34099
      vertex 25 8 5
    endloop
  endfacet
  facet normal 0 1 0
    outer loop
      vertex 22.75 8 2.75
      vertex 15.591 8 4.34099
      vertex 23.409 8 4.34099
    endloop
  endfacet
  facet normal 0 1 0
    outer loop
      vertex 11.75 8 2.75
      vertex 1 8 7.5
      vertex 12.409 8 4.34099
    endloop
  endfacet
  facet normal 0 0 1
    outer loop
      vertex 1 8 7.5
      vertex 1 0 7.5
      vertex 20 0 7.5
    endloop
  endfacet
  facet normal 0 0 1
    outer loop
      vertex 31 -1 7.5
      vertex 1 8 7.5
      vertex 20 0 7.5
    endloop
  endfacet
  facet normal 0 0 1
    outer loop
      vertex 20 -1 7.5
      vertex 31 -1 7.5
      vertex 20 0 7.5
    endloop
  endfacet
  facet normal 0 0 1
    outer loop
      vertex 31 -1 7.5
      vertex 31 8 7.5
      vertex 1 8 7.5
    endloop
  endfacet
  facet normal 0 -1 0
    outer loop
      vertex 16.1262 0 3.04894
      vertex 16.1667 0 2.95106
      vertex 20 0 3.04894
    endloop
  endfacet
  facet normal 0 -1 0
    outer loop
      vertex 1 0 5.04894
      vertex 1 0 4.95106
      vertex 13.8818 0 4.95106
    endloop
  endfacet
  facet normal 0 -1 0
    outer loop
      vertex 14 0 5
      vertex 1 0 5.04894
      vertex 13.8818 0 4.95106
    endloop
  endfacet
  facet normal 0 -1 0
    outer loop
      vertex 20 0 4.95106
      vertex 14 0 5
      vertex 14.1182 0 4.95106
    endloop
  endfacet
  facet normal 0 -1 0
    outer loop
      vertex 20 0 5.04894
      vertex 14 0 5
      vertex 20 0 4.95106
    endloop
  endfacet
  facet normal 0 -1 0
    outer loop
      vertex 20 0 7.5
      vertex 20 0 4.95106
      vertex 20 0 3.04894
    endloop
  endfacet
  facet normal 0 -1 0
    outer loop
      vertex 20 0 2.95106
      vertex 20 0 7.5
      vertex 20 0 3.04894
    endloop
  endfacet
  facet normal 0 -1 0
    outer loop
      vertex 15.3253 0 1.04894
      vertex 15.0889 0 0.951057
      vertex 20 0 1.04894
    endloop
  endfacet
  facet normal 0 -1 0
    outer loop
      vertex 16.1667 0 2.95106
      vertex 20 0 2.95106
      vertex 20 0 3.04894
    endloop
  endfacet
  facet normal 0 -1 0
    outer loop
      vertex 20 0 1.04894
      vertex 20 0 7.5
      vertex 20 0 2.95106
    endloop
  endfacet
  facet normal 0 -1 0
    outer loop
      vertex 20 0 0.951057
      vertex 20 0 7.5
      vertex 20 0 1.04894
    endloop
  endfacet
  facet normal 0 -1 0
    outer loop
      vertex 15.0889 0 0.951057
      vertex 20 0 0.951057
      vertex 20 0 1.04894
    endloop
  endfacet
  facet normal 0 -1 0
    outer loop
      vertex 20 0 8.82725e-15
      vertex 20 0 7.5
      vertex 20 0 0.951057
    endloop
  endfacet
  facet normal 0 -1 0
    outer loop
      vertex 20 0 7.5
      vertex 1 0 7.5
      vertex 1 0 6.95106
    endloop
  endfacet
  facet normal 0 -1 0
    outer loop
      vertex 1 0 6.95106
      vertex 20 0 6.95106
      vertex 20 0 7.5
    endloop
  endfacet
  facet normal 0 -1 0
    outer loop
      vertex 20 0 7.5
      vertex 20 0 5.04894
      vertex 20 0 4.95106
    endloop
  endfacet
  facet normal 0 -1 0
    outer loop
      vertex 20 0 7.5
      vertex 20 0 6.95106
      vertex 20 0 5.04894
    endloop
  endfacet
  facet normal 0 -1 0
    outer loop
      vertex 20 0 5.04894
      vertex 1 0 5.04894
      vertex 14 0 5
    endloop
  endfacet
  facet normal 1.77321e-16 -2.02746e-17 -1
    outer loop
      vertex 20 0.309017 6.95106
      vertex 20 0 6.95106
      vertex 1 0.309017 6.95106
    endloop
  endfacet
  facet normal 1.77321e-16 -2.02746e-17 -1
    outer loop
      vertex 1 0.309017 6.95106
      vertex 20 0 6.95106
      vertex 1 0 6.95106
    endloop
  endfacet
  facet normal 2.01264e-17 -0.587786 -0.809016
    outer loop
      vertex 20 0.809017 6.58779
      vertex 20 0.309017 6.95106
      vertex 1 0.809017 6.58778
    endloop
  endfacet
  facet normal 2.01264e-17 -0.587786 -0.809016
    outer loop
      vertex 1 0.809017 6.58778
      vertex 20 0.309017 6.95106
      vertex 1 0.309017 6.95106
    endloop
  endfacet
  facet normal -1.44756e-16 -0.951056 -0.309017
    outer loop
      vertex 1 1 6
      vertex 20 1 6
      vertex 20 0.809017 6.58779
    endloop
  endfacet
  facet normal -1.44756e-16 -0.951056 -0.309017
    outer loop
      vertex 1 0.809017 6.58778
      vertex 1 1 6
      vertex 20 0.809017 6.58779
    endloop
  endfacet
  facet normal -2.54346e-16 -0.951056 0.309017
    outer loop
      vertex 20 0.809017 5.41222
      vertex 20 1 6
      vertex 1 1 6
    endloop
  endfacet
  facet normal -2.54346e-16 -0.951056 0.309017
    outer loop
      vertex 1 0.809017 5.41221
      vertex 20 0.809017 5.41222
      vertex 1 1 6
    endloop
  endfacet
  facet normal -2.66785e-16 -0.587786 0.809016
    outer loop
      vertex 20 0.309017 5.04894
      vertex 20 0.809017 5.41222
      vertex 1 0.809017 5.41221
    endloop
  endfacet
  facet normal -2.66785e-16 -0.587786 0.809016
    outer loop
      vertex 1 0.309017 5.04894
      vertex 20 0.309017 5.04894
      vertex 1 0.809017 5.41221
    endloop
  endfacet
  facet normal -1.77321e-16 2.02746e-17 1
    outer loop
      vertex 20 0 5.04894
      vertex 20 0.309017 5.04894
      vertex 1 0.309017 5.04894
    endloop
  endfacet
  facet normal -1.77321e-16 2.02746e-17 1
    outer loop
      vertex 1 0 5.04894
      vertex 20 0 5.04894
      vertex 1 0.309017 5.04894
    endloop
  endfacet
  facet normal 1.77321e-16 -2.02746e-17 -1
    outer loop
      vertex 13.8818 0.309017 4.95106
      vertex 13.8818 0 4.95106
      vertex 1 0.309017 4.95106
    endloop
  endfacet
  facet normal 1.77321e-16 -2.02746e-17 -1
    outer loop
      vertex 1 0.309017 4.95106
      vertex 13.8818 0 4.95106
      vertex 1 0 4.95106
    endloop
  endfacet
  facet normal 2.01264e-17 -0.587786 -0.809016
    outer loop
      vertex 13.0048 0.809017 4.58779
      vertex 13.8818 0.309017 4.95106
      vertex 1 0.809017 4.58778
    endloop
  endfacet
  facet normal 2.01264e-17 -0.587786 -0.809016
    outer loop
      vertex 1 0.809017 4.58778
      vertex 13.8818 0.309017 4.95106
      vertex 1 0.309017 4.95106
    endloop
  endfacet
  facet normal -1.44756e-16 -0.951056 -0.309017
    outer loop
      vertex 1 1 4
      vertex 12.2678 1 4
      vertex 12.409 0.889206 4.34099
    endloop
  endfacet
  facet normal -1.44756e-16 -0.951056 -0.309017
    outer loop
      vertex 13.0048 0.809017 4.58779
      vertex 1 1 4
      vertex 12.409 0.889206 4.34099
    endloop
  endfacet
  facet normal -1.44756e-16 -0.951056 -0.309017
    outer loop
      vertex 13.0048 0.809017 4.58779
      vertex 1 0.809017 4.58778
      vertex 1 1 4
    endloop
  endfacet
  facet normal -2.54346e-16 -0.951056 0.309017
    outer loop
      vertex 12.0243 0.809017 3.41222
      vertex 12.2678 1 4
      vertex 1 1 4
    endloop
  endfacet
  facet normal -2.54346e-16 -0.951056 0.309017
    outer loop
      vertex 1 0.809017 3.41221
      vertex 12.0243 0.809017 3.41222
      vertex 1 1 4
    endloop
  endfacet
  facet normal -2.66785e-16 -0.587786 0.809016
    outer loop
      vertex 11.8738 0.309017 3.04894
      vertex 12.0243 0.809017 3.41222
      vertex 1 0.809017 3.41221
    endloop
  endfacet
  facet normal -2.66785e-16 -0.587786 0.809016
    outer loop
      vertex 1 0.309017 3.04894
      vertex 11.8738 0.309017 3.04894
      vertex 1 0.809017 3.41221
    endloop
  endfacet
  facet normal -1.77321e-16 2.02746e-17 1
    outer loop
      vertex 11.8738 0 3.04894
      vertex 11.8738 0.309017 3.04894
      vertex 1 0.309017 3.04894
    endloop
  endfacet
  facet normal -1.77321e-16 2.02746e-17 1
    outer loop
      vertex 1 0 3.04894
      vertex 11.8738 0 3.04894
      vertex 1 0.309017 3.04894
    endloop
  endfacet
  facet normal 0 -1 0
    outer loop
      vertex 1 0 3.04894
      vertex 1 0 2.95106
      vertex 11.8333 0 2.95106
    endloop
  endfacet
  facet normal 0 -1 0
    outer loop
      vertex 11.8738 0 3.04894
      vertex 1 0 3.04894
      vertex 11.8333 0 2.95106
    endloop
  endfacet
  facet normal 1.77321e-16 -2.02746e-17 -1
    outer loop
      vertex 11.8333 0.309017 2.95106
      vertex 11.8333 0 2.95106
      vertex 1 0.309017 2.95106
    endloop
  endfacet
  facet normal 1.77321e-16 -2.02746e-17 -1
    outer loop
      vertex 1 0.309017 2.95106
      vertex 11.8333 0 2.95106
      vertex 1 0 2.95106
    endloop
  endfacet
  facet normal 2.01264e-17 -0.587786 -0.809016
    outer loop
      vertex 11.8172 0.809017 2.58779
      vertex 11.75 0.585748 2.75
      vertex 1 0.809017 2.58778
    endloop
  endfacet
  facet normal 2.01264e-17 -0.587786 -0.809016
    outer loop
      vertex 1 0.809017 2.58778
      vertex 11.75 0.585748 2.75
      vertex 11.8333 0.309017 2.95106
    endloop
  endfacet
  facet normal 2.01264e-17 -0.587786 -0.809016
    outer loop
      vertex 1 0.809017 2.58778
      vertex 11.8333 0.309017 2.95106
      vertex 1 0.309017 2.95106
    endloop
  endfacet
  facet normal -1.44756e-16 -0.951056 -0.309017
    outer loop
      vertex 1 1 2
      vertex 12.0607 1 2
      vertex 11.8172 0.809017 2.58779
    endloop
  endfacet
  facet normal -1.44756e-16 -0.951056 -0.309017
    outer loop
      vertex 1 0.809017 2.58778
      vertex 1 1 2
      vertex 11.8172 0.809017 2.58779
    endloop
  endfacet
  facet normal -2.54346e-16 -0.951056 0.309017
    outer loop
      vertex 12.3041 0.809017 1.41222
      vertex 12.0607 1 2
      vertex 1 1 2
    endloop
  endfacet
  facet normal -2.54346e-16 -0.951056 0.309017
    outer loop
      vertex 1 0.809017 1.41221
      vertex 12.3041 0.809017 1.41222
      vertex 1 1 2
    endloop
  endfacet
  facet normal -2.66785e-16 -0.587786 0.809016
    outer loop
      vertex 12.6747 0.309017 1.04894
      vertex 12.409 0.460511 1.15901
      vertex 1 0.809017 1.41221
    endloop
  endfacet
  facet normal -2.66785e-16 -0.587786 0.809016
    outer loop
      vertex 1 0.809017 1.41221
      vertex 12.409 0.460511 1.15901
      vertex 12.3041 0.809017 1.41222
    endloop
  endfacet
  facet normal -2.66785e-16 -0.587786 0.809016
    outer loop
      vertex 12.6747 0.309017 1.04894
      vertex 1 0.809017 1.41221
      vertex 1 0.309017 1.04894
    endloop
  endfacet
  facet normal -1.77321e-16 2.02746e-17 1
    outer loop
      vertex 12.6747 0 1.04894
      vertex 12.6747 0.309017 1.04894
      vertex 1 0.309017 1.04894
    endloop
  endfacet
  facet normal -1.77321e-16 2.02746e-17 1
    outer loop
      vertex 1 0 1.04894
      vertex 12.6747 0 1.04894
      vertex 1 0.309017 1.04894
    endloop
  endfacet
  facet normal 0 -1 0
    outer loop
      vertex 1 0 1.04894
      vertex 1 0 0.951057
      vertex 12.9111 0 0.951057
    endloop
  endfacet
  facet normal 0 -1 0
    outer loop
      vertex 12.6747 0 1.04894
      vertex 1 0 1.04894
      vertex 12.9111 0 0.951057
    endloop
  endfacet
  facet normal 1.77321e-16 -2.02746e-17 -1
    outer loop
      vertex 12.9111 0.309017 0.951057
      vertex 12.9111 0 0.951057
      vertex 1 0.309017 0.951057
    endloop
  endfacet
  facet normal 1.77321e-16 -2.02746e-17 -1
    outer loop
      vertex 1 0.309017 0.951057
      vertex 12.9111 0 0.951057
      vertex 1 0 0.951057
    endloop
  endfacet
  facet normal 2.01264e-17 -0.587786 -0.809016
    outer loop
      vertex 13.7881 0.809017 0.587785
      vertex 12.9111 0.309017 0.951057
      vertex 1 0.809017 0.587785
    endloop
  endfacet
  facet normal 2.01264e-17 -0.587786 -0.809016
    outer loop
      vertex 1 0.809017 0.587785
      vertex 12.9111 0.309017 0.951057
      vertex 1 0.309017 0.951057
    endloop
  endfacet
  facet normal -1.44756e-16 -0.951056 -0.309017
    outer loop
      vertex 1 1 1.57047e-16
      vertex 20 1 3.52615e-15
      vertex 20 0.809017 0.587785
    endloop
  endfacet
  facet normal -1.44756e-16 -0.951056 -0.309017
    outer loop
      vertex 14 0.83754 0.5
      vertex 1 1 1.57047e-16
      vertex 20 0.809017 0.587785
    endloop
  endfacet
  facet normal -1.44756e-16 -0.951056 -0.309017
    outer loop
      vertex 14.2119 0.809017 0.587785
      vertex 14 0.83754 0.5
      vertex 20 0.809017 0.587785
    endloop
  endfacet
  facet normal -1.44756e-16 -0.951056 -0.309017
    outer loop
      vertex 1 0.809017 0.587785
      vertex 1 1 1.57047e-16
      vertex 13.7881 0.809017 0.587785
    endloop
  endfacet
  facet normal -1.44756e-16 -0.951056 -0.309017
    outer loop
      vertex 14 0.83754 0.5
      vertex 13.7881 0.809017 0.587785
      vertex 1 1 1.57047e-16
    endloop
  endfacet
  facet normal -2.54346e-16 -0.951056 0.309017
    outer loop
      vertex 20 0.809017 -0.587785
      vertex 20 1 3.52615e-15
      vertex 1 1 1.57047e-16
    endloop
  endfacet
  facet normal -2.54346e-16 -0.951056 0.309017
    outer loop
      vertex 1 0.809017 -0.587785
      vertex 20 0.809017 -0.587785
      vertex 1 1 1.57047e-16
    endloop
  endfacet
  facet normal -2.66785e-16 -0.587786 0.809016
    outer loop
      vertex 20 0.309017 -0.951057
      vertex 20 0.809017 -0.587785
      vertex 1 0.809017 -0.587785
    endloop
  endfacet
  facet normal -2.66785e-16 -0.587786 0.809016
    outer loop
      vertex 1 0.309017 -0.951057
      vertex 20 0.309017 -0.951057
      vertex 1 0.809017 -0.587785
    endloop
  endfacet
  facet normal -1.77321e-16 2.02746e-17 1
    outer loop
      vertex 1 0.309017 -0.951057
      vertex 20 0 -0.951057
      vertex 20 0.309017 -0.951057
    endloop
  endfacet
  facet normal -1.77321e-16 2.02746e-17 1
    outer loop
      vertex 20 0.309017 -0.951057
      vertex 20 0 -0.951057
      vertex 20 -0.309017 -0.951057
    endloop
  endfacet
  facet normal -1.77321e-16 2.02746e-17 1
    outer loop
      vertex 1 0 -0.951057
      vertex 20 0 -0.951057
      vertex 1 0.309017 -0.951057
    endloop
  endfacet
  facet normal -1 0 0
    outer loop
      vertex 20 0 8.82725e-15
      vertex 20 -1 7.5
      vertex 20 0 7.5
    endloop
  endfacet
  facet normal -1 0 0
    outer loop
      vertex 20 -1 -1.5
      vertex 20 -1 7.5
      vertex 20 -0.59224 -0.745283
    endloop
  endfacet
  facet normal -1 0 0
    outer loop
      vertex 20 -1 -1.5
      vertex 20 -0.59224 -0.745283
      vertex 20 0 -1.5
    endloop
  endfacet
  facet normal -1 0 0
    outer loop
      vertex 20 -0.59224 -0.745283
      vertex 20 -0.309017 -0.951057
      vertex 20 0 -1.5
    endloop
  endfacet
  facet normal -1 0 0
    outer loop
      vertex 20 -0.59224 -0.745283
      vertex 20 -1 7.5
      vertex 20 0 8.82725e-15
    endloop
  endfacet
  facet normal -1 0 0
    outer loop
      vertex 20 0 -0.951057
      vertex 20 0 -1.5
      vertex 20 -0.309017 -0.951057
    endloop
  endfacet
  facet normal 0 -1 0
    outer loop
      vertex 25 -1 0.5
      vertex 20 -1 -1.5
      vertex 31 -1 -1.5
    endloop
  endfacet
  facet normal 0 -1 0
    outer loop
      vertex 20 -1 7.5
      vertex 20 -1 -1.5
      vertex 23.409 -1 1.15901
    endloop
  endfacet
  facet normal 0 -1 0
    outer loop
      vertex 20 -1 7.5
      vertex 23.409 -1 1.15901
      vertex 22.75 -1 2.75
    endloop
  endfacet
  facet normal 0 -1 0
    outer loop
      vertex 20 -1 7.5
      vertex 22.75 -1 2.75
      vertex 23.409 -1 4.34099
    endloop
  endfacet
  facet normal 0 -1 0
    outer loop
      vertex 26.591 -1 1.15901
      vertex 25 -1 0.5
      vertex 31 -1 -1.5
    endloop
  endfacet
  facet normal 0 -1 0
    outer loop
      vertex 31 -1 7.5
      vertex 20 -1 7.5
      vertex 25 -1 5
    endloop
  endfacet
  facet normal 0 -1 0
    outer loop
      vertex 31 -1 7.5
      vertex 26.591 -1 4.34099
      vertex 31 -1 -1.5
    endloop
  endfacet
  facet normal 0 -1 0
    outer loop
      vertex 31 -1 7.5
      vertex 25 -1 5
      vertex 26.591 -1 4.34099
    endloop
  endfacet
  facet normal 0 -1 0
    outer loop
      vertex 26.591 -1 4.34099
      vertex 27.25 -1 2.75
      vertex 31 -1 -1.5
    endloop
  endfacet
  facet normal 0 -1 0
    outer loop
      vertex 23.409 -1 1.15901
      vertex 20 -1 -1.5
      vertex 25 -1 0.5
    endloop
  endfacet
  facet normal 0 -1 0
    outer loop
      vertex 23.409 -1 4.34099
      vertex 25 -1 5
      vertex 20 -1 7.5
    endloop
  endfacet
  facet normal 0 -1 0
    outer loop
      vertex 27.25 -1 2.75
      vertex 26.591 -1 1.15901
      vertex 31 -1 -1.5
    endloop
  endfacet
  facet normal 1 0 0
    outer loop
      vertex 31 -1 7.5
      vertex 31 -1 -1.5
      vertex 31 8 -1.5
    endloop
  endfacet
  facet normal 1 0 0
    outer loop
      vertex 31 8 7.5
      vertex 31 -1 7.5
      vertex 31 8 -1.5
    endloop
  endfacet
  facet normal 0.923879 -8.49728e-17 -0.382684
    outer loop
      vertex 11.75 8 2.75
      vertex 12.409 8 4.34099
      vertex 12.409 0.889206 4.34099
    endloop
  endfacet
  facet normal 0.923879 -8.49728e-17 -0.382684
    outer loop
      vertex 12.0243 0.809017 3.41222
      vertex 11.75 8 2.75
      vertex 12.2678 1 4
    endloop
  endfacet
  facet normal 0.923879 -8.49728e-17 -0.382684
    outer loop
      vertex 12.2678 1 4
      vertex 11.75 8 2.75
      vertex 12.409 0.889206 4.34099
    endloop
  endfacet
  facet normal 0.923879 -8.49728e-17 -0.382684
    outer loop
      vertex 11.8738 0.309017 3.04894
      vertex 11.75 8 2.75
      vertex 12.0243 0.809017 3.41222
    endloop
  endfacet
  facet normal 0.923879 -8.49728e-17 -0.382684
    outer loop
      vertex 11.8738 0 3.04894
      vertex 11.75 8 2.75
      vertex 11.8738 0.309017 3.04894
    endloop
  endfacet
  facet normal 0.923879 -8.49728e-17 -0.382684
    outer loop
      vertex 11.8333 0.309017 2.95106
      vertex 11.75 8 2.75
      vertex 11.8738 0 3.04894
    endloop
  endfacet
  facet normal 0.923879 -8.49728e-17 -0.382684
    outer loop
      vertex 11.8333 0 2.95106
      vertex 11.8333 0.309017 2.95106
      vertex 11.8738 0 3.04894
    endloop
  endfacet
  facet normal 0.923879 -8.49728e-17 -0.382684
    outer loop
      vertex 11.8333 0.309017 2.95106
      vertex 11.75 0.585748 2.75
      vertex 11.75 8 2.75
    endloop
  endfacet
  facet normal 0.923879 8.49728e-17 0.382684
    outer loop
      vertex 12.409 8 1.15901
      vertex 12.0607 1 2
      vertex 12.3041 0.809017 1.41222
    endloop
  endfacet
  facet normal 0.923879 8.49728e-17 0.382684
    outer loop
      vertex 11.8172 0.809017 2.58779
      vertex 12.0607 1 2
      vertex 12.409 8 1.15901
    endloop
  endfacet
  facet normal 0.923879 8.49728e-17 0.382684
    outer loop
      vertex 12.409 0.460511 1.15901
      vertex 12.409 8 1.15901
      vertex 12.3041 0.809017 1.41222
    endloop
  endfacet
  facet normal 0.923879 8.49728e-17 0.382684
    outer loop
      vertex 12.409 8 1.15901
      vertex 11.75 8 2.75
      vertex 11.8172 0.809017 2.58779
    endloop
  endfacet
  facet normal 0.923879 8.49728e-17 0.382684
    outer loop
      vertex 11.75 8 2.75
      vertex 11.75 0.585748 2.75
      vertex 11.8172 0.809017 2.58779
    endloop
  endfacet
  facet normal 0.382684 -2.05142e-16 -0.923879
    outer loop
      vertex 14 8 5
      vertex 14 0 5
      vertex 12.409 8 4.34099
    endloop
  endfacet
  facet normal 0.382684 -2.05142e-16 -0.923879
    outer loop
      vertex 13.8818 0.309017 4.95106
      vertex 14 0 5
      vertex 13.8818 0 4.95106
    endloop
  endfacet
  facet normal 0.382684 -2.05142e-16 -0.923879
    outer loop
      vertex 12.409 8 4.34099
      vertex 14 0 5
      vertex 13.8818 0.309017 4.95106
    endloop
  endfacet
  facet normal 0.382684 -2.05142e-16 -0.923879
    outer loop
      vertex 12.409 8 4.34099
      vertex 13.0048 0.809017 4.58779
      vertex 12.409 0.889206 4.34099
    endloop
  endfacet
  facet normal 0.382684 -2.05142e-16 -0.923879
    outer loop
      vertex 13.0048 0.809017 4.58779
      vertex 12.409 8 4.34099
      vertex 13.8818 0.309017 4.95106
    endloop
  endfacet
  facet normal -0.382684 -2.05142e-16 -0.923879
    outer loop
      vertex 15.591 8 4.34099
      vertex 15.591 0.889206 4.34099
      vertex 14 8 5
    endloop
  endfacet
  facet normal -0.382684 -2.05142e-16 -0.923879
    outer loop
      vertex 14 8 5
      vertex 15.591 0.889206 4.34099
      vertex 14.9952 0.809017 4.58779
    endloop
  endfacet
  facet normal -0.382684 -2.05142e-16 -0.923879
    outer loop
      vertex 14 8 5
      vertex 14.9952 0.809017 4.58779
      vertex 14.1182 0.309017 4.95106
    endloop
  endfacet
  facet normal -0.382684 -2.05142e-16 -0.923879
    outer loop
      vertex 14.1182 0.309017 4.95106
      vertex 14.1182 0 4.95106
      vertex 14 8 5
    endloop
  endfacet
  facet normal -0.382684 -2.05142e-16 -0.923879
    outer loop
      vertex 14 8 5
      vertex 14.1182 0 4.95106
      vertex 14 0 5
    endloop
  endfacet
  facet normal -0.923879 -8.49728e-17 -0.382684
    outer loop
      vertex 16.25 8 2.75
      vertex 16.25 0.585748 2.75
      vertex 15.591 8 4.34099
    endloop
  endfacet
  facet normal -0.923879 -8.49728e-17 -0.382684
    outer loop
      vertex 15.591 8 4.34099
      vertex 16.25 0.585748 2.75
      vertex 16.1667 0.309017 2.95106
    endloop
  endfacet
  facet normal -0.923879 -8.49728e-17 -0.382684
    outer loop
      vertex 15.591 8 4.34099
      vertex 16.1667 0.309017 2.95106
      vertex 16.1667 0 2.95106
    endloop
  endfacet
  facet normal -0.923879 -8.49728e-17 -0.382684
    outer loop
      vertex 16.1262 0.309017 3.04894
      vertex 16.1667 0 2.95106
      vertex 16.1262 0 3.04894
    endloop
  endfacet
  facet normal -0.923879 -8.49728e-17 -0.382684
    outer loop
      vertex 15.591 8 4.34099
      vertex 16.1667 0 2.95106
      vertex 16.1262 0.309017 3.04894
    endloop
  endfacet
  facet normal -0.923879 -8.49728e-17 -0.382684
    outer loop
      vertex 15.591 8 4.34099
      vertex 15.9757 0.809017 3.41222
      vertex 15.7322 1 4
    endloop
  endfacet
  facet normal -0.923879 -8.49728e-17 -0.382684
    outer loop
      vertex 15.7322 1 4
      vertex 15.591 0.889206 4.34099
      vertex 15.591 8 4.34099
    endloop
  endfacet
  facet normal -0.923879 -8.49728e-17 -0.382684
    outer loop
      vertex 15.9757 0.809017 3.41222
      vertex 15.591 8 4.34099
      vertex 16.1262 0.309017 3.04894
    endloop
  endfacet
  facet normal -0.923879 8.49728e-17 0.382684
    outer loop
      vertex 16.25 8 2.75
      vertex 16.1828 0.809017 2.58779
      vertex 16.25 0.585748 2.75
    endloop
  endfacet
  facet normal -0.923879 8.49728e-17 0.382684
    outer loop
      vertex 15.9393 1 2
      vertex 16.1828 0.809017 2.58779
      vertex 16.25 8 2.75
    endloop
  endfacet
  facet normal -0.923879 8.49728e-17 0.382684
    outer loop
      vertex 15.9393 1 2
      vertex 16.25 8 2.75
      vertex 15.6959 0.809017 1.41222
    endloop
  endfacet
  facet normal -0.923879 8.49728e-17 0.382684
    outer loop
      vertex 16.25 8 2.75
      vertex 15.591 8 1.15901
      vertex 15.6959 0.809017 1.41222
    endloop
  endfacet
  facet normal -0.923879 8.49728e-17 0.382684
    outer loop
      vertex 15.591 8 1.15901
      vertex 15.591 0.460511 1.15901
      vertex 15.6959 0.809017 1.41222
    endloop
  endfacet
  facet normal -0.382684 2.05142e-16 0.923879
    outer loop
      vertex 15.3253 0 1.04894
      vertex 15.0889 0.309017 0.951057
      vertex 15.0889 0 0.951057
    endloop
  endfacet
  facet normal -0.382684 2.05142e-16 0.923879
    outer loop
      vertex 15.3253 0.309017 1.04894
      vertex 15.0889 0.309017 0.951057
      vertex 15.3253 0 1.04894
    endloop
  endfacet
  facet normal -0.382684 2.05142e-16 0.923879
    outer loop
      vertex 14.2119 0.809017 0.587785
      vertex 15.0889 0.309017 0.951057
      vertex 15.3253 0.309017 1.04894
    endloop
  endfacet
  facet normal -0.382684 2.05142e-16 0.923879
    outer loop
      vertex 15.591 0.460511 1.15901
      vertex 14.2119 0.809017 0.587785
      vertex 15.3253 0.309017 1.04894
    endloop
  endfacet
  facet normal -0.382684 2.05142e-16 0.923879
    outer loop
      vertex 15.591 8 1.15901
      vertex 14.2119 0.809017 0.587785
      vertex 15.591 0.460511 1.15901
    endloop
  endfacet
  facet normal -0.382684 2.05142e-16 0.923879
    outer loop
      vertex 14 8 0.5
      vertex 14.2119 0.809017 0.587785
      vertex 15.591 8 1.15901
    endloop
  endfacet
  facet normal -0.382684 2.05142e-16 0.923879
    outer loop
      vertex 14 0.83754 0.5
      vertex 14.2119 0.809017 0.587785
      vertex 14 8 0.5
    endloop
  endfacet
  facet normal 0.382684 2.05142e-16 0.923879
    outer loop
      vertex 12.6747 0.309017 1.04894
      vertex 12.6747 0 1.04894
      vertex 12.9111 0 0.951057
    endloop
  endfacet
  facet normal 0.382684 2.05142e-16 0.923879
    outer loop
      vertex 13.7881 0.809017 0.587785
      vertex 12.6747 0.309017 1.04894
      vertex 12.9111 0.309017 0.951057
    endloop
  endfacet
  facet normal 0.382684 2.05142e-16 0.923879
    outer loop
      vertex 12.9111 0.309017 0.951057
      vertex 12.6747 0.309017 1.04894
      vertex 12.9111 0 0.951057
    endloop
  endfacet
  facet normal 0.382684 2.05142e-16 0.923879
    outer loop
      vertex 14 8 0.5
      vertex 12.6747 0.309017 1.04894
      vertex 13.7881 0.809017 0.587785
    endloop
  endfacet
  facet normal 0.382684 2.05142e-16 0.923879
    outer loop
      vertex 14 8 0.5
      vertex 13.7881 0.809017 0.587785
      vertex 14 0.83754 0.5
    endloop
  endfacet
  facet normal 0.382684 2.05142e-16 0.923879
    outer loop
      vertex 12.409 8 1.15901
      vertex 12.6747 0.309017 1.04894
      vertex 14 8 0.5
    endloop
  endfacet
  facet normal 0.382684 2.05142e-16 0.923879
    outer loop
      vertex 12.409 0.460511 1.15901
      vertex 12.6747 0.309017 1.04894
      vertex 12.409 8 1.15901
    endloop
  endfacet
  facet normal 0.923879 -8.49728e-17 -0.382684
    outer loop
      vertex 22.75 8 2.75
      vertex 23.409 8 4.34099
      vertex 23.409 -1 4.34099
    endloop
  endfacet
  facet normal 0.923879 -8.49728e-17 -0.382684
    outer loop
      vertex 22.75 -1 2.75
      vertex 22.75 8 2.75
      vertex 23.409 -1 4.34099
    endloop
  endfacet
  facet normal 0.923879 8.49728e-17 0.382684
    outer loop
      vertex 23.409 -1 1.15901
      vertex 23.409 8 1.15901
      vertex 22.75 8 2.75
    endloop
  endfacet
  facet normal 0.923879 8.49728e-17 0.382684
    outer loop
      vertex 22.75 -1 2.75
      vertex 23.409 -1 1.15901
      vertex 22.75 8 2.75
    endloop
  endfacet
  facet normal 0.382684 -2.05142e-16 -0.923879
    outer loop
      vertex 25 8 5
      vertex 25 -1 5
      vertex 23.409 8 4.34099
    endloop
  endfacet
  facet normal 0.382684 -2.05142e-16 -0.923879
    outer loop
      vertex 23.409 8 4.34099
      vertex 25 -1 5
      vertex 23.409 -1 4.34099
    endloop
  endfacet
  facet normal -0.382684 -2.05142e-16 -0.923879
    outer loop
      vertex 26.591 8 4.34099
      vertex 26.591 -1 4.34099
      vertex 25 8 5
    endloop
  endfacet
  facet normal -0.382684 -2.05142e-16 -0.923879
    outer loop
      vertex 25 8 5
      vertex 26.591 -1 4.34099
      vertex 25 -1 5
    endloop
  endfacet
  facet normal -0.923879 -8.49728e-17 -0.382684
    outer loop
      vertex 27.25 8 2.75
      vertex 27.25 -1 2.75
      vertex 26.591 8 4.34099
    endloop
  endfacet
  facet normal -0.923879 -8.49728e-17 -0.382684
    outer loop
      vertex 26.591 8 4.34099
      vertex 27.25 -1 2.75
      vertex 26.591 -1 4.34099
    endloop
  endfacet
  facet normal -0.923879 8.49728e-17 0.382684
    outer loop
      vertex 27.25 8 2.75
      vertex 26.591 8 1.15901
      vertex 27.25 -1 2.75
    endloop
  endfacet
  facet normal -0.923879 8.49728e-17 0.382684
    outer loop
      vertex 27.25 -1 2.75
      vertex 26.591 8 1.15901
      vertex 26.591 -1 1.15901
    endloop
  endfacet
  facet normal -0.382684 2.05142e-16 0.923879
    outer loop
      vertex 26.591 -1 1.15901
      vertex 26.591 8 1.15901
      vertex 25 8 0.5
    endloop
  endfacet
  facet normal -0.382684 2.05142e-16 0.923879
    outer loop
      vertex 25 -1 0.5
      vertex 26.591 -1 1.15901
      vertex 25 8 0.5
    endloop
  endfacet
  facet normal 0.382684 2.05142e-16 0.923879
    outer loop
      vertex 25 -1 0.5
      vertex 25 8 0.5
      vertex 23.409 8 1.15901
    endloop
  endfacet
  facet normal 0.382684 2.05142e-16 0.923879
    outer loop
      vertex 23.409 -1 1.15901
      vertex 25 -1 0.5
      vertex 23.409 8 1.15901
    endloop
  endfacet
  facet normal -1 1.97596e-16 -1.5702e-16
    outer loop
      vertex 20 0.809017 6.58779
      vertex 20 1 6
      vertex 20 0.309017 6.95106
    endloop
  endfacet
  facet normal -1 1.97596e-16 -1.5702e-16
    outer loop
      vertex 20 0.309017 6.95106
      vertex 20 1 6
      vertex 20 0.809017 5.41222
    endloop
  endfacet
  facet normal -1 1.97596e-16 -1.5702e-16
    outer loop
      vertex 20 0.309017 6.95106
      vertex 20 0.809017 5.41222
      vertex 20 0.309017 5.04894
    endloop
  endfacet
  facet normal -1 1.97596e-16 -1.5702e-16
    outer loop
      vertex 20 0.309017 6.95106
      vertex 20 0.309017 5.04894
      vertex 20 0 5.04894
    endloop
  endfacet
  facet normal -1 1.97596e-16 -1.5702e-16
    outer loop
      vertex 20 0.309017 6.95106
      vertex 20 0 5.04894
      vertex 20 0 6.95106
    endloop
  endfacet
  facet normal -1 1.97596e-16 -1.5702e-16
    outer loop
      vertex 20 0.809017 0.587785
      vertex 20 1 3.52615e-15
      vertex 20 0.309017 0.951057
    endloop
  endfacet
  facet normal -1 1.97596e-16 -1.5702e-16
    outer loop
      vertex 20 0.309017 0.951057
      vertex 20 1 3.52615e-15
      vertex 20 0.809017 -0.587785
    endloop
  endfacet
  facet normal -1 1.97596e-16 -1.5702e-16
    outer loop
      vertex 20 0.309017 0.951057
      vertex 20 0.809017 -0.587785
      vertex 20 0.309017 -0.951057
    endloop
  endfacet
  facet normal -1 1.97596e-16 -1.5702e-16
    outer loop
      vertex 20 0 8.82725e-15
      vertex 20 0.309017 -0.951057
      vertex 20 -0.309017 -0.951057
    endloop
  endfacet
  facet normal -1 1.97596e-16 -1.5702e-16
    outer loop
      vertex 20 0.309017 0.951057
      vertex 20 0.309017 -0.951057
      vertex 20 0 8.82725e-15
    endloop
  endfacet
  facet normal -1 1.97596e-16 -1.5702e-16
    outer loop
      vertex 20 0 0.951057
      vertex 20 0.309017 0.951057
      vertex 20 0 8.82725e-15
    endloop
  endfacet
  facet normal -1 1.97596e-16 -1.5702e-16
    outer loop
      vertex 20 0 8.82725e-15
      vertex 20 -0.309017 -0.951057
      vertex 20 -0.59224 -0.745283
    endloop
  endfacet
  facet normal 1.77321e-16 -2.02746e-17 -1
    outer loop
      vertex 20 0.309017 0.951057
      vertex 20 0 0.951057
      vertex 15.0889 0.309017 0.951057
    endloop
  endfacet
  facet normal 1.77321e-16 -2.02746e-17 -1
    outer loop
      vertex 15.0889 0.309017 0.951057
      vertex 20 0 0.951057
      vertex 15.0889 0 0.951057
    endloop
  endfacet
  facet normal -1.77321e-16 2.02746e-17 1
    outer loop
      vertex 20 0 1.04894
      vertex 20 0.309017 1.04894
      vertex 15.3253 0.309017 1.04894
    endloop
  endfacet
  facet normal -1.77321e-16 2.02746e-17 1
    outer loop
      vertex 15.3253 0 1.04894
      vertex 20 0 1.04894
      vertex 15.3253 0.309017 1.04894
    endloop
  endfacet
  facet normal -1 1.97596e-16 -1.5702e-16
    outer loop
      vertex 20 0.809017 2.58779
      vertex 20 1 2
      vertex 20 0.309017 2.95106
    endloop
  endfacet
  facet normal -1 1.97596e-16 -1.5702e-16
    outer loop
      vertex 20 0.309017 2.95106
      vertex 20 1 2
      vertex 20 0.809017 1.41222
    endloop
  endfacet
  facet normal -1 1.97596e-16 -1.5702e-16
    outer loop
      vertex 20 0.309017 2.95106
      vertex 20 0.809017 1.41222
      vertex 20 0.309017 1.04894
    endloop
  endfacet
  facet normal -1 1.97596e-16 -1.5702e-16
    outer loop
      vertex 20 0.309017 2.95106
      vertex 20 0.309017 1.04894
      vertex 20 0 1.04894
    endloop
  endfacet
  facet normal -1 1.97596e-16 -1.5702e-16
    outer loop
      vertex 20 0.309017 2.95106
      vertex 20 0 1.04894
      vertex 20 0 2.95106
    endloop
  endfacet
  facet normal 1.77321e-16 -2.02746e-17 -1
    outer loop
      vertex 20 0 2.95106
      vertex 16.1667 0 2.95106
      vertex 20 0.309017 2.95106
    endloop
  endfacet
  facet normal 1.77321e-16 -2.02746e-17 -1
    outer loop
      vertex 20 0.309017 2.95106
      vertex 16.1667 0 2.95106
      vertex 16.1667 0.309017 2.95106
    endloop
  endfacet
  facet normal -1.77321e-16 2.02746e-17 1
    outer loop
      vertex 16.1262 0 3.04894
      vertex 20 0 3.04894
      vertex 20 0.309017 3.04894
    endloop
  endfacet
  facet normal -1.77321e-16 2.02746e-17 1
    outer loop
      vertex 16.1262 0.309017 3.04894
      vertex 16.1262 0 3.04894
      vertex 20 0.309017 3.04894
    endloop
  endfacet
  facet normal -1 1.97596e-16 -1.5702e-16
    outer loop
      vertex 20 0.809017 4.58779
      vertex 20 1 4
      vertex 20 0.309017 4.95106
    endloop
  endfacet
  facet normal -1 1.97596e-16 -1.5702e-16
    outer loop
      vertex 20 0.309017 4.95106
      vertex 20 1 4
      vertex 20 0.809017 3.41222
    endloop
  endfacet
  facet normal -1 1.97596e-16 -1.5702e-16
    outer loop
      vertex 20 0.309017 4.95106
      vertex 20 0.809017 3.41222
      vertex 20 0.309017 3.04894
    endloop
  endfacet
  facet normal -1 1.97596e-16 -1.5702e-16
    outer loop
      vertex 20 0.309017 4.95106
      vertex 20 0.309017 3.04894
      vertex 20 0 3.04894
    endloop
  endfacet
  facet normal -1 1.97596e-16 -1.5702e-16
    outer loop
      vertex 20 0.309017 4.95106
      vertex 20 0 3.04894
      vertex 20 0 4.95106
    endloop
  endfacet
  facet normal 1.77321e-16 -2.02746e-17 -1
    outer loop
      vertex 20 0 4.95106
      vertex 14.1182 0 4.95106
      vertex 20 0.309017 4.95106
    endloop
  endfacet
  facet normal 1.77321e-16 -2.02746e-17 -1
    outer loop
      vertex 20 0.309017 4.95106
      vertex 14.1182 0 4.95106
      vertex 14.1182 0.309017 4.95106
    endloop
  endfacet
  facet normal 2.01264e-17 -0.587786 -0.809016
    outer loop
      vertex 20 0.309017 0.951057
      vertex 15.0889 0.309017 0.951057
      vertex 20 0.809017 0.587785
    endloop
  endfacet
  facet normal 2.01264e-17 -0.587786 -0.809016
    outer loop
      vertex 20 0.809017 0.587785
      vertex 15.0889 0.309017 0.951057
      vertex 14.2119 0.809017 0.587785
    endloop
  endfacet
  facet normal 2.01264e-17 -0.587786 -0.809016
    outer loop
      vertex 20 0.809017 4.58779
      vertex 20 0.309017 4.95106
      vertex 14.9952 0.809017 4.58779
    endloop
  endfacet
  facet normal 2.01264e-17 -0.587786 -0.809016
    outer loop
      vertex 14.9952 0.809017 4.58779
      vertex 20 0.309017 4.95106
      vertex 14.1182 0.309017 4.95106
    endloop
  endfacet
  facet normal -1.44756e-16 -0.951056 -0.309017
    outer loop
      vertex 15.591 0.889206 4.34099
      vertex 15.7322 1 4
      vertex 20 1 4
    endloop
  endfacet
  facet normal -1.44756e-16 -0.951056 -0.309017
    outer loop
      vertex 14.9952 0.809017 4.58779
      vertex 15.591 0.889206 4.34099
      vertex 20 0.809017 4.58779
    endloop
  endfacet
  facet normal -1.44756e-16 -0.951056 -0.309017
    outer loop
      vertex 20 0.809017 4.58779
      vertex 15.591 0.889206 4.34099
      vertex 20 1 4
    endloop
  endfacet
  facet normal -2.54346e-16 -0.951056 0.309017
    outer loop
      vertex 15.9757 0.809017 3.41222
      vertex 20 0.809017 3.41222
      vertex 20 1 4
    endloop
  endfacet
  facet normal -2.54346e-16 -0.951056 0.309017
    outer loop
      vertex 15.7322 1 4
      vertex 15.9757 0.809017 3.41222
      vertex 20 1 4
    endloop
  endfacet
  facet normal -2.66785e-16 -0.587786 0.809016
    outer loop
      vertex 16.1262 0.309017 3.04894
      vertex 20 0.309017 3.04894
      vertex 20 0.809017 3.41222
    endloop
  endfacet
  facet normal -2.66785e-16 -0.587786 0.809016
    outer loop
      vertex 15.9757 0.809017 3.41222
      vertex 16.1262 0.309017 3.04894
      vertex 20 0.809017 3.41222
    endloop
  endfacet
  facet normal 2.01264e-17 -0.587786 -0.809016
    outer loop
      vertex 16.1828 0.809017 2.58779
      vertex 20 0.809017 2.58779
      vertex 16.25 0.585748 2.75
    endloop
  endfacet
  facet normal 2.01264e-17 -0.587786 -0.809016
    outer loop
      vertex 16.25 0.585748 2.75
      vertex 20 0.809017 2.58779
      vertex 20 0.309017 2.95106
    endloop
  endfacet
  facet normal 2.01264e-17 -0.587786 -0.809016
    outer loop
      vertex 16.25 0.585748 2.75
      vertex 20 0.309017 2.95106
      vertex 16.1667 0.309017 2.95106
    endloop
  endfacet
  facet normal -2.66785e-16 -0.587786 0.809016
    outer loop
      vertex 20 0.309017 1.04894
      vertex 20 0.809017 1.41222
      vertex 15.6959 0.809017 1.41222
    endloop
  endfacet
  facet normal -2.66785e-16 -0.587786 0.809016
    outer loop
      vertex 15.3253 0.309017 1.04894
      vertex 20 0.309017 1.04894
      vertex 15.591 0.460511 1.15901
    endloop
  endfacet
  facet normal -2.66785e-16 -0.587786 0.809016
    outer loop
      vertex 15.591 0.460511 1.15901
      vertex 20 0.309017 1.04894
      vertex 15.6959 0.809017 1.41222
    endloop
  endfacet
  facet normal -2.54346e-16 -0.951056 0.309017
    outer loop
      vertex 20 0.809017 1.41222
      vertex 20 1 2
      vertex 15.9393 1 2
    endloop
  endfacet
  facet normal -2.54346e-16 -0.951056 0.309017
    outer loop
      vertex 15.6959 0.809017 1.41222
      vertex 20 0.809017 1.41222
      vertex 15.9393 1 2
    endloop
  endfacet
  facet normal -1.44756e-16 -0.951056 -0.309017
    outer loop
      vertex 20 1 2
      vertex 20 0.809017 2.58779
      vertex 16.1828 0.809017 2.58779
    endloop
  endfacet
  facet normal -1.44756e-16 -0.951056 -0.309017
    outer loop
      vertex 15.9393 1 2
      vertex 20 1 2
      vertex 16.1828 0.809017 2.58779
    endloop
  endfacet
endsolid OpenSCAD_Model
