solid OpenSCAD_Model
  facet normal 0 0 -1
    outer loop
      vertex -8.94724 -0.973071 -1
      vertex -8.94724 0.973071 -1
      vertex -8.52888 -2.87371 -1
    endloop
  endfacet
  facet normal 0 0 -1
    outer loop
      vertex -8.52888 -2.87371 -1
      vertex -8.94724 0.973071 -1
      vertex -8.52888 2.87371 -1
    endloop
  endfacet
  facet normal 0 0 -1
    outer loop
      vertex -8.52888 -2.87371 -1
      vertex -8.52888 2.87371 -1
      vertex -7.71171 4.63998 -1
    endloop
  endfacet
  facet normal 0 0 -1
    outer loop
      vertex -8.52888 -2.87371 -1
      vertex -7.71171 4.63998 -1
      vertex -6.53396 6.18929 -1
    endloop
  endfacet
  facet normal 0 0 -1
    outer loop
      vertex -8.52888 -2.87371 -1
      vertex -6.53396 6.18929 -1
      vertex -5.05068 7.4492 -1
    endloop
  endfacet
  facet normal 0 0 -1
    outer loop
      vertex -8.52888 -2.87371 -1
      vertex -5.05068 7.4492 -1
      vertex -3.33124 8.36079 -1
    endloop
  endfacet
  facet normal 0 0 -1
    outer loop
      vertex -8.52888 -2.87371 -1
      vertex -3.33124 8.36079 -1
      vertex -1.45604 8.88144 -1
    endloop
  endfacet
  facet normal 0 0 -1
    outer loop
      vertex -8.52888 -2.87371 -1
      vertex -1.45604 8.88144 -1
      vertex 0.48725 8.9868 -1
    endloop
  endfacet
  facet normal 0 0 -1
    outer loop
      vertex -8.52888 -2.87371 -1
      vertex 0.48725 8.9868 -1
      vertex 2.40775 8.67195 -1
    endloop
  endfacet
  facet normal 0 0 -1
    outer loop
      vertex -8.52888 -2.87371 -1
      vertex 2.40775 8.67195 -1
      vertex 4.21568 7.95161 -1
    endloop
  endfacet
  facet normal 0 0 -1
    outer loop
      vertex -1.76777 1.76777 -1
      vertex 4.21568 7.95161 -1
      vertex 5.82648 6.85946 -1
    endloop
  endfacet
  facet normal 0 0 -1
    outer loop
      vertex 0 2.5 -1
      vertex 5.82648 6.85946 -1
      vertex 7.16484 5.44657 -1
    endloop
  endfacet
  facet normal 0 0 -1
    outer loop
      vertex 1.76777 1.76777 -1
      vertex 7.16484 5.44657 -1
      vertex 8.16818 3.779 -1
    endloop
  endfacet
  facet normal 0 0 -1
    outer loop
      vertex 2.5 0 -1
      vertex 8.78958 1.93473 -1
      vertex 9 0 -1
    endloop
  endfacet
  facet normal 0 0 -1
    outer loop
      vertex 1.76777 -1.76777 -1
      vertex 9 0 -1
      vertex 8.78958 -1.93473 -1
    endloop
  endfacet
  facet normal 0 0 -1
    outer loop
      vertex 0 -2.5 -1
      vertex 8.78958 -1.93473 -1
      vertex 8.16818 -3.779 -1
    endloop
  endfacet
  facet normal 0 0 -1
    outer loop
      vertex -8.52888 -2.87371 -1
      vertex 8.16818 -3.779 -1
      vertex 7.16484 -5.44657 -1
    endloop
  endfacet
  facet normal 0 0 -1
    outer loop
      vertex -8.52888 -2.87371 -1
      vertex 7.16484 -5.44657 -1
      vertex 5.82648 -6.85946 -1
    endloop
  endfacet
  facet normal 0 0 -1
    outer loop
      vertex -8.52888 -2.87371 -1
      vertex 5.82648 -6.85946 -1
      vertex 4.21568 -7.95161 -1
    endloop
  endfacet
  facet normal 0 0 -1
    outer loop
      vertex -8.52888 -2.87371 -1
      vertex 4.21568 -7.95161 -1
      vertex 2.40775 -8.67195 -1
    endloop
  endfacet
  facet normal 0 0 -1
    outer loop
      vertex -8.52888 -2.87371 -1
      vertex 2.40775 -8.67195 -1
      vertex 0.48725 -8.9868 -1
    endloop
  endfacet
  facet normal 0 0 -1
    outer loop
      vertex -8.52888 -2.87371 -1
      vertex 0.48725 -8.9868 -1
      vertex -1.45604 -8.88144 -1
    endloop
  endfacet
  facet normal 0 0 -1
    outer loop
      vertex -8.52888 -2.87371 -1
      vertex -1.45604 -8.88144 -1
      vertex -3.33124 -8.36079 -1
    endloop
  endfacet
  facet normal 0 0 -1
    outer loop
      vertex -8.52888 -2.87371 -1
      vertex -3.33124 -8.36079 -1
      vertex -5.05068 -7.4492 -1
    endloop
  endfacet
  facet normal 0 0 -1
    outer loop
      vertex -8.52888 -2.87371 -1
      vertex -5.05068 -7.4492 -1
      vertex -6.53396 -6.18929 -1
    endloop
  endfacet
  facet normal 0 0 -1
    outer loop
      vertex -8.52888 -2.87371 -1
      vertex -6.53396 -6.18929 -1
      vertex -7.71171 -4.63998 -1
    endloop
  endfacet
  facet normal 0 0 -1
    outer loop
      vertex -1.76777 -1.76777 -1
      vertex -8.52888 -2.87371 -1
      vertex -2.5 0 -1
    endloop
  endfacet
  facet normal 0 0 -1
    outer loop
      vertex 0 -2.5 -1
      vertex -8.52888 -2.87371 -1
      vertex -1.76777 -1.76777 -1
    endloop
  endfacet
  facet normal 0 0 -1
    outer loop
      vertex 1.76777 -1.76777 -1
      vertex 8.78958 -1.93473 -1
      vertex 0 -2.5 -1
    endloop
  endfacet
  facet normal 0 0 -1
    outer loop
      vertex -8.52888 -2.87371 -1
      vertex 0 -2.5 -1
      vertex 8.16818 -3.779 -1
    endloop
  endfacet
  facet normal 0 0 -1
    outer loop
      vertex 1.76777 1.76777 -1
      vertex 8.78958 1.93473 -1
      vertex 2.5 0 -1
    endloop
  endfacet
  facet normal 0 0 -1
    outer loop
      vertex 2.5 0 -1
      vertex 9 0 -1
      vertex 1.76777 -1.76777 -1
    endloop
  endfacet
  facet normal 0 0 -1
    outer loop
      vertex 0 2.5 -1
      vertex 7.16484 5.44657 -1
      vertex 1.76777 1.76777 -1
    endloop
  endfacet
  facet normal 0 0 -1
    outer loop
      vertex -8.52888 -2.87371 -1
      vertex 4.21568 7.95161 -1
      vertex -1.76777 1.76777 -1
    endloop
  endfacet
  facet normal 0 0 -1
    outer loop
      vertex 1.76777 1.76777 -1
      vertex 8.16818 3.779 -1
      vertex 8.78958 1.93473 -1
    endloop
  endfacet
  facet normal 0 0 -1
    outer loop
      vertex -2.5 0 -1
      vertex -8.52888 -2.87371 -1
      vertex -1.76777 1.76777 -1
    endloop
  endfacet
  facet normal 0 0 -1
    outer loop
      vertex -1.76777 1.76777 -1
      vertex 5.82648 6.85946 -1
      vertex 0 2.5 -1
    endloop
  endfacet
  facet normal -1 0 0
    outer loop
      vertex -8.94724 -0.973071 -1
      vertex -8.94724 -0.973071 1
      vertex -8.94724 0.973071 -1
    endloop
  endfacet
  facet normal -1 0 0
    outer loop
      vertex -8.94724 0.973071 -1
      vertex -8.94724 -0.973071 1
      vertex -8.94724 0.973071 1
    endloop
  endfacet
  facet normal -0.976621 -0.21497 0
    outer loop
      vertex -8.94724 -0.973071 -1
      vertex -8.52888 -2.87371 -1
      vertex -8.94724 -0.973071 1
    endloop
  endfacet
  facet normal -0.976621 -0.21497 0
    outer loop
      vertex -8.94724 -0.973071 1
      vertex -8.52888 -2.87371 -1
      vertex -8.52888 -2.87371 1
    endloop
  endfacet
  facet normal -0.907575 -0.419889 0
    outer loop
      vertex -8.52888 -2.87371 -1
      vertex -7.71171 -4.63998 -1
      vertex -8.52888 -2.87371 1
    endloop
  endfacet
  facet normal -0.907575 -0.419889 0
    outer loop
      vertex -8.52888 -2.87371 1
      vertex -7.71171 -4.63998 -1
      vertex -7.71171 -4.63998 1
    endloop
  endfacet
  facet normal -0.796093 -0.605175 0
    outer loop
      vertex -7.71171 -4.63998 -1
      vertex -6.53396 -6.18929 -1
      vertex -7.71171 -4.63998 1
    endloop
  endfacet
  facet normal -0.796093 -0.605175 0
    outer loop
      vertex -7.71171 -4.63998 1
      vertex -6.53396 -6.18929 -1
      vertex -6.53396 -6.18929 1
    endloop
  endfacet
  facet normal -0.647387 -0.762162 0
    outer loop
      vertex -6.53396 -6.18929 1
      vertex -6.53396 -6.18929 -1
      vertex -5.05068 -7.4492 -1
    endloop
  endfacet
  facet normal -0.647387 -0.762162 0
    outer loop
      vertex -5.05068 -7.4492 1
      vertex -6.53396 -6.18929 1
      vertex -5.05068 -7.4492 -1
    endloop
  endfacet
  facet normal -0.468408 -0.883512 0
    outer loop
      vertex -5.05068 -7.4492 1
      vertex -5.05068 -7.4492 -1
      vertex -3.33124 -8.36079 -1
    endloop
  endfacet
  facet normal -0.468408 -0.883512 0
    outer loop
      vertex -3.33124 -8.36079 1
      vertex -5.05068 -7.4492 1
      vertex -3.33124 -8.36079 -1
    endloop
  endfacet
  facet normal -0.267529 -0.96355 0
    outer loop
      vertex -3.33124 -8.36079 1
      vertex -3.33124 -8.36079 -1
      vertex -1.45604 -8.88144 -1
    endloop
  endfacet
  facet normal -0.267529 -0.96355 0
    outer loop
      vertex -1.45604 -8.88144 1
      vertex -3.33124 -8.36079 1
      vertex -1.45604 -8.88144 -1
    endloop
  endfacet
  facet normal -0.0541389 -0.998533 0
    outer loop
      vertex -1.45604 -8.88144 1
      vertex -1.45604 -8.88144 -1
      vertex 0.48725 -8.9868 -1
    endloop
  endfacet
  facet normal -0.0541389 -0.998533 0
    outer loop
      vertex 0.48725 -8.9868 1
      vertex -1.45604 -8.88144 1
      vertex 0.48725 -8.9868 -1
    endloop
  endfacet
  facet normal 0.161782 -0.986827 0
    outer loop
      vertex 0.48725 -8.9868 1
      vertex 0.48725 -8.9868 -1
      vertex 2.40775 -8.67195 -1
    endloop
  endfacet
  facet normal 0.161782 -0.986827 0
    outer loop
      vertex 2.40775 -8.67195 1
      vertex 0.48725 -8.9868 1
      vertex 2.40775 -8.67195 -1
    endloop
  endfacet
  facet normal 0.370138 -0.928977 0
    outer loop
      vertex 2.40775 -8.67195 1
      vertex 2.40775 -8.67195 -1
      vertex 4.21568 -7.95161 -1
    endloop
  endfacet
  facet normal 0.370138 -0.928977 0
    outer loop
      vertex 4.21568 -7.95161 1
      vertex 2.40775 -8.67195 1
      vertex 4.21568 -7.95161 -1
    endloop
  endfacet
  facet normal 0.561187 -0.827689 0
    outer loop
      vertex 4.21568 -7.95161 1
      vertex 4.21568 -7.95161 -1
      vertex 5.82648 -6.85946 -1
    endloop
  endfacet
  facet normal 0.561187 -0.827689 0
    outer loop
      vertex 5.82648 -6.85946 1
      vertex 4.21568 -7.95161 1
      vertex 5.82648 -6.85946 -1
    endloop
  endfacet
  facet normal 0.725995 -0.6877 0
    outer loop
      vertex 5.82648 -6.85946 1
      vertex 5.82648 -6.85946 -1
      vertex 7.16484 -5.44657 -1
    endloop
  endfacet
  facet normal 0.725995 -0.6877 0
    outer loop
      vertex 7.16484 -5.44657 1
      vertex 5.82648 -6.85946 1
      vertex 7.16484 -5.44657 -1
    endloop
  endfacet
  facet normal 0.856857 -0.515554 0
    outer loop
      vertex 7.16484 -5.44657 1
      vertex 7.16484 -5.44657 -1
      vertex 8.16818 -3.779 -1
    endloop
  endfacet
  facet normal 0.856857 -0.515554 0
    outer loop
      vertex 8.16818 -3.779 1
      vertex 7.16484 -5.44657 1
      vertex 8.16818 -3.779 -1
    endloop
  endfacet
  facet normal 0.947653 -0.319301 0
    outer loop
      vertex 8.16818 -3.779 1
      vertex 8.16818 -3.779 -1
      vertex 8.78958 -1.93473 -1
    endloop
  endfacet
  facet normal 0.947653 -0.319301 0
    outer loop
      vertex 8.78958 -1.93473 1
      vertex 8.16818 -3.779 1
      vertex 8.78958 -1.93473 -1
    endloop
  endfacet
  facet normal 0.994138 -0.108119 0
    outer loop
      vertex 8.78958 -1.93473 1
      vertex 8.78958 -1.93473 -1
      vertex 9 0 -1
    endloop
  endfacet
  facet normal 0.994138 -0.108119 0
    outer loop
      vertex 9 0 1
      vertex 8.78958 -1.93473 1
      vertex 9 0 -1
    endloop
  endfacet
  facet normal 0.994138 0.108119 0
    outer loop
      vertex 9 0 -1
      vertex 8.78958 1.93473 -1
      vertex 8.78958 1.93473 1
    endloop
  endfacet
  facet normal 0.994138 0.108119 0
    outer loop
      vertex 9 0 1
      vertex 9 0 -1
      vertex 8.78958 1.93473 1
    endloop
  endfacet
  facet normal 0.947653 0.319301 0
    outer loop
      vertex 8.78958 1.93473 -1
      vertex 8.16818 3.779 -1
      vertex 8.16818 3.779 1
    endloop
  endfacet
  facet normal 0.947653 0.319301 0
    outer loop
      vertex 8.78958 1.93473 1
      vertex 8.78958 1.93473 -1
      vertex 8.16818 3.779 1
    endloop
  endfacet
  facet normal 0.856857 0.515554 0
    outer loop
      vertex 8.16818 3.779 -1
      vertex 7.16484 5.44657 -1
      vertex 7.16484 5.44657 1
    endloop
  endfacet
  facet normal 0.856857 0.515554 0
    outer loop
      vertex 8.16818 3.779 1
      vertex 8.16818 3.779 -1
      vertex 7.16484 5.44657 1
    endloop
  endfacet
  facet normal 0.725995 0.6877 0
    outer loop
      vertex 7.16484 5.44657 -1
      vertex 5.82648 6.85946 -1
      vertex 5.82648 6.85946 1
    endloop
  endfacet
  facet normal 0.725995 0.6877 0
    outer loop
      vertex 7.16484 5.44657 1
      vertex 7.16484 5.44657 -1
      vertex 5.82648 6.85946 1
    endloop
  endfacet
  facet normal 0.561187 0.827689 0
    outer loop
      vertex 4.21568 7.95161 -1
      vertex 4.21568 7.95161 1
      vertex 5.82648 6.85946 -1
    endloop
  endfacet
  facet normal 0.561187 0.827689 0
    outer loop
      vertex 5.82648 6.85946 -1
      vertex 4.21568 7.95161 1
      vertex 5.82648 6.85946 1
    endloop
  endfacet
  facet normal 0.370138 0.928977 0
    outer loop
      vertex 2.40775 8.67195 -1
      vertex 2.40775 8.67195 1
      vertex 4.21568 7.95161 -1
    endloop
  endfacet
  facet normal 0.370138 0.928977 0
    outer loop
      vertex 4.21568 7.95161 -1
      vertex 2.40775 8.67195 1
      vertex 4.21568 7.95161 1
    endloop
  endfacet
  facet normal 0.161782 0.986827 0
    outer loop
      vertex 0.48725 8.9868 -1
      vertex 0.48725 8.9868 1
      vertex 2.40775 8.67195 -1
    endloop
  endfacet
  facet normal 0.161782 0.986827 0
    outer loop
      vertex 2.40775 8.67195 -1
      vertex 0.48725 8.9868 1
      vertex 2.40775 8.67195 1
    endloop
  endfacet
  facet normal -0.0541389 0.998533 0
    outer loop
      vertex -1.45604 8.88144 -1
      vertex -1.45604 8.88144 1
      vertex 0.48725 8.9868 -1
    endloop
  endfacet
  facet normal -0.0541389 0.998533 0
    outer loop
      vertex 0.48725 8.9868 -1
      vertex -1.45604 8.88144 1
      vertex 0.48725 8.9868 1
    endloop
  endfacet
  facet normal -0.267529 0.96355 0
    outer loop
      vertex -3.33124 8.36079 -1
      vertex -3.33124 8.36079 1
      vertex -1.45604 8.88144 -1
    endloop
  endfacet
  facet normal -0.267529 0.96355 0
    outer loop
      vertex -1.45604 8.88144 -1
      vertex -3.33124 8.36079 1
      vertex -1.45604 8.88144 1
    endloop
  endfacet
  facet normal -0.468408 0.883512 0
    outer loop
      vertex -5.05068 7.4492 -1
      vertex -5.05068 7.4492 1
      vertex -3.33124 8.36079 -1
    endloop
  endfacet
  facet normal -0.468408 0.883512 0
    outer loop
      vertex -3.33124 8.36079 -1
      vertex -5.05068 7.4492 1
      vertex -3.33124 8.36079 1
    endloop
  endfacet
  facet normal -0.647387 0.762162 0
    outer loop
      vertex -6.53396 6.18929 -1
      vertex -6.53396 6.18929 1
      vertex -5.05068 7.4492 -1
    endloop
  endfacet
  facet normal -0.647387 0.762162 0
    outer loop
      vertex -5.05068 7.4492 -1
      vertex -6.53396 6.18929 1
      vertex -5.05068 7.4492 1
    endloop
  endfacet
  facet normal -0.796093 0.605175 0
    outer loop
      vertex -7.71171 4.63998 -1
      vertex -7.71171 4.63998 1
      vertex -6.53396 6.18929 -1
    endloop
  endfacet
  facet normal -0.796093 0.605175 0
    outer loop
      vertex -6.53396 6.18929 -1
      vertex -7.71171 4.63998 1
      vertex -6.53396 6.18929 1
    endloop
  endfacet
  facet normal -0.907575 0.419889 0
    outer loop
      vertex -8.52888 2.87371 -1
      vertex -8.52888 2.87371 1
      vertex -7.71171 4.63998 -1
    endloop
  endfacet
  facet normal -0.907575 0.419889 0
    outer loop
      vertex -7.71171 4.63998 -1
      vertex -8.52888 2.87371 1
      vertex -7.71171 4.63998 1
    endloop
  endfacet
  facet normal -0.976621 0.21497 0
    outer loop
      vertex -8.94724 0.973071 -1
      vertex -8.94724 0.973071 1
      vertex -8.52888 2.87371 -1
    endloop
  endfacet
  facet normal -0.976621 0.21497 0
    outer loop
      vertex -8.52888 2.87371 -1
      vertex -8.94724 0.973071 1
      vertex -8.52888 2.87371 1
    endloop
  endfacet
  facet normal 0.92388 -0.382683 0
    outer loop
      vertex -1.76777 1.76777 -1
      vertex -1.76777 1.76777 2.5
      vertex -2.5 0 2.5
    endloop
  endfacet
  facet normal 0.92388 -0.382683 0
    outer loop
      vertex -2.5 0 -1
      vertex -1.76777 1.76777 -1
      vertex -2.5 0 2.5
    endloop
  endfacet
  facet normal 0.92388 0.382683 0
    outer loop
      vertex -2.5 0 2.5
      vertex -1.76777 -1.76777 2.5
      vertex -1.76777 -1.76777 -1
    endloop
  endfacet
  facet normal 0.92388 0.382683 0
    outer loop
      vertex -2.5 0 -1
      vertex -2.5 0 2.5
      vertex -1.76777 -1.76777 -1
    endloop
  endfacet
  facet normal 0.382683 -0.92388 0
    outer loop
      vertex 0 2.5 -1
      vertex 0 2.5 2.5
      vertex -1.76777 1.76777 2.5
    endloop
  endfacet
  facet normal 0.382683 -0.92388 0
    outer loop
      vertex -1.76777 1.76777 -1
      vertex 0 2.5 -1
      vertex -1.76777 1.76777 2.5
    endloop
  endfacet
  facet normal -0.382683 -0.92388 0
    outer loop
      vertex 1.76777 1.76777 -1
      vertex 1.76777 1.76777 2.5
      vertex 0 2.5 2.5
    endloop
  endfacet
  facet normal -0.382683 -0.92388 0
    outer loop
      vertex 0 2.5 -1
      vertex 1.76777 1.76777 -1
      vertex 0 2.5 2.5
    endloop
  endfacet
  facet normal -0.92388 -0.382683 0
    outer loop
      vertex 2.5 0 2.5
      vertex 1.76777 1.76777 2.5
      vertex 2.5 0 -1
    endloop
  endfacet
  facet normal -0.92388 -0.382683 0
    outer loop
      vertex 2.5 0 -1
      vertex 1.76777 1.76777 2.5
      vertex 1.76777 1.76777 -1
    endloop
  endfacet
  facet normal -0.92388 0.382683 0
    outer loop
      vertex 2.5 0 2.5
      vertex 2.5 0 -1
      vertex 1.76777 -1.76777 2.5
    endloop
  endfacet
  facet normal -0.92388 0.382683 0
    outer loop
      vertex 1.76777 -1.76777 2.5
      vertex 2.5 0 -1
      vertex 1.76777 -1.76777 -1
    endloop
  endfacet
  facet normal -0.382683 0.92388 0
    outer loop
      vertex 1.76777 -1.76777 2.5
      vertex 1.76777 -1.76777 -1
      vertex 0 -2.5 2.5
    endloop
  endfacet
  facet normal -0.382683 0.92388 0
    outer loop
      vertex 0 -2.5 2.5
      vertex 1.76777 -1.76777 -1
      vertex 0 -2.5 -1
    endloop
  endfacet
  facet normal 0.382683 0.92388 0
    outer loop
      vertex 0 -2.5 2.5
      vertex 0 -2.5 -1
      vertex -1.76777 -1.76777 2.5
    endloop
  endfacet
  facet normal 0.382683 0.92388 0
    outer loop
      vertex -1.76777 -1.76777 2.5
      vertex 0 -2.5 -1
      vertex -1.76777 -1.76777 -1
    endloop
  endfacet
  facet normal 0 0 1
    outer loop
      vertex -8.94724 0.973071 1
      vertex -8.94724 -0.973071 1
      vertex -8.52888 -2.87371 1
    endloop
  endfacet
  facet normal 0 0 1
    outer loop
      vertex -6.53396 -6.18929 1
      vertex -8.94724 0.973071 1
      vertex -7.71171 -4.63998 1
    endloop
  endfacet
  facet normal 0 0 1
    outer loop
      vertex -7.71171 -4.63998 1
      vertex -8.94724 0.973071 1
      vertex -8.52888 -2.87371 1
    endloop
  endfacet
  facet normal 0 0 1
    outer loop
      vertex -5.05068 -7.4492 1
      vertex -8.94724 0.973071 1
      vertex -6.53396 -6.18929 1
    endloop
  endfacet
  facet normal 0 0 1
    outer loop
      vertex -3.33124 -8.36079 1
      vertex -8.94724 0.973071 1
      vertex -5.05068 -7.4492 1
    endloop
  endfacet
  facet normal 0 0 1
    outer loop
      vertex -1.45604 -8.88144 1
      vertex -8.94724 0.973071 1
      vertex -3.33124 -8.36079 1
    endloop
  endfacet
  facet normal 0 0 1
    outer loop
      vertex 0.48725 -8.9868 1
      vertex -8.94724 0.973071 1
      vertex -1.45604 -8.88144 1
    endloop
  endfacet
  facet normal 0 0 1
    outer loop
      vertex 2.40775 -8.67195 1
      vertex -8.94724 0.973071 1
      vertex 0.48725 -8.9868 1
    endloop
  endfacet
  facet normal 0 0 1
    outer loop
      vertex 4.21568 -7.95161 1
      vertex -8.94724 0.973071 1
      vertex 2.40775 -8.67195 1
    endloop
  endfacet
  facet normal 0 0 1
    outer loop
      vertex -1.41842 -3.74006 1
      vertex -8.94724 0.973071 1
      vertex 4.21568 -7.95161 1
    endloop
  endfacet
  facet normal 0 0 1
    outer loop
      vertex 3.54182 1.85889 1
      vertex 4 0 1
      vertex 9 0 1
    endloop
  endfacet
  facet normal 0 0 1
    outer loop
      vertex 4.21568 7.95161 1
      vertex -8.94724 0.973071 1
      vertex 5.82648 6.85946 1
    endloop
  endfacet
  facet normal 0 0 1
    outer loop
      vertex 2.40775 8.67195 1
      vertex -8.94724 0.973071 1
      vertex 4.21568 7.95161 1
    endloop
  endfacet
  facet normal 0 0 1
    outer loop
      vertex 0.48725 8.9868 1
      vertex -8.94724 0.973071 1
      vertex 2.40775 8.67195 1
    endloop
  endfacet
  facet normal 0 0 1
    outer loop
      vertex -1.45604 8.88144 1
      vertex -8.94724 0.973071 1
      vertex 0.48725 8.9868 1
    endloop
  endfacet
  facet normal 0 0 1
    outer loop
      vertex -3.33124 8.36079 1
      vertex -8.94724 0.973071 1
      vertex -1.45604 8.88144 1
    endloop
  endfacet
  facet normal 0 0 1
    outer loop
      vertex -5.05068 7.4492 1
      vertex -8.94724 0.973071 1
      vertex -3.33124 8.36079 1
    endloop
  endfacet
  facet normal 0 0 1
    outer loop
      vertex -6.53396 6.18929 1
      vertex -8.94724 0.973071 1
      vertex -5.05068 7.4492 1
    endloop
  endfacet
  facet normal 0 0 1
    outer loop
      vertex -7.71171 4.63998 1
      vertex -8.94724 0.973071 1
      vertex -6.53396 6.18929 1
    endloop
  endfacet
  facet normal 0 0 1
    outer loop
      vertex -8.52888 2.87371 1
      vertex -8.94724 0.973071 1
      vertex -7.71171 4.63998 1
    endloop
  endfacet
  facet normal 0 0 1
    outer loop
      vertex 0.482147 -3.97083 1
      vertex -1.41842 -3.74006 1
      vertex 5.82648 -6.85946 1
    endloop
  endfacet
  facet normal 0 0 1
    outer loop
      vertex -3.88377 0.957263 1
      vertex -2.99404 2.65249 1
      vertex -8.94724 0.973071 1
    endloop
  endfacet
  facet normal 0 0 1
    outer loop
      vertex 4 0 1
      vertex 3.54182 -1.85889 1
      vertex 8.78958 -1.93473 1
    endloop
  endfacet
  facet normal 0 0 1
    outer loop
      vertex 2.27226 3.29194 1
      vertex 3.54182 1.85889 1
      vertex 8.16818 3.779 1
    endloop
  endfacet
  facet normal 0 0 1
    outer loop
      vertex -1.41842 3.74006 1
      vertex -8.94724 0.973071 1
      vertex -2.99404 2.65249 1
    endloop
  endfacet
  facet normal 0 0 1
    outer loop
      vertex 0.482147 3.97083 1
      vertex 2.27226 3.29194 1
      vertex 7.16484 5.44657 1
    endloop
  endfacet
  facet normal 0 0 1
    outer loop
      vertex 5.82648 6.85946 1
      vertex -8.94724 0.973071 1
      vertex -1.41842 3.74006 1
    endloop
  endfacet
  facet normal 0 0 1
    outer loop
      vertex 5.82648 6.85946 1
      vertex 0.482147 3.97083 1
      vertex 7.16484 5.44657 1
    endloop
  endfacet
  facet normal 0 0 1
    outer loop
      vertex 7.16484 5.44657 1
      vertex 2.27226 3.29194 1
      vertex 8.16818 3.779 1
    endloop
  endfacet
  facet normal 0 0 1
    outer loop
      vertex -1.41842 3.74006 1
      vertex 0.482147 3.97083 1
      vertex 5.82648 6.85946 1
    endloop
  endfacet
  facet normal 0 0 1
    outer loop
      vertex 8.16818 3.779 1
      vertex 3.54182 1.85889 1
      vertex 8.78958 1.93473 1
    endloop
  endfacet
  facet normal 0 0 1
    outer loop
      vertex 9 0 1
      vertex 4 0 1
      vertex 8.78958 -1.93473 1
    endloop
  endfacet
  facet normal 0 0 1
    outer loop
      vertex 3.54182 1.85889 1
      vertex 9 0 1
      vertex 8.78958 1.93473 1
    endloop
  endfacet
  facet normal 0 0 1
    outer loop
      vertex 8.78958 -1.93473 1
      vertex 3.54182 -1.85889 1
      vertex 8.16818 -3.779 1
    endloop
  endfacet
  facet normal 0 0 1
    outer loop
      vertex 3.54182 -1.85889 1
      vertex 2.27226 -3.29194 1
      vertex 8.16818 -3.779 1
    endloop
  endfacet
  facet normal 0 0 1
    outer loop
      vertex 8.16818 -3.779 1
      vertex 2.27226 -3.29194 1
      vertex 7.16484 -5.44657 1
    endloop
  endfacet
  facet normal 0 0 1
    outer loop
      vertex 7.16484 -5.44657 1
      vertex 0.482147 -3.97083 1
      vertex 5.82648 -6.85946 1
    endloop
  endfacet
  facet normal 0 0 1
    outer loop
      vertex 5.82648 -6.85946 1
      vertex -1.41842 -3.74006 1
      vertex 4.21568 -7.95161 1
    endloop
  endfacet
  facet normal 0 0 1
    outer loop
      vertex -2.99404 -2.65249 1
      vertex -8.94724 0.973071 1
      vertex -1.41842 -3.74006 1
    endloop
  endfacet
  facet normal 0 0 1
    outer loop
      vertex -2.99404 -2.65249 1
      vertex -3.88377 -0.957263 1
      vertex -8.94724 0.973071 1
    endloop
  endfacet
  facet normal 0 0 1
    outer loop
      vertex 2.27226 -3.29194 1
      vertex 0.482147 -3.97083 1
      vertex 7.16484 -5.44657 1
    endloop
  endfacet
  facet normal 0 0 1
    outer loop
      vertex -3.88377 -0.957263 1
      vertex -3.88377 0.957263 1
      vertex -8.94724 0.973071 1
    endloop
  endfacet
  facet normal 0 0 1
    outer loop
      vertex -3.88377 0.957263 2.5
      vertex -3.88377 -0.957263 2.5
      vertex -2.99404 -2.65249 2.5
    endloop
  endfacet
  facet normal 0 0 1
    outer loop
      vertex -1.76777 -1.76777 2.5
      vertex -3.88377 0.957263 2.5
      vertex -1.41842 -3.74006 2.5
    endloop
  endfacet
  facet normal 0 0 1
    outer loop
      vertex -1.41842 -3.74006 2.5
      vertex -3.88377 0.957263 2.5
      vertex -2.99404 -2.65249 2.5
    endloop
  endfacet
  facet normal 0 0 1
    outer loop
      vertex 1.76777 1.76777 2.5
      vertex 4 0 2.5
      vertex 3.54182 1.85889 2.5
    endloop
  endfacet
  facet normal 0 0 1
    outer loop
      vertex 1.76777 -1.76777 2.5
      vertex 0 -2.5 2.5
      vertex 2.27226 -3.29194 2.5
    endloop
  endfacet
  facet normal 0 0 1
    outer loop
      vertex -1.41842 3.74006 2.5
      vertex -3.88377 0.957263 2.5
      vertex 0.482147 3.97083 2.5
    endloop
  endfacet
  facet normal 0 0 1
    outer loop
      vertex -2.99404 2.65249 2.5
      vertex -3.88377 0.957263 2.5
      vertex -1.41842 3.74006 2.5
    endloop
  endfacet
  facet normal 0 0 1
    outer loop
      vertex 0.482147 -3.97083 2.5
      vertex -1.76777 -1.76777 2.5
      vertex -1.41842 -3.74006 2.5
    endloop
  endfacet
  facet normal 0 0 1
    outer loop
      vertex 2.5 0 2.5
      vertex 1.76777 -1.76777 2.5
      vertex 3.54182 -1.85889 2.5
    endloop
  endfacet
  facet normal 0 0 1
    outer loop
      vertex 1.76777 1.76777 2.5
      vertex 2.5 0 2.5
      vertex 4 0 2.5
    endloop
  endfacet
  facet normal 0 0 1
    outer loop
      vertex 0.482147 3.97083 2.5
      vertex -3.88377 0.957263 2.5
      vertex -1.76777 1.76777 2.5
    endloop
  endfacet
  facet normal 0 0 1
    outer loop
      vertex 0.482147 3.97083 2.5
      vertex 0 2.5 2.5
      vertex 2.27226 3.29194 2.5
    endloop
  endfacet
  facet normal 0 0 1
    outer loop
      vertex 0.482147 3.97083 2.5
      vertex -1.76777 1.76777 2.5
      vertex 0 2.5 2.5
    endloop
  endfacet
  facet normal 0 0 1
    outer loop
      vertex 2.27226 3.29194 2.5
      vertex 1.76777 1.76777 2.5
      vertex 3.54182 1.85889 2.5
    endloop
  endfacet
  facet normal 0 0 1
    outer loop
      vertex 0 2.5 2.5
      vertex 1.76777 1.76777 2.5
      vertex 2.27226 3.29194 2.5
    endloop
  endfacet
  facet normal 0 0 1
    outer loop
      vertex 4 0 2.5
      vertex 2.5 0 2.5
      vertex 3.54182 -1.85889 2.5
    endloop
  endfacet
  facet normal 0 0 1
    outer loop
      vertex 3.54182 -1.85889 2.5
      vertex 1.76777 -1.76777 2.5
      vertex 2.27226 -3.29194 2.5
    endloop
  endfacet
  facet normal 0 0 1
    outer loop
      vertex 2.27226 -3.29194 2.5
      vertex 0 -2.5 2.5
      vertex 0.482147 -3.97083 2.5
    endloop
  endfacet
  facet normal 0 0 1
    outer loop
      vertex -1.76777 -1.76777 2.5
      vertex -2.5 0 2.5
      vertex -3.88377 0.957263 2.5
    endloop
  endfacet
  facet normal 0 0 1
    outer loop
      vertex 0 -2.5 2.5
      vertex -1.76777 -1.76777 2.5
      vertex 0.482147 -3.97083 2.5
    endloop
  endfacet
  facet normal 0 0 1
    outer loop
      vertex -2.5 0 2.5
      vertex -1.76777 1.76777 2.5
      vertex -3.88377 0.957263 2.5
    endloop
  endfacet
  facet normal -1 0 0
    outer loop
      vertex -3.88377 -0.957263 1
      vertex -3.88377 -0.957263 2.5
      vertex -3.88377 0.957263 1
    endloop
  endfacet
  facet normal -1 0 0
    outer loop
      vertex -3.88377 0.957263 1
      vertex -3.88377 -0.957263 2.5
      vertex -3.88377 0.957263 2.5
    endloop
  endfacet
  facet normal -0.885456 -0.464723 0
    outer loop
      vertex -3.88377 -0.957263 1
      vertex -2.99404 -2.65249 1
      vertex -3.88377 -0.957263 2.5
    endloop
  endfacet
  facet normal -0.885456 -0.464723 0
    outer loop
      vertex -3.88377 -0.957263 2.5
      vertex -2.99404 -2.65249 1
      vertex -2.99404 -2.65249 2.5
    endloop
  endfacet
  facet normal -0.568065 -0.822984 0
    outer loop
      vertex -2.99404 -2.65249 2.5
      vertex -2.99404 -2.65249 1
      vertex -1.41842 -3.74006 1
    endloop
  endfacet
  facet normal -0.568065 -0.822984 0
    outer loop
      vertex -1.41842 -3.74006 2.5
      vertex -2.99404 -2.65249 2.5
      vertex -1.41842 -3.74006 1
    endloop
  endfacet
  facet normal -0.120536 -0.992709 0
    outer loop
      vertex -1.41842 -3.74006 2.5
      vertex -1.41842 -3.74006 1
      vertex 0.482147 -3.97083 1
    endloop
  endfacet
  facet normal -0.120536 -0.992709 0
    outer loop
      vertex 0.482147 -3.97083 2.5
      vertex -1.41842 -3.74006 2.5
      vertex 0.482147 -3.97083 1
    endloop
  endfacet
  facet normal 0.354605 -0.935016 0
    outer loop
      vertex 0.482147 -3.97083 2.5
      vertex 0.482147 -3.97083 1
      vertex 2.27226 -3.29194 1
    endloop
  endfacet
  facet normal 0.354605 -0.935016 0
    outer loop
      vertex 2.27226 -3.29194 2.5
      vertex 0.482147 -3.97083 2.5
      vertex 2.27226 -3.29194 1
    endloop
  endfacet
  facet normal 0.748511 -0.663123 0
    outer loop
      vertex 2.27226 -3.29194 2.5
      vertex 2.27226 -3.29194 1
      vertex 3.54182 -1.85889 1
    endloop
  endfacet
  facet normal 0.748511 -0.663123 0
    outer loop
      vertex 3.54182 -1.85889 2.5
      vertex 2.27226 -3.29194 2.5
      vertex 3.54182 -1.85889 1
    endloop
  endfacet
  facet normal 0.970942 -0.239316 0
    outer loop
      vertex 3.54182 -1.85889 2.5
      vertex 3.54182 -1.85889 1
      vertex 4 0 1
    endloop
  endfacet
  facet normal 0.970942 -0.239316 0
    outer loop
      vertex 4 0 2.5
      vertex 3.54182 -1.85889 2.5
      vertex 4 0 1
    endloop
  endfacet
  facet normal 0.970942 0.239316 0
    outer loop
      vertex 4 0 1
      vertex 3.54182 1.85889 1
      vertex 3.54182 1.85889 2.5
    endloop
  endfacet
  facet normal 0.970942 0.239316 0
    outer loop
      vertex 4 0 2.5
      vertex 4 0 1
      vertex 3.54182 1.85889 2.5
    endloop
  endfacet
  facet normal 0.748511 0.663123 0
    outer loop
      vertex 3.54182 1.85889 1
      vertex 2.27226 3.29194 1
      vertex 2.27226 3.29194 2.5
    endloop
  endfacet
  facet normal 0.748511 0.663123 0
    outer loop
      vertex 3.54182 1.85889 2.5
      vertex 3.54182 1.85889 1
      vertex 2.27226 3.29194 2.5
    endloop
  endfacet
  facet normal 0.354605 0.935016 0
    outer loop
      vertex 0.482147 3.97083 1
      vertex 0.482147 3.97083 2.5
      vertex 2.27226 3.29194 1
    endloop
  endfacet
  facet normal 0.354605 0.935016 0
    outer loop
      vertex 2.27226 3.29194 1
      vertex 0.482147 3.97083 2.5
      vertex 2.27226 3.29194 2.5
    endloop
  endfacet
  facet normal -0.120536 0.992709 0
    outer loop
      vertex -1.41842 3.74006 1
      vertex -1.41842 3.74006 2.5
      vertex 0.482147 3.97083 1
    endloop
  endfacet
  facet normal -0.120536 0.992709 0
    outer loop
      vertex 0.482147 3.97083 1
      vertex -1.41842 3.74006 2.5
      vertex 0.482147 3.97083 2.5
    endloop
  endfacet
  facet normal -0.568065 0.822984 0
    outer loop
      vertex -2.99404 2.65249 1
      vertex -2.99404 2.65249 2.5
      vertex -1.41842 3.74006 1
    endloop
  endfacet
  facet normal -0.568065 0.822984 0
    outer loop
      vertex -1.41842 3.74006 1
      vertex -2.99404 2.65249 2.5
      vertex -1.41842 3.74006 2.5
    endloop
  endfacet
  facet normal -0.885456 0.464723 0
    outer loop
      vertex -3.88377 0.957263 1
      vertex -3.88377 0.957263 2.5
      vertex -2.99404 2.65249 1
    endloop
  endfacet
  facet normal -0.885456 0.464723 0
    outer loop
      vertex -2.99404 2.65249 1
      vertex -3.88377 0.957263 2.5
      vertex -2.99404 2.65249 2.5
    endloop
  endfacet
endsolid OpenSCAD_Model
