solid OpenSCAD_Model
  facet normal -1.7635e-16 0.104529 0.994522
    outer loop
      vertex -20 2.49494 8.73777
      vertex -20 0 9
      vertex 20 0 9
    endloop
  endfacet
  facet normal -1.7635e-16 0.104529 0.994522
    outer loop
      vertex 20 2.49494 8.73777
      vertex -20 2.49494 8.73777
      vertex 20 0 9
    endloop
  endfacet
  facet normal -1.7635e-16 -0.104529 0.994522
    outer loop
      vertex 20 0 9
      vertex -20 0 9
      vertex -20 -2.49494 8.73777
    endloop
  endfacet
  facet normal -1.7635e-16 -0.104529 0.994522
    outer loop
      vertex 20 -2.49494 8.73777
      vertex 20 0 9
      vertex -20 -2.49494 8.73777
    endloop
  endfacet
  facet normal -1 0 -1.77321e-16
    outer loop
      vertex -20 0 9
      vertex -20 2.49494 8.73777
      vertex -20 -2.49494 8.73777
    endloop
  endfacet
  facet normal -1 0 -1.77321e-16
    outer loop
      vertex -20 -2.49494 8.73777
      vertex -20 2.49494 8.73777
      vertex -20 4.88084 7.96254
    endloop
  endfacet
  facet normal -1 0 -1.77321e-16
    outer loop
      vertex -20 -2.49494 8.73777
      vertex -20 4.88084 7.96254
      vertex -20 7.05342 6.7082
    endloop
  endfacet
  facet normal -1 0 -1.77321e-16
    outer loop
      vertex -20 -2.49494 8.73777
      vertex -20 7.05342 6.7082
      vertex -20 8.91774 5.02957
    endloop
  endfacet
  facet normal -1 0 -1.77321e-16
    outer loop
      vertex -20 -2.49494 8.73777
      vertex -20 8.91774 5.02957
      vertex -20 10.3923 3
    endloop
  endfacet
  facet normal -1 0 -1.77321e-16
    outer loop
      vertex -20 -2.49494 8.73777
      vertex -20 10.3923 3
      vertex -20 11.4127 0.708204
    endloop
  endfacet
  facet normal -1 0 -1.77321e-16
    outer loop
      vertex -20 -2.49494 8.73777
      vertex -20 11.4127 0.708204
      vertex -20 11.7758 -1
    endloop
  endfacet
  facet normal -1 0 -1.77321e-16
    outer loop
      vertex -20 11.7758 -1
      vertex -20 25 -1
      vertex -20 25 -10
    endloop
  endfacet
  facet normal -1 0 -1.77321e-16
    outer loop
      vertex -20 0 -9
      vertex -20 25 -10
      vertex -20 -25 -10
    endloop
  endfacet
  facet normal -1 0 -1.77321e-16
    outer loop
      vertex -20 -5.97951 -2.50452
      vertex -20 -25 -10
      vertex -20 -11.7758 -1
    endloop
  endfacet
  facet normal -1 0 -1.77321e-16
    outer loop
      vertex -20 -2.85568 2.27684
      vertex -20 -11.7758 -1
      vertex -20 -2.49494 8.73777
    endloop
  endfacet
  facet normal -1 0 -1.77321e-16
    outer loop
      vertex -20 -4.88084 7.96254
      vertex -20 -2.49494 8.73777
      vertex -20 -7.05342 6.7082
    endloop
  endfacet
  facet normal -1 0 -1.77321e-16
    outer loop
      vertex -20 -11.7758 -1
      vertex -20 -11.4127 0.708204
      vertex -20 -2.49494 8.73777
    endloop
  endfacet
  facet normal -1 0 -1.77321e-16
    outer loop
      vertex -20 -2.49494 8.73777
      vertex -20 -10.3923 3
      vertex -20 -8.91774 5.02957
    endloop
  endfacet
  facet normal -1 0 -1.77321e-16
    outer loop
      vertex -20 -2.49494 8.73777
      vertex -20 -8.91774 5.02957
      vertex -20 -7.05342 6.7082
    endloop
  endfacet
  facet normal -1 0 -1.77321e-16
    outer loop
      vertex -20 -4.41434 1.06369
      vertex -20 -11.7758 -1
      vertex -20 -2.85568 2.27684
    endloop
  endfacet
  facet normal -1 0 -1.77321e-16
    outer loop
      vertex -20 -5.97951 -2.50452
      vertex -20 -11.7758 -1
      vertex -20 -5.49464 -0.589827
    endloop
  endfacet
  facet normal -1 0 -1.77321e-16
    outer loop
      vertex -20 2.85568 2.27684
      vertex -20 0.987568 2.91817
      vertex -20 -2.49494 8.73777
    endloop
  endfacet
  facet normal -1 0 -1.77321e-16
    outer loop
      vertex -20 0.987568 2.91817
      vertex -20 -0.987568 2.91817
      vertex -20 -2.49494 8.73777
    endloop
  endfacet
  facet normal -1 0 -1.77321e-16
    outer loop
      vertex -20 -0.987568 2.91817
      vertex -20 -2.85568 2.27684
      vertex -20 -2.49494 8.73777
    endloop
  endfacet
  facet normal -1 0 -1.77321e-16
    outer loop
      vertex -20 -5.49464 -0.589827
      vertex -20 -11.7758 -1
      vertex -20 -4.41434 1.06369
    endloop
  endfacet
  facet normal -1 0 -1.77321e-16
    outer loop
      vertex -20 -5.8164 -4.47291
      vertex -20 -25 -10
      vertex -20 -5.97951 -2.50452
    endloop
  endfacet
  facet normal -1 0 -1.77321e-16
    outer loop
      vertex -20 -5.023 -6.28169
      vertex -20 -25 -10
      vertex -20 -5.8164 -4.47291
    endloop
  endfacet
  facet normal -1 0 -1.77321e-16
    outer loop
      vertex -20 5.97951 -2.50452
      vertex -20 11.7758 -1
      vertex -20 5.8164 -4.47291
    endloop
  endfacet
  facet normal -1 0 -1.77321e-16
    outer loop
      vertex -20 1.9482 -8.6749
      vertex -20 25 -10
      vertex -20 0 -9
    endloop
  endfacet
  facet normal -1 0 -1.77321e-16
    outer loop
      vertex -20 5.023 -6.28169
      vertex -20 25 -10
      vertex -20 3.68528 -7.73484
    endloop
  endfacet
  facet normal -1 0 -1.77321e-16
    outer loop
      vertex -20 -5.023 -6.28169
      vertex -20 -3.68528 -7.73484
      vertex -20 -25 -10
    endloop
  endfacet
  facet normal -1 0 -1.77321e-16
    outer loop
      vertex -20 3.68528 -7.73484
      vertex -20 25 -10
      vertex -20 1.9482 -8.6749
    endloop
  endfacet
  facet normal -1 0 -1.77321e-16
    outer loop
      vertex -20 -3.68528 -7.73484
      vertex -20 -1.9482 -8.6749
      vertex -20 -25 -10
    endloop
  endfacet
  facet normal -1 0 -1.77321e-16
    outer loop
      vertex -20 -1.9482 -8.6749
      vertex -20 0 -9
      vertex -20 -25 -10
    endloop
  endfacet
  facet normal -1 0 -1.77321e-16
    outer loop
      vertex -20 11.7758 -1
      vertex -20 25 -10
      vertex -20 5.023 -6.28169
    endloop
  endfacet
  facet normal -1 0 -1.77321e-16
    outer loop
      vertex -20 11.7758 -1
      vertex -20 5.023 -6.28169
      vertex -20 5.8164 -4.47291
    endloop
  endfacet
  facet normal -1 0 -1.77321e-16
    outer loop
      vertex -20 5.49464 -0.589827
      vertex -20 11.7758 -1
      vertex -20 5.97951 -2.50452
    endloop
  endfacet
  facet normal -1 0 -1.77321e-16
    outer loop
      vertex -20 4.41434 1.06369
      vertex -20 11.7758 -1
      vertex -20 5.49464 -0.589827
    endloop
  endfacet
  facet normal -1 0 -1.77321e-16
    outer loop
      vertex -20 2.85568 2.27684
      vertex -20 11.7758 -1
      vertex -20 4.41434 1.06369
    endloop
  endfacet
  facet normal -1 0 -1.77321e-16
    outer loop
      vertex -20 11.7758 -1
      vertex -20 2.85568 2.27684
      vertex -20 -2.49494 8.73777
    endloop
  endfacet
  facet normal -1 0 -1.77321e-16
    outer loop
      vertex -20 -11.7758 -1
      vertex -20 -25 -10
      vertex -20 -25 -1
    endloop
  endfacet
  facet normal -1 0 -1.77321e-16
    outer loop
      vertex -20 -10.3923 3
      vertex -20 -2.49494 8.73777
      vertex -20 -11.4127 0.708204
    endloop
  endfacet
  facet normal -1.68643e-16 0.309017 0.951057
    outer loop
      vertex -20 4.88084 7.96254
      vertex -20 2.49494 8.73777
      vertex 20 2.49494 8.73777
    endloop
  endfacet
  facet normal -1.68643e-16 0.309017 0.951057
    outer loop
      vertex 20 4.88084 7.96255
      vertex -20 4.88084 7.96254
      vertex 20 2.49494 8.73777
    endloop
  endfacet
  facet normal 1 0 1.77321e-16
    outer loop
      vertex 20 2.49494 8.73777
      vertex 20 0 9
      vertex 20 -2.49494 8.73777
    endloop
  endfacet
  facet normal 1 0 1.77321e-16
    outer loop
      vertex 20 -7.05342 6.7082
      vertex 20 2.49494 8.73777
      vertex 20 -4.88084 7.96255
    endloop
  endfacet
  facet normal 1 0 1.77321e-16
    outer loop
      vertex 20 -4.88084 7.96255
      vertex 20 2.49494 8.73777
      vertex 20 -2.49494 8.73777
    endloop
  endfacet
  facet normal 1 0 1.77321e-16
    outer loop
      vertex 20 -8.91774 5.02957
      vertex 20 2.49494 8.73777
      vertex 20 -7.05342 6.7082
    endloop
  endfacet
  facet normal 1 0 1.77321e-16
    outer loop
      vertex 20 -10.3923 3
      vertex 20 2.49494 8.73777
      vertex 20 -8.91774 5.02957
    endloop
  endfacet
  facet normal 1 0 1.77321e-16
    outer loop
      vertex 20 -11.4127 0.708204
      vertex 20 2.49494 8.73777
      vertex 20 -10.3923 3
    endloop
  endfacet
  facet normal 1 0 1.77321e-16
    outer loop
      vertex 20 -11.7758 -1
      vertex 20 2.49494 8.73777
      vertex 20 -11.4127 0.708204
    endloop
  endfacet
  facet normal 1 0 1.77321e-16
    outer loop
      vertex 20 -2.85568 2.27684
      vertex 20 2.49494 8.73777
      vertex 20 -11.7758 -1
    endloop
  endfacet
  facet normal 1 0 1.77321e-16
    outer loop
      vertex 20 -25 -10
      vertex 20 -11.7758 -1
      vertex 20 -25 -1
    endloop
  endfacet
  facet normal 1 0 1.77321e-16
    outer loop
      vertex 20 -5.023 -6.28169
      vertex 20 -11.7758 -1
      vertex 20 -25 -10
    endloop
  endfacet
  facet normal 1 0 1.77321e-16
    outer loop
      vertex 20 2.85568 2.27684
      vertex 20 4.41434 1.06369
      vertex 20 11.7758 -1
    endloop
  endfacet
  facet normal 1 0 1.77321e-16
    outer loop
      vertex 20 11.4127 0.708204
      vertex 20 2.49494 8.73777
      vertex 20 11.7758 -1
    endloop
  endfacet
  facet normal 1 0 1.77321e-16
    outer loop
      vertex 20 7.05342 6.7082
      vertex 20 4.88084 7.96255
      vertex 20 2.49494 8.73777
    endloop
  endfacet
  facet normal 1 0 1.77321e-16
    outer loop
      vertex 20 -5.97951 -2.50452
      vertex 20 -5.49464 -0.589827
      vertex 20 -11.7758 -1
    endloop
  endfacet
  facet normal 1 0 1.77321e-16
    outer loop
      vertex 20 8.91774 5.02957
      vertex 20 2.49494 8.73777
      vertex 20 10.3923 3
    endloop
  endfacet
  facet normal 1 0 1.77321e-16
    outer loop
      vertex 20 7.05342 6.7082
      vertex 20 2.49494 8.73777
      vertex 20 8.91774 5.02957
    endloop
  endfacet
  facet normal 1 0 1.77321e-16
    outer loop
      vertex 20 0.987568 2.91817
      vertex 20 2.49494 8.73777
      vertex 20 -0.987568 2.91817
    endloop
  endfacet
  facet normal 1 0 1.77321e-16
    outer loop
      vertex 20 5.49464 -0.589827
      vertex 20 5.97951 -2.50452
      vertex 20 11.7758 -1
    endloop
  endfacet
  facet normal 1 0 1.77321e-16
    outer loop
      vertex 20 2.85568 2.27684
      vertex 20 2.49494 8.73777
      vertex 20 0.987568 2.91817
    endloop
  endfacet
  facet normal 1 0 1.77321e-16
    outer loop
      vertex 20 5.8164 -4.47291
      vertex 20 5.023 -6.28169
      vertex 20 25 -10
    endloop
  endfacet
  facet normal 1 0 1.77321e-16
    outer loop
      vertex 20 11.7758 -1
      vertex 20 2.49494 8.73777
      vertex 20 2.85568 2.27684
    endloop
  endfacet
  facet normal 1 0 1.77321e-16
    outer loop
      vertex 20 -4.41434 1.06369
      vertex 20 -2.85568 2.27684
      vertex 20 -11.7758 -1
    endloop
  endfacet
  facet normal 1 0 1.77321e-16
    outer loop
      vertex 20 -5.49464 -0.589827
      vertex 20 -4.41434 1.06369
      vertex 20 -11.7758 -1
    endloop
  endfacet
  facet normal 1 0 1.77321e-16
    outer loop
      vertex 20 11.7758 -1
      vertex 20 4.41434 1.06369
      vertex 20 5.49464 -0.589827
    endloop
  endfacet
  facet normal 1 0 1.77321e-16
    outer loop
      vertex 20 25 -10
      vertex 20 11.7758 -1
      vertex 20 5.97951 -2.50452
    endloop
  endfacet
  facet normal 1 0 1.77321e-16
    outer loop
      vertex 20 25 -10
      vertex 20 5.97951 -2.50452
      vertex 20 5.8164 -4.47291
    endloop
  endfacet
  facet normal 1 0 1.77321e-16
    outer loop
      vertex 20 -5.8164 -4.47291
      vertex 20 -5.97951 -2.50452
      vertex 20 -11.7758 -1
    endloop
  endfacet
  facet normal 1 0 1.77321e-16
    outer loop
      vertex 20 -3.68528 -7.73484
      vertex 20 -5.023 -6.28169
      vertex 20 -25 -10
    endloop
  endfacet
  facet normal 1 0 1.77321e-16
    outer loop
      vertex 20 25 -10
      vertex 20 5.023 -6.28169
      vertex 20 3.68528 -7.73484
    endloop
  endfacet
  facet normal 1 0 1.77321e-16
    outer loop
      vertex 20 -1.9482 -8.6749
      vertex 20 -3.68528 -7.73484
      vertex 20 -25 -10
    endloop
  endfacet
  facet normal 1 0 1.77321e-16
    outer loop
      vertex 20 25 -10
      vertex 20 3.68528 -7.73484
      vertex 20 1.9482 -8.6749
    endloop
  endfacet
  facet normal 1 0 1.77321e-16
    outer loop
      vertex 20 25 -10
      vertex 20 0 -9
      vertex 20 -25 -10
    endloop
  endfacet
  facet normal 1 0 1.77321e-16
    outer loop
      vertex 20 25 -10
      vertex 20 1.9482 -8.6749
      vertex 20 0 -9
    endloop
  endfacet
  facet normal 1 0 1.77321e-16
    outer loop
      vertex 20 -5.8164 -4.47291
      vertex 20 -11.7758 -1
      vertex 20 -5.023 -6.28169
    endloop
  endfacet
  facet normal 1 0 1.77321e-16
    outer loop
      vertex 20 0 -9
      vertex 20 -1.9482 -8.6749
      vertex 20 -25 -10
    endloop
  endfacet
  facet normal 1 0 1.77321e-16
    outer loop
      vertex 20 -0.987568 2.91817
      vertex 20 2.49494 8.73777
      vertex 20 -2.85568 2.27684
    endloop
  endfacet
  facet normal 1 0 1.77321e-16
    outer loop
      vertex 20 11.4127 0.708204
      vertex 20 10.3923 3
      vertex 20 2.49494 8.73777
    endloop
  endfacet
  facet normal 1 0 1.77321e-16
    outer loop
      vertex 20 25 -1
      vertex 20 11.7758 -1
      vertex 20 25 -10
    endloop
  endfacet
  facet normal -1.68643e-16 -0.309017 0.951057
    outer loop
      vertex 20 -2.49494 8.73777
      vertex -20 -2.49494 8.73777
      vertex -20 -4.88084 7.96254
    endloop
  endfacet
  facet normal -1.68643e-16 -0.309017 0.951057
    outer loop
      vertex 20 -4.88084 7.96255
      vertex 20 -2.49494 8.73777
      vertex -20 -4.88084 7.96254
    endloop
  endfacet
  facet normal -1.53565e-16 -0.5 0.866025
    outer loop
      vertex 20 -4.88084 7.96255
      vertex -20 -4.88084 7.96254
      vertex -20 -7.05342 6.7082
    endloop
  endfacet
  facet normal -1.53565e-16 -0.5 0.866025
    outer loop
      vertex 20 -7.05342 6.7082
      vertex 20 -4.88084 7.96255
      vertex -20 -7.05342 6.7082
    endloop
  endfacet
  facet normal -1.31775e-16 -0.669131 0.743145
    outer loop
      vertex 20 -7.05342 6.7082
      vertex -20 -7.05342 6.7082
      vertex -20 -8.91774 5.02957
    endloop
  endfacet
  facet normal -1.31775e-16 -0.669131 0.743145
    outer loop
      vertex 20 -8.91774 5.02957
      vertex 20 -7.05342 6.7082
      vertex -20 -8.91774 5.02957
    endloop
  endfacet
  facet normal -1.04227e-16 -0.809017 0.587785
    outer loop
      vertex -2.9079 -9.63258 4.04568
      vertex -20 -8.91774 5.02957
      vertex -20 -10.3923 3
    endloop
  endfacet
  facet normal -1.04227e-16 -0.809017 0.587785
    outer loop
      vertex 0.996204 -9.07125 4.81828
      vertex 2.90791 -9.63258 4.04568
      vertex 20 -8.91774 5.02957
    endloop
  endfacet
  facet normal -1.04227e-16 -0.809017 0.587785
    outer loop
      vertex -0.996204 -9.07125 4.81828
      vertex -20 -8.91774 5.02957
      vertex -2.9079 -9.63258 4.04568
    endloop
  endfacet
  facet normal -1.04227e-16 -0.809017 0.587785
    outer loop
      vertex 20 -8.91774 5.02957
      vertex -20 -8.91774 5.02957
      vertex -0.996204 -9.07125 4.81828
    endloop
  endfacet
  facet normal -1.04227e-16 -0.809017 0.587785
    outer loop
      vertex 2.90791 -9.63258 4.04568
      vertex 4.09007 -10.3923 3
      vertex 20 -8.91774 5.02957
    endloop
  endfacet
  facet normal -1.04227e-16 -0.809017 0.587785
    outer loop
      vertex 20 -8.91774 5.02957
      vertex -0.996204 -9.07125 4.81828
      vertex 0.996204 -9.07125 4.81828
    endloop
  endfacet
  facet normal -1.04227e-16 -0.809017 0.587785
    outer loop
      vertex 20 -10.3923 3
      vertex 20 -8.91774 5.02957
      vertex 4.09007 -10.3923 3
    endloop
  endfacet
  facet normal -1.04227e-16 -0.809017 0.587785
    outer loop
      vertex -4.09007 -10.3923 3
      vertex -2.9079 -9.63258 4.04568
      vertex -20 -10.3923 3
    endloop
  endfacet
  facet normal -7.2123e-17 -0.913546 0.406737
    outer loop
      vertex -4.09007 -10.3923 3
      vertex -20 -10.3923 3
      vertex -20 -11.4127 0.708204
    endloop
  endfacet
  facet normal -7.2123e-17 -0.913546 0.406737
    outer loop
      vertex -4.58402 -10.7098 2.287
      vertex -4.09007 -10.3923 3
      vertex -20 -11.4127 0.708204
    endloop
  endfacet
  facet normal -7.2123e-17 -0.913546 0.406737
    outer loop
      vertex -5.19311 -11.4127 0.708204
      vertex -4.58402 -10.7098 2.287
      vertex -20 -11.4127 0.708204
    endloop
  endfacet
  facet normal -3.68672e-17 -0.978148 0.207912
    outer loop
      vertex -5.19311 -11.4127 0.708204
      vertex -20 -11.4127 0.708204
      vertex -20 -11.7758 -1
    endloop
  endfacet
  facet normal -3.68672e-17 -0.978148 0.207912
    outer loop
      vertex -5.50773 -11.7758 -1
      vertex -5.19311 -11.4127 0.708204
      vertex -20 -11.7758 -1
    endloop
  endfacet
  facet normal -1.77321e-16 0 1
    outer loop
      vertex 20 -25 -1
      vertex 20 -11.7758 -1
      vertex 5.50773 -11.7758 -1
    endloop
  endfacet
  facet normal -1.77321e-16 0 1
    outer loop
      vertex 6.71645 -14.0279 -1
      vertex 20 -25 -1
      vertex 5.88878 -12.2155 -1
    endloop
  endfacet
  facet normal -1.77321e-16 0 1
    outer loop
      vertex 5.88878 -12.2155 -1
      vertex 20 -25 -1
      vertex 5.50773 -11.7758 -1
    endloop
  endfacet
  facet normal -1.77321e-16 0 1
    outer loop
      vertex 7 -16 -1
      vertex 20 -25 -1
      vertex 6.71645 -14.0279 -1
    endloop
  endfacet
  facet normal -1.77321e-16 0 1
    outer loop
      vertex 6.71645 -17.9721 -1
      vertex 20 -25 -1
      vertex 7 -16 -1
    endloop
  endfacet
  facet normal -1.77321e-16 0 1
    outer loop
      vertex 5.88878 -19.7845 -1
      vertex 20 -25 -1
      vertex 6.71645 -17.9721 -1
    endloop
  endfacet
  facet normal -1.77321e-16 0 1
    outer loop
      vertex 4.58403 -21.2902 -1
      vertex 20 -25 -1
      vertex 5.88878 -19.7845 -1
    endloop
  endfacet
  facet normal -1.77321e-16 0 1
    outer loop
      vertex 2.90791 -22.3674 -1
      vertex 20 -25 -1
      vertex 4.58403 -21.2902 -1
    endloop
  endfacet
  facet normal -1.77321e-16 0 1
    outer loop
      vertex 0.996204 -22.9287 -1
      vertex 20 -25 -1
      vertex 2.90791 -22.3674 -1
    endloop
  endfacet
  facet normal -1.77321e-16 0 1
    outer loop
      vertex -0.996204 -22.9287 -1
      vertex 20 -25 -1
      vertex 0.996204 -22.9287 -1
    endloop
  endfacet
  facet normal -1.77321e-16 0 1
    outer loop
      vertex -20 -25 -1
      vertex 20 -25 -1
      vertex -0.996204 -22.9287 -1
    endloop
  endfacet
  facet normal -1.77321e-16 0 1
    outer loop
      vertex -20 -25 -1
      vertex -0.996204 -22.9287 -1
      vertex -2.9079 -22.3674 -1
    endloop
  endfacet
  facet normal -1.77321e-16 0 1
    outer loop
      vertex -20 -11.7758 -1
      vertex -2.9079 -22.3674 -1
      vertex -4.58402 -21.2902 -1
    endloop
  endfacet
  facet normal -1.77321e-16 0 1
    outer loop
      vertex -20 -11.7758 -1
      vertex -4.58402 -21.2902 -1
      vertex -5.88877 -19.7845 -1
    endloop
  endfacet
  facet normal -1.77321e-16 0 1
    outer loop
      vertex -20 -11.7758 -1
      vertex -5.88877 -19.7845 -1
      vertex -6.71645 -17.9721 -1
    endloop
  endfacet
  facet normal -1.77321e-16 0 1
    outer loop
      vertex -20 -11.7758 -1
      vertex -6.71645 -17.9721 -1
      vertex -7 -16 -1
    endloop
  endfacet
  facet normal -1.77321e-16 0 1
    outer loop
      vertex -20 -11.7758 -1
      vertex -7 -16 -1
      vertex -6.71645 -14.0279 -1
    endloop
  endfacet
  facet normal -1.77321e-16 0 1
    outer loop
      vertex -20 -11.7758 -1
      vertex -6.71645 -14.0279 -1
      vertex -5.88877 -12.2155 -1
    endloop
  endfacet
  facet normal -1.77321e-16 0 1
    outer loop
      vertex -20 -11.7758 -1
      vertex -5.88877 -12.2155 -1
      vertex -5.50773 -11.7758 -1
    endloop
  endfacet
  facet normal -1.77321e-16 0 1
    outer loop
      vertex -20 -25 -1
      vertex -2.9079 -22.3674 -1
      vertex -20 -11.7758 -1
    endloop
  endfacet
  facet normal 0 -1 0
    outer loop
      vertex 20 -25 -1
      vertex -20 -25 -1
      vertex -20 -25 -10
    endloop
  endfacet
  facet normal 0 -1 0
    outer loop
      vertex 20 -25 -10
      vertex 20 -25 -1
      vertex -20 -25 -10
    endloop
  endfacet
  facet normal 1.77321e-16 0 -1
    outer loop
      vertex 1.62635 -14.3737 -10
      vertex -20 25 -10
      vertex 20 -25 -10
    endloop
  endfacet
  facet normal 1.77321e-16 0 -1
    outer loop
      vertex 6.02892e-15 18.3 -10
      vertex -20 25 -10
      vertex 20 25 -10
    endloop
  endfacet
  facet normal 1.77321e-16 0 -1
    outer loop
      vertex -20 -25 -10
      vertex -20 25 -10
      vertex -1.62635 -17.6263 -10
    endloop
  endfacet
  facet normal 1.77321e-16 0 -1
    outer loop
      vertex -20 -25 -10
      vertex -1.62635 -17.6263 -10
      vertex 6.02892e-15 -18.3 -10
    endloop
  endfacet
  facet normal 1.77321e-16 0 -1
    outer loop
      vertex -20 -25 -10
      vertex 6.02892e-15 -18.3 -10
      vertex 20 -25 -10
    endloop
  endfacet
  facet normal 1.77321e-16 0 -1
    outer loop
      vertex 2.3 16 -10
      vertex 20 25 -10
      vertex 1.62635 14.3737 -10
    endloop
  endfacet
  facet normal 1.77321e-16 0 -1
    outer loop
      vertex 6.02892e-15 -13.7 -10
      vertex -20 25 -10
      vertex 1.62635 -14.3737 -10
    endloop
  endfacet
  facet normal 1.77321e-16 0 -1
    outer loop
      vertex -1.62635 -14.3737 -10
      vertex -20 25 -10
      vertex 6.02892e-15 -13.7 -10
    endloop
  endfacet
  facet normal 1.77321e-16 0 -1
    outer loop
      vertex 1.62635 -17.6263 -10
      vertex 2.3 -16 -10
      vertex 20 -25 -10
    endloop
  endfacet
  facet normal 1.77321e-16 0 -1
    outer loop
      vertex 2.3 -16 -10
      vertex 1.62635 -14.3737 -10
      vertex 20 -25 -10
    endloop
  endfacet
  facet normal 1.77321e-16 0 -1
    outer loop
      vertex -2.3 -16 -10
      vertex -20 25 -10
      vertex -1.62635 -14.3737 -10
    endloop
  endfacet
  facet normal 1.77321e-16 0 -1
    outer loop
      vertex -1.62635 -17.6263 -10
      vertex -20 25 -10
      vertex -2.3 -16 -10
    endloop
  endfacet
  facet normal 1.77321e-16 0 -1
    outer loop
      vertex 20 -25 -10
      vertex -20 25 -10
      vertex -1.62635 14.3737 -10
    endloop
  endfacet
  facet normal 1.77321e-16 0 -1
    outer loop
      vertex 20 -25 -10
      vertex -1.62635 14.3737 -10
      vertex 6.02892e-15 13.7 -10
    endloop
  endfacet
  facet normal 1.77321e-16 0 -1
    outer loop
      vertex 20 -25 -10
      vertex 6.02892e-15 13.7 -10
      vertex 1.62635 14.3737 -10
    endloop
  endfacet
  facet normal 1.77321e-16 0 -1
    outer loop
      vertex 20 -25 -10
      vertex 1.62635 14.3737 -10
      vertex 20 25 -10
    endloop
  endfacet
  facet normal 1.77321e-16 0 -1
    outer loop
      vertex 1.62635 17.6263 -10
      vertex 20 25 -10
      vertex 2.3 16 -10
    endloop
  endfacet
  facet normal 1.77321e-16 0 -1
    outer loop
      vertex -1.62635 17.6263 -10
      vertex -20 25 -10
      vertex 6.02892e-15 18.3 -10
    endloop
  endfacet
  facet normal 1.77321e-16 0 -1
    outer loop
      vertex 1.62635 17.6263 -10
      vertex 6.02892e-15 18.3 -10
      vertex 20 25 -10
    endloop
  endfacet
  facet normal 1.77321e-16 0 -1
    outer loop
      vertex -2.3 16 -10
      vertex -20 25 -10
      vertex -1.62635 17.6263 -10
    endloop
  endfacet
  facet normal 1.77321e-16 0 -1
    outer loop
      vertex -1.62635 14.3737 -10
      vertex -20 25 -10
      vertex -2.3 16 -10
    endloop
  endfacet
  facet normal 1.77321e-16 0 -1
    outer loop
      vertex 1.62635 -17.6263 -10
      vertex 20 -25 -10
      vertex 6.02892e-15 -18.3 -10
    endloop
  endfacet
  facet normal 0 1 0
    outer loop
      vertex -20 25 -1
      vertex 20 25 -1
      vertex -20 25 -10
    endloop
  endfacet
  facet normal 0 1 0
    outer loop
      vertex -20 25 -10
      vertex 20 25 -1
      vertex 20 25 -10
    endloop
  endfacet
  facet normal -1.77321e-16 0 1
    outer loop
      vertex -20 25 -1
      vertex -5.88877 12.2155 -1
      vertex -6.71645 14.0279 -1
    endloop
  endfacet
  facet normal -1.77321e-16 0 1
    outer loop
      vertex -6.71645 17.9721 -1
      vertex -20 25 -1
      vertex -7 16 -1
    endloop
  endfacet
  facet normal -1.77321e-16 0 1
    outer loop
      vertex -7 16 -1
      vertex -20 25 -1
      vertex -6.71645 14.0279 -1
    endloop
  endfacet
  facet normal -1.77321e-16 0 1
    outer loop
      vertex -5.50773 11.7758 -1
      vertex -5.88877 12.2155 -1
      vertex -20 25 -1
    endloop
  endfacet
  facet normal -1.77321e-16 0 1
    outer loop
      vertex -5.88877 19.7845 -1
      vertex -20 25 -1
      vertex -6.71645 17.9721 -1
    endloop
  endfacet
  facet normal -1.77321e-16 0 1
    outer loop
      vertex -4.58402 21.2902 -1
      vertex -20 25 -1
      vertex -5.88877 19.7845 -1
    endloop
  endfacet
  facet normal -1.77321e-16 0 1
    outer loop
      vertex -2.9079 22.3674 -1
      vertex -20 25 -1
      vertex -4.58402 21.2902 -1
    endloop
  endfacet
  facet normal -1.77321e-16 0 1
    outer loop
      vertex -0.996204 22.9287 -1
      vertex -20 25 -1
      vertex -2.9079 22.3674 -1
    endloop
  endfacet
  facet normal -1.77321e-16 0 1
    outer loop
      vertex 0.996204 22.9287 -1
      vertex 20 25 -1
      vertex -0.996204 22.9287 -1
    endloop
  endfacet
  facet normal -1.77321e-16 0 1
    outer loop
      vertex 2.90791 22.3674 -1
      vertex 20 25 -1
      vertex 0.996204 22.9287 -1
    endloop
  endfacet
  facet normal -1.77321e-16 0 1
    outer loop
      vertex 4.58403 21.2902 -1
      vertex 20 11.7758 -1
      vertex 2.90791 22.3674 -1
    endloop
  endfacet
  facet normal -1.77321e-16 0 1
    outer loop
      vertex 5.88878 19.7845 -1
      vertex 20 11.7758 -1
      vertex 4.58403 21.2902 -1
    endloop
  endfacet
  facet normal -1.77321e-16 0 1
    outer loop
      vertex 6.71645 17.9721 -1
      vertex 20 11.7758 -1
      vertex 5.88878 19.7845 -1
    endloop
  endfacet
  facet normal -1.77321e-16 0 1
    outer loop
      vertex 7 16 -1
      vertex 20 11.7758 -1
      vertex 6.71645 17.9721 -1
    endloop
  endfacet
  facet normal -1.77321e-16 0 1
    outer loop
      vertex 6.71645 14.0279 -1
      vertex 20 11.7758 -1
      vertex 7 16 -1
    endloop
  endfacet
  facet normal -1.77321e-16 0 1
    outer loop
      vertex 5.88878 12.2155 -1
      vertex 20 11.7758 -1
      vertex 6.71645 14.0279 -1
    endloop
  endfacet
  facet normal -1.77321e-16 0 1
    outer loop
      vertex 5.50773 11.7758 -1
      vertex 20 11.7758 -1
      vertex 5.88878 12.2155 -1
    endloop
  endfacet
  facet normal -1.77321e-16 0 1
    outer loop
      vertex 20 11.7758 -1
      vertex 20 25 -1
      vertex 2.90791 22.3674 -1
    endloop
  endfacet
  facet normal -1.77321e-16 0 1
    outer loop
      vertex 20 25 -1
      vertex -20 25 -1
      vertex -0.996204 22.9287 -1
    endloop
  endfacet
  facet normal -1.77321e-16 0 1
    outer loop
      vertex -20 25 -1
      vertex -20 11.7758 -1
      vertex -5.50773 11.7758 -1
    endloop
  endfacet
  facet normal -3.68672e-17 0.978148 0.207912
    outer loop
      vertex -20 11.4127 0.708204
      vertex -5.19311 11.4127 0.708204
      vertex -20 11.7758 -1
    endloop
  endfacet
  facet normal -3.68672e-17 0.978148 0.207912
    outer loop
      vertex -20 11.7758 -1
      vertex -5.19311 11.4127 0.708204
      vertex -5.50773 11.7758 -1
    endloop
  endfacet
  facet normal -7.2123e-17 0.913546 0.406737
    outer loop
      vertex -20 10.3923 3
      vertex -4.09007 10.3923 3
      vertex -20 11.4127 0.708204
    endloop
  endfacet
  facet normal -7.2123e-17 0.913546 0.406737
    outer loop
      vertex -20 11.4127 0.708204
      vertex -4.09007 10.3923 3
      vertex -4.58402 10.7098 2.287
    endloop
  endfacet
  facet normal -7.2123e-17 0.913546 0.406737
    outer loop
      vertex -20 11.4127 0.708204
      vertex -4.58402 10.7098 2.287
      vertex -5.19311 11.4127 0.708204
    endloop
  endfacet
  facet normal -1.04227e-16 0.809017 0.587785
    outer loop
      vertex 4.09007 10.3923 3
      vertex 20 8.91774 5.02957
      vertex 20 10.3923 3
    endloop
  endfacet
  facet normal -1.04227e-16 0.809017 0.587785
    outer loop
      vertex 2.90791 9.63258 4.04568
      vertex 20 8.91774 5.02957
      vertex 4.09007 10.3923 3
    endloop
  endfacet
  facet normal -1.04227e-16 0.809017 0.587785
    outer loop
      vertex -20 8.91774 5.02957
      vertex 20 8.91774 5.02957
      vertex 0.996204 9.07125 4.81828
    endloop
  endfacet
  facet normal -1.04227e-16 0.809017 0.587785
    outer loop
      vertex -20 8.91774 5.02957
      vertex 0.996204 9.07125 4.81828
      vertex -0.996204 9.07125 4.81828
    endloop
  endfacet
  facet normal -1.04227e-16 0.809017 0.587785
    outer loop
      vertex -20 8.91774 5.02957
      vertex -0.996204 9.07125 4.81828
      vertex -20 10.3923 3
    endloop
  endfacet
  facet normal -1.04227e-16 0.809017 0.587785
    outer loop
      vertex -2.9079 9.63258 4.04568
      vertex -20 10.3923 3
      vertex -0.996204 9.07125 4.81828
    endloop
  endfacet
  facet normal -1.04227e-16 0.809017 0.587785
    outer loop
      vertex -4.09007 10.3923 3
      vertex -20 10.3923 3
      vertex -2.9079 9.63258 4.04568
    endloop
  endfacet
  facet normal -1.04227e-16 0.809017 0.587785
    outer loop
      vertex 0.996204 9.07125 4.81828
      vertex 20 8.91774 5.02957
      vertex 2.90791 9.63258 4.04568
    endloop
  endfacet
  facet normal -1.31775e-16 0.669131 0.743145
    outer loop
      vertex -20 8.91774 5.02957
      vertex -20 7.05342 6.7082
      vertex 20 7.05342 6.7082
    endloop
  endfacet
  facet normal -1.31775e-16 0.669131 0.743145
    outer loop
      vertex 20 8.91774 5.02957
      vertex -20 8.91774 5.02957
      vertex 20 7.05342 6.7082
    endloop
  endfacet
  facet normal -1.53565e-16 0.5 0.866025
    outer loop
      vertex -20 7.05342 6.7082
      vertex -20 4.88084 7.96254
      vertex 20 4.88084 7.96255
    endloop
  endfacet
  facet normal -1.53565e-16 0.5 0.866025
    outer loop
      vertex 20 7.05342 6.7082
      vertex -20 7.05342 6.7082
      vertex 20 4.88084 7.96255
    endloop
  endfacet
  facet normal 1.77321e-16 0 -1
    outer loop
      vertex 20 0.987568 2.91817
      vertex 20 -0.987568 2.91817
      vertex -20 0.987568 2.91817
    endloop
  endfacet
  facet normal 1.77321e-16 0 -1
    outer loop
      vertex -20 0.987568 2.91817
      vertex 20 -0.987568 2.91817
      vertex -20 -0.987568 2.91817
    endloop
  endfacet
  facet normal 1.67714e-16 -0.324699 -0.945817
    outer loop
      vertex 20 2.85568 2.27684
      vertex 20 0.987568 2.91817
      vertex -20 2.85568 2.27684
    endloop
  endfacet
  facet normal 1.67714e-16 -0.324699 -0.945817
    outer loop
      vertex -20 2.85568 2.27684
      vertex 20 0.987568 2.91817
      vertex -20 0.987568 2.91817
    endloop
  endfacet
  facet normal 1.39931e-16 -0.614213 -0.78914
    outer loop
      vertex 20 4.41434 1.06369
      vertex 20 2.85568 2.27684
      vertex -20 4.41434 1.06369
    endloop
  endfacet
  facet normal 1.39931e-16 -0.614213 -0.78914
    outer loop
      vertex -20 4.41434 1.06369
      vertex 20 2.85568 2.27684
      vertex -20 2.85568 2.27684
    endloop
  endfacet
  facet normal 9.69856e-17 -0.837166 -0.546949
    outer loop
      vertex -20 5.49464 -0.589827
      vertex 20 5.49464 -0.589827
      vertex 20 4.41434 1.06369
    endloop
  endfacet
  facet normal 9.69856e-17 -0.837166 -0.546949
    outer loop
      vertex -20 4.41434 1.06369
      vertex -20 5.49464 -0.589827
      vertex 20 4.41434 1.06369
    endloop
  endfacet
  facet normal 4.35298e-17 -0.9694 -0.245485
    outer loop
      vertex -20 5.97951 -2.50452
      vertex 20 5.97951 -2.50452
      vertex 20 5.49464 -0.589827
    endloop
  endfacet
  facet normal 4.35298e-17 -0.9694 -0.245485
    outer loop
      vertex -20 5.49464 -0.589827
      vertex -20 5.97951 -2.50452
      vertex 20 5.49464 -0.589827
    endloop
  endfacet
  facet normal -1.4643e-17 -0.996585 0.0825792
    outer loop
      vertex -20 5.8164 -4.47291
      vertex 20 5.8164 -4.47291
      vertex 20 5.97951 -2.50452
    endloop
  endfacet
  facet normal -1.4643e-17 -0.996585 0.0825792
    outer loop
      vertex -20 5.97951 -2.50452
      vertex -20 5.8164 -4.47291
      vertex 20 5.97951 -2.50452
    endloop
  endfacet
  facet normal -7.12292e-17 -0.915773 0.401696
    outer loop
      vertex -20 5.023 -6.28169
      vertex 20 5.023 -6.28169
      vertex 20 5.8164 -4.47291
    endloop
  endfacet
  facet normal -7.12292e-17 -0.915773 0.401696
    outer loop
      vertex -20 5.8164 -4.47291
      vertex -20 5.023 -6.28169
      vertex 20 5.8164 -4.47291
    endloop
  endfacet
  facet normal -1.20096e-16 -0.735724 0.677282
    outer loop
      vertex -20 3.68528 -7.73484
      vertex 20 3.68528 -7.73484
      vertex 20 5.023 -6.28169
    endloop
  endfacet
  facet normal -1.20096e-16 -0.735724 0.677282
    outer loop
      vertex -20 5.023 -6.28169
      vertex -20 3.68528 -7.73484
      vertex 20 5.023 -6.28169
    endloop
  endfacet
  facet normal -1.55949e-16 -0.475947 0.879474
    outer loop
      vertex -20 1.9482 -8.6749
      vertex 20 1.9482 -8.6749
      vertex 20 3.68528 -7.73484
    endloop
  endfacet
  facet normal -1.55949e-16 -0.475947 0.879474
    outer loop
      vertex -20 3.68528 -7.73484
      vertex -20 1.9482 -8.6749
      vertex 20 3.68528 -7.73484
    endloop
  endfacet
  facet normal -1.74903e-16 -0.164595 0.986361
    outer loop
      vertex -20 0 -9
      vertex 20 0 -9
      vertex 20 1.9482 -8.6749
    endloop
  endfacet
  facet normal -1.74903e-16 -0.164595 0.986361
    outer loop
      vertex -20 1.9482 -8.6749
      vertex -20 0 -9
      vertex 20 1.9482 -8.6749
    endloop
  endfacet
  facet normal -1.74903e-16 0.164595 0.986361
    outer loop
      vertex 20 -1.9482 -8.6749
      vertex 20 0 -9
      vertex -20 0 -9
    endloop
  endfacet
  facet normal -1.74903e-16 0.164595 0.986361
    outer loop
      vertex -20 -1.9482 -8.6749
      vertex 20 -1.9482 -8.6749
      vertex -20 0 -9
    endloop
  endfacet
  facet normal -1.55949e-16 0.475947 0.879474
    outer loop
      vertex 20 -3.68528 -7.73484
      vertex 20 -1.9482 -8.6749
      vertex -20 -1.9482 -8.6749
    endloop
  endfacet
  facet normal -1.55949e-16 0.475947 0.879474
    outer loop
      vertex -20 -3.68528 -7.73484
      vertex 20 -3.68528 -7.73484
      vertex -20 -1.9482 -8.6749
    endloop
  endfacet
  facet normal -1.20096e-16 0.735724 0.677282
    outer loop
      vertex 20 -3.68528 -7.73484
      vertex -20 -3.68528 -7.73484
      vertex 20 -5.023 -6.28169
    endloop
  endfacet
  facet normal -1.20096e-16 0.735724 0.677282
    outer loop
      vertex 20 -5.023 -6.28169
      vertex -20 -3.68528 -7.73484
      vertex -20 -5.023 -6.28169
    endloop
  endfacet
  facet normal -7.12292e-17 0.915773 0.401696
    outer loop
      vertex 20 -5.023 -6.28169
      vertex -20 -5.023 -6.28169
      vertex 20 -5.8164 -4.47291
    endloop
  endfacet
  facet normal -7.12292e-17 0.915773 0.401696
    outer loop
      vertex 20 -5.8164 -4.47291
      vertex -20 -5.023 -6.28169
      vertex -20 -5.8164 -4.47291
    endloop
  endfacet
  facet normal -1.4643e-17 0.996585 0.0825792
    outer loop
      vertex 20 -5.8164 -4.47291
      vertex -20 -5.8164 -4.47291
      vertex 20 -5.97951 -2.50452
    endloop
  endfacet
  facet normal -1.4643e-17 0.996585 0.0825792
    outer loop
      vertex 20 -5.97951 -2.50452
      vertex -20 -5.8164 -4.47291
      vertex -20 -5.97951 -2.50452
    endloop
  endfacet
  facet normal 4.35298e-17 0.9694 -0.245485
    outer loop
      vertex 20 -5.97951 -2.50452
      vertex -20 -5.97951 -2.50452
      vertex 20 -5.49464 -0.589827
    endloop
  endfacet
  facet normal 4.35298e-17 0.9694 -0.245485
    outer loop
      vertex 20 -5.49464 -0.589827
      vertex -20 -5.97951 -2.50452
      vertex -20 -5.49464 -0.589827
    endloop
  endfacet
  facet normal 9.69856e-17 0.837166 -0.546949
    outer loop
      vertex 20 -5.49464 -0.589827
      vertex -20 -5.49464 -0.589827
      vertex 20 -4.41434 1.06369
    endloop
  endfacet
  facet normal 9.69856e-17 0.837166 -0.546949
    outer loop
      vertex 20 -4.41434 1.06369
      vertex -20 -5.49464 -0.589827
      vertex -20 -4.41434 1.06369
    endloop
  endfacet
  facet normal 1.39931e-16 0.614213 -0.78914
    outer loop
      vertex 20 -4.41434 1.06369
      vertex -20 -4.41434 1.06369
      vertex 20 -2.85568 2.27684
    endloop
  endfacet
  facet normal 1.39931e-16 0.614213 -0.78914
    outer loop
      vertex 20 -2.85568 2.27684
      vertex -20 -4.41434 1.06369
      vertex -20 -2.85568 2.27684
    endloop
  endfacet
  facet normal 1.67714e-16 0.324699 -0.945817
    outer loop
      vertex 20 -2.85568 2.27684
      vertex -20 -2.85568 2.27684
      vertex 20 -0.987568 2.91817
    endloop
  endfacet
  facet normal 1.67714e-16 0.324699 -0.945817
    outer loop
      vertex 20 -0.987568 2.91817
      vertex -20 -2.85568 2.27684
      vertex -20 -0.987568 2.91817
    endloop
  endfacet
  facet normal -7.2123e-17 0.913546 0.406737
    outer loop
      vertex 4.09007 10.3923 3
      vertex 20 10.3923 3
      vertex 4.58403 10.7098 2.287
    endloop
  endfacet
  facet normal -7.2123e-17 0.913546 0.406737
    outer loop
      vertex 4.58403 10.7098 2.287
      vertex 20 10.3923 3
      vertex 20 11.4127 0.708204
    endloop
  endfacet
  facet normal -7.2123e-17 0.913546 0.406737
    outer loop
      vertex 4.58403 10.7098 2.287
      vertex 20 11.4127 0.708204
      vertex 5.19311 11.4127 0.708204
    endloop
  endfacet
  facet normal -3.68672e-17 0.978148 0.207912
    outer loop
      vertex 5.19311 11.4127 0.708204
      vertex 20 11.4127 0.708204
      vertex 5.50773 11.7758 -1
    endloop
  endfacet
  facet normal -3.68672e-17 0.978148 0.207912
    outer loop
      vertex 5.50773 11.7758 -1
      vertex 20 11.4127 0.708204
      vertex 20 11.7758 -1
    endloop
  endfacet
  facet normal -3.68672e-17 -0.978148 0.207912
    outer loop
      vertex 20 -11.4127 0.708204
      vertex 5.19311 -11.4127 0.708204
      vertex 5.50773 -11.7758 -1
    endloop
  endfacet
  facet normal -3.68672e-17 -0.978148 0.207912
    outer loop
      vertex 20 -11.7758 -1
      vertex 20 -11.4127 0.708204
      vertex 5.50773 -11.7758 -1
    endloop
  endfacet
  facet normal -7.2123e-17 -0.913546 0.406737
    outer loop
      vertex 20 -10.3923 3
      vertex 4.09007 -10.3923 3
      vertex 4.58403 -10.7098 2.287
    endloop
  endfacet
  facet normal -7.2123e-17 -0.913546 0.406737
    outer loop
      vertex 5.19311 -11.4127 0.708204
      vertex 20 -10.3923 3
      vertex 4.58403 -10.7098 2.287
    endloop
  endfacet
  facet normal -7.2123e-17 -0.913546 0.406737
    outer loop
      vertex 5.19311 -11.4127 0.708204
      vertex 20 -11.4127 0.708204
      vertex 20 -10.3923 3
    endloop
  endfacet
  facet normal -0.540641 -0.841254 -1.91734e-16
    outer loop
      vertex 2.90791 -9.63258 -4
      vertex 4.58403 -10.7098 -4
      vertex 4.58403 -10.7098 2.287
    endloop
  endfacet
  facet normal -0.540641 -0.841254 -1.91734e-16
    outer loop
      vertex 2.90791 -9.63258 4.04568
      vertex 2.90791 -9.63258 -4
      vertex 4.09007 -10.3923 3
    endloop
  endfacet
  facet normal -0.540641 -0.841254 -1.91734e-16
    outer loop
      vertex 4.09007 -10.3923 3
      vertex 2.90791 -9.63258 -4
      vertex 4.58403 -10.7098 2.287
    endloop
  endfacet
  facet normal -0.281733 -0.959493 -9.99143e-17
    outer loop
      vertex 0.996204 -9.07125 -4
      vertex 2.90791 -9.63258 -4
      vertex 2.90791 -9.63258 4.04568
    endloop
  endfacet
  facet normal -0.281733 -0.959493 -9.99143e-17
    outer loop
      vertex 0.996204 -9.07125 4.81828
      vertex 0.996204 -9.07125 -4
      vertex 2.90791 -9.63258 4.04568
    endloop
  endfacet
  facet normal 0 -1 0
    outer loop
      vertex -0.996204 -9.07125 -4
      vertex 0.996204 -9.07125 -4
      vertex 0.996204 -9.07125 4.81828
    endloop
  endfacet
  facet normal 0 -1 0
    outer loop
      vertex -0.996204 -9.07125 4.81828
      vertex -0.996204 -9.07125 -4
      vertex 0.996204 -9.07125 4.81828
    endloop
  endfacet
  facet normal 0.281733 -0.959493 9.99143e-17
    outer loop
      vertex -2.9079 -9.63258 4.04568
      vertex -2.9079 -9.63258 -4
      vertex -0.996204 -9.07125 -4
    endloop
  endfacet
  facet normal 0.281733 -0.959493 9.99143e-17
    outer loop
      vertex -0.996204 -9.07125 4.81828
      vertex -2.9079 -9.63258 4.04568
      vertex -0.996204 -9.07125 -4
    endloop
  endfacet
  facet normal 0.540641 -0.841254 1.91734e-16
    outer loop
      vertex -4.09007 -10.3923 3
      vertex -4.58402 -10.7098 2.287
      vertex -4.58402 -10.7098 -4
    endloop
  endfacet
  facet normal 0.540641 -0.841254 1.91734e-16
    outer loop
      vertex -2.9079 -9.63258 4.04568
      vertex -4.09007 -10.3923 3
      vertex -2.9079 -9.63258 -4
    endloop
  endfacet
  facet normal 0.540641 -0.841254 1.91734e-16
    outer loop
      vertex -2.9079 -9.63258 -4
      vertex -4.09007 -10.3923 3
      vertex -4.58402 -10.7098 -4
    endloop
  endfacet
  facet normal 0.755749 -0.654861 2.68021e-16
    outer loop
      vertex -5.19311 -11.4127 0.708204
      vertex -5.50773 -11.7758 -1
      vertex -5.88877 -12.2155 -4
    endloop
  endfacet
  facet normal 0.755749 -0.654861 2.68021e-16
    outer loop
      vertex -5.88877 -12.2155 -4
      vertex -5.50773 -11.7758 -1
      vertex -5.88877 -12.2155 -1
    endloop
  endfacet
  facet normal 0.755749 -0.654861 2.68021e-16
    outer loop
      vertex -5.19311 -11.4127 0.708204
      vertex -5.88877 -12.2155 -4
      vertex -4.58402 -10.7098 -4
    endloop
  endfacet
  facet normal 0.755749 -0.654861 2.68021e-16
    outer loop
      vertex -5.19311 -11.4127 0.708204
      vertex -4.58402 -10.7098 -4
      vertex -4.58402 -10.7098 2.287
    endloop
  endfacet
  facet normal 0.909632 -0.415415 3.22594e-16
    outer loop
      vertex -6.71645 -14.0279 -4
      vertex -5.88877 -12.2155 -4
      vertex -5.88877 -12.2155 -1
    endloop
  endfacet
  facet normal 0.909632 -0.415415 3.22594e-16
    outer loop
      vertex -6.71645 -14.0279 -1
      vertex -6.71645 -14.0279 -4
      vertex -5.88877 -12.2155 -1
    endloop
  endfacet
  facet normal 0.989821 -0.142315 3.51033e-16
    outer loop
      vertex -7 -16 -4
      vertex -6.71645 -14.0279 -4
      vertex -6.71645 -14.0279 -1
    endloop
  endfacet
  facet normal 0.989821 -0.142315 3.51033e-16
    outer loop
      vertex -7 -16 -1
      vertex -7 -16 -4
      vertex -6.71645 -14.0279 -1
    endloop
  endfacet
  facet normal 0.989821 0.142315 3.51033e-16
    outer loop
      vertex -6.71645 -17.9721 -4
      vertex -7 -16 -4
      vertex -7 -16 -1
    endloop
  endfacet
  facet normal 0.989821 0.142315 3.51033e-16
    outer loop
      vertex -6.71645 -17.9721 -1
      vertex -6.71645 -17.9721 -4
      vertex -7 -16 -1
    endloop
  endfacet
  facet normal 0.909632 0.415415 3.22594e-16
    outer loop
      vertex -5.88877 -19.7845 -4
      vertex -6.71645 -17.9721 -4
      vertex -6.71645 -17.9721 -1
    endloop
  endfacet
  facet normal 0.909632 0.415415 3.22594e-16
    outer loop
      vertex -5.88877 -19.7845 -1
      vertex -5.88877 -19.7845 -4
      vertex -6.71645 -17.9721 -1
    endloop
  endfacet
  facet normal 0.755749 0.654861 2.68021e-16
    outer loop
      vertex -4.58402 -21.2902 -4
      vertex -5.88877 -19.7845 -4
      vertex -5.88877 -19.7845 -1
    endloop
  endfacet
  facet normal 0.755749 0.654861 2.68021e-16
    outer loop
      vertex -4.58402 -21.2902 -1
      vertex -4.58402 -21.2902 -4
      vertex -5.88877 -19.7845 -1
    endloop
  endfacet
  facet normal 0.540641 0.841254 1.91734e-16
    outer loop
      vertex -4.58402 -21.2902 -4
      vertex -4.58402 -21.2902 -1
      vertex -2.9079 -22.3674 -4
    endloop
  endfacet
  facet normal 0.540641 0.841254 1.91734e-16
    outer loop
      vertex -2.9079 -22.3674 -4
      vertex -4.58402 -21.2902 -1
      vertex -2.9079 -22.3674 -1
    endloop
  endfacet
  facet normal 0.281733 0.959493 9.99143e-17
    outer loop
      vertex -2.9079 -22.3674 -4
      vertex -2.9079 -22.3674 -1
      vertex -0.996204 -22.9287 -4
    endloop
  endfacet
  facet normal 0.281733 0.959493 9.99143e-17
    outer loop
      vertex -0.996204 -22.9287 -4
      vertex -2.9079 -22.3674 -1
      vertex -0.996204 -22.9287 -1
    endloop
  endfacet
  facet normal 0 1 0
    outer loop
      vertex 0.996204 -22.9287 -4
      vertex -0.996204 -22.9287 -4
      vertex 0.996204 -22.9287 -1
    endloop
  endfacet
  facet normal 0 1 0
    outer loop
      vertex 0.996204 -22.9287 -1
      vertex -0.996204 -22.9287 -4
      vertex -0.996204 -22.9287 -1
    endloop
  endfacet
  facet normal -0.281733 0.959493 -9.99143e-17
    outer loop
      vertex 2.90791 -22.3674 -4
      vertex 0.996204 -22.9287 -4
      vertex 2.90791 -22.3674 -1
    endloop
  endfacet
  facet normal -0.281733 0.959493 -9.99143e-17
    outer loop
      vertex 2.90791 -22.3674 -1
      vertex 0.996204 -22.9287 -4
      vertex 0.996204 -22.9287 -1
    endloop
  endfacet
  facet normal -0.540641 0.841254 -1.91734e-16
    outer loop
      vertex 4.58403 -21.2902 -4
      vertex 2.90791 -22.3674 -4
      vertex 4.58403 -21.2902 -1
    endloop
  endfacet
  facet normal -0.540641 0.841254 -1.91734e-16
    outer loop
      vertex 4.58403 -21.2902 -1
      vertex 2.90791 -22.3674 -4
      vertex 2.90791 -22.3674 -1
    endloop
  endfacet
  facet normal -0.755749 0.654861 -2.68021e-16
    outer loop
      vertex 5.88878 -19.7845 -4
      vertex 4.58403 -21.2902 -4
      vertex 5.88878 -19.7845 -1
    endloop
  endfacet
  facet normal -0.755749 0.654861 -2.68021e-16
    outer loop
      vertex 5.88878 -19.7845 -1
      vertex 4.58403 -21.2902 -4
      vertex 4.58403 -21.2902 -1
    endloop
  endfacet
  facet normal -0.909632 0.415415 -3.22594e-16
    outer loop
      vertex 6.71645 -17.9721 -4
      vertex 5.88878 -19.7845 -4
      vertex 6.71645 -17.9721 -1
    endloop
  endfacet
  facet normal -0.909632 0.415415 -3.22594e-16
    outer loop
      vertex 6.71645 -17.9721 -1
      vertex 5.88878 -19.7845 -4
      vertex 5.88878 -19.7845 -1
    endloop
  endfacet
  facet normal -0.989821 0.142315 -3.51033e-16
    outer loop
      vertex 7 -16 -4
      vertex 6.71645 -17.9721 -4
      vertex 7 -16 -1
    endloop
  endfacet
  facet normal -0.989821 0.142315 -3.51033e-16
    outer loop
      vertex 7 -16 -1
      vertex 6.71645 -17.9721 -4
      vertex 6.71645 -17.9721 -1
    endloop
  endfacet
  facet normal -0.989821 -0.142315 -3.51033e-16
    outer loop
      vertex 6.71645 -14.0279 -4
      vertex 7 -16 -4
      vertex 6.71645 -14.0279 -1
    endloop
  endfacet
  facet normal -0.989821 -0.142315 -3.51033e-16
    outer loop
      vertex 6.71645 -14.0279 -1
      vertex 7 -16 -4
      vertex 7 -16 -1
    endloop
  endfacet
  facet normal -0.909632 -0.415415 -3.22594e-16
    outer loop
      vertex 5.88878 -12.2155 -4
      vertex 6.71645 -14.0279 -4
      vertex 5.88878 -12.2155 -1
    endloop
  endfacet
  facet normal -0.909632 -0.415415 -3.22594e-16
    outer loop
      vertex 5.88878 -12.2155 -1
      vertex 6.71645 -14.0279 -4
      vertex 6.71645 -14.0279 -1
    endloop
  endfacet
  facet normal -0.755749 -0.654861 -2.68021e-16
    outer loop
      vertex 5.88878 -12.2155 -4
      vertex 5.88878 -12.2155 -1
      vertex 4.58403 -10.7098 -4
    endloop
  endfacet
  facet normal -0.755749 -0.654861 -2.68021e-16
    outer loop
      vertex 4.58403 -10.7098 -4
      vertex 5.88878 -12.2155 -1
      vertex 5.50773 -11.7758 -1
    endloop
  endfacet
  facet normal -0.755749 -0.654861 -2.68021e-16
    outer loop
      vertex 4.58403 -10.7098 -4
      vertex 5.50773 -11.7758 -1
      vertex 5.19311 -11.4127 0.708204
    endloop
  endfacet
  facet normal -0.755749 -0.654861 -2.68021e-16
    outer loop
      vertex 4.58403 -10.7098 -4
      vertex 5.19311 -11.4127 0.708204
      vertex 4.58403 -10.7098 2.287
    endloop
  endfacet
  facet normal 0.92388 0.382683 3.27647e-16
    outer loop
      vertex -1.62635 -17.6263 -10
      vertex -2.3 -16 -10
      vertex -2.3 -16 -4
    endloop
  endfacet
  facet normal 0.92388 0.382683 3.27647e-16
    outer loop
      vertex -1.62635 -17.6263 -4
      vertex -1.62635 -17.6263 -10
      vertex -2.3 -16 -4
    endloop
  endfacet
  facet normal 0.382683 0.92388 1.35716e-16
    outer loop
      vertex -1.62635 -17.6263 -10
      vertex -1.62635 -17.6263 -4
      vertex 6.02892e-15 -18.3 -10
    endloop
  endfacet
  facet normal 0.382683 0.92388 1.35716e-16
    outer loop
      vertex 6.02892e-15 -18.3 -10
      vertex -1.62635 -17.6263 -4
      vertex 3.90107e-15 -18.3 -4
    endloop
  endfacet
  facet normal 0.92388 -0.382683 3.27647e-16
    outer loop
      vertex -2.3 -16 -4
      vertex -2.3 -16 -10
      vertex -1.62635 -14.3737 -10
    endloop
  endfacet
  facet normal 0.92388 -0.382683 3.27647e-16
    outer loop
      vertex -1.62635 -14.3737 -4
      vertex -2.3 -16 -4
      vertex -1.62635 -14.3737 -10
    endloop
  endfacet
  facet normal 0.382683 -0.92388 1.35716e-16
    outer loop
      vertex -1.62635 -14.3737 -4
      vertex -1.62635 -14.3737 -10
      vertex 6.02892e-15 -13.7 -10
    endloop
  endfacet
  facet normal 0.382683 -0.92388 1.35716e-16
    outer loop
      vertex 3.90107e-15 -13.7 -4
      vertex -1.62635 -14.3737 -4
      vertex 6.02892e-15 -13.7 -10
    endloop
  endfacet
  facet normal -0.382683 -0.92388 -1.35716e-16
    outer loop
      vertex 3.90107e-15 -13.7 -4
      vertex 6.02892e-15 -13.7 -10
      vertex 1.62635 -14.3737 -10
    endloop
  endfacet
  facet normal -0.382683 -0.92388 -1.35716e-16
    outer loop
      vertex 1.62635 -14.3737 -4
      vertex 3.90107e-15 -13.7 -4
      vertex 1.62635 -14.3737 -10
    endloop
  endfacet
  facet normal -0.92388 -0.382683 -3.27647e-16
    outer loop
      vertex 1.62635 -14.3737 -10
      vertex 2.3 -16 -10
      vertex 1.62635 -14.3737 -4
    endloop
  endfacet
  facet normal -0.92388 -0.382683 -3.27647e-16
    outer loop
      vertex 1.62635 -14.3737 -4
      vertex 2.3 -16 -10
      vertex 2.3 -16 -4
    endloop
  endfacet
  facet normal -0.92388 0.382683 -3.27647e-16
    outer loop
      vertex 1.62635 -17.6263 -10
      vertex 1.62635 -17.6263 -4
      vertex 2.3 -16 -10
    endloop
  endfacet
  facet normal -0.92388 0.382683 -3.27647e-16
    outer loop
      vertex 2.3 -16 -10
      vertex 1.62635 -17.6263 -4
      vertex 2.3 -16 -4
    endloop
  endfacet
  facet normal -0.382683 0.92388 -1.35716e-16
    outer loop
      vertex 6.02892e-15 -18.3 -10
      vertex 3.90107e-15 -18.3 -4
      vertex 1.62635 -17.6263 -10
    endloop
  endfacet
  facet normal -0.382683 0.92388 -1.35716e-16
    outer loop
      vertex 1.62635 -17.6263 -10
      vertex 3.90107e-15 -18.3 -4
      vertex 1.62635 -17.6263 -4
    endloop
  endfacet
  facet normal 0.92388 0.382683 3.27647e-16
    outer loop
      vertex -1.62635 14.3737 -10
      vertex -2.3 16 -10
      vertex -2.3 16 -4
    endloop
  endfacet
  facet normal 0.92388 0.382683 3.27647e-16
    outer loop
      vertex -1.62635 14.3737 -4
      vertex -1.62635 14.3737 -10
      vertex -2.3 16 -4
    endloop
  endfacet
  facet normal 0.382683 0.92388 1.35716e-16
    outer loop
      vertex -1.62635 14.3737 -10
      vertex -1.62635 14.3737 -4
      vertex 6.02892e-15 13.7 -10
    endloop
  endfacet
  facet normal 0.382683 0.92388 1.35716e-16
    outer loop
      vertex 6.02892e-15 13.7 -10
      vertex -1.62635 14.3737 -4
      vertex 3.90107e-15 13.7 -4
    endloop
  endfacet
  facet normal 0.92388 -0.382683 3.27647e-16
    outer loop
      vertex -2.3 16 -4
      vertex -2.3 16 -10
      vertex -1.62635 17.6263 -10
    endloop
  endfacet
  facet normal 0.92388 -0.382683 3.27647e-16
    outer loop
      vertex -1.62635 17.6263 -4
      vertex -2.3 16 -4
      vertex -1.62635 17.6263 -10
    endloop
  endfacet
  facet normal 0.382683 -0.92388 1.35716e-16
    outer loop
      vertex -1.62635 17.6263 -4
      vertex -1.62635 17.6263 -10
      vertex 6.02892e-15 18.3 -10
    endloop
  endfacet
  facet normal 0.382683 -0.92388 1.35716e-16
    outer loop
      vertex 3.90107e-15 18.3 -4
      vertex -1.62635 17.6263 -4
      vertex 6.02892e-15 18.3 -10
    endloop
  endfacet
  facet normal -0.382683 -0.92388 -1.35716e-16
    outer loop
      vertex 3.90107e-15 18.3 -4
      vertex 6.02892e-15 18.3 -10
      vertex 1.62635 17.6263 -10
    endloop
  endfacet
  facet normal -0.382683 -0.92388 -1.35716e-16
    outer loop
      vertex 1.62635 17.6263 -4
      vertex 3.90107e-15 18.3 -4
      vertex 1.62635 17.6263 -10
    endloop
  endfacet
  facet normal -0.92388 -0.382683 -3.27647e-16
    outer loop
      vertex 1.62635 17.6263 -10
      vertex 2.3 16 -10
      vertex 1.62635 17.6263 -4
    endloop
  endfacet
  facet normal -0.92388 -0.382683 -3.27647e-16
    outer loop
      vertex 1.62635 17.6263 -4
      vertex 2.3 16 -10
      vertex 2.3 16 -4
    endloop
  endfacet
  facet normal -0.92388 0.382683 -3.27647e-16
    outer loop
      vertex 1.62635 14.3737 -10
      vertex 1.62635 14.3737 -4
      vertex 2.3 16 -10
    endloop
  endfacet
  facet normal -0.92388 0.382683 -3.27647e-16
    outer loop
      vertex 2.3 16 -10
      vertex 1.62635 14.3737 -4
      vertex 2.3 16 -4
    endloop
  endfacet
  facet normal -0.382683 0.92388 -1.35716e-16
    outer loop
      vertex 6.02892e-15 13.7 -10
      vertex 3.90107e-15 13.7 -4
      vertex 1.62635 14.3737 -10
    endloop
  endfacet
  facet normal -0.382683 0.92388 -1.35716e-16
    outer loop
      vertex 1.62635 14.3737 -10
      vertex 3.90107e-15 13.7 -4
      vertex 1.62635 14.3737 -4
    endloop
  endfacet
  facet normal 0.755749 0.654861 2.68021e-16
    outer loop
      vertex -4.58402 10.7098 -4
      vertex -5.88877 12.2155 -4
      vertex -5.88877 12.2155 -1
    endloop
  endfacet
  facet normal 0.755749 0.654861 2.68021e-16
    outer loop
      vertex -5.19311 11.4127 0.708204
      vertex -4.58402 10.7098 -4
      vertex -5.50773 11.7758 -1
    endloop
  endfacet
  facet normal 0.755749 0.654861 2.68021e-16
    outer loop
      vertex -5.50773 11.7758 -1
      vertex -4.58402 10.7098 -4
      vertex -5.88877 12.2155 -1
    endloop
  endfacet
  facet normal 0.755749 0.654861 2.68021e-16
    outer loop
      vertex -4.58402 10.7098 2.287
      vertex -4.58402 10.7098 -4
      vertex -5.19311 11.4127 0.708204
    endloop
  endfacet
  facet normal -0.755749 0.654861 -2.68021e-16
    outer loop
      vertex 5.50773 11.7758 -1
      vertex 5.88878 12.2155 -1
      vertex 5.88878 12.2155 -4
    endloop
  endfacet
  facet normal -0.755749 0.654861 -2.68021e-16
    outer loop
      vertex 5.50773 11.7758 -1
      vertex 5.88878 12.2155 -4
      vertex 5.19311 11.4127 0.708204
    endloop
  endfacet
  facet normal -0.755749 0.654861 -2.68021e-16
    outer loop
      vertex 5.88878 12.2155 -4
      vertex 4.58403 10.7098 -4
      vertex 5.19311 11.4127 0.708204
    endloop
  endfacet
  facet normal -0.755749 0.654861 -2.68021e-16
    outer loop
      vertex 4.58403 10.7098 -4
      vertex 4.58403 10.7098 2.287
      vertex 5.19311 11.4127 0.708204
    endloop
  endfacet
  facet normal -0.909632 0.415415 -3.22594e-16
    outer loop
      vertex 6.71645 14.0279 -4
      vertex 5.88878 12.2155 -4
      vertex 6.71645 14.0279 -1
    endloop
  endfacet
  facet normal -0.909632 0.415415 -3.22594e-16
    outer loop
      vertex 6.71645 14.0279 -1
      vertex 5.88878 12.2155 -4
      vertex 5.88878 12.2155 -1
    endloop
  endfacet
  facet normal -0.989821 0.142315 -3.51033e-16
    outer loop
      vertex 7 16 -4
      vertex 6.71645 14.0279 -4
      vertex 7 16 -1
    endloop
  endfacet
  facet normal -0.989821 0.142315 -3.51033e-16
    outer loop
      vertex 7 16 -1
      vertex 6.71645 14.0279 -4
      vertex 6.71645 14.0279 -1
    endloop
  endfacet
  facet normal -0.989821 -0.142315 -3.51033e-16
    outer loop
      vertex 6.71645 17.9721 -4
      vertex 7 16 -4
      vertex 6.71645 17.9721 -1
    endloop
  endfacet
  facet normal -0.989821 -0.142315 -3.51033e-16
    outer loop
      vertex 6.71645 17.9721 -1
      vertex 7 16 -4
      vertex 7 16 -1
    endloop
  endfacet
  facet normal -0.909632 -0.415415 -3.22594e-16
    outer loop
      vertex 5.88878 19.7845 -4
      vertex 6.71645 17.9721 -4
      vertex 5.88878 19.7845 -1
    endloop
  endfacet
  facet normal -0.909632 -0.415415 -3.22594e-16
    outer loop
      vertex 5.88878 19.7845 -1
      vertex 6.71645 17.9721 -4
      vertex 6.71645 17.9721 -1
    endloop
  endfacet
  facet normal -0.755749 -0.654861 -2.68021e-16
    outer loop
      vertex 4.58403 21.2902 -4
      vertex 5.88878 19.7845 -4
      vertex 4.58403 21.2902 -1
    endloop
  endfacet
  facet normal -0.755749 -0.654861 -2.68021e-16
    outer loop
      vertex 4.58403 21.2902 -1
      vertex 5.88878 19.7845 -4
      vertex 5.88878 19.7845 -1
    endloop
  endfacet
  facet normal -0.540641 -0.841254 -1.91734e-16
    outer loop
      vertex 2.90791 22.3674 -1
      vertex 2.90791 22.3674 -4
      vertex 4.58403 21.2902 -4
    endloop
  endfacet
  facet normal -0.540641 -0.841254 -1.91734e-16
    outer loop
      vertex 4.58403 21.2902 -1
      vertex 2.90791 22.3674 -1
      vertex 4.58403 21.2902 -4
    endloop
  endfacet
  facet normal -0.281733 -0.959493 -9.99143e-17
    outer loop
      vertex 0.996204 22.9287 -1
      vertex 0.996204 22.9287 -4
      vertex 2.90791 22.3674 -4
    endloop
  endfacet
  facet normal -0.281733 -0.959493 -9.99143e-17
    outer loop
      vertex 2.90791 22.3674 -1
      vertex 0.996204 22.9287 -1
      vertex 2.90791 22.3674 -4
    endloop
  endfacet
  facet normal 0 -1 0
    outer loop
      vertex -0.996204 22.9287 -4
      vertex 0.996204 22.9287 -4
      vertex 0.996204 22.9287 -1
    endloop
  endfacet
  facet normal 0 -1 0
    outer loop
      vertex -0.996204 22.9287 -1
      vertex -0.996204 22.9287 -4
      vertex 0.996204 22.9287 -1
    endloop
  endfacet
  facet normal 0.281733 -0.959493 9.99143e-17
    outer loop
      vertex -2.9079 22.3674 -4
      vertex -0.996204 22.9287 -4
      vertex -0.996204 22.9287 -1
    endloop
  endfacet
  facet normal 0.281733 -0.959493 9.99143e-17
    outer loop
      vertex -2.9079 22.3674 -1
      vertex -2.9079 22.3674 -4
      vertex -0.996204 22.9287 -1
    endloop
  endfacet
  facet normal 0.540641 -0.841254 1.91734e-16
    outer loop
      vertex -4.58402 21.2902 -4
      vertex -2.9079 22.3674 -4
      vertex -2.9079 22.3674 -1
    endloop
  endfacet
  facet normal 0.540641 -0.841254 1.91734e-16
    outer loop
      vertex -4.58402 21.2902 -1
      vertex -4.58402 21.2902 -4
      vertex -2.9079 22.3674 -1
    endloop
  endfacet
  facet normal 0.755749 -0.654861 2.68021e-16
    outer loop
      vertex -5.88877 19.7845 -4
      vertex -4.58402 21.2902 -4
      vertex -4.58402 21.2902 -1
    endloop
  endfacet
  facet normal 0.755749 -0.654861 2.68021e-16
    outer loop
      vertex -5.88877 19.7845 -1
      vertex -5.88877 19.7845 -4
      vertex -4.58402 21.2902 -1
    endloop
  endfacet
  facet normal 0.909632 -0.415415 3.22594e-16
    outer loop
      vertex -6.71645 17.9721 -4
      vertex -5.88877 19.7845 -4
      vertex -5.88877 19.7845 -1
    endloop
  endfacet
  facet normal 0.909632 -0.415415 3.22594e-16
    outer loop
      vertex -6.71645 17.9721 -1
      vertex -6.71645 17.9721 -4
      vertex -5.88877 19.7845 -1
    endloop
  endfacet
  facet normal 0.989821 -0.142315 3.51033e-16
    outer loop
      vertex -7 16 -4
      vertex -6.71645 17.9721 -4
      vertex -6.71645 17.9721 -1
    endloop
  endfacet
  facet normal 0.989821 -0.142315 3.51033e-16
    outer loop
      vertex -7 16 -1
      vertex -7 16 -4
      vertex -6.71645 17.9721 -1
    endloop
  endfacet
  facet normal 0.989821 0.142315 3.51033e-16
    outer loop
      vertex -6.71645 14.0279 -4
      vertex -7 16 -4
      vertex -7 16 -1
    endloop
  endfacet
  facet normal 0.989821 0.142315 3.51033e-16
    outer loop
      vertex -6.71645 14.0279 -1
      vertex -6.71645 14.0279 -4
      vertex -7 16 -1
    endloop
  endfacet
  facet normal 0.909632 0.415415 3.22594e-16
    outer loop
      vertex -5.88877 12.2155 -4
      vertex -6.71645 14.0279 -4
      vertex -6.71645 14.0279 -1
    endloop
  endfacet
  facet normal 0.909632 0.415415 3.22594e-16
    outer loop
      vertex -5.88877 12.2155 -1
      vertex -5.88877 12.2155 -4
      vertex -6.71645 14.0279 -1
    endloop
  endfacet
  facet normal 0.540641 0.841254 1.91734e-16
    outer loop
      vertex -4.58402 10.7098 -4
      vertex -4.58402 10.7098 2.287
      vertex -2.9079 9.63258 -4
    endloop
  endfacet
  facet normal 0.540641 0.841254 1.91734e-16
    outer loop
      vertex -2.9079 9.63258 -4
      vertex -4.58402 10.7098 2.287
      vertex -4.09007 10.3923 3
    endloop
  endfacet
  facet normal 0.540641 0.841254 1.91734e-16
    outer loop
      vertex -2.9079 9.63258 -4
      vertex -4.09007 10.3923 3
      vertex -2.9079 9.63258 4.04568
    endloop
  endfacet
  facet normal 0.281733 0.959493 9.99143e-17
    outer loop
      vertex -2.9079 9.63258 -4
      vertex -2.9079 9.63258 4.04568
      vertex -0.996204 9.07125 -4
    endloop
  endfacet
  facet normal 0.281733 0.959493 9.99143e-17
    outer loop
      vertex -0.996204 9.07125 -4
      vertex -2.9079 9.63258 4.04568
      vertex -0.996204 9.07125 4.81828
    endloop
  endfacet
  facet normal 0 1 0
    outer loop
      vertex 0.996204 9.07125 -4
      vertex -0.996204 9.07125 -4
      vertex 0.996204 9.07125 4.81828
    endloop
  endfacet
  facet normal 0 1 0
    outer loop
      vertex 0.996204 9.07125 4.81828
      vertex -0.996204 9.07125 -4
      vertex -0.996204 9.07125 4.81828
    endloop
  endfacet
  facet normal -0.281733 0.959493 -9.99143e-17
    outer loop
      vertex 2.90791 9.63258 -4
      vertex 0.996204 9.07125 -4
      vertex 2.90791 9.63258 4.04568
    endloop
  endfacet
  facet normal -0.281733 0.959493 -9.99143e-17
    outer loop
      vertex 2.90791 9.63258 4.04568
      vertex 0.996204 9.07125 -4
      vertex 0.996204 9.07125 4.81828
    endloop
  endfacet
  facet normal -0.540641 0.841254 -1.91734e-16
    outer loop
      vertex 4.58403 10.7098 2.287
      vertex 4.58403 10.7098 -4
      vertex 4.09007 10.3923 3
    endloop
  endfacet
  facet normal -0.540641 0.841254 -1.91734e-16
    outer loop
      vertex 4.09007 10.3923 3
      vertex 4.58403 10.7098 -4
      vertex 2.90791 9.63258 -4
    endloop
  endfacet
  facet normal -0.540641 0.841254 -1.91734e-16
    outer loop
      vertex 4.09007 10.3923 3
      vertex 2.90791 9.63258 -4
      vertex 2.90791 9.63258 4.04568
    endloop
  endfacet
  facet normal -3.54643e-16 0 1
    outer loop
      vertex 6.71645 -14.0279 -4
      vertex 5.88878 -12.2155 -4
      vertex 4.58403 -10.7098 -4
    endloop
  endfacet
  facet normal -3.54643e-16 0 1
    outer loop
      vertex 0.996204 -9.07125 -4
      vertex 6.71645 -14.0279 -4
      vertex 2.90791 -9.63258 -4
    endloop
  endfacet
  facet normal -3.54643e-16 0 1
    outer loop
      vertex 2.90791 -9.63258 -4
      vertex 6.71645 -14.0279 -4
      vertex 4.58403 -10.7098 -4
    endloop
  endfacet
  facet normal -3.54643e-16 0 1
    outer loop
      vertex -0.996204 -9.07125 -4
      vertex 6.71645 -14.0279 -4
      vertex 0.996204 -9.07125 -4
    endloop
  endfacet
  facet normal -3.54643e-16 0 1
    outer loop
      vertex -2.9079 -9.63258 -4
      vertex 6.71645 -14.0279 -4
      vertex -0.996204 -9.07125 -4
    endloop
  endfacet
  facet normal -3.54643e-16 0 1
    outer loop
      vertex -4.58402 -10.7098 -4
      vertex 6.71645 -14.0279 -4
      vertex -2.9079 -9.63258 -4
    endloop
  endfacet
  facet normal -3.54643e-16 0 1
    outer loop
      vertex -5.88877 -12.2155 -4
      vertex 6.71645 -14.0279 -4
      vertex -4.58402 -10.7098 -4
    endloop
  endfacet
  facet normal -3.54643e-16 0 1
    outer loop
      vertex 3.90107e-15 -13.7 -4
      vertex 6.71645 -14.0279 -4
      vertex -5.88877 -12.2155 -4
    endloop
  endfacet
  facet normal -3.54643e-16 0 1
    outer loop
      vertex 3.90107e-15 -13.7 -4
      vertex 1.62635 -14.3737 -4
      vertex 6.71645 -14.0279 -4
    endloop
  endfacet
  facet normal -3.54643e-16 0 1
    outer loop
      vertex 1.62635 -14.3737 -4
      vertex 2.3 -16 -4
      vertex 6.71645 -14.0279 -4
    endloop
  endfacet
  facet normal -3.54643e-16 0 1
    outer loop
      vertex 3.90107e-15 -18.3 -4
      vertex -1.62635 -17.6263 -4
      vertex -5.88877 -19.7845 -4
    endloop
  endfacet
  facet normal -3.54643e-16 0 1
    outer loop
      vertex -0.996204 -22.9287 -4
      vertex 6.71645 -14.0279 -4
      vertex -2.9079 -22.3674 -4
    endloop
  endfacet
  facet normal -3.54643e-16 0 1
    outer loop
      vertex 0.996204 -22.9287 -4
      vertex 6.71645 -14.0279 -4
      vertex -0.996204 -22.9287 -4
    endloop
  endfacet
  facet normal -3.54643e-16 0 1
    outer loop
      vertex 2.90791 -22.3674 -4
      vertex 6.71645 -14.0279 -4
      vertex 0.996204 -22.9287 -4
    endloop
  endfacet
  facet normal -3.54643e-16 0 1
    outer loop
      vertex 4.58403 -21.2902 -4
      vertex 6.71645 -14.0279 -4
      vertex 2.90791 -22.3674 -4
    endloop
  endfacet
  facet normal -3.54643e-16 0 1
    outer loop
      vertex 5.88878 -19.7845 -4
      vertex 6.71645 -14.0279 -4
      vertex 4.58403 -21.2902 -4
    endloop
  endfacet
  facet normal -3.54643e-16 0 1
    outer loop
      vertex 6.71645 -17.9721 -4
      vertex 6.71645 -14.0279 -4
      vertex 5.88878 -19.7845 -4
    endloop
  endfacet
  facet normal -3.54643e-16 0 1
    outer loop
      vertex 7 -16 -4
      vertex 6.71645 -14.0279 -4
      vertex 6.71645 -17.9721 -4
    endloop
  endfacet
  facet normal -3.54643e-16 0 1
    outer loop
      vertex -2.9079 -22.3674 -4
      vertex 1.62635 -17.6263 -4
      vertex -4.58402 -21.2902 -4
    endloop
  endfacet
  facet normal -3.54643e-16 0 1
    outer loop
      vertex -2.9079 -22.3674 -4
      vertex 6.71645 -14.0279 -4
      vertex 1.62635 -17.6263 -4
    endloop
  endfacet
  facet normal -3.54643e-16 0 1
    outer loop
      vertex -4.58402 -21.2902 -4
      vertex 3.90107e-15 -18.3 -4
      vertex -5.88877 -19.7845 -4
    endloop
  endfacet
  facet normal -3.54643e-16 0 1
    outer loop
      vertex -5.88877 -19.7845 -4
      vertex -1.62635 -17.6263 -4
      vertex -6.71645 -17.9721 -4
    endloop
  endfacet
  facet normal -3.54643e-16 0 1
    outer loop
      vertex -6.71645 -17.9721 -4
      vertex -2.3 -16 -4
      vertex -7 -16 -4
    endloop
  endfacet
  facet normal -3.54643e-16 0 1
    outer loop
      vertex -7 -16 -4
      vertex -1.62635 -14.3737 -4
      vertex -6.71645 -14.0279 -4
    endloop
  endfacet
  facet normal -3.54643e-16 0 1
    outer loop
      vertex -6.71645 -14.0279 -4
      vertex 3.90107e-15 -13.7 -4
      vertex -5.88877 -12.2155 -4
    endloop
  endfacet
  facet normal -3.54643e-16 0 1
    outer loop
      vertex -1.62635 -14.3737 -4
      vertex 3.90107e-15 -13.7 -4
      vertex -6.71645 -14.0279 -4
    endloop
  endfacet
  facet normal -3.54643e-16 0 1
    outer loop
      vertex 1.62635 -17.6263 -4
      vertex 3.90107e-15 -18.3 -4
      vertex -4.58402 -21.2902 -4
    endloop
  endfacet
  facet normal -3.54643e-16 0 1
    outer loop
      vertex -2.3 -16 -4
      vertex -1.62635 -14.3737 -4
      vertex -7 -16 -4
    endloop
  endfacet
  facet normal -3.54643e-16 0 1
    outer loop
      vertex -1.62635 -17.6263 -4
      vertex -2.3 -16 -4
      vertex -6.71645 -17.9721 -4
    endloop
  endfacet
  facet normal -3.54643e-16 0 1
    outer loop
      vertex 2.3 -16 -4
      vertex 1.62635 -17.6263 -4
      vertex 6.71645 -14.0279 -4
    endloop
  endfacet
  facet normal -3.54643e-16 0 1
    outer loop
      vertex 6.71645 17.9721 -4
      vertex 5.88878 19.7845 -4
      vertex 4.58403 21.2902 -4
    endloop
  endfacet
  facet normal -3.54643e-16 0 1
    outer loop
      vertex 0.996204 22.9287 -4
      vertex 6.71645 17.9721 -4
      vertex 2.90791 22.3674 -4
    endloop
  endfacet
  facet normal -3.54643e-16 0 1
    outer loop
      vertex 2.90791 22.3674 -4
      vertex 6.71645 17.9721 -4
      vertex 4.58403 21.2902 -4
    endloop
  endfacet
  facet normal -3.54643e-16 0 1
    outer loop
      vertex -0.996204 22.9287 -4
      vertex 6.71645 17.9721 -4
      vertex 0.996204 22.9287 -4
    endloop
  endfacet
  facet normal -3.54643e-16 0 1
    outer loop
      vertex -2.9079 22.3674 -4
      vertex 6.71645 17.9721 -4
      vertex -0.996204 22.9287 -4
    endloop
  endfacet
  facet normal -3.54643e-16 0 1
    outer loop
      vertex -4.58402 21.2902 -4
      vertex 6.71645 17.9721 -4
      vertex -2.9079 22.3674 -4
    endloop
  endfacet
  facet normal -3.54643e-16 0 1
    outer loop
      vertex -5.88877 19.7845 -4
      vertex 6.71645 17.9721 -4
      vertex -4.58402 21.2902 -4
    endloop
  endfacet
  facet normal -3.54643e-16 0 1
    outer loop
      vertex 3.90107e-15 18.3 -4
      vertex 6.71645 17.9721 -4
      vertex -5.88877 19.7845 -4
    endloop
  endfacet
  facet normal -3.54643e-16 0 1
    outer loop
      vertex 3.90107e-15 18.3 -4
      vertex 1.62635 17.6263 -4
      vertex 6.71645 17.9721 -4
    endloop
  endfacet
  facet normal -3.54643e-16 0 1
    outer loop
      vertex 1.62635 17.6263 -4
      vertex 2.3 16 -4
      vertex 6.71645 17.9721 -4
    endloop
  endfacet
  facet normal -3.54643e-16 0 1
    outer loop
      vertex 3.90107e-15 13.7 -4
      vertex -1.62635 14.3737 -4
      vertex -5.88877 12.2155 -4
    endloop
  endfacet
  facet normal -3.54643e-16 0 1
    outer loop
      vertex -0.996204 9.07125 -4
      vertex 6.71645 17.9721 -4
      vertex -2.9079 9.63258 -4
    endloop
  endfacet
  facet normal -3.54643e-16 0 1
    outer loop
      vertex 0.996204 9.07125 -4
      vertex 6.71645 17.9721 -4
      vertex -0.996204 9.07125 -4
    endloop
  endfacet
  facet normal -3.54643e-16 0 1
    outer loop
      vertex 2.90791 9.63258 -4
      vertex 6.71645 17.9721 -4
      vertex 0.996204 9.07125 -4
    endloop
  endfacet
  facet normal -3.54643e-16 0 1
    outer loop
      vertex 4.58403 10.7098 -4
      vertex 6.71645 17.9721 -4
      vertex 2.90791 9.63258 -4
    endloop
  endfacet
  facet normal -3.54643e-16 0 1
    outer loop
      vertex 5.88878 12.2155 -4
      vertex 6.71645 17.9721 -4
      vertex 4.58403 10.7098 -4
    endloop
  endfacet
  facet normal -3.54643e-16 0 1
    outer loop
      vertex 6.71645 14.0279 -4
      vertex 6.71645 17.9721 -4
      vertex 5.88878 12.2155 -4
    endloop
  endfacet
  facet normal -3.54643e-16 0 1
    outer loop
      vertex 7 16 -4
      vertex 6.71645 17.9721 -4
      vertex 6.71645 14.0279 -4
    endloop
  endfacet
  facet normal -3.54643e-16 0 1
    outer loop
      vertex -2.9079 9.63258 -4
      vertex 1.62635 14.3737 -4
      vertex -4.58402 10.7098 -4
    endloop
  endfacet
  facet normal -3.54643e-16 0 1
    outer loop
      vertex -2.9079 9.63258 -4
      vertex 6.71645 17.9721 -4
      vertex 1.62635 14.3737 -4
    endloop
  endfacet
  facet normal -3.54643e-16 0 1
    outer loop
      vertex -4.58402 10.7098 -4
      vertex 3.90107e-15 13.7 -4
      vertex -5.88877 12.2155 -4
    endloop
  endfacet
  facet normal -3.54643e-16 0 1
    outer loop
      vertex -5.88877 12.2155 -4
      vertex -1.62635 14.3737 -4
      vertex -6.71645 14.0279 -4
    endloop
  endfacet
  facet normal -3.54643e-16 0 1
    outer loop
      vertex -6.71645 14.0279 -4
      vertex -2.3 16 -4
      vertex -7 16 -4
    endloop
  endfacet
  facet normal -3.54643e-16 0 1
    outer loop
      vertex -7 16 -4
      vertex -1.62635 17.6263 -4
      vertex -6.71645 17.9721 -4
    endloop
  endfacet
  facet normal -3.54643e-16 0 1
    outer loop
      vertex -6.71645 17.9721 -4
      vertex 3.90107e-15 18.3 -4
      vertex -5.88877 19.7845 -4
    endloop
  endfacet
  facet normal -3.54643e-16 0 1
    outer loop
      vertex -1.62635 17.6263 -4
      vertex 3.90107e-15 18.3 -4
      vertex -6.71645 17.9721 -4
    endloop
  endfacet
  facet normal -3.54643e-16 0 1
    outer loop
      vertex 1.62635 14.3737 -4
      vertex 3.90107e-15 13.7 -4
      vertex -4.58402 10.7098 -4
    endloop
  endfacet
  facet normal -3.54643e-16 0 1
    outer loop
      vertex -2.3 16 -4
      vertex -1.62635 17.6263 -4
      vertex -7 16 -4
    endloop
  endfacet
  facet normal -3.54643e-16 0 1
    outer loop
      vertex -1.62635 14.3737 -4
      vertex -2.3 16 -4
      vertex -6.71645 14.0279 -4
    endloop
  endfacet
  facet normal -3.54643e-16 0 1
    outer loop
      vertex 2.3 16 -4
      vertex 1.62635 14.3737 -4
      vertex 6.71645 17.9721 -4
    endloop
  endfacet
endsolid OpenSCAD_Model
