solid OpenSCAD_Model
  facet normal -0.610271 -0.792193 0
    outer loop
      vertex 0.009 1.138 10
      vertex 0.009 1.138 0
      vertex 1.102 0.296 0
    endloop
  endfacet
  facet normal -0.610271 -0.792193 0
    outer loop
      vertex 1.102 0.296 10
      vertex 0.009 1.138 10
      vertex 1.102 0.296 0
    endloop
  endfacet
  facet normal 0 0 -1
    outer loop
      vertex 0.009 1.138 0
      vertex 0.009 38.854 0
      vertex 1.102 0.296 0
    endloop
  endfacet
  facet normal 0 0 -1
    outer loop
      vertex 1.102 0.296 0
      vertex 0.009 38.854 0
      vertex 1.102 39.696 0
    endloop
  endfacet
  facet normal 0 0 -1
    outer loop
      vertex 1.102 0.296 0
      vertex 1.102 39.696 0
      vertex 2.448 39.996 0
    endloop
  endfacet
  facet normal 0 0 -1
    outer loop
      vertex 13.63 32.261 0
      vertex 2.448 39.996 0
      vertex 59.474 39.996 0
    endloop
  endfacet
  facet normal 0 0 -1
    outer loop
      vertex 14.557 9.011 0
      vertex 59.474 39.996 0
      vertex 63.505 38.644 0
    endloop
  endfacet
  facet normal 0 0 -1
    outer loop
      vertex 54.016 29.444 0
      vertex 63.505 38.644 0
      vertex 67.171 36.489 0
    endloop
  endfacet
  facet normal 0 0 -1
    outer loop
      vertex 57.945 29.031 0
      vertex 67.171 36.489 0
      vertex 70.313 33.624 0
    endloop
  endfacet
  facet normal 0 0 -1
    outer loop
      vertex 61.366 27.056 0
      vertex 70.313 33.624 0
      vertex 72.796 30.172 0
    endloop
  endfacet
  facet normal 0 0 -1
    outer loop
      vertex 63.688 23.86 0
      vertex 72.796 30.172 0
      vertex 74.513 26.283 0
    endloop
  endfacet
  facet normal 0 0 -1
    outer loop
      vertex 64.509 19.996 0
      vertex 74.513 26.283 0
      vertex 75.391 22.122 0
    endloop
  endfacet
  facet normal 0 0 -1
    outer loop
      vertex 63.688 16.132 0
      vertex 75.391 22.122 0
      vertex 75.391 17.87 0
    endloop
  endfacet
  facet normal 0 0 -1
    outer loop
      vertex 61.366 12.936 0
      vertex 75.391 17.87 0
      vertex 74.513 13.709 0
    endloop
  endfacet
  facet normal 0 0 -1
    outer loop
      vertex 1.102 0.296 0
      vertex 74.513 13.709 0
      vertex 72.796 9.82 0
    endloop
  endfacet
  facet normal 0 0 -1
    outer loop
      vertex 1.102 0.296 0
      vertex 72.796 9.82 0
      vertex 70.313 6.368 0
    endloop
  endfacet
  facet normal 0 0 -1
    outer loop
      vertex 1.102 0.296 0
      vertex 70.313 6.368 0
      vertex 67.171 3.503 0
    endloop
  endfacet
  facet normal 0 0 -1
    outer loop
      vertex 1.102 0.296 0
      vertex 67.171 3.503 0
      vertex 63.505 1.348 0
    endloop
  endfacet
  facet normal 0 0 -1
    outer loop
      vertex 1.102 0.296 0
      vertex 63.505 1.348 0
      vertex 59.474 -0.004 0
    endloop
  endfacet
  facet normal 0 0 -1
    outer loop
      vertex 1.102 0.296 0
      vertex 59.474 -0.004 0
      vertex 2.448 -0.004 0
    endloop
  endfacet
  facet normal 0 0 -1
    outer loop
      vertex 1.102 0.296 0
      vertex 2.448 39.996 0
      vertex 3.227 10.884 0
    endloop
  endfacet
  facet normal 0 0 -1
    outer loop
      vertex 14.622 30.787 0
      vertex 59.474 39.996 0
      vertex 29.911 32.871 0
    endloop
  endfacet
  facet normal 0 0 -1
    outer loop
      vertex 1.102 0.296 0
      vertex 3.227 10.884 0
      vertex 3.227 9.108 0
    endloop
  endfacet
  facet normal 0 0 -1
    outer loop
      vertex 1.102 0.296 0
      vertex 3.227 9.108 0
      vertex 4.271 7.67 0
    endloop
  endfacet
  facet normal 0 0 -1
    outer loop
      vertex 38.507 29.011 0
      vertex 59.474 39.996 0
      vertex 37.412 27.612 0
    endloop
  endfacet
  facet normal 0 0 -1
    outer loop
      vertex 1.102 0.296 0
      vertex 4.271 7.67 0
      vertex 5.961 7.121 0
    endloop
  endfacet
  facet normal 0 0 -1
    outer loop
      vertex 13.462 7.612 0
      vertex 1.102 0.296 0
      vertex 11.753 7.125 0
    endloop
  endfacet
  facet normal 0 0 -1
    outer loop
      vertex 14.557 9.011 0
      vertex 63.505 38.644 0
      vertex 13.462 7.612 0
    endloop
  endfacet
  facet normal 0 0 -1
    outer loop
      vertex 14.622 10.787 0
      vertex 59.474 39.996 0
      vertex 14.557 9.011 0
    endloop
  endfacet
  facet normal 0 0 -1
    outer loop
      vertex 11.961 12.871 0
      vertex 59.474 39.996 0
      vertex 13.63 12.261 0
    endloop
  endfacet
  facet normal 0 0 -1
    outer loop
      vertex 4.271 27.67 0
      vertex 5.961 12.871 0
      vertex 4.271 12.322 0
    endloop
  endfacet
  facet normal 0 0 -1
    outer loop
      vertex 3.227 30.884 0
      vertex 2.448 39.996 0
      vertex 4.271 32.322 0
    endloop
  endfacet
  facet normal 0 0 -1
    outer loop
      vertex 3.227 10.884 0
      vertex 2.448 39.996 0
      vertex 4.271 12.322 0
    endloop
  endfacet
  facet normal 0 0 -1
    outer loop
      vertex 3.227 29.108 0
      vertex 2.448 39.996 0
      vertex 3.227 30.884 0
    endloop
  endfacet
  facet normal 0 0 -1
    outer loop
      vertex 14.622 30.787 0
      vertex 29.911 32.871 0
      vertex 14.557 29.011 0
    endloop
  endfacet
  facet normal 0 0 -1
    outer loop
      vertex 4.271 12.322 0
      vertex 2.448 39.996 0
      vertex 3.227 29.108 0
    endloop
  endfacet
  facet normal 0 0 -1
    outer loop
      vertex 4.271 27.67 0
      vertex 4.271 12.322 0
      vertex 3.227 29.108 0
    endloop
  endfacet
  facet normal 0 0 -1
    outer loop
      vertex 5.961 12.871 0
      vertex 4.271 27.67 0
      vertex 5.961 27.121 0
    endloop
  endfacet
  facet normal 0 0 -1
    outer loop
      vertex 5.961 12.871 0
      vertex 5.961 27.121 0
      vertex 11.753 27.125 0
    endloop
  endfacet
  facet normal 0 0 -1
    outer loop
      vertex 35.703 27.125 0
      vertex 5.961 12.871 0
      vertex 29.911 27.121 0
    endloop
  endfacet
  facet normal 0 0 -1
    outer loop
      vertex 38.572 30.787 0
      vertex 59.474 39.996 0
      vertex 38.507 29.011 0
    endloop
  endfacet
  facet normal 0 0 -1
    outer loop
      vertex 45.509 19.996 0
      vertex 28.221 12.322 0
      vertex 1.102 0.296 0
    endloop
  endfacet
  facet normal 0 0 -1
    outer loop
      vertex 27.177 10.884 0
      vertex 1.102 0.296 0
      vertex 28.221 12.322 0
    endloop
  endfacet
  facet normal 0 0 -1
    outer loop
      vertex 5.961 32.871 0
      vertex 2.448 39.996 0
      vertex 11.961 32.871 0
    endloop
  endfacet
  facet normal 0 0 -1
    outer loop
      vertex 11.961 32.871 0
      vertex 2.448 39.996 0
      vertex 13.63 32.261 0
    endloop
  endfacet
  facet normal 0 0 -1
    outer loop
      vertex 14.622 30.787 0
      vertex 13.63 32.261 0
      vertex 59.474 39.996 0
    endloop
  endfacet
  facet normal 0 0 -1
    outer loop
      vertex 27.177 30.884 0
      vertex 11.753 27.125 0
      vertex 13.462 27.612 0
    endloop
  endfacet
  facet normal 0 0 -1
    outer loop
      vertex 4.271 32.322 0
      vertex 2.448 39.996 0
      vertex 5.961 32.871 0
    endloop
  endfacet
  facet normal 0 0 -1
    outer loop
      vertex 27.177 9.108 0
      vertex 1.102 0.296 0
      vertex 27.177 10.884 0
    endloop
  endfacet
  facet normal 0 0 -1
    outer loop
      vertex 35.911 12.871 0
      vertex 46.33 16.132 0
      vertex 37.58 12.261 0
    endloop
  endfacet
  facet normal 0 0 -1
    outer loop
      vertex 35.703 7.125 0
      vertex 1.102 0.296 0
      vertex 29.911 7.121 0
    endloop
  endfacet
  facet normal 0 0 -1
    outer loop
      vertex 50.259 11.769 0
      vertex 38.572 10.787 0
      vertex 48.652 12.936 0
    endloop
  endfacet
  facet normal 0 0 -1
    outer loop
      vertex 1.102 0.296 0
      vertex 28.221 7.67 0
      vertex 29.911 7.121 0
    endloop
  endfacet
  facet normal 0 0 -1
    outer loop
      vertex 59.759 11.769 0
      vertex 74.513 13.709 0
      vertex 57.945 10.961 0
    endloop
  endfacet
  facet normal 0 0 -1
    outer loop
      vertex 52.073 10.961 0
      vertex 37.412 7.612 0
      vertex 50.259 11.769 0
    endloop
  endfacet
  facet normal 0 0 -1
    outer loop
      vertex 57.945 29.031 0
      vertex 70.313 33.624 0
      vertex 59.759 28.223 0
    endloop
  endfacet
  facet normal 0 0 -1
    outer loop
      vertex 48.652 12.936 0
      vertex 38.572 10.787 0
      vertex 47.323 14.412 0
    endloop
  endfacet
  facet normal 0 0 -1
    outer loop
      vertex 47.323 14.412 0
      vertex 37.58 12.261 0
      vertex 46.33 16.132 0
    endloop
  endfacet
  facet normal 0 0 -1
    outer loop
      vertex 46.33 16.132 0
      vertex 35.911 12.871 0
      vertex 29.911 12.871 0
    endloop
  endfacet
  facet normal 0 0 -1
    outer loop
      vertex 5.961 12.871 0
      vertex 11.753 27.125 0
      vertex 27.177 30.884 0
    endloop
  endfacet
  facet normal 0 0 -1
    outer loop
      vertex 47.323 25.58 0
      vertex 1.102 0.296 0
      vertex 13.462 7.612 0
    endloop
  endfacet
  facet normal 0 0 -1
    outer loop
      vertex 5.961 12.871 0
      vertex 27.177 30.884 0
      vertex 27.177 29.108 0
    endloop
  endfacet
  facet normal 0 0 -1
    outer loop
      vertex 5.961 12.871 0
      vertex 27.177 29.108 0
      vertex 28.221 27.67 0
    endloop
  endfacet
  facet normal 0 0 -1
    outer loop
      vertex 5.961 12.871 0
      vertex 28.221 27.67 0
      vertex 29.911 27.121 0
    endloop
  endfacet
  facet normal 0 0 -1
    outer loop
      vertex 28.221 32.322 0
      vertex 14.557 29.011 0
      vertex 29.911 32.871 0
    endloop
  endfacet
  facet normal 0 0 -1
    outer loop
      vertex 11.961 12.871 0
      vertex 37.412 27.612 0
      vertex 59.474 39.996 0
    endloop
  endfacet
  facet normal 0 0 -1
    outer loop
      vertex 37.58 32.261 0
      vertex 59.474 39.996 0
      vertex 38.572 30.787 0
    endloop
  endfacet
  facet normal 0 0 -1
    outer loop
      vertex 35.911 32.871 0
      vertex 59.474 39.996 0
      vertex 37.58 32.261 0
    endloop
  endfacet
  facet normal 0 0 -1
    outer loop
      vertex 29.911 32.871 0
      vertex 59.474 39.996 0
      vertex 35.911 32.871 0
    endloop
  endfacet
  facet normal 0 0 -1
    outer loop
      vertex 45.509 19.996 0
      vertex 29.911 12.871 0
      vertex 28.221 12.322 0
    endloop
  endfacet
  facet normal 0 0 -1
    outer loop
      vertex 13.462 27.612 0
      vertex 14.557 29.011 0
      vertex 28.221 32.322 0
    endloop
  endfacet
  facet normal 0 0 -1
    outer loop
      vertex 45.717 18.021 0
      vertex 29.911 12.871 0
      vertex 45.509 19.996 0
    endloop
  endfacet
  facet normal 0 0 -1
    outer loop
      vertex 46.33 16.132 0
      vertex 29.911 12.871 0
      vertex 45.717 18.021 0
    endloop
  endfacet
  facet normal 0 0 -1
    outer loop
      vertex 27.177 30.884 0
      vertex 13.462 27.612 0
      vertex 28.221 32.322 0
    endloop
  endfacet
  facet normal 0 0 -1
    outer loop
      vertex 45.509 19.996 0
      vertex 1.102 0.296 0
      vertex 45.717 21.971 0
    endloop
  endfacet
  facet normal 0 0 -1
    outer loop
      vertex 28.221 7.67 0
      vertex 1.102 0.296 0
      vertex 27.177 9.108 0
    endloop
  endfacet
  facet normal 0 0 -1
    outer loop
      vertex 37.58 12.261 0
      vertex 47.323 14.412 0
      vertex 38.572 10.787 0
    endloop
  endfacet
  facet normal 0 0 -1
    outer loop
      vertex 50.259 11.769 0
      vertex 38.507 9.011 0
      vertex 38.572 10.787 0
    endloop
  endfacet
  facet normal 0 0 -1
    outer loop
      vertex 52.073 10.961 0
      vertex 35.703 7.125 0
      vertex 37.412 7.612 0
    endloop
  endfacet
  facet normal 0 0 -1
    outer loop
      vertex 38.507 9.011 0
      vertex 50.259 11.769 0
      vertex 37.412 7.612 0
    endloop
  endfacet
  facet normal 0 0 -1
    outer loop
      vertex 63.688 16.132 0
      vertex 75.391 17.87 0
      vertex 62.695 14.412 0
    endloop
  endfacet
  facet normal 0 0 -1
    outer loop
      vertex 35.703 7.125 0
      vertex 52.073 10.961 0
      vertex 54.016 10.548 0
    endloop
  endfacet
  facet normal 0 0 -1
    outer loop
      vertex 1.102 0.296 0
      vertex 35.703 7.125 0
      vertex 56.002 10.548 0
    endloop
  endfacet
  facet normal 0 0 -1
    outer loop
      vertex 1.102 0.296 0
      vertex 56.002 10.548 0
      vertex 74.513 13.709 0
    endloop
  endfacet
  facet normal 0 0 -1
    outer loop
      vertex 61.366 12.936 0
      vertex 74.513 13.709 0
      vertex 59.759 11.769 0
    endloop
  endfacet
  facet normal 0 0 -1
    outer loop
      vertex 62.695 14.412 0
      vertex 75.391 17.87 0
      vertex 61.366 12.936 0
    endloop
  endfacet
  facet normal 0 0 -1
    outer loop
      vertex 57.945 10.961 0
      vertex 74.513 13.709 0
      vertex 56.002 10.548 0
    endloop
  endfacet
  facet normal 0 0 -1
    outer loop
      vertex 56.002 10.548 0
      vertex 35.703 7.125 0
      vertex 54.016 10.548 0
    endloop
  endfacet
  facet normal 0 0 -1
    outer loop
      vertex 64.302 18.021 0
      vertex 75.391 22.122 0
      vertex 63.688 16.132 0
    endloop
  endfacet
  facet normal 0 0 -1
    outer loop
      vertex 64.509 19.996 0
      vertex 75.391 22.122 0
      vertex 64.302 18.021 0
    endloop
  endfacet
  facet normal 0 0 -1
    outer loop
      vertex 64.302 21.971 0
      vertex 74.513 26.283 0
      vertex 64.509 19.996 0
    endloop
  endfacet
  facet normal 0 0 -1
    outer loop
      vertex 62.695 25.58 0
      vertex 72.796 30.172 0
      vertex 63.688 23.86 0
    endloop
  endfacet
  facet normal 0 0 -1
    outer loop
      vertex 61.366 27.056 0
      vertex 72.796 30.172 0
      vertex 62.695 25.58 0
    endloop
  endfacet
  facet normal 0 0 -1
    outer loop
      vertex 46.33 23.86 0
      vertex 1.102 0.296 0
      vertex 47.323 25.58 0
    endloop
  endfacet
  facet normal 0 0 -1
    outer loop
      vertex 59.759 28.223 0
      vertex 70.313 33.624 0
      vertex 61.366 27.056 0
    endloop
  endfacet
  facet normal 0 0 -1
    outer loop
      vertex 63.688 23.86 0
      vertex 74.513 26.283 0
      vertex 64.302 21.971 0
    endloop
  endfacet
  facet normal 0 0 -1
    outer loop
      vertex 56.002 29.444 0
      vertex 67.171 36.489 0
      vertex 57.945 29.031 0
    endloop
  endfacet
  facet normal 0 0 -1
    outer loop
      vertex 54.016 29.444 0
      vertex 67.171 36.489 0
      vertex 56.002 29.444 0
    endloop
  endfacet
  facet normal 0 0 -1
    outer loop
      vertex 52.073 29.031 0
      vertex 63.505 38.644 0
      vertex 54.016 29.444 0
    endloop
  endfacet
  facet normal 0 0 -1
    outer loop
      vertex 48.652 27.056 0
      vertex 13.462 7.612 0
      vertex 50.259 28.223 0
    endloop
  endfacet
  facet normal 0 0 -1
    outer loop
      vertex 50.259 28.223 0
      vertex 63.505 38.644 0
      vertex 52.073 29.031 0
    endloop
  endfacet
  facet normal 0 0 -1
    outer loop
      vertex 13.462 7.612 0
      vertex 63.505 38.644 0
      vertex 50.259 28.223 0
    endloop
  endfacet
  facet normal 0 0 -1
    outer loop
      vertex 47.323 25.58 0
      vertex 13.462 7.612 0
      vertex 48.652 27.056 0
    endloop
  endfacet
  facet normal 0 0 -1
    outer loop
      vertex 45.717 21.971 0
      vertex 1.102 0.296 0
      vertex 46.33 23.86 0
    endloop
  endfacet
  facet normal 0 0 -1
    outer loop
      vertex 11.753 7.125 0
      vertex 1.102 0.296 0
      vertex 5.961 7.121 0
    endloop
  endfacet
  facet normal 0 0 -1
    outer loop
      vertex 13.63 12.261 0
      vertex 59.474 39.996 0
      vertex 14.622 10.787 0
    endloop
  endfacet
  facet normal 0 0 -1
    outer loop
      vertex 5.961 12.871 0
      vertex 35.703 27.125 0
      vertex 37.412 27.612 0
    endloop
  endfacet
  facet normal 0 0 -1
    outer loop
      vertex 5.961 12.871 0
      vertex 37.412 27.612 0
      vertex 11.961 12.871 0
    endloop
  endfacet
  facet normal -1 0 0
    outer loop
      vertex 0.009 15.9 10
      vertex 0.009 24 6
      vertex 0.009 15.9 6
    endloop
  endfacet
  facet normal -1 0 0
    outer loop
      vertex 0.009 1.138 0
      vertex 0.009 1.138 10
      vertex 0.009 3.9 6
    endloop
  endfacet
  facet normal -1 0 0
    outer loop
      vertex 0.009 1.138 0
      vertex 0.009 3.9 6
      vertex 0.009 38.854 0
    endloop
  endfacet
  facet normal -1 0 0
    outer loop
      vertex 0.009 24 6
      vertex 0.009 38.854 0
      vertex 0.009 15.9 6
    endloop
  endfacet
  facet normal -1 0 0
    outer loop
      vertex 0.009 3.9 6
      vertex 0.009 15.9 6
      vertex 0.009 38.854 0
    endloop
  endfacet
  facet normal -1 0 0
    outer loop
      vertex 0.009 24 6
      vertex 0.009 15.9 10
      vertex 0.009 24 10
    endloop
  endfacet
  facet normal -1 0 0
    outer loop
      vertex 0.009 36 6
      vertex 0.009 38.854 0
      vertex 0.009 24 6
    endloop
  endfacet
  facet normal -1 0 0
    outer loop
      vertex 0.009 38.854 0
      vertex 0.009 36 6
      vertex 0.009 36 10
    endloop
  endfacet
  facet normal -1 0 0
    outer loop
      vertex 0.009 38.854 0
      vertex 0.009 36 10
      vertex 0.009 38.854 10
    endloop
  endfacet
  facet normal -1 0 0
    outer loop
      vertex 0.009 3.9 6
      vertex 0.009 1.138 10
      vertex 0.009 3.9 10
    endloop
  endfacet
  facet normal 0 0 1
    outer loop
      vertex 0.009 3.9 10
      vertex 0.009 1.138 10
      vertex 1.102 0.296 10
    endloop
  endfacet
  facet normal 0 0 1
    outer loop
      vertex 59.474 -0.004 10
      vertex 0.009 3.9 10
      vertex 2.448 -0.004 10
    endloop
  endfacet
  facet normal 0 0 1
    outer loop
      vertex 2.448 -0.004 10
      vertex 0.009 3.9 10
      vertex 1.102 0.296 10
    endloop
  endfacet
  facet normal 0 0 1
    outer loop
      vertex 63.505 1.348 10
      vertex 0.009 3.9 10
      vertex 59.474 -0.004 10
    endloop
  endfacet
  facet normal 0 0 1
    outer loop
      vertex 67.171 3.503 10
      vertex 0.009 3.9 10
      vertex 63.505 1.348 10
    endloop
  endfacet
  facet normal 0 0 1
    outer loop
      vertex 18 3.9 10
      vertex 0.009 3.9 10
      vertex 67.171 3.503 10
    endloop
  endfacet
  facet normal 0 0 1
    outer loop
      vertex 18 24 10
      vertex 0.009 24 10
      vertex 0.009 15.9 10
    endloop
  endfacet
  facet normal 0 0 1
    outer loop
      vertex 0.009 38.854 10
      vertex 0.009 36 10
      vertex 1.102 39.696 10
    endloop
  endfacet
  facet normal 0 0 1
    outer loop
      vertex 2.448 39.996 10
      vertex 18 36 10
      vertex 59.474 39.996 10
    endloop
  endfacet
  facet normal 0 0 1
    outer loop
      vertex 42 36 10
      vertex 63.505 38.644 10
      vertex 59.474 39.996 10
    endloop
  endfacet
  facet normal 0 0 1
    outer loop
      vertex 24 24 10
      vertex 24 36 10
      vertex 18 24 10
    endloop
  endfacet
  facet normal 0 0 1
    outer loop
      vertex 24 15.9 10
      vertex 44.4942 24.6775 10
      vertex 42 24 10
    endloop
  endfacet
  facet normal 0 0 1
    outer loop
      vertex 24 3.9 10
      vertex 18 3.9 10
      vertex 67.171 3.503 10
    endloop
  endfacet
  facet normal 0 0 1
    outer loop
      vertex 42 24 10
      vertex 18 15.9 10
      vertex 24 15.9 10
    endloop
  endfacet
  facet normal 0 0 1
    outer loop
      vertex 42 3.9 10
      vertex 24 3.9 10
      vertex 67.171 3.503 10
    endloop
  endfacet
  facet normal 0 0 1
    outer loop
      vertex 42 15.9 10
      vertex 42 3.9 10
      vertex 47.305 11.4538 10
    endloop
  endfacet
  facet normal 0 0 1
    outer loop
      vertex 60.75 29.9593 10
      vertex 62.695 28.5462 10
      vertex 70.313 33.624 10
    endloop
  endfacet
  facet normal 0 0 1
    outer loop
      vertex 70.313 6.368 10
      vertex 42 3.9 10
      vertex 67.171 3.503 10
    endloop
  endfacet
  facet normal 0 0 1
    outer loop
      vertex 44.4942 15.3225 10
      vertex 43.7513 17.609 10
      vertex 42 15.9 10
    endloop
  endfacet
  facet normal 0 0 1
    outer loop
      vertex 42 36 10
      vertex 49.25 29.9593 10
      vertex 63.505 38.644 10
    endloop
  endfacet
  facet normal 0 0 1
    outer loop
      vertex 18 24 10
      vertex 18 15.9 10
      vertex 24 24 10
    endloop
  endfacet
  facet normal 0 0 1
    outer loop
      vertex 18 36 10
      vertex 24 36 10
      vertex 59.474 39.996 10
    endloop
  endfacet
  facet normal 0 0 1
    outer loop
      vertex 18 36 10
      vertex 18 24 10
      vertex 24 36 10
    endloop
  endfacet
  facet normal 0 0 1
    outer loop
      vertex 24 36 10
      vertex 42 36 10
      vertex 59.474 39.996 10
    endloop
  endfacet
  facet normal 0 0 1
    outer loop
      vertex 66.2487 22.391 10
      vertex 66.5 20 10
      vertex 75.391 22.122 10
    endloop
  endfacet
  facet normal 0 0 1
    outer loop
      vertex 64.3037 26.7595 10
      vertex 65.5058 24.6775 10
      vertex 72.796 30.172 10
    endloop
  endfacet
  facet normal 0 0 1
    outer loop
      vertex 62.695 28.5462 10
      vertex 64.3037 26.7595 10
      vertex 72.796 30.172 10
    endloop
  endfacet
  facet normal 0 0 1
    outer loop
      vertex 42 36 10
      vertex 42 24 10
      vertex 45.6963 26.7595 10
    endloop
  endfacet
  facet normal 0 0 1
    outer loop
      vertex 42 36 10
      vertex 45.6963 26.7595 10
      vertex 47.305 28.5462 10
    endloop
  endfacet
  facet normal 0 0 1
    outer loop
      vertex 51.4463 30.9371 10
      vertex 53.7979 31.437 10
      vertex 63.505 38.644 10
    endloop
  endfacet
  facet normal 0 0 1
    outer loop
      vertex 42 36 10
      vertex 47.305 28.5462 10
      vertex 49.25 29.9593 10
    endloop
  endfacet
  facet normal 0 0 1
    outer loop
      vertex 53.7979 31.437 10
      vertex 56.2021 31.437 10
      vertex 67.171 36.489 10
    endloop
  endfacet
  facet normal 0 0 1
    outer loop
      vertex 63.505 38.644 10
      vertex 53.7979 31.437 10
      vertex 67.171 36.489 10
    endloop
  endfacet
  facet normal 0 0 1
    outer loop
      vertex 67.171 36.489 10
      vertex 58.5537 30.9371 10
      vertex 70.313 33.624 10
    endloop
  endfacet
  facet normal 0 0 1
    outer loop
      vertex 58.5537 30.9371 10
      vertex 60.75 29.9593 10
      vertex 70.313 33.624 10
    endloop
  endfacet
  facet normal 0 0 1
    outer loop
      vertex 70.313 33.624 10
      vertex 62.695 28.5462 10
      vertex 72.796 30.172 10
    endloop
  endfacet
  facet normal 0 0 1
    outer loop
      vertex 65.5058 24.6775 10
      vertex 66.2487 22.391 10
      vertex 74.513 26.283 10
    endloop
  endfacet
  facet normal 0 0 1
    outer loop
      vertex 72.796 30.172 10
      vertex 65.5058 24.6775 10
      vertex 74.513 26.283 10
    endloop
  endfacet
  facet normal 0 0 1
    outer loop
      vertex 74.513 26.283 10
      vertex 66.2487 22.391 10
      vertex 75.391 22.122 10
    endloop
  endfacet
  facet normal 0 0 1
    outer loop
      vertex 43.7513 22.391 10
      vertex 44.4942 24.6775 10
      vertex 24 15.9 10
    endloop
  endfacet
  facet normal 0 0 1
    outer loop
      vertex 75.391 22.122 10
      vertex 66.2487 17.609 10
      vertex 75.391 17.87 10
    endloop
  endfacet
  facet normal 0 0 1
    outer loop
      vertex 75.391 17.87 10
      vertex 65.5058 15.3225 10
      vertex 74.513 13.709 10
    endloop
  endfacet
  facet normal 0 0 1
    outer loop
      vertex 65.5058 15.3225 10
      vertex 64.3037 13.2405 10
      vertex 74.513 13.709 10
    endloop
  endfacet
  facet normal 0 0 1
    outer loop
      vertex 74.513 13.709 10
      vertex 62.695 11.4538 10
      vertex 72.796 9.82 10
    endloop
  endfacet
  facet normal 0 0 1
    outer loop
      vertex 24 3.9 10
      vertex 24 15.9 10
      vertex 18 15.9 10
    endloop
  endfacet
  facet normal 0 0 1
    outer loop
      vertex 62.695 11.4538 10
      vertex 60.75 10.0407 10
      vertex 72.796 9.82 10
    endloop
  endfacet
  facet normal 0 0 1
    outer loop
      vertex 24 3.9 10
      vertex 18 15.9 10
      vertex 18 3.9 10
    endloop
  endfacet
  facet normal 0 0 1
    outer loop
      vertex 60.75 10.0407 10
      vertex 58.5537 9.06285 10
      vertex 72.796 9.82 10
    endloop
  endfacet
  facet normal 0 0 1
    outer loop
      vertex 58.5537 9.06285 10
      vertex 56.2021 8.563 10
      vertex 72.796 9.82 10
    endloop
  endfacet
  facet normal 0 0 1
    outer loop
      vertex 49.25 29.9593 10
      vertex 51.4463 30.9371 10
      vertex 63.505 38.644 10
    endloop
  endfacet
  facet normal 0 0 1
    outer loop
      vertex 66.2487 17.609 10
      vertex 65.5058 15.3225 10
      vertex 75.391 17.87 10
    endloop
  endfacet
  facet normal 0 0 1
    outer loop
      vertex 44.4942 24.6775 10
      vertex 45.6963 26.7595 10
      vertex 42 24 10
    endloop
  endfacet
  facet normal 0 0 1
    outer loop
      vertex 0.009 15.9 10
      vertex 18 15.9 10
      vertex 18 24 10
    endloop
  endfacet
  facet normal 0 0 1
    outer loop
      vertex 0.009 36 10
      vertex 2.448 39.996 10
      vertex 1.102 39.696 10
    endloop
  endfacet
  facet normal 0 0 1
    outer loop
      vertex 0.009 36 10
      vertex 18 36 10
      vertex 2.448 39.996 10
    endloop
  endfacet
  facet normal 0 0 1
    outer loop
      vertex 56.2021 31.437 10
      vertex 58.5537 30.9371 10
      vertex 67.171 36.489 10
    endloop
  endfacet
  facet normal 0 0 1
    outer loop
      vertex 64.3037 13.2405 10
      vertex 62.695 11.4538 10
      vertex 74.513 13.709 10
    endloop
  endfacet
  facet normal 0 0 1
    outer loop
      vertex 24 15.9 10
      vertex 43.5 20 10
      vertex 43.7513 22.391 10
    endloop
  endfacet
  facet normal 0 0 1
    outer loop
      vertex 24 15.9 10
      vertex 43.7513 17.609 10
      vertex 43.5 20 10
    endloop
  endfacet
  facet normal 0 0 1
    outer loop
      vertex 24 15.9 10
      vertex 42 15.9 10
      vertex 43.7513 17.609 10
    endloop
  endfacet
  facet normal 0 0 1
    outer loop
      vertex 42 24 10
      vertex 24 24 10
      vertex 18 15.9 10
    endloop
  endfacet
  facet normal 0 0 1
    outer loop
      vertex 66.5 20 10
      vertex 66.2487 17.609 10
      vertex 75.391 22.122 10
    endloop
  endfacet
  facet normal 0 0 1
    outer loop
      vertex 42 15.9 10
      vertex 45.6963 13.2405 10
      vertex 44.4942 15.3225 10
    endloop
  endfacet
  facet normal 0 0 1
    outer loop
      vertex 42 15.9 10
      vertex 47.305 11.4538 10
      vertex 45.6963 13.2405 10
    endloop
  endfacet
  facet normal 0 0 1
    outer loop
      vertex 53.7979 8.563 10
      vertex 42 3.9 10
      vertex 70.313 6.368 10
    endloop
  endfacet
  facet normal 0 0 1
    outer loop
      vertex 51.4463 9.06285 10
      vertex 42 3.9 10
      vertex 53.7979 8.563 10
    endloop
  endfacet
  facet normal 0 0 1
    outer loop
      vertex 56.2021 8.563 10
      vertex 70.313 6.368 10
      vertex 72.796 9.82 10
    endloop
  endfacet
  facet normal 0 0 1
    outer loop
      vertex 53.7979 8.563 10
      vertex 70.313 6.368 10
      vertex 56.2021 8.563 10
    endloop
  endfacet
  facet normal 0 0 1
    outer loop
      vertex 47.305 11.4538 10
      vertex 42 3.9 10
      vertex 49.25 10.0407 10
    endloop
  endfacet
  facet normal 0 0 1
    outer loop
      vertex 49.25 10.0407 10
      vertex 42 3.9 10
      vertex 51.4463 9.06285 10
    endloop
  endfacet
  facet normal -0.217545 -0.97605 0
    outer loop
      vertex 1.102 0.296 10
      vertex 1.102 0.296 0
      vertex 2.448 -0.004 0
    endloop
  endfacet
  facet normal -0.217545 -0.97605 0
    outer loop
      vertex 2.448 -0.004 10
      vertex 1.102 0.296 10
      vertex 2.448 -0.004 0
    endloop
  endfacet
  facet normal 0 -1 0
    outer loop
      vertex 2.448 -0.004 10
      vertex 2.448 -0.004 0
      vertex 59.474 -0.004 0
    endloop
  endfacet
  facet normal 0 -1 0
    outer loop
      vertex 59.474 -0.004 10
      vertex 2.448 -0.004 10
      vertex 59.474 -0.004 0
    endloop
  endfacet
  facet normal 0.317991 -0.948094 0
    outer loop
      vertex 59.474 -0.004 10
      vertex 59.474 -0.004 0
      vertex 63.505 1.348 0
    endloop
  endfacet
  facet normal 0.317991 -0.948094 0
    outer loop
      vertex 63.505 1.348 10
      vertex 59.474 -0.004 10
      vertex 63.505 1.348 0
    endloop
  endfacet
  facet normal 0.506763 -0.862085 0
    outer loop
      vertex 63.505 1.348 10
      vertex 63.505 1.348 0
      vertex 67.171 3.503 0
    endloop
  endfacet
  facet normal 0.506763 -0.862085 0
    outer loop
      vertex 67.171 3.503 10
      vertex 63.505 1.348 10
      vertex 67.171 3.503 0
    endloop
  endfacet
  facet normal 0.673784 -0.738928 0
    outer loop
      vertex 67.171 3.503 10
      vertex 67.171 3.503 0
      vertex 70.313 6.368 0
    endloop
  endfacet
  facet normal 0.673784 -0.738928 0
    outer loop
      vertex 70.313 6.368 10
      vertex 67.171 3.503 10
      vertex 70.313 6.368 0
    endloop
  endfacet
  facet normal 0.811806 -0.583927 0
    outer loop
      vertex 70.313 6.368 10
      vertex 70.313 6.368 0
      vertex 72.796 9.82 0
    endloop
  endfacet
  facet normal 0.811806 -0.583927 0
    outer loop
      vertex 72.796 9.82 10
      vertex 70.313 6.368 10
      vertex 72.796 9.82 0
    endloop
  endfacet
  facet normal 0.914808 -0.403889 0
    outer loop
      vertex 72.796 9.82 10
      vertex 72.796 9.82 0
      vertex 74.513 13.709 0
    endloop
  endfacet
  facet normal 0.914808 -0.403889 0
    outer loop
      vertex 74.513 13.709 10
      vertex 72.796 9.82 10
      vertex 74.513 13.709 0
    endloop
  endfacet
  facet normal 0.978455 -0.206461 0
    outer loop
      vertex 74.513 13.709 10
      vertex 74.513 13.709 0
      vertex 75.391 17.87 0
    endloop
  endfacet
  facet normal 0.978455 -0.206461 0
    outer loop
      vertex 75.391 17.87 10
      vertex 74.513 13.709 10
      vertex 75.391 17.87 0
    endloop
  endfacet
  facet normal 1 0 0
    outer loop
      vertex 75.391 17.87 10
      vertex 75.391 17.87 0
      vertex 75.391 22.122 0
    endloop
  endfacet
  facet normal 1 0 0
    outer loop
      vertex 75.391 22.122 10
      vertex 75.391 17.87 10
      vertex 75.391 22.122 0
    endloop
  endfacet
  facet normal 0.978455 0.206461 0
    outer loop
      vertex 75.391 22.122 0
      vertex 74.513 26.283 0
      vertex 74.513 26.283 10
    endloop
  endfacet
  facet normal 0.978455 0.206461 0
    outer loop
      vertex 75.391 22.122 10
      vertex 75.391 22.122 0
      vertex 74.513 26.283 10
    endloop
  endfacet
  facet normal 0.914808 0.403889 0
    outer loop
      vertex 74.513 26.283 0
      vertex 72.796 30.172 0
      vertex 72.796 30.172 10
    endloop
  endfacet
  facet normal 0.914808 0.403889 0
    outer loop
      vertex 74.513 26.283 10
      vertex 74.513 26.283 0
      vertex 72.796 30.172 10
    endloop
  endfacet
  facet normal 0.811806 0.583927 0
    outer loop
      vertex 72.796 30.172 0
      vertex 70.313 33.624 0
      vertex 70.313 33.624 10
    endloop
  endfacet
  facet normal 0.811806 0.583927 0
    outer loop
      vertex 72.796 30.172 10
      vertex 72.796 30.172 0
      vertex 70.313 33.624 10
    endloop
  endfacet
  facet normal 0.673784 0.738928 0
    outer loop
      vertex 67.171 36.489 0
      vertex 67.171 36.489 10
      vertex 70.313 33.624 0
    endloop
  endfacet
  facet normal 0.673784 0.738928 0
    outer loop
      vertex 70.313 33.624 0
      vertex 67.171 36.489 10
      vertex 70.313 33.624 10
    endloop
  endfacet
  facet normal 0.506763 0.862085 0
    outer loop
      vertex 63.505 38.644 0
      vertex 63.505 38.644 10
      vertex 67.171 36.489 0
    endloop
  endfacet
  facet normal 0.506763 0.862085 0
    outer loop
      vertex 67.171 36.489 0
      vertex 63.505 38.644 10
      vertex 67.171 36.489 10
    endloop
  endfacet
  facet normal 0.317991 0.948094 0
    outer loop
      vertex 59.474 39.996 0
      vertex 59.474 39.996 10
      vertex 63.505 38.644 0
    endloop
  endfacet
  facet normal 0.317991 0.948094 0
    outer loop
      vertex 63.505 38.644 0
      vertex 59.474 39.996 10
      vertex 63.505 38.644 10
    endloop
  endfacet
  facet normal 0 1 0
    outer loop
      vertex 2.448 39.996 0
      vertex 2.448 39.996 10
      vertex 59.474 39.996 0
    endloop
  endfacet
  facet normal 0 1 0
    outer loop
      vertex 59.474 39.996 0
      vertex 2.448 39.996 10
      vertex 59.474 39.996 10
    endloop
  endfacet
  facet normal -0.217545 0.97605 0
    outer loop
      vertex 1.102 39.696 0
      vertex 1.102 39.696 10
      vertex 2.448 39.996 0
    endloop
  endfacet
  facet normal -0.217545 0.97605 0
    outer loop
      vertex 2.448 39.996 0
      vertex 1.102 39.696 10
      vertex 2.448 39.996 10
    endloop
  endfacet
  facet normal -0.610271 0.792193 0
    outer loop
      vertex 0.009 38.854 0
      vertex 0.009 38.854 10
      vertex 1.102 39.696 0
    endloop
  endfacet
  facet normal -0.610271 0.792193 0
    outer loop
      vertex 1.102 39.696 0
      vertex 0.009 38.854 10
      vertex 1.102 39.696 10
    endloop
  endfacet
  facet normal 0.809223 -0.587502 0
    outer loop
      vertex 3.227 10.884 6
      vertex 3.227 10.884 0
      vertex 4.271 12.322 0
    endloop
  endfacet
  facet normal 0.809223 -0.587502 0
    outer loop
      vertex 4.271 12.322 6
      vertex 3.227 10.884 6
      vertex 4.271 12.322 0
    endloop
  endfacet
  facet normal 1 0 0
    outer loop
      vertex 3.227 9.108 6
      vertex 3.227 9.108 0
      vertex 3.227 10.884 0
    endloop
  endfacet
  facet normal 1 0 0
    outer loop
      vertex 3.227 10.884 6
      vertex 3.227 9.108 6
      vertex 3.227 10.884 0
    endloop
  endfacet
  facet normal 0.308959 -0.951075 0
    outer loop
      vertex 4.271 12.322 6
      vertex 4.271 12.322 0
      vertex 5.961 12.871 0
    endloop
  endfacet
  facet normal 0.308959 -0.951075 0
    outer loop
      vertex 5.961 12.871 6
      vertex 4.271 12.322 6
      vertex 5.961 12.871 0
    endloop
  endfacet
  facet normal 0 -1 0
    outer loop
      vertex 5.961 12.871 6
      vertex 5.961 12.871 0
      vertex 11.961 12.871 0
    endloop
  endfacet
  facet normal 0 -1 0
    outer loop
      vertex 11.961 12.871 6
      vertex 5.961 12.871 6
      vertex 11.961 12.871 0
    endloop
  endfacet
  facet normal -0.343279 -0.939234 0
    outer loop
      vertex 11.961 12.871 6
      vertex 11.961 12.871 0
      vertex 13.63 12.261 0
    endloop
  endfacet
  facet normal -0.343279 -0.939234 0
    outer loop
      vertex 13.63 12.261 6
      vertex 11.961 12.871 6
      vertex 13.63 12.261 0
    endloop
  endfacet
  facet normal -0.829618 -0.558332 0
    outer loop
      vertex 13.63 12.261 0
      vertex 14.622 10.787 0
      vertex 13.63 12.261 6
    endloop
  endfacet
  facet normal -0.829618 -0.558332 0
    outer loop
      vertex 13.63 12.261 6
      vertex 14.622 10.787 0
      vertex 14.622 10.787 6
    endloop
  endfacet
  facet normal -0.999331 0.0365746 0
    outer loop
      vertex 14.557 9.011 0
      vertex 14.557 9.011 6
      vertex 14.622 10.787 0
    endloop
  endfacet
  facet normal -0.999331 0.0365746 0
    outer loop
      vertex 14.622 10.787 0
      vertex 14.557 9.011 6
      vertex 14.622 10.787 6
    endloop
  endfacet
  facet normal -0.787469 0.616354 0
    outer loop
      vertex 13.462 7.612 0
      vertex 13.462 7.612 6
      vertex 14.557 9.011 0
    endloop
  endfacet
  facet normal -0.787469 0.616354 0
    outer loop
      vertex 14.557 9.011 0
      vertex 13.462 7.612 6
      vertex 14.557 9.011 6
    endloop
  endfacet
  facet normal -0.274052 0.961715 0
    outer loop
      vertex 11.753 7.125 0
      vertex 11.753 7.125 6
      vertex 13.462 7.612 0
    endloop
  endfacet
  facet normal -0.274052 0.961715 0
    outer loop
      vertex 13.462 7.612 0
      vertex 11.753 7.125 6
      vertex 13.462 7.612 6
    endloop
  endfacet
  facet normal -0.000690608 1 0
    outer loop
      vertex 5.961 7.121 0
      vertex 5.961 7.121 6
      vertex 11.753 7.125 0
    endloop
  endfacet
  facet normal -0.000690608 1 0
    outer loop
      vertex 11.753 7.125 0
      vertex 5.961 7.121 6
      vertex 11.753 7.125 6
    endloop
  endfacet
  facet normal 0.308959 0.951075 0
    outer loop
      vertex 4.271 7.67 0
      vertex 4.271 7.67 6
      vertex 5.961 7.121 0
    endloop
  endfacet
  facet normal 0.308959 0.951075 0
    outer loop
      vertex 5.961 7.121 0
      vertex 4.271 7.67 6
      vertex 5.961 7.121 6
    endloop
  endfacet
  facet normal 0.809223 0.587502 0
    outer loop
      vertex 4.271 7.67 0
      vertex 3.227 9.108 0
      vertex 3.227 9.108 6
    endloop
  endfacet
  facet normal 0.809223 0.587502 0
    outer loop
      vertex 4.271 7.67 6
      vertex 4.271 7.67 0
      vertex 3.227 9.108 6
    endloop
  endfacet
  facet normal 0.809223 -0.587502 0
    outer loop
      vertex 3.227 30.884 6
      vertex 3.227 30.884 0
      vertex 4.271 32.322 0
    endloop
  endfacet
  facet normal 0.809223 -0.587502 0
    outer loop
      vertex 4.271 32.322 6
      vertex 3.227 30.884 6
      vertex 4.271 32.322 0
    endloop
  endfacet
  facet normal 1 0 0
    outer loop
      vertex 3.227 29.108 6
      vertex 3.227 29.108 0
      vertex 3.227 30.884 0
    endloop
  endfacet
  facet normal 1 0 0
    outer loop
      vertex 3.227 30.884 6
      vertex 3.227 29.108 6
      vertex 3.227 30.884 0
    endloop
  endfacet
  facet normal 0.308959 -0.951075 0
    outer loop
      vertex 4.271 32.322 6
      vertex 4.271 32.322 0
      vertex 5.961 32.871 0
    endloop
  endfacet
  facet normal 0.308959 -0.951075 0
    outer loop
      vertex 5.961 32.871 6
      vertex 4.271 32.322 6
      vertex 5.961 32.871 0
    endloop
  endfacet
  facet normal 0 -1 0
    outer loop
      vertex 5.961 32.871 6
      vertex 5.961 32.871 0
      vertex 11.961 32.871 0
    endloop
  endfacet
  facet normal 0 -1 0
    outer loop
      vertex 11.961 32.871 6
      vertex 5.961 32.871 6
      vertex 11.961 32.871 0
    endloop
  endfacet
  facet normal -0.343279 -0.939234 0
    outer loop
      vertex 11.961 32.871 6
      vertex 11.961 32.871 0
      vertex 13.63 32.261 0
    endloop
  endfacet
  facet normal -0.343279 -0.939234 0
    outer loop
      vertex 13.63 32.261 6
      vertex 11.961 32.871 6
      vertex 13.63 32.261 0
    endloop
  endfacet
  facet normal -0.829618 -0.558332 0
    outer loop
      vertex 13.63 32.261 0
      vertex 14.622 30.787 0
      vertex 13.63 32.261 6
    endloop
  endfacet
  facet normal -0.829618 -0.558332 0
    outer loop
      vertex 13.63 32.261 6
      vertex 14.622 30.787 0
      vertex 14.622 30.787 6
    endloop
  endfacet
  facet normal -0.999331 0.0365746 0
    outer loop
      vertex 14.557 29.011 0
      vertex 14.557 29.011 6
      vertex 14.622 30.787 0
    endloop
  endfacet
  facet normal -0.999331 0.0365746 0
    outer loop
      vertex 14.622 30.787 0
      vertex 14.557 29.011 6
      vertex 14.622 30.787 6
    endloop
  endfacet
  facet normal -0.787469 0.616354 0
    outer loop
      vertex 13.462 27.612 0
      vertex 13.462 27.612 6
      vertex 14.557 29.011 0
    endloop
  endfacet
  facet normal -0.787469 0.616354 0
    outer loop
      vertex 14.557 29.011 0
      vertex 13.462 27.612 6
      vertex 14.557 29.011 6
    endloop
  endfacet
  facet normal -0.274052 0.961715 0
    outer loop
      vertex 11.753 27.125 0
      vertex 11.753 27.125 6
      vertex 13.462 27.612 0
    endloop
  endfacet
  facet normal -0.274052 0.961715 0
    outer loop
      vertex 13.462 27.612 0
      vertex 11.753 27.125 6
      vertex 13.462 27.612 6
    endloop
  endfacet
  facet normal -0.000690608 1 0
    outer loop
      vertex 5.961 27.121 0
      vertex 5.961 27.121 6
      vertex 11.753 27.125 0
    endloop
  endfacet
  facet normal -0.000690608 1 0
    outer loop
      vertex 11.753 27.125 0
      vertex 5.961 27.121 6
      vertex 11.753 27.125 6
    endloop
  endfacet
  facet normal 0.308959 0.951075 0
    outer loop
      vertex 4.271 27.67 0
      vertex 4.271 27.67 6
      vertex 5.961 27.121 0
    endloop
  endfacet
  facet normal 0.308959 0.951075 0
    outer loop
      vertex 5.961 27.121 0
      vertex 4.271 27.67 6
      vertex 5.961 27.121 6
    endloop
  endfacet
  facet normal 0.809223 0.587502 0
    outer loop
      vertex 4.271 27.67 0
      vertex 3.227 29.108 0
      vertex 3.227 29.108 6
    endloop
  endfacet
  facet normal 0.809223 0.587502 0
    outer loop
      vertex 4.271 27.67 6
      vertex 4.271 27.67 0
      vertex 3.227 29.108 6
    endloop
  endfacet
  facet normal 0.809223 -0.587502 0
    outer loop
      vertex 27.177 10.884 6
      vertex 27.177 10.884 0
      vertex 28.221 12.322 0
    endloop
  endfacet
  facet normal 0.809223 -0.587502 0
    outer loop
      vertex 28.221 12.322 6
      vertex 27.177 10.884 6
      vertex 28.221 12.322 0
    endloop
  endfacet
  facet normal 1 0 0
    outer loop
      vertex 27.177 9.108 6
      vertex 27.177 9.108 0
      vertex 27.177 10.884 0
    endloop
  endfacet
  facet normal 1 0 0
    outer loop
      vertex 27.177 10.884 6
      vertex 27.177 9.108 6
      vertex 27.177 10.884 0
    endloop
  endfacet
  facet normal 0.308959 -0.951075 0
    outer loop
      vertex 28.221 12.322 6
      vertex 28.221 12.322 0
      vertex 29.911 12.871 0
    endloop
  endfacet
  facet normal 0.308959 -0.951075 0
    outer loop
      vertex 29.911 12.871 6
      vertex 28.221 12.322 6
      vertex 29.911 12.871 0
    endloop
  endfacet
  facet normal 0 -1 0
    outer loop
      vertex 29.911 12.871 6
      vertex 29.911 12.871 0
      vertex 35.911 12.871 0
    endloop
  endfacet
  facet normal 0 -1 0
    outer loop
      vertex 35.911 12.871 6
      vertex 29.911 12.871 6
      vertex 35.911 12.871 0
    endloop
  endfacet
  facet normal -0.343279 -0.939234 0
    outer loop
      vertex 35.911 12.871 6
      vertex 35.911 12.871 0
      vertex 37.58 12.261 0
    endloop
  endfacet
  facet normal -0.343279 -0.939234 0
    outer loop
      vertex 37.58 12.261 6
      vertex 35.911 12.871 6
      vertex 37.58 12.261 0
    endloop
  endfacet
  facet normal -0.829618 -0.558332 0
    outer loop
      vertex 37.58 12.261 0
      vertex 38.572 10.787 0
      vertex 37.58 12.261 6
    endloop
  endfacet
  facet normal -0.829618 -0.558332 0
    outer loop
      vertex 37.58 12.261 6
      vertex 38.572 10.787 0
      vertex 38.572 10.787 6
    endloop
  endfacet
  facet normal -0.999331 0.0365746 0
    outer loop
      vertex 38.507 9.011 0
      vertex 38.507 9.011 6
      vertex 38.572 10.787 0
    endloop
  endfacet
  facet normal -0.999331 0.0365746 0
    outer loop
      vertex 38.572 10.787 0
      vertex 38.507 9.011 6
      vertex 38.572 10.787 6
    endloop
  endfacet
  facet normal -0.787469 0.616354 0
    outer loop
      vertex 37.412 7.612 0
      vertex 37.412 7.612 6
      vertex 38.507 9.011 0
    endloop
  endfacet
  facet normal -0.787469 0.616354 0
    outer loop
      vertex 38.507 9.011 0
      vertex 37.412 7.612 6
      vertex 38.507 9.011 6
    endloop
  endfacet
  facet normal -0.274052 0.961715 0
    outer loop
      vertex 35.703 7.125 0
      vertex 35.703 7.125 6
      vertex 37.412 7.612 0
    endloop
  endfacet
  facet normal -0.274052 0.961715 0
    outer loop
      vertex 37.412 7.612 0
      vertex 35.703 7.125 6
      vertex 37.412 7.612 6
    endloop
  endfacet
  facet normal -0.000690608 1 0
    outer loop
      vertex 29.911 7.121 0
      vertex 29.911 7.121 6
      vertex 35.703 7.125 0
    endloop
  endfacet
  facet normal -0.000690608 1 0
    outer loop
      vertex 35.703 7.125 0
      vertex 29.911 7.121 6
      vertex 35.703 7.125 6
    endloop
  endfacet
  facet normal 0.308959 0.951075 0
    outer loop
      vertex 28.221 7.67 0
      vertex 28.221 7.67 6
      vertex 29.911 7.121 0
    endloop
  endfacet
  facet normal 0.308959 0.951075 0
    outer loop
      vertex 29.911 7.121 0
      vertex 28.221 7.67 6
      vertex 29.911 7.121 6
    endloop
  endfacet
  facet normal 0.809223 0.587502 0
    outer loop
      vertex 28.221 7.67 0
      vertex 27.177 9.108 0
      vertex 27.177 9.108 6
    endloop
  endfacet
  facet normal 0.809223 0.587502 0
    outer loop
      vertex 28.221 7.67 6
      vertex 28.221 7.67 0
      vertex 27.177 9.108 6
    endloop
  endfacet
  facet normal 0.809223 -0.587502 0
    outer loop
      vertex 27.177 30.884 6
      vertex 27.177 30.884 0
      vertex 28.221 32.322 0
    endloop
  endfacet
  facet normal 0.809223 -0.587502 0
    outer loop
      vertex 28.221 32.322 6
      vertex 27.177 30.884 6
      vertex 28.221 32.322 0
    endloop
  endfacet
  facet normal 1 0 0
    outer loop
      vertex 27.177 29.108 6
      vertex 27.177 29.108 0
      vertex 27.177 30.884 0
    endloop
  endfacet
  facet normal 1 0 0
    outer loop
      vertex 27.177 30.884 6
      vertex 27.177 29.108 6
      vertex 27.177 30.884 0
    endloop
  endfacet
  facet normal 0.308959 -0.951075 0
    outer loop
      vertex 28.221 32.322 6
      vertex 28.221 32.322 0
      vertex 29.911 32.871 0
    endloop
  endfacet
  facet normal 0.308959 -0.951075 0
    outer loop
      vertex 29.911 32.871 6
      vertex 28.221 32.322 6
      vertex 29.911 32.871 0
    endloop
  endfacet
  facet normal 0 -1 0
    outer loop
      vertex 29.911 32.871 6
      vertex 29.911 32.871 0
      vertex 35.911 32.871 0
    endloop
  endfacet
  facet normal 0 -1 0
    outer loop
      vertex 35.911 32.871 6
      vertex 29.911 32.871 6
      vertex 35.911 32.871 0
    endloop
  endfacet
  facet normal -0.343279 -0.939234 0
    outer loop
      vertex 35.911 32.871 6
      vertex 35.911 32.871 0
      vertex 37.58 32.261 0
    endloop
  endfacet
  facet normal -0.343279 -0.939234 0
    outer loop
      vertex 37.58 32.261 6
      vertex 35.911 32.871 6
      vertex 37.58 32.261 0
    endloop
  endfacet
  facet normal -0.829618 -0.558332 0
    outer loop
      vertex 37.58 32.261 0
      vertex 38.572 30.787 0
      vertex 37.58 32.261 6
    endloop
  endfacet
  facet normal -0.829618 -0.558332 0
    outer loop
      vertex 37.58 32.261 6
      vertex 38.572 30.787 0
      vertex 38.572 30.787 6
    endloop
  endfacet
  facet normal -0.999331 0.0365746 0
    outer loop
      vertex 38.507 29.011 0
      vertex 38.507 29.011 6
      vertex 38.572 30.787 0
    endloop
  endfacet
  facet normal -0.999331 0.0365746 0
    outer loop
      vertex 38.572 30.787 0
      vertex 38.507 29.011 6
      vertex 38.572 30.787 6
    endloop
  endfacet
  facet normal -0.787469 0.616354 0
    outer loop
      vertex 37.412 27.612 0
      vertex 37.412 27.612 6
      vertex 38.507 29.011 0
    endloop
  endfacet
  facet normal -0.787469 0.616354 0
    outer loop
      vertex 38.507 29.011 0
      vertex 37.412 27.612 6
      vertex 38.507 29.011 6
    endloop
  endfacet
  facet normal -0.274052 0.961715 0
    outer loop
      vertex 35.703 27.125 0
      vertex 35.703 27.125 6
      vertex 37.412 27.612 0
    endloop
  endfacet
  facet normal -0.274052 0.961715 0
    outer loop
      vertex 37.412 27.612 0
      vertex 35.703 27.125 6
      vertex 37.412 27.612 6
    endloop
  endfacet
  facet normal -0.000690608 1 0
    outer loop
      vertex 29.911 27.121 0
      vertex 29.911 27.121 6
      vertex 35.703 27.125 0
    endloop
  endfacet
  facet normal -0.000690608 1 0
    outer loop
      vertex 35.703 27.125 0
      vertex 29.911 27.121 6
      vertex 35.703 27.125 6
    endloop
  endfacet
  facet normal 0.308959 0.951075 0
    outer loop
      vertex 28.221 27.67 0
      vertex 28.221 27.67 6
      vertex 29.911 27.121 0
    endloop
  endfacet
  facet normal 0.308959 0.951075 0
    outer loop
      vertex 29.911 27.121 0
      vertex 28.221 27.67 6
      vertex 29.911 27.121 6
    endloop
  endfacet
  facet normal 0.809223 0.587502 0
    outer loop
      vertex 28.221 27.67 0
      vertex 27.177 29.108 0
      vertex 27.177 29.108 6
    endloop
  endfacet
  facet normal 0.809223 0.587502 0
    outer loop
      vertex 28.221 27.67 6
      vertex 28.221 27.67 0
      vertex 27.177 29.108 6
    endloop
  endfacet
  facet normal 0.9945 0.104737 0
    outer loop
      vertex 45.717 18.021 0
      vertex 45.509 19.996 0
      vertex 45.509 19.996 3
    endloop
  endfacet
  facet normal 0.9945 0.104737 0
    outer loop
      vertex 45.717 18.021 3
      vertex 45.717 18.021 0
      vertex 45.509 19.996 3
    endloop
  endfacet
  facet normal 0.9945 -0.104737 0
    outer loop
      vertex 45.509 19.996 3
      vertex 45.509 19.996 0
      vertex 45.717 21.971 0
    endloop
  endfacet
  facet normal 0.9945 -0.104737 0
    outer loop
      vertex 45.717 21.971 3
      vertex 45.509 19.996 3
      vertex 45.717 21.971 0
    endloop
  endfacet
  facet normal 0.951171 -0.308665 0
    outer loop
      vertex 45.717 21.971 3
      vertex 45.717 21.971 0
      vertex 46.33 23.86 0
    endloop
  endfacet
  facet normal 0.951171 -0.308665 0
    outer loop
      vertex 46.33 23.86 3
      vertex 45.717 21.971 3
      vertex 46.33 23.86 0
    endloop
  endfacet
  facet normal 0.866035 -0.499984 0
    outer loop
      vertex 46.33 23.86 3
      vertex 46.33 23.86 0
      vertex 47.323 25.58 0
    endloop
  endfacet
  facet normal 0.866035 -0.499984 0
    outer loop
      vertex 47.323 25.58 3
      vertex 46.33 23.86 3
      vertex 47.323 25.58 0
    endloop
  endfacet
  facet normal 0.743144 -0.669132 0
    outer loop
      vertex 47.323 25.58 3
      vertex 47.323 25.58 0
      vertex 48.652 27.056 0
    endloop
  endfacet
  facet normal 0.743144 -0.669132 0
    outer loop
      vertex 48.652 27.056 3
      vertex 47.323 25.58 3
      vertex 48.652 27.056 0
    endloop
  endfacet
  facet normal 0.587603 -0.80915 0
    outer loop
      vertex 48.652 27.056 3
      vertex 48.652 27.056 0
      vertex 50.259 28.223 0
    endloop
  endfacet
  facet normal 0.587603 -0.80915 0
    outer loop
      vertex 50.259 28.223 3
      vertex 48.652 27.056 3
      vertex 50.259 28.223 0
    endloop
  endfacet
  facet normal 0.406886 -0.913479 0
    outer loop
      vertex 50.259 28.223 3
      vertex 50.259 28.223 0
      vertex 52.073 29.031 0
    endloop
  endfacet
  facet normal 0.406886 -0.913479 0
    outer loop
      vertex 52.073 29.031 3
      vertex 50.259 28.223 3
      vertex 52.073 29.031 0
    endloop
  endfacet
  facet normal 0.207913 -0.978147 0
    outer loop
      vertex 52.073 29.031 3
      vertex 52.073 29.031 0
      vertex 54.016 29.444 0
    endloop
  endfacet
  facet normal 0.207913 -0.978147 0
    outer loop
      vertex 54.016 29.444 3
      vertex 52.073 29.031 3
      vertex 54.016 29.444 0
    endloop
  endfacet
  facet normal 0 -1 0
    outer loop
      vertex 54.016 29.444 3
      vertex 54.016 29.444 0
      vertex 56.002 29.444 0
    endloop
  endfacet
  facet normal 0 -1 0
    outer loop
      vertex 56.002 29.444 3
      vertex 54.016 29.444 3
      vertex 56.002 29.444 0
    endloop
  endfacet
  facet normal -0.207913 -0.978147 0
    outer loop
      vertex 56.002 29.444 3
      vertex 56.002 29.444 0
      vertex 57.945 29.031 0
    endloop
  endfacet
  facet normal -0.207913 -0.978147 0
    outer loop
      vertex 57.945 29.031 3
      vertex 56.002 29.444 3
      vertex 57.945 29.031 0
    endloop
  endfacet
  facet normal -0.406886 -0.913479 0
    outer loop
      vertex 57.945 29.031 3
      vertex 57.945 29.031 0
      vertex 59.759 28.223 0
    endloop
  endfacet
  facet normal -0.406886 -0.913479 0
    outer loop
      vertex 59.759 28.223 3
      vertex 57.945 29.031 3
      vertex 59.759 28.223 0
    endloop
  endfacet
  facet normal -0.587603 -0.80915 0
    outer loop
      vertex 59.759 28.223 3
      vertex 59.759 28.223 0
      vertex 61.366 27.056 0
    endloop
  endfacet
  facet normal -0.587603 -0.80915 0
    outer loop
      vertex 61.366 27.056 3
      vertex 59.759 28.223 3
      vertex 61.366 27.056 0
    endloop
  endfacet
  facet normal -0.743144 -0.669132 0
    outer loop
      vertex 61.366 27.056 0
      vertex 62.695 25.58 0
      vertex 61.366 27.056 3
    endloop
  endfacet
  facet normal -0.743144 -0.669132 0
    outer loop
      vertex 61.366 27.056 3
      vertex 62.695 25.58 0
      vertex 62.695 25.58 3
    endloop
  endfacet
  facet normal -0.866035 -0.499984 0
    outer loop
      vertex 62.695 25.58 0
      vertex 63.688 23.86 0
      vertex 62.695 25.58 3
    endloop
  endfacet
  facet normal -0.866035 -0.499984 0
    outer loop
      vertex 62.695 25.58 3
      vertex 63.688 23.86 0
      vertex 63.688 23.86 3
    endloop
  endfacet
  facet normal -0.951023 -0.30912 0
    outer loop
      vertex 63.688 23.86 0
      vertex 64.302 21.971 0
      vertex 63.688 23.86 3
    endloop
  endfacet
  facet normal -0.951023 -0.30912 0
    outer loop
      vertex 63.688 23.86 3
      vertex 64.302 21.971 0
      vertex 64.302 21.971 3
    endloop
  endfacet
  facet normal -0.994552 -0.104239 0
    outer loop
      vertex 64.302 21.971 0
      vertex 64.509 19.996 0
      vertex 64.302 21.971 3
    endloop
  endfacet
  facet normal -0.994552 -0.104239 0
    outer loop
      vertex 64.302 21.971 3
      vertex 64.509 19.996 0
      vertex 64.509 19.996 3
    endloop
  endfacet
  facet normal -0.994552 0.104239 0
    outer loop
      vertex 64.302 18.021 0
      vertex 64.302 18.021 3
      vertex 64.509 19.996 0
    endloop
  endfacet
  facet normal -0.994552 0.104239 0
    outer loop
      vertex 64.509 19.996 0
      vertex 64.302 18.021 3
      vertex 64.509 19.996 3
    endloop
  endfacet
  facet normal -0.951023 0.30912 0
    outer loop
      vertex 63.688 16.132 0
      vertex 63.688 16.132 3
      vertex 64.302 18.021 0
    endloop
  endfacet
  facet normal -0.951023 0.30912 0
    outer loop
      vertex 64.302 18.021 0
      vertex 63.688 16.132 3
      vertex 64.302 18.021 3
    endloop
  endfacet
  facet normal -0.866035 0.499984 0
    outer loop
      vertex 62.695 14.412 0
      vertex 62.695 14.412 3
      vertex 63.688 16.132 0
    endloop
  endfacet
  facet normal -0.866035 0.499984 0
    outer loop
      vertex 63.688 16.132 0
      vertex 62.695 14.412 3
      vertex 63.688 16.132 3
    endloop
  endfacet
  facet normal -0.743144 0.669132 0
    outer loop
      vertex 61.366 12.936 0
      vertex 61.366 12.936 3
      vertex 62.695 14.412 0
    endloop
  endfacet
  facet normal -0.743144 0.669132 0
    outer loop
      vertex 62.695 14.412 0
      vertex 61.366 12.936 3
      vertex 62.695 14.412 3
    endloop
  endfacet
  facet normal -0.587603 0.80915 0
    outer loop
      vertex 59.759 11.769 0
      vertex 59.759 11.769 3
      vertex 61.366 12.936 0
    endloop
  endfacet
  facet normal -0.587603 0.80915 0
    outer loop
      vertex 61.366 12.936 0
      vertex 59.759 11.769 3
      vertex 61.366 12.936 3
    endloop
  endfacet
  facet normal -0.406886 0.913479 0
    outer loop
      vertex 57.945 10.961 0
      vertex 57.945 10.961 3
      vertex 59.759 11.769 0
    endloop
  endfacet
  facet normal -0.406886 0.913479 0
    outer loop
      vertex 59.759 11.769 0
      vertex 57.945 10.961 3
      vertex 59.759 11.769 3
    endloop
  endfacet
  facet normal -0.207913 0.978147 0
    outer loop
      vertex 56.002 10.548 0
      vertex 56.002 10.548 3
      vertex 57.945 10.961 0
    endloop
  endfacet
  facet normal -0.207913 0.978147 0
    outer loop
      vertex 57.945 10.961 0
      vertex 56.002 10.548 3
      vertex 57.945 10.961 3
    endloop
  endfacet
  facet normal 0 1 0
    outer loop
      vertex 54.016 10.548 0
      vertex 54.016 10.548 3
      vertex 56.002 10.548 0
    endloop
  endfacet
  facet normal 0 1 0
    outer loop
      vertex 56.002 10.548 0
      vertex 54.016 10.548 3
      vertex 56.002 10.548 3
    endloop
  endfacet
  facet normal 0.207913 0.978147 0
    outer loop
      vertex 52.073 10.961 0
      vertex 52.073 10.961 3
      vertex 54.016 10.548 0
    endloop
  endfacet
  facet normal 0.207913 0.978147 0
    outer loop
      vertex 54.016 10.548 0
      vertex 52.073 10.961 3
      vertex 54.016 10.548 3
    endloop
  endfacet
  facet normal 0.406886 0.913479 0
    outer loop
      vertex 50.259 11.769 0
      vertex 50.259 11.769 3
      vertex 52.073 10.961 0
    endloop
  endfacet
  facet normal 0.406886 0.913479 0
    outer loop
      vertex 52.073 10.961 0
      vertex 50.259 11.769 3
      vertex 52.073 10.961 3
    endloop
  endfacet
  facet normal 0.587603 0.80915 0
    outer loop
      vertex 48.652 12.936 0
      vertex 48.652 12.936 3
      vertex 50.259 11.769 0
    endloop
  endfacet
  facet normal 0.587603 0.80915 0
    outer loop
      vertex 50.259 11.769 0
      vertex 48.652 12.936 3
      vertex 50.259 11.769 3
    endloop
  endfacet
  facet normal 0.743144 0.669132 0
    outer loop
      vertex 48.652 12.936 0
      vertex 47.323 14.412 0
      vertex 47.323 14.412 3
    endloop
  endfacet
  facet normal 0.743144 0.669132 0
    outer loop
      vertex 48.652 12.936 3
      vertex 48.652 12.936 0
      vertex 47.323 14.412 3
    endloop
  endfacet
  facet normal 0.866035 0.499984 0
    outer loop
      vertex 47.323 14.412 0
      vertex 46.33 16.132 0
      vertex 46.33 16.132 3
    endloop
  endfacet
  facet normal 0.866035 0.499984 0
    outer loop
      vertex 47.323 14.412 3
      vertex 47.323 14.412 0
      vertex 46.33 16.132 3
    endloop
  endfacet
  facet normal 0.951171 0.308665 0
    outer loop
      vertex 46.33 16.132 0
      vertex 45.717 18.021 0
      vertex 45.717 18.021 3
    endloop
  endfacet
  facet normal 0.951171 0.308665 0
    outer loop
      vertex 46.33 16.132 3
      vertex 46.33 16.132 0
      vertex 45.717 18.021 3
    endloop
  endfacet
  facet normal 0 -1 0
    outer loop
      vertex 18 36 6
      vertex 18 36 10
      vertex 0.009 36 10
    endloop
  endfacet
  facet normal 0 -1 0
    outer loop
      vertex 0.009 36 6
      vertex 18 36 6
      vertex 0.009 36 10
    endloop
  endfacet
  facet normal 0 0 1
    outer loop
      vertex 5.961 32.871 6
      vertex 18 36 6
      vertex 0.009 36 6
    endloop
  endfacet
  facet normal 0 0 1
    outer loop
      vertex 0.009 24 6
      vertex 3.227 30.884 6
      vertex 0.009 36 6
    endloop
  endfacet
  facet normal 0 0 1
    outer loop
      vertex 3.227 30.884 6
      vertex 4.271 32.322 6
      vertex 0.009 36 6
    endloop
  endfacet
  facet normal 0 0 1
    outer loop
      vertex 11.961 32.871 6
      vertex 18 36 6
      vertex 5.961 32.871 6
    endloop
  endfacet
  facet normal 0 0 1
    outer loop
      vertex 13.63 32.261 6
      vertex 18 36 6
      vertex 11.961 32.871 6
    endloop
  endfacet
  facet normal 0 0 1
    outer loop
      vertex 14.622 30.787 6
      vertex 18 36 6
      vertex 13.63 32.261 6
    endloop
  endfacet
  facet normal 0 0 1
    outer loop
      vertex 13.462 27.612 6
      vertex 11.753 27.125 6
      vertex 18 24 6
    endloop
  endfacet
  facet normal 0 0 1
    outer loop
      vertex 18 24 6
      vertex 18 36 6
      vertex 14.622 30.787 6
    endloop
  endfacet
  facet normal 0 0 1
    outer loop
      vertex 18 24 6
      vertex 14.557 29.011 6
      vertex 13.462 27.612 6
    endloop
  endfacet
  facet normal 0 0 1
    outer loop
      vertex 0.009 24 6
      vertex 18 24 6
      vertex 5.961 27.121 6
    endloop
  endfacet
  facet normal 0 0 1
    outer loop
      vertex 0.009 24 6
      vertex 5.961 27.121 6
      vertex 4.271 27.67 6
    endloop
  endfacet
  facet normal 0 0 1
    outer loop
      vertex 0.009 24 6
      vertex 3.227 29.108 6
      vertex 3.227 30.884 6
    endloop
  endfacet
  facet normal 0 0 1
    outer loop
      vertex 0.009 24 6
      vertex 4.271 27.67 6
      vertex 3.227 29.108 6
    endloop
  endfacet
  facet normal 0 0 1
    outer loop
      vertex 11.753 27.125 6
      vertex 5.961 27.121 6
      vertex 18 24 6
    endloop
  endfacet
  facet normal 0 0 1
    outer loop
      vertex 4.271 32.322 6
      vertex 5.961 32.871 6
      vertex 0.009 36 6
    endloop
  endfacet
  facet normal 0 0 1
    outer loop
      vertex 14.622 30.787 6
      vertex 14.557 29.011 6
      vertex 18 24 6
    endloop
  endfacet
  facet normal 0 1 0
    outer loop
      vertex 18 24 10
      vertex 18 24 6
      vertex 0.009 24 10
    endloop
  endfacet
  facet normal 0 1 0
    outer loop
      vertex 0.009 24 10
      vertex 18 24 6
      vertex 0.009 24 6
    endloop
  endfacet
  facet normal 0 -1 0
    outer loop
      vertex 18 15.9 6
      vertex 18 15.9 10
      vertex 0.009 15.9 10
    endloop
  endfacet
  facet normal 0 -1 0
    outer loop
      vertex 0.009 15.9 6
      vertex 18 15.9 6
      vertex 0.009 15.9 10
    endloop
  endfacet
  facet normal 0 0 1
    outer loop
      vertex 5.961 12.871 6
      vertex 18 15.9 6
      vertex 0.009 15.9 6
    endloop
  endfacet
  facet normal 0 0 1
    outer loop
      vertex 0.009 3.9 6
      vertex 3.227 10.884 6
      vertex 0.009 15.9 6
    endloop
  endfacet
  facet normal 0 0 1
    outer loop
      vertex 3.227 10.884 6
      vertex 4.271 12.322 6
      vertex 0.009 15.9 6
    endloop
  endfacet
  facet normal 0 0 1
    outer loop
      vertex 11.961 12.871 6
      vertex 18 15.9 6
      vertex 5.961 12.871 6
    endloop
  endfacet
  facet normal 0 0 1
    outer loop
      vertex 13.63 12.261 6
      vertex 18 15.9 6
      vertex 11.961 12.871 6
    endloop
  endfacet
  facet normal 0 0 1
    outer loop
      vertex 14.622 10.787 6
      vertex 18 15.9 6
      vertex 13.63 12.261 6
    endloop
  endfacet
  facet normal 0 0 1
    outer loop
      vertex 13.462 7.612 6
      vertex 11.753 7.125 6
      vertex 18 3.9 6
    endloop
  endfacet
  facet normal 0 0 1
    outer loop
      vertex 18 3.9 6
      vertex 18 15.9 6
      vertex 14.622 10.787 6
    endloop
  endfacet
  facet normal 0 0 1
    outer loop
      vertex 18 3.9 6
      vertex 14.557 9.011 6
      vertex 13.462 7.612 6
    endloop
  endfacet
  facet normal 0 0 1
    outer loop
      vertex 0.009 3.9 6
      vertex 18 3.9 6
      vertex 5.961 7.121 6
    endloop
  endfacet
  facet normal 0 0 1
    outer loop
      vertex 0.009 3.9 6
      vertex 5.961 7.121 6
      vertex 4.271 7.67 6
    endloop
  endfacet
  facet normal 0 0 1
    outer loop
      vertex 0.009 3.9 6
      vertex 3.227 9.108 6
      vertex 3.227 10.884 6
    endloop
  endfacet
  facet normal 0 0 1
    outer loop
      vertex 0.009 3.9 6
      vertex 4.271 7.67 6
      vertex 3.227 9.108 6
    endloop
  endfacet
  facet normal 0 0 1
    outer loop
      vertex 11.753 7.125 6
      vertex 5.961 7.121 6
      vertex 18 3.9 6
    endloop
  endfacet
  facet normal 0 0 1
    outer loop
      vertex 4.271 12.322 6
      vertex 5.961 12.871 6
      vertex 0.009 15.9 6
    endloop
  endfacet
  facet normal 0 0 1
    outer loop
      vertex 14.622 10.787 6
      vertex 14.557 9.011 6
      vertex 18 3.9 6
    endloop
  endfacet
  facet normal 0 1 0
    outer loop
      vertex 18 3.9 10
      vertex 18 3.9 6
      vertex 0.009 3.9 10
    endloop
  endfacet
  facet normal 0 1 0
    outer loop
      vertex 0.009 3.9 10
      vertex 18 3.9 6
      vertex 0.009 3.9 6
    endloop
  endfacet
  facet normal -1 0 0
    outer loop
      vertex 18 15.9 10
      vertex 18 15.9 6
      vertex 18 3.9 10
    endloop
  endfacet
  facet normal -1 0 0
    outer loop
      vertex 18 3.9 10
      vertex 18 15.9 6
      vertex 18 3.9 6
    endloop
  endfacet
  facet normal -1 0 0
    outer loop
      vertex 18 36 10
      vertex 18 36 6
      vertex 18 24 10
    endloop
  endfacet
  facet normal -1 0 0
    outer loop
      vertex 18 24 10
      vertex 18 36 6
      vertex 18 24 6
    endloop
  endfacet
  facet normal 1 0 0
    outer loop
      vertex 24 15.9 6
      vertex 24 15.9 10
      vertex 24 3.9 10
    endloop
  endfacet
  facet normal 1 0 0
    outer loop
      vertex 24 3.9 6
      vertex 24 15.9 6
      vertex 24 3.9 10
    endloop
  endfacet
  facet normal 0 1 0
    outer loop
      vertex 42 3.9 10
      vertex 42 3.9 6
      vertex 24 3.9 10
    endloop
  endfacet
  facet normal 0 1 0
    outer loop
      vertex 24 3.9 10
      vertex 42 3.9 6
      vertex 24 3.9 6
    endloop
  endfacet
  facet normal -1 0 0
    outer loop
      vertex 42 15.9 10
      vertex 42 15.9 6
      vertex 42 3.9 10
    endloop
  endfacet
  facet normal -1 0 0
    outer loop
      vertex 42 3.9 10
      vertex 42 15.9 6
      vertex 42 3.9 6
    endloop
  endfacet
  facet normal 0 -1 0
    outer loop
      vertex 42 15.9 6
      vertex 42 15.9 10
      vertex 24 15.9 10
    endloop
  endfacet
  facet normal 0 -1 0
    outer loop
      vertex 24 15.9 6
      vertex 42 15.9 6
      vertex 24 15.9 10
    endloop
  endfacet
  facet normal 1 0 0
    outer loop
      vertex 24 36 6
      vertex 24 36 10
      vertex 24 24 10
    endloop
  endfacet
  facet normal 1 0 0
    outer loop
      vertex 24 24 6
      vertex 24 36 6
      vertex 24 24 10
    endloop
  endfacet
  facet normal 0 1 0
    outer loop
      vertex 42 24 10
      vertex 42 24 6
      vertex 24 24 10
    endloop
  endfacet
  facet normal 0 1 0
    outer loop
      vertex 24 24 10
      vertex 42 24 6
      vertex 24 24 6
    endloop
  endfacet
  facet normal -1 0 0
    outer loop
      vertex 42 36 10
      vertex 42 36 6
      vertex 42 24 10
    endloop
  endfacet
  facet normal -1 0 0
    outer loop
      vertex 42 24 10
      vertex 42 36 6
      vertex 42 24 6
    endloop
  endfacet
  facet normal 0 -1 0
    outer loop
      vertex 42 36 6
      vertex 42 36 10
      vertex 24 36 10
    endloop
  endfacet
  facet normal 0 -1 0
    outer loop
      vertex 24 36 6
      vertex 42 36 6
      vertex 24 36 10
    endloop
  endfacet
  facet normal 0.951057 0.309017 0
    outer loop
      vertex 43.7513 17.609 10
      vertex 44.4942 15.3225 10
      vertex 44.4942 15.3225 3
    endloop
  endfacet
  facet normal 0.951057 0.309017 0
    outer loop
      vertex 43.7513 17.609 3
      vertex 43.7513 17.609 10
      vertex 44.4942 15.3225 3
    endloop
  endfacet
  facet normal 0.994522 0.104529 0
    outer loop
      vertex 43.5 20 10
      vertex 43.7513 17.609 10
      vertex 43.7513 17.609 3
    endloop
  endfacet
  facet normal 0.994522 0.104529 0
    outer loop
      vertex 43.5 20 3
      vertex 43.5 20 10
      vertex 43.7513 17.609 3
    endloop
  endfacet
  facet normal 0.866025 0.5 0
    outer loop
      vertex 44.4942 15.3225 10
      vertex 45.6963 13.2405 10
      vertex 45.6963 13.2405 3
    endloop
  endfacet
  facet normal 0.866025 0.5 0
    outer loop
      vertex 44.4942 15.3225 3
      vertex 44.4942 15.3225 10
      vertex 45.6963 13.2405 3
    endloop
  endfacet
  facet normal 0.743145 0.669131 0
    outer loop
      vertex 45.6963 13.2405 10
      vertex 47.305 11.4538 10
      vertex 47.305 11.4538 3
    endloop
  endfacet
  facet normal 0.743145 0.669131 0
    outer loop
      vertex 45.6963 13.2405 3
      vertex 45.6963 13.2405 10
      vertex 47.305 11.4538 3
    endloop
  endfacet
  facet normal 0.587785 0.809017 0
    outer loop
      vertex 49.25 10.0407 10
      vertex 49.25 10.0407 3
      vertex 47.305 11.4538 10
    endloop
  endfacet
  facet normal 0.587785 0.809017 0
    outer loop
      vertex 47.305 11.4538 10
      vertex 49.25 10.0407 3
      vertex 47.305 11.4538 3
    endloop
  endfacet
  facet normal 0.406737 0.913545 0
    outer loop
      vertex 51.4463 9.06285 10
      vertex 51.4463 9.06285 3
      vertex 49.25 10.0407 10
    endloop
  endfacet
  facet normal 0.406737 0.913545 0
    outer loop
      vertex 49.25 10.0407 10
      vertex 51.4463 9.06285 3
      vertex 49.25 10.0407 3
    endloop
  endfacet
  facet normal 0.207912 0.978148 0
    outer loop
      vertex 53.7979 8.563 10
      vertex 53.7979 8.563 3
      vertex 51.4463 9.06285 10
    endloop
  endfacet
  facet normal 0.207912 0.978148 0
    outer loop
      vertex 51.4463 9.06285 10
      vertex 53.7979 8.563 3
      vertex 51.4463 9.06285 3
    endloop
  endfacet
  facet normal 0 1 0
    outer loop
      vertex 56.2021 8.563 10
      vertex 56.2021 8.563 3
      vertex 53.7979 8.563 10
    endloop
  endfacet
  facet normal 0 1 0
    outer loop
      vertex 53.7979 8.563 10
      vertex 56.2021 8.563 3
      vertex 53.7979 8.563 3
    endloop
  endfacet
  facet normal -0.207912 0.978148 0
    outer loop
      vertex 58.5537 9.06285 10
      vertex 58.5537 9.06285 3
      vertex 56.2021 8.563 10
    endloop
  endfacet
  facet normal -0.207912 0.978148 0
    outer loop
      vertex 56.2021 8.563 10
      vertex 58.5537 9.06285 3
      vertex 56.2021 8.563 3
    endloop
  endfacet
  facet normal -0.406737 0.913545 0
    outer loop
      vertex 60.75 10.0407 10
      vertex 60.75 10.0407 3
      vertex 58.5537 9.06285 10
    endloop
  endfacet
  facet normal -0.406737 0.913545 0
    outer loop
      vertex 58.5537 9.06285 10
      vertex 60.75 10.0407 3
      vertex 58.5537 9.06285 3
    endloop
  endfacet
  facet normal -0.587785 0.809017 0
    outer loop
      vertex 62.695 11.4538 10
      vertex 62.695 11.4538 3
      vertex 60.75 10.0407 10
    endloop
  endfacet
  facet normal -0.587785 0.809017 0
    outer loop
      vertex 60.75 10.0407 10
      vertex 62.695 11.4538 3
      vertex 60.75 10.0407 3
    endloop
  endfacet
  facet normal -0.743145 0.669131 0
    outer loop
      vertex 64.3037 13.2405 10
      vertex 64.3037 13.2405 3
      vertex 62.695 11.4538 10
    endloop
  endfacet
  facet normal -0.743145 0.669131 0
    outer loop
      vertex 62.695 11.4538 10
      vertex 64.3037 13.2405 3
      vertex 62.695 11.4538 3
    endloop
  endfacet
  facet normal -0.866025 0.5 0
    outer loop
      vertex 65.5058 15.3225 10
      vertex 65.5058 15.3225 3
      vertex 64.3037 13.2405 10
    endloop
  endfacet
  facet normal -0.866025 0.5 0
    outer loop
      vertex 64.3037 13.2405 10
      vertex 65.5058 15.3225 3
      vertex 64.3037 13.2405 3
    endloop
  endfacet
  facet normal -0.951057 0.309017 0
    outer loop
      vertex 66.2487 17.609 10
      vertex 66.2487 17.609 3
      vertex 65.5058 15.3225 10
    endloop
  endfacet
  facet normal -0.951057 0.309017 0
    outer loop
      vertex 65.5058 15.3225 10
      vertex 66.2487 17.609 3
      vertex 65.5058 15.3225 3
    endloop
  endfacet
  facet normal -0.994522 0.104529 0
    outer loop
      vertex 66.5 20 10
      vertex 66.5 20 3
      vertex 66.2487 17.609 10
    endloop
  endfacet
  facet normal -0.994522 0.104529 0
    outer loop
      vertex 66.2487 17.609 10
      vertex 66.5 20 3
      vertex 66.2487 17.609 3
    endloop
  endfacet
  facet normal -0.994522 -0.104529 0
    outer loop
      vertex 66.5 20 10
      vertex 66.2487 22.391 10
      vertex 66.5 20 3
    endloop
  endfacet
  facet normal -0.994522 -0.104529 0
    outer loop
      vertex 66.5 20 3
      vertex 66.2487 22.391 10
      vertex 66.2487 22.391 3
    endloop
  endfacet
  facet normal -0.951057 -0.309017 0
    outer loop
      vertex 66.2487 22.391 10
      vertex 65.5058 24.6775 10
      vertex 66.2487 22.391 3
    endloop
  endfacet
  facet normal -0.951057 -0.309017 0
    outer loop
      vertex 66.2487 22.391 3
      vertex 65.5058 24.6775 10
      vertex 65.5058 24.6775 3
    endloop
  endfacet
  facet normal -0.866025 -0.5 0
    outer loop
      vertex 65.5058 24.6775 10
      vertex 64.3037 26.7595 10
      vertex 65.5058 24.6775 3
    endloop
  endfacet
  facet normal -0.866025 -0.5 0
    outer loop
      vertex 65.5058 24.6775 3
      vertex 64.3037 26.7595 10
      vertex 64.3037 26.7595 3
    endloop
  endfacet
  facet normal -0.743145 -0.669131 0
    outer loop
      vertex 64.3037 26.7595 10
      vertex 62.695 28.5462 10
      vertex 64.3037 26.7595 3
    endloop
  endfacet
  facet normal -0.743145 -0.669131 0
    outer loop
      vertex 64.3037 26.7595 3
      vertex 62.695 28.5462 10
      vertex 62.695 28.5462 3
    endloop
  endfacet
  facet normal -0.587785 -0.809017 0
    outer loop
      vertex 62.695 28.5462 3
      vertex 62.695 28.5462 10
      vertex 60.75 29.9593 10
    endloop
  endfacet
  facet normal -0.587785 -0.809017 0
    outer loop
      vertex 60.75 29.9593 3
      vertex 62.695 28.5462 3
      vertex 60.75 29.9593 10
    endloop
  endfacet
  facet normal -0.406737 -0.913545 0
    outer loop
      vertex 60.75 29.9593 3
      vertex 60.75 29.9593 10
      vertex 58.5537 30.9371 10
    endloop
  endfacet
  facet normal -0.406737 -0.913545 0
    outer loop
      vertex 58.5537 30.9371 3
      vertex 60.75 29.9593 3
      vertex 58.5537 30.9371 10
    endloop
  endfacet
  facet normal -0.207912 -0.978148 0
    outer loop
      vertex 58.5537 30.9371 3
      vertex 58.5537 30.9371 10
      vertex 56.2021 31.437 10
    endloop
  endfacet
  facet normal -0.207912 -0.978148 0
    outer loop
      vertex 56.2021 31.437 3
      vertex 58.5537 30.9371 3
      vertex 56.2021 31.437 10
    endloop
  endfacet
  facet normal 0 -1 0
    outer loop
      vertex 56.2021 31.437 3
      vertex 56.2021 31.437 10
      vertex 53.7979 31.437 10
    endloop
  endfacet
  facet normal 0 -1 0
    outer loop
      vertex 53.7979 31.437 3
      vertex 56.2021 31.437 3
      vertex 53.7979 31.437 10
    endloop
  endfacet
  facet normal 0.207912 -0.978148 0
    outer loop
      vertex 53.7979 31.437 3
      vertex 53.7979 31.437 10
      vertex 51.4463 30.9371 10
    endloop
  endfacet
  facet normal 0.207912 -0.978148 0
    outer loop
      vertex 51.4463 30.9371 3
      vertex 53.7979 31.437 3
      vertex 51.4463 30.9371 10
    endloop
  endfacet
  facet normal 0.406737 -0.913545 0
    outer loop
      vertex 51.4463 30.9371 3
      vertex 51.4463 30.9371 10
      vertex 49.25 29.9593 10
    endloop
  endfacet
  facet normal 0.406737 -0.913545 0
    outer loop
      vertex 49.25 29.9593 3
      vertex 51.4463 30.9371 3
      vertex 49.25 29.9593 10
    endloop
  endfacet
  facet normal 0.587785 -0.809017 0
    outer loop
      vertex 49.25 29.9593 3
      vertex 49.25 29.9593 10
      vertex 47.305 28.5462 10
    endloop
  endfacet
  facet normal 0.587785 -0.809017 0
    outer loop
      vertex 47.305 28.5462 3
      vertex 49.25 29.9593 3
      vertex 47.305 28.5462 10
    endloop
  endfacet
  facet normal 0.743145 -0.669131 0
    outer loop
      vertex 47.305 28.5462 3
      vertex 47.305 28.5462 10
      vertex 45.6963 26.7595 10
    endloop
  endfacet
  facet normal 0.743145 -0.669131 0
    outer loop
      vertex 45.6963 26.7595 3
      vertex 47.305 28.5462 3
      vertex 45.6963 26.7595 10
    endloop
  endfacet
  facet normal 0.866025 -0.5 0
    outer loop
      vertex 45.6963 26.7595 3
      vertex 45.6963 26.7595 10
      vertex 44.4942 24.6775 10
    endloop
  endfacet
  facet normal 0.866025 -0.5 0
    outer loop
      vertex 44.4942 24.6775 3
      vertex 45.6963 26.7595 3
      vertex 44.4942 24.6775 10
    endloop
  endfacet
  facet normal 0.951057 -0.309017 0
    outer loop
      vertex 44.4942 24.6775 3
      vertex 44.4942 24.6775 10
      vertex 43.7513 22.391 10
    endloop
  endfacet
  facet normal 0.951057 -0.309017 0
    outer loop
      vertex 43.7513 22.391 3
      vertex 44.4942 24.6775 3
      vertex 43.7513 22.391 10
    endloop
  endfacet
  facet normal 0.994522 -0.104529 0
    outer loop
      vertex 43.7513 22.391 3
      vertex 43.7513 22.391 10
      vertex 43.5 20 10
    endloop
  endfacet
  facet normal 0.994522 -0.104529 0
    outer loop
      vertex 43.5 20 3
      vertex 43.7513 22.391 3
      vertex 43.5 20 10
    endloop
  endfacet
  facet normal 0 0 1
    outer loop
      vertex 29.911 12.871 6
      vertex 42 15.9 6
      vertex 24 15.9 6
    endloop
  endfacet
  facet normal 0 0 1
    outer loop
      vertex 24 3.9 6
      vertex 27.177 10.884 6
      vertex 24 15.9 6
    endloop
  endfacet
  facet normal 0 0 1
    outer loop
      vertex 27.177 10.884 6
      vertex 28.221 12.322 6
      vertex 24 15.9 6
    endloop
  endfacet
  facet normal 0 0 1
    outer loop
      vertex 35.911 12.871 6
      vertex 42 15.9 6
      vertex 29.911 12.871 6
    endloop
  endfacet
  facet normal 0 0 1
    outer loop
      vertex 37.58 12.261 6
      vertex 42 15.9 6
      vertex 35.911 12.871 6
    endloop
  endfacet
  facet normal 0 0 1
    outer loop
      vertex 38.572 10.787 6
      vertex 42 15.9 6
      vertex 37.58 12.261 6
    endloop
  endfacet
  facet normal 0 0 1
    outer loop
      vertex 37.412 7.612 6
      vertex 35.703 7.125 6
      vertex 42 3.9 6
    endloop
  endfacet
  facet normal 0 0 1
    outer loop
      vertex 42 3.9 6
      vertex 42 15.9 6
      vertex 38.572 10.787 6
    endloop
  endfacet
  facet normal 0 0 1
    outer loop
      vertex 42 3.9 6
      vertex 38.507 9.011 6
      vertex 37.412 7.612 6
    endloop
  endfacet
  facet normal 0 0 1
    outer loop
      vertex 24 3.9 6
      vertex 42 3.9 6
      vertex 29.911 7.121 6
    endloop
  endfacet
  facet normal 0 0 1
    outer loop
      vertex 24 3.9 6
      vertex 29.911 7.121 6
      vertex 28.221 7.67 6
    endloop
  endfacet
  facet normal 0 0 1
    outer loop
      vertex 24 3.9 6
      vertex 27.177 9.108 6
      vertex 27.177 10.884 6
    endloop
  endfacet
  facet normal 0 0 1
    outer loop
      vertex 24 3.9 6
      vertex 28.221 7.67 6
      vertex 27.177 9.108 6
    endloop
  endfacet
  facet normal 0 0 1
    outer loop
      vertex 35.703 7.125 6
      vertex 29.911 7.121 6
      vertex 42 3.9 6
    endloop
  endfacet
  facet normal 0 0 1
    outer loop
      vertex 28.221 12.322 6
      vertex 29.911 12.871 6
      vertex 24 15.9 6
    endloop
  endfacet
  facet normal 0 0 1
    outer loop
      vertex 38.572 10.787 6
      vertex 38.507 9.011 6
      vertex 42 3.9 6
    endloop
  endfacet
  facet normal 0 0 1
    outer loop
      vertex 29.911 32.871 6
      vertex 42 36 6
      vertex 24 36 6
    endloop
  endfacet
  facet normal 0 0 1
    outer loop
      vertex 24 24 6
      vertex 27.177 30.884 6
      vertex 24 36 6
    endloop
  endfacet
  facet normal 0 0 1
    outer loop
      vertex 27.177 30.884 6
      vertex 28.221 32.322 6
      vertex 24 36 6
    endloop
  endfacet
  facet normal 0 0 1
    outer loop
      vertex 35.911 32.871 6
      vertex 42 36 6
      vertex 29.911 32.871 6
    endloop
  endfacet
  facet normal 0 0 1
    outer loop
      vertex 37.58 32.261 6
      vertex 42 36 6
      vertex 35.911 32.871 6
    endloop
  endfacet
  facet normal 0 0 1
    outer loop
      vertex 38.572 30.787 6
      vertex 42 36 6
      vertex 37.58 32.261 6
    endloop
  endfacet
  facet normal 0 0 1
    outer loop
      vertex 37.412 27.612 6
      vertex 35.703 27.125 6
      vertex 42 24 6
    endloop
  endfacet
  facet normal 0 0 1
    outer loop
      vertex 42 24 6
      vertex 42 36 6
      vertex 38.572 30.787 6
    endloop
  endfacet
  facet normal 0 0 1
    outer loop
      vertex 42 24 6
      vertex 38.507 29.011 6
      vertex 37.412 27.612 6
    endloop
  endfacet
  facet normal 0 0 1
    outer loop
      vertex 24 24 6
      vertex 42 24 6
      vertex 29.911 27.121 6
    endloop
  endfacet
  facet normal 0 0 1
    outer loop
      vertex 24 24 6
      vertex 29.911 27.121 6
      vertex 28.221 27.67 6
    endloop
  endfacet
  facet normal 0 0 1
    outer loop
      vertex 24 24 6
      vertex 27.177 29.108 6
      vertex 27.177 30.884 6
    endloop
  endfacet
  facet normal 0 0 1
    outer loop
      vertex 24 24 6
      vertex 28.221 27.67 6
      vertex 27.177 29.108 6
    endloop
  endfacet
  facet normal 0 0 1
    outer loop
      vertex 35.703 27.125 6
      vertex 29.911 27.121 6
      vertex 42 24 6
    endloop
  endfacet
  facet normal 0 0 1
    outer loop
      vertex 28.221 32.322 6
      vertex 29.911 32.871 6
      vertex 24 36 6
    endloop
  endfacet
  facet normal 0 0 1
    outer loop
      vertex 38.572 30.787 6
      vertex 38.507 29.011 6
      vertex 42 24 6
    endloop
  endfacet
  facet normal 0 0 1
    outer loop
      vertex 43.7513 17.609 3
      vertex 44.4942 15.3225 3
      vertex 45.6963 13.2405 3
    endloop
  endfacet
  facet normal 0 0 1
    outer loop
      vertex 49.25 10.0407 3
      vertex 43.7513 17.609 3
      vertex 47.305 11.4538 3
    endloop
  endfacet
  facet normal 0 0 1
    outer loop
      vertex 47.305 11.4538 3
      vertex 43.7513 17.609 3
      vertex 45.6963 13.2405 3
    endloop
  endfacet
  facet normal 0 0 1
    outer loop
      vertex 51.4463 9.06285 3
      vertex 43.7513 17.609 3
      vertex 49.25 10.0407 3
    endloop
  endfacet
  facet normal 0 0 1
    outer loop
      vertex 48.652 12.936 3
      vertex 43.7513 17.609 3
      vertex 51.4463 9.06285 3
    endloop
  endfacet
  facet normal 0 0 1
    outer loop
      vertex 48.652 12.936 3
      vertex 47.323 14.412 3
      vertex 43.7513 17.609 3
    endloop
  endfacet
  facet normal 0 0 1
    outer loop
      vertex 50.259 11.769 3
      vertex 48.652 12.936 3
      vertex 53.7979 8.563 3
    endloop
  endfacet
  facet normal 0 0 1
    outer loop
      vertex 54.016 10.548 3
      vertex 52.073 10.961 3
      vertex 56.2021 8.563 3
    endloop
  endfacet
  facet normal 0 0 1
    outer loop
      vertex 56.002 10.548 3
      vertex 54.016 10.548 3
      vertex 58.5537 9.06285 3
    endloop
  endfacet
  facet normal 0 0 1
    outer loop
      vertex 59.759 11.769 3
      vertex 57.945 10.961 3
      vertex 60.75 10.0407 3
    endloop
  endfacet
  facet normal 0 0 1
    outer loop
      vertex 61.366 12.936 3
      vertex 59.759 11.769 3
      vertex 62.695 11.4538 3
    endloop
  endfacet
  facet normal 0 0 1
    outer loop
      vertex 62.695 14.412 3
      vertex 61.366 12.936 3
      vertex 64.3037 13.2405 3
    endloop
  endfacet
  facet normal 0 0 1
    outer loop
      vertex 63.688 16.132 3
      vertex 62.695 14.412 3
      vertex 65.5058 15.3225 3
    endloop
  endfacet
  facet normal 0 0 1
    outer loop
      vertex 64.302 18.021 3
      vertex 63.688 16.132 3
      vertex 66.2487 17.609 3
    endloop
  endfacet
  facet normal 0 0 1
    outer loop
      vertex 54.016 29.444 3
      vertex 56.002 29.444 3
      vertex 56.2021 31.437 3
    endloop
  endfacet
  facet normal 0 0 1
    outer loop
      vertex 50.259 28.223 3
      vertex 52.073 29.031 3
      vertex 53.7979 31.437 3
    endloop
  endfacet
  facet normal 0 0 1
    outer loop
      vertex 48.652 27.056 3
      vertex 50.259 28.223 3
      vertex 51.4463 30.9371 3
    endloop
  endfacet
  facet normal 0 0 1
    outer loop
      vertex 45.6963 26.7595 3
      vertex 43.7513 17.609 3
      vertex 47.305 28.5462 3
    endloop
  endfacet
  facet normal 0 0 1
    outer loop
      vertex 44.4942 24.6775 3
      vertex 43.7513 17.609 3
      vertex 45.6963 26.7595 3
    endloop
  endfacet
  facet normal 0 0 1
    outer loop
      vertex 43.7513 22.391 3
      vertex 43.7513 17.609 3
      vertex 44.4942 24.6775 3
    endloop
  endfacet
  facet normal 0 0 1
    outer loop
      vertex 43.5 20 3
      vertex 43.7513 17.609 3
      vertex 43.7513 22.391 3
    endloop
  endfacet
  facet normal 0 0 1
    outer loop
      vertex 56.002 29.444 3
      vertex 57.945 29.031 3
      vertex 58.5537 30.9371 3
    endloop
  endfacet
  facet normal 0 0 1
    outer loop
      vertex 47.323 14.412 3
      vertex 46.33 16.132 3
      vertex 43.7513 17.609 3
    endloop
  endfacet
  facet normal 0 0 1
    outer loop
      vertex 46.33 23.86 3
      vertex 47.323 25.58 3
      vertex 49.25 29.9593 3
    endloop
  endfacet
  facet normal 0 0 1
    outer loop
      vertex 47.305 28.5462 3
      vertex 46.33 23.86 3
      vertex 49.25 29.9593 3
    endloop
  endfacet
  facet normal 0 0 1
    outer loop
      vertex 47.305 28.5462 3
      vertex 43.7513 17.609 3
      vertex 46.33 23.86 3
    endloop
  endfacet
  facet normal 0 0 1
    outer loop
      vertex 49.25 29.9593 3
      vertex 47.323 25.58 3
      vertex 51.4463 30.9371 3
    endloop
  endfacet
  facet normal 0 0 1
    outer loop
      vertex 47.323 25.58 3
      vertex 48.652 27.056 3
      vertex 51.4463 30.9371 3
    endloop
  endfacet
  facet normal 0 0 1
    outer loop
      vertex 51.4463 30.9371 3
      vertex 50.259 28.223 3
      vertex 53.7979 31.437 3
    endloop
  endfacet
  facet normal 0 0 1
    outer loop
      vertex 45.717 21.971 3
      vertex 46.33 23.86 3
      vertex 43.7513 17.609 3
    endloop
  endfacet
  facet normal 0 0 1
    outer loop
      vertex 53.7979 31.437 3
      vertex 52.073 29.031 3
      vertex 56.2021 31.437 3
    endloop
  endfacet
  facet normal 0 0 1
    outer loop
      vertex 52.073 29.031 3
      vertex 54.016 29.444 3
      vertex 56.2021 31.437 3
    endloop
  endfacet
  facet normal 0 0 1
    outer loop
      vertex 56.2021 31.437 3
      vertex 56.002 29.444 3
      vertex 58.5537 30.9371 3
    endloop
  endfacet
  facet normal 0 0 1
    outer loop
      vertex 58.5537 30.9371 3
      vertex 57.945 29.031 3
      vertex 60.75 29.9593 3
    endloop
  endfacet
  facet normal 0 0 1
    outer loop
      vertex 45.509 19.996 3
      vertex 45.717 21.971 3
      vertex 43.7513 17.609 3
    endloop
  endfacet
  facet normal 0 0 1
    outer loop
      vertex 60.75 29.9593 3
      vertex 59.759 28.223 3
      vertex 62.695 28.5462 3
    endloop
  endfacet
  facet normal 0 0 1
    outer loop
      vertex 62.695 28.5462 3
      vertex 61.366 27.056 3
      vertex 64.3037 26.7595 3
    endloop
  endfacet
  facet normal 0 0 1
    outer loop
      vertex 46.33 16.132 3
      vertex 45.717 18.021 3
      vertex 43.7513 17.609 3
    endloop
  endfacet
  facet normal 0 0 1
    outer loop
      vertex 64.3037 26.7595 3
      vertex 62.695 25.58 3
      vertex 65.5058 24.6775 3
    endloop
  endfacet
  facet normal 0 0 1
    outer loop
      vertex 65.5058 24.6775 3
      vertex 63.688 23.86 3
      vertex 66.2487 22.391 3
    endloop
  endfacet
  facet normal 0 0 1
    outer loop
      vertex 66.2487 22.391 3
      vertex 64.302 21.971 3
      vertex 66.5 20 3
    endloop
  endfacet
  facet normal 0 0 1
    outer loop
      vertex 64.302 21.971 3
      vertex 64.509 19.996 3
      vertex 66.5 20 3
    endloop
  endfacet
  facet normal 0 0 1
    outer loop
      vertex 66.5 20 3
      vertex 64.302 18.021 3
      vertex 66.2487 17.609 3
    endloop
  endfacet
  facet normal 0 0 1
    outer loop
      vertex 66.2487 17.609 3
      vertex 63.688 16.132 3
      vertex 65.5058 15.3225 3
    endloop
  endfacet
  facet normal 0 0 1
    outer loop
      vertex 65.5058 15.3225 3
      vertex 62.695 14.412 3
      vertex 64.3037 13.2405 3
    endloop
  endfacet
  facet normal 0 0 1
    outer loop
      vertex 64.3037 13.2405 3
      vertex 61.366 12.936 3
      vertex 62.695 11.4538 3
    endloop
  endfacet
  facet normal 0 0 1
    outer loop
      vertex 62.695 11.4538 3
      vertex 59.759 11.769 3
      vertex 60.75 10.0407 3
    endloop
  endfacet
  facet normal 0 0 1
    outer loop
      vertex 60.75 10.0407 3
      vertex 57.945 10.961 3
      vertex 58.5537 9.06285 3
    endloop
  endfacet
  facet normal 0 0 1
    outer loop
      vertex 57.945 10.961 3
      vertex 56.002 10.548 3
      vertex 58.5537 9.06285 3
    endloop
  endfacet
  facet normal 0 0 1
    outer loop
      vertex 58.5537 9.06285 3
      vertex 54.016 10.548 3
      vertex 56.2021 8.563 3
    endloop
  endfacet
  facet normal 0 0 1
    outer loop
      vertex 56.2021 8.563 3
      vertex 52.073 10.961 3
      vertex 53.7979 8.563 3
    endloop
  endfacet
  facet normal 0 0 1
    outer loop
      vertex 52.073 10.961 3
      vertex 50.259 11.769 3
      vertex 53.7979 8.563 3
    endloop
  endfacet
  facet normal 0 0 1
    outer loop
      vertex 53.7979 8.563 3
      vertex 48.652 12.936 3
      vertex 51.4463 9.06285 3
    endloop
  endfacet
  facet normal 0 0 1
    outer loop
      vertex 57.945 29.031 3
      vertex 59.759 28.223 3
      vertex 60.75 29.9593 3
    endloop
  endfacet
  facet normal 0 0 1
    outer loop
      vertex 59.759 28.223 3
      vertex 61.366 27.056 3
      vertex 62.695 28.5462 3
    endloop
  endfacet
  facet normal 0 0 1
    outer loop
      vertex 61.366 27.056 3
      vertex 62.695 25.58 3
      vertex 64.3037 26.7595 3
    endloop
  endfacet
  facet normal 0 0 1
    outer loop
      vertex 62.695 25.58 3
      vertex 63.688 23.86 3
      vertex 65.5058 24.6775 3
    endloop
  endfacet
  facet normal 0 0 1
    outer loop
      vertex 63.688 23.86 3
      vertex 64.302 21.971 3
      vertex 66.2487 22.391 3
    endloop
  endfacet
  facet normal 0 0 1
    outer loop
      vertex 64.509 19.996 3
      vertex 64.302 18.021 3
      vertex 66.5 20 3
    endloop
  endfacet
  facet normal 0 0 1
    outer loop
      vertex 45.717 18.021 3
      vertex 45.509 19.996 3
      vertex 43.7513 17.609 3
    endloop
  endfacet
endsolid OpenSCAD_Model
