solid OpenSCAD_Model
  facet normal -1 0 0
    outer loop
      vertex -27.5 -25 -5.5
      vertex -27.5 -25 5.5
      vertex -27.5 25 -5.5
    endloop
  endfacet
  facet normal -1 0 0
    outer loop
      vertex -27.5 25 -5.5
      vertex -27.5 -25 5.5
      vertex -27.5 25 5.5
    endloop
  endfacet
  facet normal 0 -1 0
    outer loop
      vertex 0 -25 -5
      vertex -27.5 -25 -5.5
      vertex 27.5 -25 -5.5
    endloop
  endfacet
  facet normal 0 -1 0
    outer loop
      vertex 0 -25 -5
      vertex -1.91342 -25 -4.6194
      vertex -27.5 -25 -5.5
    endloop
  endfacet
  facet normal 0 -1 0
    outer loop
      vertex -27.5 -25 5.5
      vertex -27.5 -25 -5.5
      vertex -4.6194 -25 -1.91342
    endloop
  endfacet
  facet normal 0 -1 0
    outer loop
      vertex 0 -25 5
      vertex 1.91342 -25 4.6194
      vertex 27.5 -25 5.5
    endloop
  endfacet
  facet normal 0 -1 0
    outer loop
      vertex -27.5 -25 5.5
      vertex -4.6194 -25 -1.91342
      vertex -5 -25 5.55112e-15
    endloop
  endfacet
  facet normal 0 -1 0
    outer loop
      vertex -3.53553 -25 3.53553
      vertex -27.5 -25 5.5
      vertex -4.6194 -25 1.91342
    endloop
  endfacet
  facet normal 0 -1 0
    outer loop
      vertex -1.91342 -25 4.6194
      vertex -27.5 -25 5.5
      vertex -3.53553 -25 3.53553
    endloop
  endfacet
  facet normal 0 -1 0
    outer loop
      vertex 0 -25 5
      vertex -27.5 -25 5.5
      vertex -1.91342 -25 4.6194
    endloop
  endfacet
  facet normal 0 -1 0
    outer loop
      vertex 1.91342 -25 4.6194
      vertex 3.53553 -25 3.53553
      vertex 27.5 -25 5.5
    endloop
  endfacet
  facet normal 0 -1 0
    outer loop
      vertex 27.5 -25 5.5
      vertex -27.5 -25 5.5
      vertex 0 -25 5
    endloop
  endfacet
  facet normal 0 -1 0
    outer loop
      vertex 3.53553 -25 3.53553
      vertex 4.6194 -25 1.91342
      vertex 27.5 -25 5.5
    endloop
  endfacet
  facet normal 0 -1 0
    outer loop
      vertex 27.5 -25 5.5
      vertex 4.6194 -25 1.91342
      vertex 27.5 -25 -5.5
    endloop
  endfacet
  facet normal 0 -1 0
    outer loop
      vertex 4.6194 -25 1.91342
      vertex 5 -25 5.55112e-15
      vertex 27.5 -25 -5.5
    endloop
  endfacet
  facet normal 0 -1 0
    outer loop
      vertex 3.53553 -25 -3.53553
      vertex 1.91342 -25 -4.6194
      vertex 27.5 -25 -5.5
    endloop
  endfacet
  facet normal 0 -1 0
    outer loop
      vertex 1.91342 -25 -4.6194
      vertex 0 -25 -5
      vertex 27.5 -25 -5.5
    endloop
  endfacet
  facet normal 0 -1 0
    outer loop
      vertex -1.91342 -25 -4.6194
      vertex -3.53553 -25 -3.53553
      vertex -27.5 -25 -5.5
    endloop
  endfacet
  facet normal 0 -1 0
    outer loop
      vertex -4.6194 -25 -1.91342
      vertex -27.5 -25 -5.5
      vertex -3.53553 -25 -3.53553
    endloop
  endfacet
  facet normal 0 -1 0
    outer loop
      vertex 4.6194 -25 -1.91342
      vertex 3.53553 -25 -3.53553
      vertex 27.5 -25 -5.5
    endloop
  endfacet
  facet normal 0 -1 0
    outer loop
      vertex -5 -25 5.55112e-15
      vertex -4.6194 -25 1.91342
      vertex -27.5 -25 5.5
    endloop
  endfacet
  facet normal 0 -1 0
    outer loop
      vertex 5 -25 5.55112e-15
      vertex 4.6194 -25 -1.91342
      vertex 27.5 -25 -5.5
    endloop
  endfacet
  facet normal 0 0 -1
    outer loop
      vertex 4.94427 15.2169 -5.5
      vertex -27.5 25 -5.5
      vertex 27.5 25 -5.5
    endloop
  endfacet
  facet normal 0 0 -1
    outer loop
      vertex -27.5 -25 -5.5
      vertex -27.5 25 -5.5
      vertex -25.9182 0.987568 -5.5
    endloop
  endfacet
  facet normal 0 0 -1
    outer loop
      vertex -27.5 -25 -5.5
      vertex -25.9182 0.987568 -5.5
      vertex -25.9182 -0.987568 -5.5
    endloop
  endfacet
  facet normal 0 0 -1
    outer loop
      vertex -27.5 -25 -5.5
      vertex -25.9182 -0.987568 -5.5
      vertex -25.2768 -2.85568 -5.5
    endloop
  endfacet
  facet normal 0 0 -1
    outer loop
      vertex -27.5 -25 -5.5
      vertex -25.2768 -2.85568 -5.5
      vertex -24.0637 -4.41434 -5.5
    endloop
  endfacet
  facet normal 0 0 -1
    outer loop
      vertex -27.5 -25 -5.5
      vertex -24.0637 -4.41434 -5.5
      vertex -22.4102 -5.49464 -5.5
    endloop
  endfacet
  facet normal 0 0 -1
    outer loop
      vertex 1.67246 -15.9123 -5.5
      vertex 27.5 -25 -5.5
      vertex -1.67246 -15.9123 -5.5
    endloop
  endfacet
  facet normal 0 0 -1
    outer loop
      vertex -12.9443 -9.40456 -5.5
      vertex -22.4102 -5.49464 -5.5
      vertex -20.4955 -5.97951 -5.5
    endloop
  endfacet
  facet normal 0 0 -1
    outer loop
      vertex -12.9443 -9.40456 -5.5
      vertex -20.4955 -5.97951 -5.5
      vertex -18.5271 -5.8164 -5.5
    endloop
  endfacet
  facet normal 0 0 -1
    outer loop
      vertex -14.6167 -6.50779 -5.5
      vertex -16.7183 -5.023 -5.5
      vertex -15.472 -3.87565 -5.5
    endloop
  endfacet
  facet normal 0 0 -1
    outer loop
      vertex -12.9443 -9.40456 -5.5
      vertex -18.5271 -5.8164 -5.5
      vertex -14.6167 -6.50779 -5.5
    endloop
  endfacet
  facet normal 0 0 -1
    outer loop
      vertex -27.5 -25 -5.5
      vertex -22.4102 -5.49464 -5.5
      vertex -12.9443 -9.40456 -5.5
    endloop
  endfacet
  facet normal 0 0 -1
    outer loop
      vertex -27.5 -25 -5.5
      vertex -12.9443 -9.40456 -5.5
      vertex -10.7061 -11.8903 -5.5
    endloop
  endfacet
  facet normal 0 0 -1
    outer loop
      vertex -27.5 -25 -5.5
      vertex -10.7061 -11.8903 -5.5
      vertex -8 -13.8564 -5.5
    endloop
  endfacet
  facet normal 0 0 -1
    outer loop
      vertex -27.5 -25 -5.5
      vertex -8 -13.8564 -5.5
      vertex -4.94427 -15.2169 -5.5
    endloop
  endfacet
  facet normal 0 0 -1
    outer loop
      vertex -27.5 -25 -5.5
      vertex -4.94427 -15.2169 -5.5
      vertex 27.5 -25 -5.5
    endloop
  endfacet
  facet normal 0 0 -1
    outer loop
      vertex -4.94427 -15.2169 -5.5
      vertex -1.67246 -15.9123 -5.5
      vertex 27.5 -25 -5.5
    endloop
  endfacet
  facet normal 0 0 -1
    outer loop
      vertex 4.94427 -15.2169 -5.5
      vertex 27.5 -25 -5.5
      vertex 1.67246 -15.9123 -5.5
    endloop
  endfacet
  facet normal 0 0 -1
    outer loop
      vertex 8 -13.8564 -5.5
      vertex 27.5 -25 -5.5
      vertex 4.94427 -15.2169 -5.5
    endloop
  endfacet
  facet normal 0 0 -1
    outer loop
      vertex -20.4955 5.97951 -5.5
      vertex -27.5 25 -5.5
      vertex -18.5271 5.8164 -5.5
    endloop
  endfacet
  facet normal 0 0 -1
    outer loop
      vertex 12.9443 -9.40456 -5.5
      vertex 27.5 -25 -5.5
      vertex 10.7061 -11.8903 -5.5
    endloop
  endfacet
  facet normal 0 0 -1
    outer loop
      vertex -14.6167 6.50779 -5.5
      vertex -27.5 25 -5.5
      vertex -12.9443 9.40456 -5.5
    endloop
  endfacet
  facet normal 0 0 -1
    outer loop
      vertex 8 -13.8564 -5.5
      vertex 10.7061 -11.8903 -5.5
      vertex 27.5 -25 -5.5
    endloop
  endfacet
  facet normal 0 0 -1
    outer loop
      vertex 15.9363 -4.41434 -5.5
      vertex 14.6167 -6.50779 -5.5
      vertex 15.4852 -3.8348 -5.5
    endloop
  endfacet
  facet normal 0 0 -1
    outer loop
      vertex 27.5 -25 -5.5
      vertex 12.9443 -9.40456 -5.5
      vertex 14.6167 -6.50779 -5.5
    endloop
  endfacet
  facet normal 0 0 -1
    outer loop
      vertex 25.6749 1.9482 -5.5
      vertex 27.5 25 -5.5
      vertex 26 0 -5.5
    endloop
  endfacet
  facet normal 0 0 -1
    outer loop
      vertex 27.5 -25 -5.5
      vertex 14.6167 -6.50779 -5.5
      vertex 15.9363 -4.41434 -5.5
    endloop
  endfacet
  facet normal 0 0 -1
    outer loop
      vertex 27.5 -25 -5.5
      vertex 15.9363 -4.41434 -5.5
      vertex 17.5898 -5.49464 -5.5
    endloop
  endfacet
  facet normal 0 0 -1
    outer loop
      vertex 27.5 -25 -5.5
      vertex 17.5898 -5.49464 -5.5
      vertex 19.5045 -5.97951 -5.5
    endloop
  endfacet
  facet normal 0 0 -1
    outer loop
      vertex 27.5 -25 -5.5
      vertex 19.5045 -5.97951 -5.5
      vertex 21.4729 -5.8164 -5.5
    endloop
  endfacet
  facet normal 0 0 -1
    outer loop
      vertex 27.5 -25 -5.5
      vertex 21.4729 -5.8164 -5.5
      vertex 23.2817 -5.023 -5.5
    endloop
  endfacet
  facet normal 0 0 -1
    outer loop
      vertex 27.5 -25 -5.5
      vertex 23.2817 -5.023 -5.5
      vertex 24.7348 -3.68528 -5.5
    endloop
  endfacet
  facet normal 0 0 -1
    outer loop
      vertex 27.5 -25 -5.5
      vertex 24.7348 -3.68528 -5.5
      vertex 25.6749 -1.9482 -5.5
    endloop
  endfacet
  facet normal 0 0 -1
    outer loop
      vertex 27.5 -25 -5.5
      vertex 25.6749 -1.9482 -5.5
      vertex 26 0 -5.5
    endloop
  endfacet
  facet normal 0 0 -1
    outer loop
      vertex 27.5 -25 -5.5
      vertex 26 0 -5.5
      vertex 27.5 25 -5.5
    endloop
  endfacet
  facet normal 0 0 -1
    outer loop
      vertex 24.7348 3.68528 -5.5
      vertex 27.5 25 -5.5
      vertex 25.6749 1.9482 -5.5
    endloop
  endfacet
  facet normal 0 0 -1
    outer loop
      vertex 23.2817 5.023 -5.5
      vertex 27.5 25 -5.5
      vertex 24.7348 3.68528 -5.5
    endloop
  endfacet
  facet normal 0 0 -1
    outer loop
      vertex 21.4729 5.8164 -5.5
      vertex 27.5 25 -5.5
      vertex 23.2817 5.023 -5.5
    endloop
  endfacet
  facet normal 0 0 -1
    outer loop
      vertex 19.5045 5.97951 -5.5
      vertex 27.5 25 -5.5
      vertex 21.4729 5.8164 -5.5
    endloop
  endfacet
  facet normal 0 0 -1
    outer loop
      vertex 17.5898 5.49464 -5.5
      vertex 27.5 25 -5.5
      vertex 19.5045 5.97951 -5.5
    endloop
  endfacet
  facet normal 0 0 -1
    outer loop
      vertex 14.6167 6.50779 -5.5
      vertex 15.9363 4.41434 -5.5
      vertex 15.4852 3.8348 -5.5
    endloop
  endfacet
  facet normal 0 0 -1
    outer loop
      vertex -8 13.8564 -5.5
      vertex -27.5 25 -5.5
      vertex -4.94427 15.2169 -5.5
    endloop
  endfacet
  facet normal 0 0 -1
    outer loop
      vertex -12.9443 9.40456 -5.5
      vertex -27.5 25 -5.5
      vertex -10.7061 11.8903 -5.5
    endloop
  endfacet
  facet normal 0 0 -1
    outer loop
      vertex 12.9443 9.40456 -5.5
      vertex 17.5898 5.49464 -5.5
      vertex 14.6167 6.50779 -5.5
    endloop
  endfacet
  facet normal 0 0 -1
    outer loop
      vertex 15.9363 4.41434 -5.5
      vertex 14.6167 6.50779 -5.5
      vertex 17.5898 5.49464 -5.5
    endloop
  endfacet
  facet normal 0 0 -1
    outer loop
      vertex -1.67246 15.9123 -5.5
      vertex -27.5 25 -5.5
      vertex 1.67246 15.9123 -5.5
    endloop
  endfacet
  facet normal 0 0 -1
    outer loop
      vertex 17.5898 5.49464 -5.5
      vertex 12.9443 9.40456 -5.5
      vertex 27.5 25 -5.5
    endloop
  endfacet
  facet normal 0 0 -1
    outer loop
      vertex -4.94427 15.2169 -5.5
      vertex -27.5 25 -5.5
      vertex -1.67246 15.9123 -5.5
    endloop
  endfacet
  facet normal 0 0 -1
    outer loop
      vertex 12.9443 9.40456 -5.5
      vertex 10.7061 11.8903 -5.5
      vertex 27.5 25 -5.5
    endloop
  endfacet
  facet normal 0 0 -1
    outer loop
      vertex 10.7061 11.8903 -5.5
      vertex 8 13.8564 -5.5
      vertex 27.5 25 -5.5
    endloop
  endfacet
  facet normal 0 0 -1
    outer loop
      vertex 1.67246 15.9123 -5.5
      vertex -27.5 25 -5.5
      vertex 4.94427 15.2169 -5.5
    endloop
  endfacet
  facet normal 0 0 -1
    outer loop
      vertex 8 13.8564 -5.5
      vertex 4.94427 15.2169 -5.5
      vertex 27.5 25 -5.5
    endloop
  endfacet
  facet normal 0 0 -1
    outer loop
      vertex -10.7061 11.8903 -5.5
      vertex -27.5 25 -5.5
      vertex -8 13.8564 -5.5
    endloop
  endfacet
  facet normal 0 0 -1
    outer loop
      vertex -15.472 3.87565 -5.5
      vertex -27.5 25 -5.5
      vertex -14.6167 6.50779 -5.5
    endloop
  endfacet
  facet normal 0 0 -1
    outer loop
      vertex -16.7183 5.023 -5.5
      vertex -27.5 25 -5.5
      vertex -15.472 3.87565 -5.5
    endloop
  endfacet
  facet normal 0 0 -1
    outer loop
      vertex -18.5271 5.8164 -5.5
      vertex -27.5 25 -5.5
      vertex -16.7183 5.023 -5.5
    endloop
  endfacet
  facet normal 0 0 -1
    outer loop
      vertex -22.4102 5.49464 -5.5
      vertex -27.5 25 -5.5
      vertex -20.4955 5.97951 -5.5
    endloop
  endfacet
  facet normal 0 0 -1
    outer loop
      vertex -24.0637 4.41434 -5.5
      vertex -27.5 25 -5.5
      vertex -22.4102 5.49464 -5.5
    endloop
  endfacet
  facet normal 0 0 -1
    outer loop
      vertex -25.2768 2.85568 -5.5
      vertex -27.5 25 -5.5
      vertex -24.0637 4.41434 -5.5
    endloop
  endfacet
  facet normal 0 0 -1
    outer loop
      vertex -25.9182 0.987568 -5.5
      vertex -27.5 25 -5.5
      vertex -25.2768 2.85568 -5.5
    endloop
  endfacet
  facet normal 0 0 -1
    outer loop
      vertex -16.7183 -5.023 -5.5
      vertex -14.6167 -6.50779 -5.5
      vertex -18.5271 -5.8164 -5.5
    endloop
  endfacet
  facet normal 0 1 0
    outer loop
      vertex 1.91342 25 -4.6194
      vertex 27.5 25 -5.5
      vertex 0 25 -5
    endloop
  endfacet
  facet normal 0 1 0
    outer loop
      vertex 0 25 5
      vertex -27.5 25 5.5
      vertex 27.5 25 5.5
    endloop
  endfacet
  facet normal 0 1 0
    outer loop
      vertex -27.5 25 -5.5
      vertex -27.5 25 5.5
      vertex -5 25 -5.55112e-15
    endloop
  endfacet
  facet normal 0 1 0
    outer loop
      vertex -27.5 25 -5.5
      vertex -5 25 -5.55112e-15
      vertex -4.6194 25 -1.91342
    endloop
  endfacet
  facet normal 0 1 0
    outer loop
      vertex -27.5 25 -5.5
      vertex -4.6194 25 -1.91342
      vertex -3.53553 25 -3.53553
    endloop
  endfacet
  facet normal 0 1 0
    outer loop
      vertex -27.5 25 -5.5
      vertex -3.53553 25 -3.53553
      vertex -1.91342 25 -4.6194
    endloop
  endfacet
  facet normal 0 1 0
    outer loop
      vertex -27.5 25 -5.5
      vertex -1.91342 25 -4.6194
      vertex 0 25 -5
    endloop
  endfacet
  facet normal 0 1 0
    outer loop
      vertex -27.5 25 -5.5
      vertex 0 25 -5
      vertex 27.5 25 -5.5
    endloop
  endfacet
  facet normal 0 1 0
    outer loop
      vertex 3.53553 25 -3.53553
      vertex 27.5 25 -5.5
      vertex 1.91342 25 -4.6194
    endloop
  endfacet
  facet normal 0 1 0
    outer loop
      vertex 4.6194 25 -1.91342
      vertex 27.5 25 -5.5
      vertex 3.53553 25 -3.53553
    endloop
  endfacet
  facet normal 0 1 0
    outer loop
      vertex 5 25 -5.55112e-15
      vertex 27.5 25 -5.5
      vertex 4.6194 25 -1.91342
    endloop
  endfacet
  facet normal 0 1 0
    outer loop
      vertex 27.5 25 -5.5
      vertex 5 25 -5.55112e-15
      vertex 27.5 25 5.5
    endloop
  endfacet
  facet normal 0 1 0
    outer loop
      vertex 5 25 -5.55112e-15
      vertex 4.6194 25 1.91342
      vertex 27.5 25 5.5
    endloop
  endfacet
  facet normal 0 1 0
    outer loop
      vertex -4.6194 25 1.91342
      vertex -27.5 25 5.5
      vertex -3.53553 25 3.53553
    endloop
  endfacet
  facet normal 0 1 0
    outer loop
      vertex 4.6194 25 1.91342
      vertex 3.53553 25 3.53553
      vertex 27.5 25 5.5
    endloop
  endfacet
  facet normal 0 1 0
    outer loop
      vertex -3.53553 25 3.53553
      vertex -27.5 25 5.5
      vertex -1.91342 25 4.6194
    endloop
  endfacet
  facet normal 0 1 0
    outer loop
      vertex 3.53553 25 3.53553
      vertex 1.91342 25 4.6194
      vertex 27.5 25 5.5
    endloop
  endfacet
  facet normal 0 1 0
    outer loop
      vertex 1.91342 25 4.6194
      vertex 0 25 5
      vertex 27.5 25 5.5
    endloop
  endfacet
  facet normal 0 1 0
    outer loop
      vertex -5 25 -5.55112e-15
      vertex -27.5 25 5.5
      vertex -4.6194 25 1.91342
    endloop
  endfacet
  facet normal 0 1 0
    outer loop
      vertex -1.91342 25 4.6194
      vertex -27.5 25 5.5
      vertex 0 25 5
    endloop
  endfacet
  facet normal 0 0 1
    outer loop
      vertex 4.94427 -15.2169 5.5
      vertex -27.5 -25 5.5
      vertex 27.5 -25 5.5
    endloop
  endfacet
  facet normal 0 0 1
    outer loop
      vertex -22.5 0 5.5
      vertex -27.5 -25 5.5
      vertex -21.7678 -1.76777 5.5
    endloop
  endfacet
  facet normal 0 0 1
    outer loop
      vertex -12.9443 9.40456 5.5
      vertex -10.7061 11.8903 5.5
      vertex -27.5 25 5.5
    endloop
  endfacet
  facet normal 0 0 1
    outer loop
      vertex -27.5 25 5.5
      vertex -27.5 -25 5.5
      vertex -22.5 0 5.5
    endloop
  endfacet
  facet normal 0 0 1
    outer loop
      vertex -27.5 25 5.5
      vertex -21.7678 1.76777 5.5
      vertex -20 2.5 5.5
    endloop
  endfacet
  facet normal 0 0 1
    outer loop
      vertex -27.5 25 5.5
      vertex -20 2.5 5.5
      vertex -18.2322 1.76777 5.5
    endloop
  endfacet
  facet normal 0 0 1
    outer loop
      vertex -16 0 5.5
      vertex -15.6504 3.32659 5.5
      vertex -18.2322 1.76777 5.5
    endloop
  endfacet
  facet normal 0 0 1
    outer loop
      vertex -10.7061 -11.8903 5.5
      vertex -12.9443 -9.40456 5.5
      vertex -21.7678 -1.76777 5.5
    endloop
  endfacet
  facet normal 0 0 1
    outer loop
      vertex 10.7061 -11.8903 5.5
      vertex 8 -13.8564 5.5
      vertex 27.5 -25 5.5
    endloop
  endfacet
  facet normal 0 0 1
    outer loop
      vertex -18.2322 -1.76777 5.5
      vertex -20 -2.5 5.5
      vertex -15.6504 -3.32659 5.5
    endloop
  endfacet
  facet normal 0 0 1
    outer loop
      vertex -1.67246 15.9123 5.5
      vertex 1.67246 15.9123 5.5
      vertex 27.5 25 5.5
    endloop
  endfacet
  facet normal 0 0 1
    outer loop
      vertex -12.9443 -9.40456 5.5
      vertex -14.6167 -6.50779 5.5
      vertex -21.7678 -1.76777 5.5
    endloop
  endfacet
  facet normal 0 0 1
    outer loop
      vertex -27.5 25 5.5
      vertex -18.2322 1.76777 5.5
      vertex -15.6504 3.32659 5.5
    endloop
  endfacet
  facet normal 0 0 1
    outer loop
      vertex -27.5 25 5.5
      vertex -15.6504 3.32659 5.5
      vertex -14.6167 6.50779 5.5
    endloop
  endfacet
  facet normal 0 0 1
    outer loop
      vertex -27.5 25 5.5
      vertex -14.6167 6.50779 5.5
      vertex -12.9443 9.40456 5.5
    endloop
  endfacet
  facet normal 0 0 1
    outer loop
      vertex -8 13.8564 5.5
      vertex -27.5 25 5.5
      vertex -10.7061 11.8903 5.5
    endloop
  endfacet
  facet normal 0 0 1
    outer loop
      vertex -4.94427 15.2169 5.5
      vertex -27.5 25 5.5
      vertex -8 13.8564 5.5
    endloop
  endfacet
  facet normal 0 0 1
    outer loop
      vertex 27.5 25 5.5
      vertex -27.5 25 5.5
      vertex -4.94427 15.2169 5.5
    endloop
  endfacet
  facet normal 0 0 1
    outer loop
      vertex 15.6504 3.32659 5.5
      vertex 16 0 5.5
      vertex 27.5 -25 5.5
    endloop
  endfacet
  facet normal 0 0 1
    outer loop
      vertex 27.5 25 5.5
      vertex -4.94427 15.2169 5.5
      vertex -1.67246 15.9123 5.5
    endloop
  endfacet
  facet normal 0 0 1
    outer loop
      vertex 12.9443 -9.40456 5.5
      vertex 10.7061 -11.8903 5.5
      vertex 27.5 -25 5.5
    endloop
  endfacet
  facet normal 0 0 1
    outer loop
      vertex 27.5 25 5.5
      vertex 1.67246 15.9123 5.5
      vertex 4.94427 15.2169 5.5
    endloop
  endfacet
  facet normal 0 0 1
    outer loop
      vertex 27.5 25 5.5
      vertex 4.94427 15.2169 5.5
      vertex 8 13.8564 5.5
    endloop
  endfacet
  facet normal 0 0 1
    outer loop
      vertex 16 0 5.5
      vertex 15.6504 -3.32659 5.5
      vertex 27.5 -25 5.5
    endloop
  endfacet
  facet normal 0 0 1
    outer loop
      vertex 27.5 25 5.5
      vertex 8 13.8564 5.5
      vertex 10.7061 11.8903 5.5
    endloop
  endfacet
  facet normal 0 0 1
    outer loop
      vertex 15.6504 -3.32659 5.5
      vertex 14.6167 -6.50779 5.5
      vertex 27.5 -25 5.5
    endloop
  endfacet
  facet normal 0 0 1
    outer loop
      vertex 27.5 25 5.5
      vertex 10.7061 11.8903 5.5
      vertex 12.9443 9.40456 5.5
    endloop
  endfacet
  facet normal 0 0 1
    outer loop
      vertex 18.2322 -1.76777 5.5
      vertex 14.6167 6.50779 5.5
      vertex 27.5 -25 5.5
    endloop
  endfacet
  facet normal 0 0 1
    outer loop
      vertex 27.5 25 5.5
      vertex 12.9443 9.40456 5.5
      vertex 14.6167 6.50779 5.5
    endloop
  endfacet
  facet normal 0 0 1
    outer loop
      vertex 14.6167 6.50779 5.5
      vertex 15.6504 3.32659 5.5
      vertex 27.5 -25 5.5
    endloop
  endfacet
  facet normal 0 0 1
    outer loop
      vertex 14.6167 -6.50779 5.5
      vertex 12.9443 -9.40456 5.5
      vertex 27.5 -25 5.5
    endloop
  endfacet
  facet normal 0 0 1
    outer loop
      vertex 8 -13.8564 5.5
      vertex 4.94427 -15.2169 5.5
      vertex 27.5 -25 5.5
    endloop
  endfacet
  facet normal 0 0 1
    outer loop
      vertex -15.6504 -3.32659 5.5
      vertex -17.5 0 5.5
      vertex -18.2322 -1.76777 5.5
    endloop
  endfacet
  facet normal 0 0 1
    outer loop
      vertex 1.67246 -15.9123 5.5
      vertex -27.5 -25 5.5
      vertex 4.94427 -15.2169 5.5
    endloop
  endfacet
  facet normal 0 0 1
    outer loop
      vertex -15.6504 -3.32659 5.5
      vertex -16 0 5.5
      vertex -17.5 0 5.5
    endloop
  endfacet
  facet normal 0 0 1
    outer loop
      vertex -1.67246 -15.9123 5.5
      vertex -27.5 -25 5.5
      vertex 1.67246 -15.9123 5.5
    endloop
  endfacet
  facet normal 0 0 1
    outer loop
      vertex -4.94427 -15.2169 5.5
      vertex -27.5 -25 5.5
      vertex -1.67246 -15.9123 5.5
    endloop
  endfacet
  facet normal 0 0 1
    outer loop
      vertex 18.2322 1.76777 5.5
      vertex 20 2.5 5.5
      vertex 27.5 25 5.5
    endloop
  endfacet
  facet normal 0 0 1
    outer loop
      vertex -8 -13.8564 5.5
      vertex -27.5 -25 5.5
      vertex -4.94427 -15.2169 5.5
    endloop
  endfacet
  facet normal 0 0 1
    outer loop
      vertex -10.7061 -11.8903 5.5
      vertex -27.5 -25 5.5
      vertex -8 -13.8564 5.5
    endloop
  endfacet
  facet normal 0 0 1
    outer loop
      vertex -21.7678 -1.76777 5.5
      vertex -27.5 -25 5.5
      vertex -10.7061 -11.8903 5.5
    endloop
  endfacet
  facet normal 0 0 1
    outer loop
      vertex 20 -2.5 5.5
      vertex 18.2322 -1.76777 5.5
      vertex 27.5 -25 5.5
    endloop
  endfacet
  facet normal 0 0 1
    outer loop
      vertex 17.5 0 5.5
      vertex 14.6167 6.50779 5.5
      vertex 18.2322 -1.76777 5.5
    endloop
  endfacet
  facet normal 0 0 1
    outer loop
      vertex 27.5 25 5.5
      vertex 14.6167 6.50779 5.5
      vertex 17.5 0 5.5
    endloop
  endfacet
  facet normal 0 0 1
    outer loop
      vertex 22.5 0 5.5
      vertex 21.7678 -1.76777 5.5
      vertex 27.5 -25 5.5
    endloop
  endfacet
  facet normal 0 0 1
    outer loop
      vertex 27.5 25 5.5
      vertex 17.5 0 5.5
      vertex 18.2322 1.76777 5.5
    endloop
  endfacet
  facet normal 0 0 1
    outer loop
      vertex 21.7678 -1.76777 5.5
      vertex 20 -2.5 5.5
      vertex 27.5 -25 5.5
    endloop
  endfacet
  facet normal 0 0 1
    outer loop
      vertex 27.5 25 5.5
      vertex 20 2.5 5.5
      vertex 21.7678 1.76777 5.5
    endloop
  endfacet
  facet normal 0 0 1
    outer loop
      vertex 27.5 25 5.5
      vertex 22.5 0 5.5
      vertex 27.5 -25 5.5
    endloop
  endfacet
  facet normal 0 0 1
    outer loop
      vertex 27.5 25 5.5
      vertex 21.7678 1.76777 5.5
      vertex 22.5 0 5.5
    endloop
  endfacet
  facet normal 0 0 1
    outer loop
      vertex -22.5 0 5.5
      vertex -21.7678 1.76777 5.5
      vertex -27.5 25 5.5
    endloop
  endfacet
  facet normal 0 0 1
    outer loop
      vertex -18.2322 1.76777 5.5
      vertex -17.5 0 5.5
      vertex -16 0 5.5
    endloop
  endfacet
  facet normal 0 0 1
    outer loop
      vertex -14.6167 -6.50779 5.5
      vertex -20 -2.5 5.5
      vertex -21.7678 -1.76777 5.5
    endloop
  endfacet
  facet normal 0 0 1
    outer loop
      vertex -14.6167 -6.50779 5.5
      vertex -15.6504 -3.32659 5.5
      vertex -20 -2.5 5.5
    endloop
  endfacet
  facet normal 1 0 0
    outer loop
      vertex 27.5 -25 5.5
      vertex 27.5 -25 -5.5
      vertex 27.5 25 -5.5
    endloop
  endfacet
  facet normal 1 0 0
    outer loop
      vertex 27.5 25 5.5
      vertex 27.5 -25 5.5
      vertex 27.5 25 -5.5
    endloop
  endfacet
  facet normal 0.83147 1.23361e-16 0.55557
    outer loop
      vertex -3.53553 -25 -3.53553
      vertex -3.53553 -15.5163 -3.53553
      vertex -4.6194 -15.286 -1.91342
    endloop
  endfacet
  facet normal 0.83147 1.23361e-16 0.55557
    outer loop
      vertex -4.6194 -25 -1.91342
      vertex -3.53553 -25 -3.53553
      vertex -4.6194 -15.286 -1.91342
    endloop
  endfacet
  facet normal 0.980785 4.33187e-17 0.19509
    outer loop
      vertex -4.6194 -25 -1.91342
      vertex -4.6194 -15.286 -1.91342
      vertex -4.94427 -15.2169 -0.280164
    endloop
  endfacet
  facet normal 0.980785 4.33187e-17 0.19509
    outer loop
      vertex -5 -15.1921 3.37332e-15
      vertex -4.6194 -25 -1.91342
      vertex -4.94427 -15.2169 -0.280164
    endloop
  endfacet
  facet normal 0.980785 4.33187e-17 0.19509
    outer loop
      vertex -5 -15.1921 3.37332e-15
      vertex -5 -25 5.55112e-15
      vertex -4.6194 -25 -1.91342
    endloop
  endfacet
  facet normal 0.55557 1.84623e-16 0.83147
    outer loop
      vertex -1.91342 -25 -4.6194
      vertex -1.91342 -15.8611 -4.6194
      vertex -3.53553 -15.5163 -3.53553
    endloop
  endfacet
  facet normal 0.55557 1.84623e-16 0.83147
    outer loop
      vertex -3.53553 -25 -3.53553
      vertex -1.91342 -25 -4.6194
      vertex -3.53553 -15.5163 -3.53553
    endloop
  endfacet
  facet normal 0.19509 2.17778e-16 0.980785
    outer loop
      vertex 0 -25 -5
      vertex 0 -15.9123 -5
      vertex -1.67246 -15.9123 -4.66733
    endloop
  endfacet
  facet normal 0.19509 2.17778e-16 0.980785
    outer loop
      vertex -1.91342 -15.8611 -4.6194
      vertex 0 -25 -5
      vertex -1.67246 -15.9123 -4.66733
    endloop
  endfacet
  facet normal 0.19509 2.17778e-16 0.980785
    outer loop
      vertex -1.91342 -15.8611 -4.6194
      vertex -1.91342 -25 -4.6194
      vertex 0 -25 -5
    endloop
  endfacet
  facet normal -0.19509 2.17778e-16 0.980785
    outer loop
      vertex 1.91342 -25 -4.6194
      vertex 1.91342 -15.8611 -4.6194
      vertex 1.67246 -15.9123 -4.66733
    endloop
  endfacet
  facet normal -0.19509 2.17778e-16 0.980785
    outer loop
      vertex 0 -15.9123 -5
      vertex 1.91342 -25 -4.6194
      vertex 1.67246 -15.9123 -4.66733
    endloop
  endfacet
  facet normal -0.19509 2.17778e-16 0.980785
    outer loop
      vertex 0 -15.9123 -5
      vertex 0 -25 -5
      vertex 1.91342 -25 -4.6194
    endloop
  endfacet
  facet normal -0.55557 1.84623e-16 0.83147
    outer loop
      vertex 3.53553 -25 -3.53553
      vertex 3.53553 -15.5163 -3.53553
      vertex 1.91342 -15.8611 -4.6194
    endloop
  endfacet
  facet normal -0.55557 1.84623e-16 0.83147
    outer loop
      vertex 1.91342 -25 -4.6194
      vertex 3.53553 -25 -3.53553
      vertex 1.91342 -15.8611 -4.6194
    endloop
  endfacet
  facet normal -0.83147 1.23361e-16 0.55557
    outer loop
      vertex 4.6194 -15.286 -1.91342
      vertex 3.53553 -15.5163 -3.53553
      vertex 4.6194 -25 -1.91342
    endloop
  endfacet
  facet normal -0.83147 1.23361e-16 0.55557
    outer loop
      vertex 4.6194 -25 -1.91342
      vertex 3.53553 -15.5163 -3.53553
      vertex 3.53553 -25 -3.53553
    endloop
  endfacet
  facet normal -0.980785 4.33187e-17 0.19509
    outer loop
      vertex 5 -15.1921 3.37332e-15
      vertex 4.94427 -15.2169 -0.280164
      vertex 5 -25 5.55112e-15
    endloop
  endfacet
  facet normal -0.980785 4.33187e-17 0.19509
    outer loop
      vertex 5 -25 5.55112e-15
      vertex 4.94427 -15.2169 -0.280164
      vertex 4.6194 -15.286 -1.91342
    endloop
  endfacet
  facet normal -0.980785 4.33187e-17 0.19509
    outer loop
      vertex 5 -25 5.55112e-15
      vertex 4.6194 -15.286 -1.91342
      vertex 4.6194 -25 -1.91342
    endloop
  endfacet
  facet normal -0.980785 -4.33187e-17 -0.19509
    outer loop
      vertex 4.94427 -15.2169 0.280164
      vertex 5 -15.1921 3.37332e-15
      vertex 5 -25 5.55112e-15
    endloop
  endfacet
  facet normal -0.980785 -4.33187e-17 -0.19509
    outer loop
      vertex 4.94427 -15.2169 0.280164
      vertex 5 -25 5.55112e-15
      vertex 4.6194 -15.286 1.91342
    endloop
  endfacet
  facet normal -0.980785 -4.33187e-17 -0.19509
    outer loop
      vertex 5 -25 5.55112e-15
      vertex 4.6194 -25 1.91342
      vertex 4.6194 -15.286 1.91342
    endloop
  endfacet
  facet normal -0.83147 -1.23361e-16 -0.55557
    outer loop
      vertex 4.6194 -15.286 1.91342
      vertex 4.6194 -25 1.91342
      vertex 3.53553 -15.5163 3.53553
    endloop
  endfacet
  facet normal -0.83147 -1.23361e-16 -0.55557
    outer loop
      vertex 3.53553 -15.5163 3.53553
      vertex 4.6194 -25 1.91342
      vertex 3.53553 -25 3.53553
    endloop
  endfacet
  facet normal -0.55557 -1.84623e-16 -0.83147
    outer loop
      vertex 3.53553 -15.5163 3.53553
      vertex 3.53553 -25 3.53553
      vertex 1.91342 -15.8611 4.6194
    endloop
  endfacet
  facet normal -0.55557 -1.84623e-16 -0.83147
    outer loop
      vertex 1.91342 -15.8611 4.6194
      vertex 3.53553 -25 3.53553
      vertex 1.91342 -25 4.6194
    endloop
  endfacet
  facet normal -0.19509 -2.17778e-16 -0.980785
    outer loop
      vertex 1.67246 -15.9123 4.66733
      vertex 1.91342 -15.8611 4.6194
      vertex 1.91342 -25 4.6194
    endloop
  endfacet
  facet normal -0.19509 -2.17778e-16 -0.980785
    outer loop
      vertex 1.67246 -15.9123 4.66733
      vertex 1.91342 -25 4.6194
      vertex 0 -15.9123 5
    endloop
  endfacet
  facet normal -0.19509 -2.17778e-16 -0.980785
    outer loop
      vertex 1.91342 -25 4.6194
      vertex 0 -25 5
      vertex 0 -15.9123 5
    endloop
  endfacet
  facet normal 0.19509 -2.17778e-16 -0.980785
    outer loop
      vertex -1.67246 -15.9123 4.66733
      vertex 0 -15.9123 5
      vertex 0 -25 5
    endloop
  endfacet
  facet normal 0.19509 -2.17778e-16 -0.980785
    outer loop
      vertex -1.67246 -15.9123 4.66733
      vertex 0 -25 5
      vertex -1.91342 -15.8611 4.6194
    endloop
  endfacet
  facet normal 0.19509 -2.17778e-16 -0.980785
    outer loop
      vertex 0 -25 5
      vertex -1.91342 -25 4.6194
      vertex -1.91342 -15.8611 4.6194
    endloop
  endfacet
  facet normal 0.55557 -1.84623e-16 -0.83147
    outer loop
      vertex -1.91342 -15.8611 4.6194
      vertex -1.91342 -25 4.6194
      vertex -3.53553 -15.5163 3.53553
    endloop
  endfacet
  facet normal 0.55557 -1.84623e-16 -0.83147
    outer loop
      vertex -3.53553 -15.5163 3.53553
      vertex -1.91342 -25 4.6194
      vertex -3.53553 -25 3.53553
    endloop
  endfacet
  facet normal 0.83147 -1.23361e-16 -0.55557
    outer loop
      vertex -4.6194 -15.286 1.91342
      vertex -3.53553 -15.5163 3.53553
      vertex -3.53553 -25 3.53553
    endloop
  endfacet
  facet normal 0.83147 -1.23361e-16 -0.55557
    outer loop
      vertex -4.6194 -25 1.91342
      vertex -4.6194 -15.286 1.91342
      vertex -3.53553 -25 3.53553
    endloop
  endfacet
  facet normal 0.980785 -4.33187e-17 -0.19509
    outer loop
      vertex -5 -15.1921 3.37332e-15
      vertex -4.94427 -15.2169 0.280164
      vertex -4.6194 -25 1.91342
    endloop
  endfacet
  facet normal 0.980785 -4.33187e-17 -0.19509
    outer loop
      vertex -4.6194 -25 1.91342
      vertex -4.94427 -15.2169 0.280164
      vertex -4.6194 -15.286 1.91342
    endloop
  endfacet
  facet normal 0.980785 -4.33187e-17 -0.19509
    outer loop
      vertex -5 -15.1921 3.37332e-15
      vertex -4.6194 -25 1.91342
      vertex -5 -25 5.55112e-15
    endloop
  endfacet
  facet normal 1 0 0
    outer loop
      vertex -25.9182 0.987568 -5.5
      vertex -25.9182 0.987568 -0.5
      vertex -25.9182 -0.987568 -0.5
    endloop
  endfacet
  facet normal 1 0 0
    outer loop
      vertex -25.9182 -0.987568 -5.5
      vertex -25.9182 0.987568 -5.5
      vertex -25.9182 -0.987568 -0.5
    endloop
  endfacet
  facet normal 0.945817 -0.324699 0
    outer loop
      vertex -25.2768 2.85568 -5.5
      vertex -25.2768 2.85568 -0.5
      vertex -25.9182 0.987568 -0.5
    endloop
  endfacet
  facet normal 0.945817 -0.324699 0
    outer loop
      vertex -25.9182 0.987568 -5.5
      vertex -25.2768 2.85568 -5.5
      vertex -25.9182 0.987568 -0.5
    endloop
  endfacet
  facet normal 0.78914 -0.614213 0
    outer loop
      vertex -24.0637 4.41434 -5.5
      vertex -24.0637 4.41434 -0.5
      vertex -25.2768 2.85568 -0.5
    endloop
  endfacet
  facet normal 0.78914 -0.614213 0
    outer loop
      vertex -25.2768 2.85568 -5.5
      vertex -24.0637 4.41434 -5.5
      vertex -25.2768 2.85568 -0.5
    endloop
  endfacet
  facet normal 0.546949 -0.837166 0
    outer loop
      vertex -22.4102 5.49464 -5.5
      vertex -22.4102 5.49464 -0.5
      vertex -24.0637 4.41434 -0.5
    endloop
  endfacet
  facet normal 0.546949 -0.837166 0
    outer loop
      vertex -24.0637 4.41434 -5.5
      vertex -22.4102 5.49464 -5.5
      vertex -24.0637 4.41434 -0.5
    endloop
  endfacet
  facet normal 0.245485 -0.9694 0
    outer loop
      vertex -20.4955 5.97951 -5.5
      vertex -20.4955 5.97951 -0.5
      vertex -22.4102 5.49464 -0.5
    endloop
  endfacet
  facet normal 0.245485 -0.9694 0
    outer loop
      vertex -22.4102 5.49464 -5.5
      vertex -20.4955 5.97951 -5.5
      vertex -22.4102 5.49464 -0.5
    endloop
  endfacet
  facet normal -0.0825792 -0.996585 0
    outer loop
      vertex -18.5271 5.8164 -5.5
      vertex -18.5271 5.8164 -0.5
      vertex -20.4955 5.97951 -0.5
    endloop
  endfacet
  facet normal -0.0825792 -0.996585 0
    outer loop
      vertex -20.4955 5.97951 -5.5
      vertex -18.5271 5.8164 -5.5
      vertex -20.4955 5.97951 -0.5
    endloop
  endfacet
  facet normal -0.401696 -0.915773 0
    outer loop
      vertex -16.7183 5.023 -5.5
      vertex -16.7183 5.023 -0.5
      vertex -18.5271 5.8164 -0.5
    endloop
  endfacet
  facet normal -0.401696 -0.915773 0
    outer loop
      vertex -18.5271 5.8164 -5.5
      vertex -16.7183 5.023 -5.5
      vertex -18.5271 5.8164 -0.5
    endloop
  endfacet
  facet normal -0.677282 -0.735724 0
    outer loop
      vertex -15.472 3.87565 -5.5
      vertex -15.472 3.87565 -0.5
      vertex -16.7183 5.023 -0.5
    endloop
  endfacet
  facet normal -0.677282 -0.735724 0
    outer loop
      vertex -16.7183 5.023 -5.5
      vertex -15.472 3.87565 -5.5
      vertex -16.7183 5.023 -0.5
    endloop
  endfacet
  facet normal 0.951056 -0.309017 0
    outer loop
      vertex -15.472 3.87565 -0.5
      vertex -15.472 3.87565 -5.5
      vertex -14.6167 6.50779 -5.5
    endloop
  endfacet
  facet normal 0.951056 -0.309017 0
    outer loop
      vertex -15.6504 3.32659 5.5
      vertex -15.472 3.87565 -0.5
      vertex -14.6167 6.50779 5.5
    endloop
  endfacet
  facet normal 0.951056 -0.309017 0
    outer loop
      vertex -14.6167 6.50779 5.5
      vertex -15.472 3.87565 -0.5
      vertex -14.6167 6.50779 -5.5
    endloop
  endfacet
  facet normal 0.951056 -0.309017 0
    outer loop
      vertex -15.6504 3.32659 -0.5
      vertex -15.472 3.87565 -0.5
      vertex -15.6504 3.32659 5.5
    endloop
  endfacet
  facet normal 0.866025 -0.5 0
    outer loop
      vertex -12.9443 9.40456 -5.5
      vertex -12.9443 9.40456 5.5
      vertex -14.6167 6.50779 5.5
    endloop
  endfacet
  facet normal 0.866025 -0.5 0
    outer loop
      vertex -14.6167 6.50779 -5.5
      vertex -12.9443 9.40456 -5.5
      vertex -14.6167 6.50779 5.5
    endloop
  endfacet
  facet normal 0.743145 -0.669131 0
    outer loop
      vertex -10.7061 11.8903 -5.5
      vertex -10.7061 11.8903 5.5
      vertex -12.9443 9.40456 5.5
    endloop
  endfacet
  facet normal 0.743145 -0.669131 0
    outer loop
      vertex -12.9443 9.40456 -5.5
      vertex -10.7061 11.8903 -5.5
      vertex -12.9443 9.40456 5.5
    endloop
  endfacet
  facet normal 0.587785 -0.809017 0
    outer loop
      vertex -8 13.8564 -5.5
      vertex -8 13.8564 5.5
      vertex -10.7061 11.8903 5.5
    endloop
  endfacet
  facet normal 0.587785 -0.809017 0
    outer loop
      vertex -10.7061 11.8903 -5.5
      vertex -8 13.8564 -5.5
      vertex -10.7061 11.8903 5.5
    endloop
  endfacet
  facet normal 0.406737 -0.913545 0
    outer loop
      vertex -4.94427 15.2169 -5.5
      vertex -4.94427 15.2169 -0.280164
      vertex -5 15.1921 -3.37332e-15
    endloop
  endfacet
  facet normal 0.406737 -0.913545 0
    outer loop
      vertex -8 13.8564 5.5
      vertex -4.94427 15.2169 -5.5
      vertex -5 15.1921 -3.37332e-15
    endloop
  endfacet
  facet normal 0.406737 -0.913545 0
    outer loop
      vertex -4.94427 15.2169 0.280164
      vertex -4.94427 15.2169 5.5
      vertex -5 15.1921 -3.37332e-15
    endloop
  endfacet
  facet normal 0.406737 -0.913545 0
    outer loop
      vertex -4.94427 15.2169 5.5
      vertex -8 13.8564 5.5
      vertex -5 15.1921 -3.37332e-15
    endloop
  endfacet
  facet normal 0.406737 -0.913545 0
    outer loop
      vertex -8 13.8564 5.5
      vertex -8 13.8564 -5.5
      vertex -4.94427 15.2169 -5.5
    endloop
  endfacet
  facet normal 0.207912 -0.978148 0
    outer loop
      vertex -3.53553 15.5163 -3.53553
      vertex -4.94427 15.2169 -5.5
      vertex -1.67246 15.9123 -5.5
    endloop
  endfacet
  facet normal 0.207912 -0.978148 0
    outer loop
      vertex -1.67246 15.9123 -5.5
      vertex -1.67246 15.9123 -4.66733
      vertex -1.91342 15.8611 -4.6194
    endloop
  endfacet
  facet normal 0.207912 -0.978148 0
    outer loop
      vertex -4.6194 15.286 -1.91342
      vertex -4.94427 15.2169 -5.5
      vertex -3.53553 15.5163 -3.53553
    endloop
  endfacet
  facet normal 0.207912 -0.978148 0
    outer loop
      vertex -3.53553 15.5163 -3.53553
      vertex -1.67246 15.9123 -5.5
      vertex -1.91342 15.8611 -4.6194
    endloop
  endfacet
  facet normal 0.207912 -0.978148 0
    outer loop
      vertex -4.94427 15.2169 -0.280164
      vertex -4.94427 15.2169 -5.5
      vertex -4.6194 15.286 -1.91342
    endloop
  endfacet
  facet normal 0 -1 0
    outer loop
      vertex 1.67246 15.9123 -5.5
      vertex 1.67246 15.9123 -4.66733
      vertex 0 15.9123 -5
    endloop
  endfacet
  facet normal 0 -1 0
    outer loop
      vertex -1.67246 15.9123 -4.66733
      vertex 1.67246 15.9123 -5.5
      vertex 0 15.9123 -5
    endloop
  endfacet
  facet normal 0 -1 0
    outer loop
      vertex -1.67246 15.9123 -4.66733
      vertex -1.67246 15.9123 -5.5
      vertex 1.67246 15.9123 -5.5
    endloop
  endfacet
  facet normal -0.207912 -0.978148 0
    outer loop
      vertex 1.91342 15.8611 -4.6194
      vertex 1.67246 15.9123 -4.66733
      vertex 4.94427 15.2169 -5.5
    endloop
  endfacet
  facet normal -0.207912 -0.978148 0
    outer loop
      vertex 4.94427 15.2169 -5.5
      vertex 4.94427 15.2169 -0.280164
      vertex 4.6194 15.286 -1.91342
    endloop
  endfacet
  facet normal -0.207912 -0.978148 0
    outer loop
      vertex 3.53553 15.5163 -3.53553
      vertex 4.94427 15.2169 -5.5
      vertex 4.6194 15.286 -1.91342
    endloop
  endfacet
  facet normal -0.207912 -0.978148 0
    outer loop
      vertex 3.53553 15.5163 -3.53553
      vertex 1.91342 15.8611 -4.6194
      vertex 4.94427 15.2169 -5.5
    endloop
  endfacet
  facet normal -0.207912 -0.978148 0
    outer loop
      vertex 1.67246 15.9123 -4.66733
      vertex 1.67246 15.9123 -5.5
      vertex 4.94427 15.2169 -5.5
    endloop
  endfacet
  facet normal -0.406737 -0.913545 0
    outer loop
      vertex 8 13.8564 -5.5
      vertex 8 13.8564 5.5
      vertex 4.94427 15.2169 5.5
    endloop
  endfacet
  facet normal -0.406737 -0.913545 0
    outer loop
      vertex 5 15.1921 -3.37332e-15
      vertex 8 13.8564 -5.5
      vertex 4.94427 15.2169 0.280164
    endloop
  endfacet
  facet normal -0.406737 -0.913545 0
    outer loop
      vertex 4.94427 15.2169 0.280164
      vertex 8 13.8564 -5.5
      vertex 4.94427 15.2169 5.5
    endloop
  endfacet
  facet normal -0.406737 -0.913545 0
    outer loop
      vertex 4.94427 15.2169 -0.280164
      vertex 8 13.8564 -5.5
      vertex 5 15.1921 -3.37332e-15
    endloop
  endfacet
  facet normal -0.406737 -0.913545 0
    outer loop
      vertex 4.94427 15.2169 -5.5
      vertex 8 13.8564 -5.5
      vertex 4.94427 15.2169 -0.280164
    endloop
  endfacet
  facet normal -0.587785 -0.809017 0
    outer loop
      vertex 10.7061 11.8903 -5.5
      vertex 10.7061 11.8903 5.5
      vertex 8 13.8564 5.5
    endloop
  endfacet
  facet normal -0.587785 -0.809017 0
    outer loop
      vertex 8 13.8564 -5.5
      vertex 10.7061 11.8903 -5.5
      vertex 8 13.8564 5.5
    endloop
  endfacet
  facet normal -0.743145 -0.669131 0
    outer loop
      vertex 12.9443 9.40456 5.5
      vertex 10.7061 11.8903 5.5
      vertex 12.9443 9.40456 -5.5
    endloop
  endfacet
  facet normal -0.743145 -0.669131 0
    outer loop
      vertex 12.9443 9.40456 -5.5
      vertex 10.7061 11.8903 5.5
      vertex 10.7061 11.8903 -5.5
    endloop
  endfacet
  facet normal -0.866025 -0.5 0
    outer loop
      vertex 14.6167 6.50779 5.5
      vertex 12.9443 9.40456 5.5
      vertex 14.6167 6.50779 -5.5
    endloop
  endfacet
  facet normal -0.866025 -0.5 0
    outer loop
      vertex 14.6167 6.50779 -5.5
      vertex 12.9443 9.40456 5.5
      vertex 12.9443 9.40456 -5.5
    endloop
  endfacet
  facet normal -0.951056 -0.309017 0
    outer loop
      vertex 15.4852 3.8348 -0.5
      vertex 15.6504 3.32659 -0.5
      vertex 15.6504 3.32659 5.5
    endloop
  endfacet
  facet normal -0.951056 -0.309017 0
    outer loop
      vertex 15.4852 3.8348 -0.5
      vertex 15.6504 3.32659 5.5
      vertex 14.6167 6.50779 5.5
    endloop
  endfacet
  facet normal -0.951056 -0.309017 0
    outer loop
      vertex 15.4852 3.8348 -0.5
      vertex 14.6167 6.50779 5.5
      vertex 15.4852 3.8348 -5.5
    endloop
  endfacet
  facet normal -0.951056 -0.309017 0
    outer loop
      vertex 14.6167 6.50779 5.5
      vertex 14.6167 6.50779 -5.5
      vertex 15.4852 3.8348 -5.5
    endloop
  endfacet
  facet normal 0.78914 -0.614213 0
    outer loop
      vertex 15.9363 4.41434 -5.5
      vertex 15.9363 4.41434 -0.5
      vertex 15.4852 3.8348 -0.5
    endloop
  endfacet
  facet normal 0.78914 -0.614213 0
    outer loop
      vertex 15.4852 3.8348 -5.5
      vertex 15.9363 4.41434 -5.5
      vertex 15.4852 3.8348 -0.5
    endloop
  endfacet
  facet normal 0.546949 -0.837166 0
    outer loop
      vertex 17.5898 5.49464 -5.5
      vertex 17.5898 5.49464 -0.5
      vertex 15.9363 4.41434 -0.5
    endloop
  endfacet
  facet normal 0.546949 -0.837166 0
    outer loop
      vertex 15.9363 4.41434 -5.5
      vertex 17.5898 5.49464 -5.5
      vertex 15.9363 4.41434 -0.5
    endloop
  endfacet
  facet normal 0.245485 -0.9694 0
    outer loop
      vertex 19.5045 5.97951 -5.5
      vertex 19.5045 5.97951 -0.5
      vertex 17.5898 5.49464 -0.5
    endloop
  endfacet
  facet normal 0.245485 -0.9694 0
    outer loop
      vertex 17.5898 5.49464 -5.5
      vertex 19.5045 5.97951 -5.5
      vertex 17.5898 5.49464 -0.5
    endloop
  endfacet
  facet normal -0.0825792 -0.996585 0
    outer loop
      vertex 21.4729 5.8164 -5.5
      vertex 21.4729 5.8164 -0.5
      vertex 19.5045 5.97951 -0.5
    endloop
  endfacet
  facet normal -0.0825792 -0.996585 0
    outer loop
      vertex 19.5045 5.97951 -5.5
      vertex 21.4729 5.8164 -5.5
      vertex 19.5045 5.97951 -0.5
    endloop
  endfacet
  facet normal -0.401696 -0.915773 0
    outer loop
      vertex 23.2817 5.023 -5.5
      vertex 23.2817 5.023 -0.5
      vertex 21.4729 5.8164 -0.5
    endloop
  endfacet
  facet normal -0.401696 -0.915773 0
    outer loop
      vertex 21.4729 5.8164 -5.5
      vertex 23.2817 5.023 -5.5
      vertex 21.4729 5.8164 -0.5
    endloop
  endfacet
  facet normal -0.677282 -0.735724 0
    outer loop
      vertex 24.7348 3.68528 -5.5
      vertex 24.7348 3.68528 -0.5
      vertex 23.2817 5.023 -0.5
    endloop
  endfacet
  facet normal -0.677282 -0.735724 0
    outer loop
      vertex 23.2817 5.023 -5.5
      vertex 24.7348 3.68528 -5.5
      vertex 23.2817 5.023 -0.5
    endloop
  endfacet
  facet normal -0.879474 -0.475947 0
    outer loop
      vertex 25.6749 1.9482 -0.5
      vertex 24.7348 3.68528 -0.5
      vertex 25.6749 1.9482 -5.5
    endloop
  endfacet
  facet normal -0.879474 -0.475947 0
    outer loop
      vertex 25.6749 1.9482 -5.5
      vertex 24.7348 3.68528 -0.5
      vertex 24.7348 3.68528 -5.5
    endloop
  endfacet
  facet normal -0.986361 -0.164595 0
    outer loop
      vertex 26 0 -0.5
      vertex 25.6749 1.9482 -0.5
      vertex 26 0 -5.5
    endloop
  endfacet
  facet normal -0.986361 -0.164595 0
    outer loop
      vertex 26 0 -5.5
      vertex 25.6749 1.9482 -0.5
      vertex 25.6749 1.9482 -5.5
    endloop
  endfacet
  facet normal -0.986361 0.164595 0
    outer loop
      vertex 26 0 -0.5
      vertex 26 0 -5.5
      vertex 25.6749 -1.9482 -0.5
    endloop
  endfacet
  facet normal -0.986361 0.164595 0
    outer loop
      vertex 25.6749 -1.9482 -0.5
      vertex 26 0 -5.5
      vertex 25.6749 -1.9482 -5.5
    endloop
  endfacet
  facet normal -0.879474 0.475947 0
    outer loop
      vertex 25.6749 -1.9482 -0.5
      vertex 25.6749 -1.9482 -5.5
      vertex 24.7348 -3.68528 -0.5
    endloop
  endfacet
  facet normal -0.879474 0.475947 0
    outer loop
      vertex 24.7348 -3.68528 -0.5
      vertex 25.6749 -1.9482 -5.5
      vertex 24.7348 -3.68528 -5.5
    endloop
  endfacet
  facet normal -0.677282 0.735724 0
    outer loop
      vertex 24.7348 -3.68528 -0.5
      vertex 24.7348 -3.68528 -5.5
      vertex 23.2817 -5.023 -0.5
    endloop
  endfacet
  facet normal -0.677282 0.735724 0
    outer loop
      vertex 23.2817 -5.023 -0.5
      vertex 24.7348 -3.68528 -5.5
      vertex 23.2817 -5.023 -5.5
    endloop
  endfacet
  facet normal -0.401696 0.915773 0
    outer loop
      vertex 23.2817 -5.023 -0.5
      vertex 23.2817 -5.023 -5.5
      vertex 21.4729 -5.8164 -0.5
    endloop
  endfacet
  facet normal -0.401696 0.915773 0
    outer loop
      vertex 21.4729 -5.8164 -0.5
      vertex 23.2817 -5.023 -5.5
      vertex 21.4729 -5.8164 -5.5
    endloop
  endfacet
  facet normal -0.0825792 0.996585 0
    outer loop
      vertex 21.4729 -5.8164 -0.5
      vertex 21.4729 -5.8164 -5.5
      vertex 19.5045 -5.97951 -0.5
    endloop
  endfacet
  facet normal -0.0825792 0.996585 0
    outer loop
      vertex 19.5045 -5.97951 -0.5
      vertex 21.4729 -5.8164 -5.5
      vertex 19.5045 -5.97951 -5.5
    endloop
  endfacet
  facet normal 0.245485 0.9694 0
    outer loop
      vertex 19.5045 -5.97951 -0.5
      vertex 19.5045 -5.97951 -5.5
      vertex 17.5898 -5.49464 -0.5
    endloop
  endfacet
  facet normal 0.245485 0.9694 0
    outer loop
      vertex 17.5898 -5.49464 -0.5
      vertex 19.5045 -5.97951 -5.5
      vertex 17.5898 -5.49464 -5.5
    endloop
  endfacet
  facet normal 0.546949 0.837166 0
    outer loop
      vertex 17.5898 -5.49464 -0.5
      vertex 17.5898 -5.49464 -5.5
      vertex 15.9363 -4.41434 -0.5
    endloop
  endfacet
  facet normal 0.546949 0.837166 0
    outer loop
      vertex 15.9363 -4.41434 -0.5
      vertex 17.5898 -5.49464 -5.5
      vertex 15.9363 -4.41434 -5.5
    endloop
  endfacet
  facet normal 0.78914 0.614213 0
    outer loop
      vertex 15.4852 -3.8348 -0.5
      vertex 15.9363 -4.41434 -0.5
      vertex 15.9363 -4.41434 -5.5
    endloop
  endfacet
  facet normal 0.78914 0.614213 0
    outer loop
      vertex 15.4852 -3.8348 -5.5
      vertex 15.4852 -3.8348 -0.5
      vertex 15.9363 -4.41434 -5.5
    endloop
  endfacet
  facet normal -0.951056 0.309017 0
    outer loop
      vertex 15.6504 -3.32659 5.5
      vertex 15.6504 -3.32659 -0.5
      vertex 14.6167 -6.50779 5.5
    endloop
  endfacet
  facet normal -0.951056 0.309017 0
    outer loop
      vertex 14.6167 -6.50779 5.5
      vertex 15.6504 -3.32659 -0.5
      vertex 15.4852 -3.8348 -0.5
    endloop
  endfacet
  facet normal -0.951056 0.309017 0
    outer loop
      vertex 14.6167 -6.50779 5.5
      vertex 15.4852 -3.8348 -0.5
      vertex 15.4852 -3.8348 -5.5
    endloop
  endfacet
  facet normal -0.951056 0.309017 0
    outer loop
      vertex 14.6167 -6.50779 5.5
      vertex 15.4852 -3.8348 -5.5
      vertex 14.6167 -6.50779 -5.5
    endloop
  endfacet
  facet normal -0.866025 0.5 0
    outer loop
      vertex 14.6167 -6.50779 5.5
      vertex 14.6167 -6.50779 -5.5
      vertex 12.9443 -9.40456 5.5
    endloop
  endfacet
  facet normal -0.866025 0.5 0
    outer loop
      vertex 12.9443 -9.40456 5.5
      vertex 14.6167 -6.50779 -5.5
      vertex 12.9443 -9.40456 -5.5
    endloop
  endfacet
  facet normal -0.743145 0.669131 0
    outer loop
      vertex 12.9443 -9.40456 5.5
      vertex 12.9443 -9.40456 -5.5
      vertex 10.7061 -11.8903 5.5
    endloop
  endfacet
  facet normal -0.743145 0.669131 0
    outer loop
      vertex 10.7061 -11.8903 5.5
      vertex 12.9443 -9.40456 -5.5
      vertex 10.7061 -11.8903 -5.5
    endloop
  endfacet
  facet normal -0.587785 0.809017 0
    outer loop
      vertex 10.7061 -11.8903 5.5
      vertex 10.7061 -11.8903 -5.5
      vertex 8 -13.8564 5.5
    endloop
  endfacet
  facet normal -0.587785 0.809017 0
    outer loop
      vertex 8 -13.8564 5.5
      vertex 10.7061 -11.8903 -5.5
      vertex 8 -13.8564 -5.5
    endloop
  endfacet
  facet normal -0.406737 0.913545 0
    outer loop
      vertex 5 -15.1921 3.37332e-15
      vertex 4.94427 -15.2169 0.280164
      vertex 4.94427 -15.2169 5.5
    endloop
  endfacet
  facet normal -0.406737 0.913545 0
    outer loop
      vertex 5 -15.1921 3.37332e-15
      vertex 4.94427 -15.2169 5.5
      vertex 8 -13.8564 5.5
    endloop
  endfacet
  facet normal -0.406737 0.913545 0
    outer loop
      vertex 5 -15.1921 3.37332e-15
      vertex 8 -13.8564 5.5
      vertex 4.94427 -15.2169 -0.280164
    endloop
  endfacet
  facet normal -0.406737 0.913545 0
    outer loop
      vertex 8 -13.8564 5.5
      vertex 8 -13.8564 -5.5
      vertex 4.94427 -15.2169 -0.280164
    endloop
  endfacet
  facet normal -0.406737 0.913545 0
    outer loop
      vertex 8 -13.8564 -5.5
      vertex 4.94427 -15.2169 -5.5
      vertex 4.94427 -15.2169 -0.280164
    endloop
  endfacet
  facet normal -0.207912 0.978148 0
    outer loop
      vertex 1.91342 -15.8611 -4.6194
      vertex 4.94427 -15.2169 -5.5
      vertex 1.67246 -15.9123 -4.66733
    endloop
  endfacet
  facet normal -0.207912 0.978148 0
    outer loop
      vertex 4.94427 -15.2169 -5.5
      vertex 3.53553 -15.5163 -3.53553
      vertex 4.6194 -15.286 -1.91342
    endloop
  endfacet
  facet normal -0.207912 0.978148 0
    outer loop
      vertex 4.94427 -15.2169 -5.5
      vertex 4.6194 -15.286 -1.91342
      vertex 4.94427 -15.2169 -0.280164
    endloop
  endfacet
  facet normal -0.207912 0.978148 0
    outer loop
      vertex 1.91342 -15.8611 -4.6194
      vertex 3.53553 -15.5163 -3.53553
      vertex 4.94427 -15.2169 -5.5
    endloop
  endfacet
  facet normal -0.207912 0.978148 0
    outer loop
      vertex 4.94427 -15.2169 -5.5
      vertex 1.67246 -15.9123 -5.5
      vertex 1.67246 -15.9123 -4.66733
    endloop
  endfacet
  facet normal 0 1 0
    outer loop
      vertex 0 -15.9123 -5
      vertex 1.67246 -15.9123 -4.66733
      vertex 1.67246 -15.9123 -5.5
    endloop
  endfacet
  facet normal 0 1 0
    outer loop
      vertex 0 -15.9123 -5
      vertex 1.67246 -15.9123 -5.5
      vertex -1.67246 -15.9123 -4.66733
    endloop
  endfacet
  facet normal 0 1 0
    outer loop
      vertex 1.67246 -15.9123 -5.5
      vertex -1.67246 -15.9123 -5.5
      vertex -1.67246 -15.9123 -4.66733
    endloop
  endfacet
  facet normal 0.207912 0.978148 0
    outer loop
      vertex -4.6194 -15.286 -1.91342
      vertex -4.94427 -15.2169 -5.5
      vertex -4.94427 -15.2169 -0.280164
    endloop
  endfacet
  facet normal 0.207912 0.978148 0
    outer loop
      vertex -1.67246 -15.9123 -5.5
      vertex -3.53553 -15.5163 -3.53553
      vertex -1.91342 -15.8611 -4.6194
    endloop
  endfacet
  facet normal 0.207912 0.978148 0
    outer loop
      vertex -1.67246 -15.9123 -5.5
      vertex -1.91342 -15.8611 -4.6194
      vertex -1.67246 -15.9123 -4.66733
    endloop
  endfacet
  facet normal 0.207912 0.978148 0
    outer loop
      vertex -4.94427 -15.2169 -5.5
      vertex -3.53553 -15.5163 -3.53553
      vertex -1.67246 -15.9123 -5.5
    endloop
  endfacet
  facet normal 0.207912 0.978148 0
    outer loop
      vertex -4.6194 -15.286 -1.91342
      vertex -3.53553 -15.5163 -3.53553
      vertex -4.94427 -15.2169 -5.5
    endloop
  endfacet
  facet normal 0.406737 0.913545 0
    outer loop
      vertex -4.94427 -15.2169 5.5
      vertex -4.94427 -15.2169 0.280164
      vertex -8 -13.8564 5.5
    endloop
  endfacet
  facet normal 0.406737 0.913545 0
    outer loop
      vertex -8 -13.8564 5.5
      vertex -4.94427 -15.2169 0.280164
      vertex -5 -15.1921 3.37332e-15
    endloop
  endfacet
  facet normal 0.406737 0.913545 0
    outer loop
      vertex -8 -13.8564 5.5
      vertex -5 -15.1921 3.37332e-15
      vertex -4.94427 -15.2169 -0.280164
    endloop
  endfacet
  facet normal 0.406737 0.913545 0
    outer loop
      vertex -8 -13.8564 5.5
      vertex -4.94427 -15.2169 -0.280164
      vertex -4.94427 -15.2169 -5.5
    endloop
  endfacet
  facet normal 0.406737 0.913545 0
    outer loop
      vertex -8 -13.8564 5.5
      vertex -4.94427 -15.2169 -5.5
      vertex -8 -13.8564 -5.5
    endloop
  endfacet
  facet normal 0.587785 0.809017 0
    outer loop
      vertex -8 -13.8564 5.5
      vertex -8 -13.8564 -5.5
      vertex -10.7061 -11.8903 5.5
    endloop
  endfacet
  facet normal 0.587785 0.809017 0
    outer loop
      vertex -10.7061 -11.8903 5.5
      vertex -8 -13.8564 -5.5
      vertex -10.7061 -11.8903 -5.5
    endloop
  endfacet
  facet normal 0.743145 0.669131 0
    outer loop
      vertex -12.9443 -9.40456 5.5
      vertex -10.7061 -11.8903 5.5
      vertex -10.7061 -11.8903 -5.5
    endloop
  endfacet
  facet normal 0.743145 0.669131 0
    outer loop
      vertex -12.9443 -9.40456 -5.5
      vertex -12.9443 -9.40456 5.5
      vertex -10.7061 -11.8903 -5.5
    endloop
  endfacet
  facet normal 0.866025 0.5 0
    outer loop
      vertex -14.6167 -6.50779 5.5
      vertex -12.9443 -9.40456 5.5
      vertex -12.9443 -9.40456 -5.5
    endloop
  endfacet
  facet normal 0.866025 0.5 0
    outer loop
      vertex -14.6167 -6.50779 -5.5
      vertex -14.6167 -6.50779 5.5
      vertex -12.9443 -9.40456 -5.5
    endloop
  endfacet
  facet normal 0.951056 0.309017 0
    outer loop
      vertex -15.6504 -3.32659 5.5
      vertex -14.6167 -6.50779 5.5
      vertex -14.6167 -6.50779 -5.5
    endloop
  endfacet
  facet normal 0.951056 0.309017 0
    outer loop
      vertex -15.472 -3.87565 -0.5
      vertex -15.6504 -3.32659 5.5
      vertex -14.6167 -6.50779 -5.5
    endloop
  endfacet
  facet normal 0.951056 0.309017 0
    outer loop
      vertex -15.472 -3.87565 -5.5
      vertex -15.472 -3.87565 -0.5
      vertex -14.6167 -6.50779 -5.5
    endloop
  endfacet
  facet normal 0.951056 0.309017 0
    outer loop
      vertex -15.472 -3.87565 -0.5
      vertex -15.6504 -3.32659 -0.5
      vertex -15.6504 -3.32659 5.5
    endloop
  endfacet
  facet normal -0.677282 0.735724 0
    outer loop
      vertex -15.472 -3.87565 -0.5
      vertex -15.472 -3.87565 -5.5
      vertex -16.7183 -5.023 -0.5
    endloop
  endfacet
  facet normal -0.677282 0.735724 0
    outer loop
      vertex -16.7183 -5.023 -0.5
      vertex -15.472 -3.87565 -5.5
      vertex -16.7183 -5.023 -5.5
    endloop
  endfacet
  facet normal -0.401696 0.915773 0
    outer loop
      vertex -16.7183 -5.023 -0.5
      vertex -16.7183 -5.023 -5.5
      vertex -18.5271 -5.8164 -0.5
    endloop
  endfacet
  facet normal -0.401696 0.915773 0
    outer loop
      vertex -18.5271 -5.8164 -0.5
      vertex -16.7183 -5.023 -5.5
      vertex -18.5271 -5.8164 -5.5
    endloop
  endfacet
  facet normal -0.0825792 0.996585 0
    outer loop
      vertex -18.5271 -5.8164 -0.5
      vertex -18.5271 -5.8164 -5.5
      vertex -20.4955 -5.97951 -0.5
    endloop
  endfacet
  facet normal -0.0825792 0.996585 0
    outer loop
      vertex -20.4955 -5.97951 -0.5
      vertex -18.5271 -5.8164 -5.5
      vertex -20.4955 -5.97951 -5.5
    endloop
  endfacet
  facet normal 0.245485 0.9694 0
    outer loop
      vertex -20.4955 -5.97951 -0.5
      vertex -20.4955 -5.97951 -5.5
      vertex -22.4102 -5.49464 -0.5
    endloop
  endfacet
  facet normal 0.245485 0.9694 0
    outer loop
      vertex -22.4102 -5.49464 -0.5
      vertex -20.4955 -5.97951 -5.5
      vertex -22.4102 -5.49464 -5.5
    endloop
  endfacet
  facet normal 0.546949 0.837166 0
    outer loop
      vertex -22.4102 -5.49464 -0.5
      vertex -22.4102 -5.49464 -5.5
      vertex -24.0637 -4.41434 -0.5
    endloop
  endfacet
  facet normal 0.546949 0.837166 0
    outer loop
      vertex -24.0637 -4.41434 -0.5
      vertex -22.4102 -5.49464 -5.5
      vertex -24.0637 -4.41434 -5.5
    endloop
  endfacet
  facet normal 0.78914 0.614213 0
    outer loop
      vertex -25.2768 -2.85568 -0.5
      vertex -24.0637 -4.41434 -0.5
      vertex -24.0637 -4.41434 -5.5
    endloop
  endfacet
  facet normal 0.78914 0.614213 0
    outer loop
      vertex -25.2768 -2.85568 -5.5
      vertex -25.2768 -2.85568 -0.5
      vertex -24.0637 -4.41434 -5.5
    endloop
  endfacet
  facet normal 0.945817 0.324699 0
    outer loop
      vertex -25.9182 -0.987568 -0.5
      vertex -25.2768 -2.85568 -0.5
      vertex -25.2768 -2.85568 -5.5
    endloop
  endfacet
  facet normal 0.945817 0.324699 0
    outer loop
      vertex -25.9182 -0.987568 -5.5
      vertex -25.9182 -0.987568 -0.5
      vertex -25.2768 -2.85568 -5.5
    endloop
  endfacet
  facet normal 0.980785 -4.33187e-17 -0.19509
    outer loop
      vertex -5 25 -5.55112e-15
      vertex -4.6194 25 1.91342
      vertex -4.6194 15.286 1.91342
    endloop
  endfacet
  facet normal 0.980785 -4.33187e-17 -0.19509
    outer loop
      vertex -5 15.1921 -3.37332e-15
      vertex -5 25 -5.55112e-15
      vertex -4.94427 15.2169 0.280164
    endloop
  endfacet
  facet normal 0.980785 -4.33187e-17 -0.19509
    outer loop
      vertex -4.94427 15.2169 0.280164
      vertex -5 25 -5.55112e-15
      vertex -4.6194 15.286 1.91342
    endloop
  endfacet
  facet normal 0.980785 4.33187e-17 0.19509
    outer loop
      vertex -4.94427 15.2169 -0.280164
      vertex -4.6194 15.286 -1.91342
      vertex -4.6194 25 -1.91342
    endloop
  endfacet
  facet normal 0.980785 4.33187e-17 0.19509
    outer loop
      vertex -5 15.1921 -3.37332e-15
      vertex -4.94427 15.2169 -0.280164
      vertex -5 25 -5.55112e-15
    endloop
  endfacet
  facet normal 0.980785 4.33187e-17 0.19509
    outer loop
      vertex -5 25 -5.55112e-15
      vertex -4.94427 15.2169 -0.280164
      vertex -4.6194 25 -1.91342
    endloop
  endfacet
  facet normal 0.83147 -1.23361e-16 -0.55557
    outer loop
      vertex -4.6194 25 1.91342
      vertex -3.53553 25 3.53553
      vertex -3.53553 15.5163 3.53553
    endloop
  endfacet
  facet normal 0.83147 -1.23361e-16 -0.55557
    outer loop
      vertex -4.6194 15.286 1.91342
      vertex -4.6194 25 1.91342
      vertex -3.53553 15.5163 3.53553
    endloop
  endfacet
  facet normal 0.55557 -1.84623e-16 -0.83147
    outer loop
      vertex -1.91342 25 4.6194
      vertex -1.91342 15.8611 4.6194
      vertex -3.53553 25 3.53553
    endloop
  endfacet
  facet normal 0.55557 -1.84623e-16 -0.83147
    outer loop
      vertex -3.53553 25 3.53553
      vertex -1.91342 15.8611 4.6194
      vertex -3.53553 15.5163 3.53553
    endloop
  endfacet
  facet normal 0.19509 -2.17778e-16 -0.980785
    outer loop
      vertex 0 25 5
      vertex 0 15.9123 5
      vertex -1.91342 25 4.6194
    endloop
  endfacet
  facet normal 0.19509 -2.17778e-16 -0.980785
    outer loop
      vertex -1.91342 25 4.6194
      vertex 0 15.9123 5
      vertex -1.67246 15.9123 4.66733
    endloop
  endfacet
  facet normal 0.19509 -2.17778e-16 -0.980785
    outer loop
      vertex -1.91342 25 4.6194
      vertex -1.67246 15.9123 4.66733
      vertex -1.91342 15.8611 4.6194
    endloop
  endfacet
  facet normal -0.19509 -2.17778e-16 -0.980785
    outer loop
      vertex 1.91342 25 4.6194
      vertex 1.91342 15.8611 4.6194
      vertex 0 25 5
    endloop
  endfacet
  facet normal -0.19509 -2.17778e-16 -0.980785
    outer loop
      vertex 0 25 5
      vertex 1.91342 15.8611 4.6194
      vertex 1.67246 15.9123 4.66733
    endloop
  endfacet
  facet normal -0.19509 -2.17778e-16 -0.980785
    outer loop
      vertex 0 25 5
      vertex 1.67246 15.9123 4.66733
      vertex 0 15.9123 5
    endloop
  endfacet
  facet normal -0.55557 -1.84623e-16 -0.83147
    outer loop
      vertex 3.53553 25 3.53553
      vertex 3.53553 15.5163 3.53553
      vertex 1.91342 25 4.6194
    endloop
  endfacet
  facet normal -0.55557 -1.84623e-16 -0.83147
    outer loop
      vertex 1.91342 25 4.6194
      vertex 3.53553 15.5163 3.53553
      vertex 1.91342 15.8611 4.6194
    endloop
  endfacet
  facet normal -0.83147 -1.23361e-16 -0.55557
    outer loop
      vertex 4.6194 25 1.91342
      vertex 4.6194 15.286 1.91342
      vertex 3.53553 25 3.53553
    endloop
  endfacet
  facet normal -0.83147 -1.23361e-16 -0.55557
    outer loop
      vertex 3.53553 25 3.53553
      vertex 4.6194 15.286 1.91342
      vertex 3.53553 15.5163 3.53553
    endloop
  endfacet
  facet normal -0.980785 -4.33187e-17 -0.19509
    outer loop
      vertex 5 25 -5.55112e-15
      vertex 5 15.1921 -3.37332e-15
      vertex 4.6194 25 1.91342
    endloop
  endfacet
  facet normal -0.980785 -4.33187e-17 -0.19509
    outer loop
      vertex 4.6194 25 1.91342
      vertex 5 15.1921 -3.37332e-15
      vertex 4.94427 15.2169 0.280164
    endloop
  endfacet
  facet normal -0.980785 -4.33187e-17 -0.19509
    outer loop
      vertex 4.6194 25 1.91342
      vertex 4.94427 15.2169 0.280164
      vertex 4.6194 15.286 1.91342
    endloop
  endfacet
  facet normal -0.980785 4.33187e-17 0.19509
    outer loop
      vertex 5 15.1921 -3.37332e-15
      vertex 5 25 -5.55112e-15
      vertex 4.94427 15.2169 -0.280164
    endloop
  endfacet
  facet normal -0.980785 4.33187e-17 0.19509
    outer loop
      vertex 4.94427 15.2169 -0.280164
      vertex 5 25 -5.55112e-15
      vertex 4.6194 25 -1.91342
    endloop
  endfacet
  facet normal -0.980785 4.33187e-17 0.19509
    outer loop
      vertex 4.94427 15.2169 -0.280164
      vertex 4.6194 25 -1.91342
      vertex 4.6194 15.286 -1.91342
    endloop
  endfacet
  facet normal -0.83147 1.23361e-16 0.55557
    outer loop
      vertex 4.6194 25 -1.91342
      vertex 3.53553 25 -3.53553
      vertex 4.6194 15.286 -1.91342
    endloop
  endfacet
  facet normal -0.83147 1.23361e-16 0.55557
    outer loop
      vertex 4.6194 15.286 -1.91342
      vertex 3.53553 25 -3.53553
      vertex 3.53553 15.5163 -3.53553
    endloop
  endfacet
  facet normal -0.55557 1.84623e-16 0.83147
    outer loop
      vertex 3.53553 15.5163 -3.53553
      vertex 3.53553 25 -3.53553
      vertex 1.91342 25 -4.6194
    endloop
  endfacet
  facet normal -0.55557 1.84623e-16 0.83147
    outer loop
      vertex 1.91342 15.8611 -4.6194
      vertex 3.53553 15.5163 -3.53553
      vertex 1.91342 25 -4.6194
    endloop
  endfacet
  facet normal -0.19509 2.17778e-16 0.980785
    outer loop
      vertex 1.67246 15.9123 -4.66733
      vertex 1.91342 15.8611 -4.6194
      vertex 1.91342 25 -4.6194
    endloop
  endfacet
  facet normal -0.19509 2.17778e-16 0.980785
    outer loop
      vertex 0 15.9123 -5
      vertex 1.67246 15.9123 -4.66733
      vertex 0 25 -5
    endloop
  endfacet
  facet normal -0.19509 2.17778e-16 0.980785
    outer loop
      vertex 0 25 -5
      vertex 1.67246 15.9123 -4.66733
      vertex 1.91342 25 -4.6194
    endloop
  endfacet
  facet normal 0.19509 2.17778e-16 0.980785
    outer loop
      vertex -1.67246 15.9123 -4.66733
      vertex 0 15.9123 -5
      vertex 0 25 -5
    endloop
  endfacet
  facet normal 0.19509 2.17778e-16 0.980785
    outer loop
      vertex -1.91342 15.8611 -4.6194
      vertex -1.67246 15.9123 -4.66733
      vertex -1.91342 25 -4.6194
    endloop
  endfacet
  facet normal 0.19509 2.17778e-16 0.980785
    outer loop
      vertex -1.91342 25 -4.6194
      vertex -1.67246 15.9123 -4.66733
      vertex 0 25 -5
    endloop
  endfacet
  facet normal 0.55557 1.84623e-16 0.83147
    outer loop
      vertex -1.91342 15.8611 -4.6194
      vertex -1.91342 25 -4.6194
      vertex -3.53553 25 -3.53553
    endloop
  endfacet
  facet normal 0.55557 1.84623e-16 0.83147
    outer loop
      vertex -3.53553 15.5163 -3.53553
      vertex -1.91342 15.8611 -4.6194
      vertex -3.53553 25 -3.53553
    endloop
  endfacet
  facet normal 0.83147 1.23361e-16 0.55557
    outer loop
      vertex -3.53553 15.5163 -3.53553
      vertex -3.53553 25 -3.53553
      vertex -4.6194 25 -1.91342
    endloop
  endfacet
  facet normal 0.83147 1.23361e-16 0.55557
    outer loop
      vertex -4.6194 15.286 -1.91342
      vertex -3.53553 15.5163 -3.53553
      vertex -4.6194 25 -1.91342
    endloop
  endfacet
  facet normal 0.92388 0.382683 0
    outer loop
      vertex -22.5 0 5.5
      vertex -21.7678 -1.76777 5.5
      vertex -21.7678 -1.76777 -0.5
    endloop
  endfacet
  facet normal 0.92388 0.382683 0
    outer loop
      vertex -22.5 0 -0.5
      vertex -22.5 0 5.5
      vertex -21.7678 -1.76777 -0.5
    endloop
  endfacet
  facet normal 0.382683 0.92388 0
    outer loop
      vertex -20 -2.5 5.5
      vertex -20 -2.5 -0.5
      vertex -21.7678 -1.76777 5.5
    endloop
  endfacet
  facet normal 0.382683 0.92388 0
    outer loop
      vertex -21.7678 -1.76777 5.5
      vertex -20 -2.5 -0.5
      vertex -21.7678 -1.76777 -0.5
    endloop
  endfacet
  facet normal -0.382683 0.92388 0
    outer loop
      vertex -18.2322 -1.76777 5.5
      vertex -18.2322 -1.76777 -0.5
      vertex -20 -2.5 5.5
    endloop
  endfacet
  facet normal -0.382683 0.92388 0
    outer loop
      vertex -20 -2.5 5.5
      vertex -18.2322 -1.76777 -0.5
      vertex -20 -2.5 -0.5
    endloop
  endfacet
  facet normal -0.92388 0.382683 0
    outer loop
      vertex -17.5 0 5.5
      vertex -17.5 0 -0.5
      vertex -18.2322 -1.76777 5.5
    endloop
  endfacet
  facet normal -0.92388 0.382683 0
    outer loop
      vertex -18.2322 -1.76777 5.5
      vertex -17.5 0 -0.5
      vertex -18.2322 -1.76777 -0.5
    endloop
  endfacet
  facet normal -0.92388 -0.382683 0
    outer loop
      vertex -17.5 0 5.5
      vertex -18.2322 1.76777 5.5
      vertex -17.5 0 -0.5
    endloop
  endfacet
  facet normal -0.92388 -0.382683 0
    outer loop
      vertex -17.5 0 -0.5
      vertex -18.2322 1.76777 5.5
      vertex -18.2322 1.76777 -0.5
    endloop
  endfacet
  facet normal -0.382683 -0.92388 0
    outer loop
      vertex -18.2322 1.76777 -0.5
      vertex -18.2322 1.76777 5.5
      vertex -20 2.5 5.5
    endloop
  endfacet
  facet normal -0.382683 -0.92388 0
    outer loop
      vertex -20 2.5 -0.5
      vertex -18.2322 1.76777 -0.5
      vertex -20 2.5 5.5
    endloop
  endfacet
  facet normal 0.382683 -0.92388 0
    outer loop
      vertex -20 2.5 -0.5
      vertex -20 2.5 5.5
      vertex -21.7678 1.76777 5.5
    endloop
  endfacet
  facet normal 0.382683 -0.92388 0
    outer loop
      vertex -21.7678 1.76777 -0.5
      vertex -20 2.5 -0.5
      vertex -21.7678 1.76777 5.5
    endloop
  endfacet
  facet normal 0.92388 -0.382683 0
    outer loop
      vertex -21.7678 1.76777 -0.5
      vertex -21.7678 1.76777 5.5
      vertex -22.5 0 5.5
    endloop
  endfacet
  facet normal 0.92388 -0.382683 0
    outer loop
      vertex -22.5 0 -0.5
      vertex -21.7678 1.76777 -0.5
      vertex -22.5 0 5.5
    endloop
  endfacet
  facet normal 0.994522 0.104528 0
    outer loop
      vertex -16 0 5.5
      vertex -15.6504 -3.32659 5.5
      vertex -15.6504 -3.32659 -0.5
    endloop
  endfacet
  facet normal 0.994522 0.104528 0
    outer loop
      vertex -16 0 -0.5
      vertex -16 0 5.5
      vertex -15.6504 -3.32659 -0.5
    endloop
  endfacet
  facet normal 0.207912 0.978148 0
    outer loop
      vertex -1.67246 -15.9123 5.5
      vertex -1.67246 -15.9123 4.66733
      vertex -4.94427 -15.2169 5.5
    endloop
  endfacet
  facet normal 0.207912 0.978148 0
    outer loop
      vertex -4.94427 -15.2169 5.5
      vertex -1.67246 -15.9123 4.66733
      vertex -1.91342 -15.8611 4.6194
    endloop
  endfacet
  facet normal 0.207912 0.978148 0
    outer loop
      vertex -4.94427 -15.2169 5.5
      vertex -1.91342 -15.8611 4.6194
      vertex -3.53553 -15.5163 3.53553
    endloop
  endfacet
  facet normal 0.207912 0.978148 0
    outer loop
      vertex -3.53553 -15.5163 3.53553
      vertex -4.6194 -15.286 1.91342
      vertex -4.94427 -15.2169 5.5
    endloop
  endfacet
  facet normal 0.207912 0.978148 0
    outer loop
      vertex -4.6194 -15.286 1.91342
      vertex -4.94427 -15.2169 0.280164
      vertex -4.94427 -15.2169 5.5
    endloop
  endfacet
  facet normal 0 1 0
    outer loop
      vertex 1.67246 -15.9123 5.5
      vertex 1.67246 -15.9123 4.66733
      vertex -1.67246 -15.9123 5.5
    endloop
  endfacet
  facet normal 0 1 0
    outer loop
      vertex -1.67246 -15.9123 5.5
      vertex 1.67246 -15.9123 4.66733
      vertex 0 -15.9123 5
    endloop
  endfacet
  facet normal 0 1 0
    outer loop
      vertex -1.67246 -15.9123 5.5
      vertex 0 -15.9123 5
      vertex -1.67246 -15.9123 4.66733
    endloop
  endfacet
  facet normal -0.207912 0.978148 0
    outer loop
      vertex 4.94427 -15.2169 5.5
      vertex 4.94427 -15.2169 0.280164
      vertex 4.6194 -15.286 1.91342
    endloop
  endfacet
  facet normal -0.207912 0.978148 0
    outer loop
      vertex 4.94427 -15.2169 5.5
      vertex 4.6194 -15.286 1.91342
      vertex 3.53553 -15.5163 3.53553
    endloop
  endfacet
  facet normal -0.207912 0.978148 0
    outer loop
      vertex 4.94427 -15.2169 5.5
      vertex 3.53553 -15.5163 3.53553
      vertex 1.67246 -15.9123 5.5
    endloop
  endfacet
  facet normal -0.207912 0.978148 0
    outer loop
      vertex 1.67246 -15.9123 5.5
      vertex 1.91342 -15.8611 4.6194
      vertex 1.67246 -15.9123 4.66733
    endloop
  endfacet
  facet normal -0.207912 0.978148 0
    outer loop
      vertex 1.91342 -15.8611 4.6194
      vertex 1.67246 -15.9123 5.5
      vertex 3.53553 -15.5163 3.53553
    endloop
  endfacet
  facet normal -0.994522 0.104528 0
    outer loop
      vertex 16 0 5.5
      vertex 16 0 -0.5
      vertex 15.6504 -3.32659 5.5
    endloop
  endfacet
  facet normal -0.994522 0.104528 0
    outer loop
      vertex 15.6504 -3.32659 5.5
      vertex 16 0 -0.5
      vertex 15.6504 -3.32659 -0.5
    endloop
  endfacet
  facet normal -0.994522 -0.104528 0
    outer loop
      vertex 16 0 5.5
      vertex 15.6504 3.32659 5.5
      vertex 16 0 -0.5
    endloop
  endfacet
  facet normal -0.994522 -0.104528 0
    outer loop
      vertex 16 0 -0.5
      vertex 15.6504 3.32659 5.5
      vertex 15.6504 3.32659 -0.5
    endloop
  endfacet
  facet normal -0.207912 -0.978148 0
    outer loop
      vertex 4.94427 15.2169 5.5
      vertex 3.53553 15.5163 3.53553
      vertex 4.6194 15.286 1.91342
    endloop
  endfacet
  facet normal -0.207912 -0.978148 0
    outer loop
      vertex 1.91342 15.8611 4.6194
      vertex 3.53553 15.5163 3.53553
      vertex 4.94427 15.2169 5.5
    endloop
  endfacet
  facet normal -0.207912 -0.978148 0
    outer loop
      vertex 4.94427 15.2169 0.280164
      vertex 4.94427 15.2169 5.5
      vertex 4.6194 15.286 1.91342
    endloop
  endfacet
  facet normal -0.207912 -0.978148 0
    outer loop
      vertex 4.94427 15.2169 5.5
      vertex 1.67246 15.9123 5.5
      vertex 1.91342 15.8611 4.6194
    endloop
  endfacet
  facet normal -0.207912 -0.978148 0
    outer loop
      vertex 1.67246 15.9123 5.5
      vertex 1.67246 15.9123 4.66733
      vertex 1.91342 15.8611 4.6194
    endloop
  endfacet
  facet normal 0 -1 0
    outer loop
      vertex 0 15.9123 5
      vertex 1.67246 15.9123 4.66733
      vertex 1.67246 15.9123 5.5
    endloop
  endfacet
  facet normal 0 -1 0
    outer loop
      vertex -1.67246 15.9123 4.66733
      vertex 0 15.9123 5
      vertex -1.67246 15.9123 5.5
    endloop
  endfacet
  facet normal 0 -1 0
    outer loop
      vertex -1.67246 15.9123 5.5
      vertex 0 15.9123 5
      vertex 1.67246 15.9123 5.5
    endloop
  endfacet
  facet normal 0.207912 -0.978148 0
    outer loop
      vertex -1.67246 15.9123 5.5
      vertex -3.53553 15.5163 3.53553
      vertex -1.91342 15.8611 4.6194
    endloop
  endfacet
  facet normal 0.207912 -0.978148 0
    outer loop
      vertex -4.6194 15.286 1.91342
      vertex -3.53553 15.5163 3.53553
      vertex -4.94427 15.2169 5.5
    endloop
  endfacet
  facet normal 0.207912 -0.978148 0
    outer loop
      vertex -1.67246 15.9123 4.66733
      vertex -1.67246 15.9123 5.5
      vertex -1.91342 15.8611 4.6194
    endloop
  endfacet
  facet normal 0.207912 -0.978148 0
    outer loop
      vertex -1.67246 15.9123 5.5
      vertex -4.94427 15.2169 5.5
      vertex -3.53553 15.5163 3.53553
    endloop
  endfacet
  facet normal 0.207912 -0.978148 0
    outer loop
      vertex -4.6194 15.286 1.91342
      vertex -4.94427 15.2169 5.5
      vertex -4.94427 15.2169 0.280164
    endloop
  endfacet
  facet normal 0.994522 -0.104528 0
    outer loop
      vertex -15.6504 3.32659 -0.5
      vertex -15.6504 3.32659 5.5
      vertex -16 0 5.5
    endloop
  endfacet
  facet normal 0.994522 -0.104528 0
    outer loop
      vertex -16 0 -0.5
      vertex -15.6504 3.32659 -0.5
      vertex -16 0 5.5
    endloop
  endfacet
  facet normal 0.382683 0.92388 0
    outer loop
      vertex 20 -2.5 5.5
      vertex 20 -2.5 -0.5
      vertex 18.2322 -1.76777 5.5
    endloop
  endfacet
  facet normal 0.382683 0.92388 0
    outer loop
      vertex 18.2322 -1.76777 5.5
      vertex 20 -2.5 -0.5
      vertex 18.2322 -1.76777 -0.5
    endloop
  endfacet
  facet normal 0.92388 0.382683 0
    outer loop
      vertex 17.5 0 5.5
      vertex 18.2322 -1.76777 5.5
      vertex 18.2322 -1.76777 -0.5
    endloop
  endfacet
  facet normal 0.92388 0.382683 0
    outer loop
      vertex 17.5 0 -0.5
      vertex 17.5 0 5.5
      vertex 18.2322 -1.76777 -0.5
    endloop
  endfacet
  facet normal -0.382683 0.92388 0
    outer loop
      vertex 21.7678 -1.76777 5.5
      vertex 21.7678 -1.76777 -0.5
      vertex 20 -2.5 5.5
    endloop
  endfacet
  facet normal -0.382683 0.92388 0
    outer loop
      vertex 20 -2.5 5.5
      vertex 21.7678 -1.76777 -0.5
      vertex 20 -2.5 -0.5
    endloop
  endfacet
  facet normal -0.92388 0.382683 0
    outer loop
      vertex 22.5 0 5.5
      vertex 22.5 0 -0.5
      vertex 21.7678 -1.76777 5.5
    endloop
  endfacet
  facet normal -0.92388 0.382683 0
    outer loop
      vertex 21.7678 -1.76777 5.5
      vertex 22.5 0 -0.5
      vertex 21.7678 -1.76777 -0.5
    endloop
  endfacet
  facet normal -0.92388 -0.382683 0
    outer loop
      vertex 22.5 0 5.5
      vertex 21.7678 1.76777 5.5
      vertex 22.5 0 -0.5
    endloop
  endfacet
  facet normal -0.92388 -0.382683 0
    outer loop
      vertex 22.5 0 -0.5
      vertex 21.7678 1.76777 5.5
      vertex 21.7678 1.76777 -0.5
    endloop
  endfacet
  facet normal -0.382683 -0.92388 0
    outer loop
      vertex 21.7678 1.76777 -0.5
      vertex 21.7678 1.76777 5.5
      vertex 20 2.5 5.5
    endloop
  endfacet
  facet normal -0.382683 -0.92388 0
    outer loop
      vertex 20 2.5 -0.5
      vertex 21.7678 1.76777 -0.5
      vertex 20 2.5 5.5
    endloop
  endfacet
  facet normal 0.382683 -0.92388 0
    outer loop
      vertex 20 2.5 -0.5
      vertex 20 2.5 5.5
      vertex 18.2322 1.76777 5.5
    endloop
  endfacet
  facet normal 0.382683 -0.92388 0
    outer loop
      vertex 18.2322 1.76777 -0.5
      vertex 20 2.5 -0.5
      vertex 18.2322 1.76777 5.5
    endloop
  endfacet
  facet normal 0.92388 -0.382683 0
    outer loop
      vertex 18.2322 1.76777 -0.5
      vertex 18.2322 1.76777 5.5
      vertex 17.5 0 5.5
    endloop
  endfacet
  facet normal 0.92388 -0.382683 0
    outer loop
      vertex 17.5 0 -0.5
      vertex 18.2322 1.76777 -0.5
      vertex 17.5 0 5.5
    endloop
  endfacet
  facet normal 0 0 -1
    outer loop
      vertex -25.2768 2.85568 -0.5
      vertex -24.0637 4.41434 -0.5
      vertex -25.9182 0.987568 -0.5
    endloop
  endfacet
  facet normal 0 0 -1
    outer loop
      vertex -25.9182 0.987568 -0.5
      vertex -24.0637 4.41434 -0.5
      vertex -22.4102 5.49464 -0.5
    endloop
  endfacet
  facet normal 0 0 -1
    outer loop
      vertex -25.9182 0.987568 -0.5
      vertex -22.4102 5.49464 -0.5
      vertex -20.4955 5.97951 -0.5
    endloop
  endfacet
  facet normal 0 0 -1
    outer loop
      vertex -25.9182 0.987568 -0.5
      vertex -20.4955 5.97951 -0.5
      vertex -18.5271 5.8164 -0.5
    endloop
  endfacet
  facet normal 0 0 -1
    outer loop
      vertex -25.9182 0.987568 -0.5
      vertex -18.5271 5.8164 -0.5
      vertex -16.7183 5.023 -0.5
    endloop
  endfacet
  facet normal 0 0 -1
    outer loop
      vertex -25.9182 0.987568 -0.5
      vertex -16.7183 5.023 -0.5
      vertex -15.472 3.87565 -0.5
    endloop
  endfacet
  facet normal 0 0 -1
    outer loop
      vertex -20 2.5 -0.5
      vertex -15.472 3.87565 -0.5
      vertex -15.6504 3.32659 -0.5
    endloop
  endfacet
  facet normal 0 0 -1
    outer loop
      vertex -18.2322 1.76777 -0.5
      vertex -15.6504 3.32659 -0.5
      vertex -16 0 -0.5
    endloop
  endfacet
  facet normal 0 0 -1
    outer loop
      vertex -20 -2.5 -0.5
      vertex -15.472 -3.87565 -0.5
      vertex -16.7183 -5.023 -0.5
    endloop
  endfacet
  facet normal 0 0 -1
    outer loop
      vertex -21.7678 -1.76777 -0.5
      vertex -16.7183 -5.023 -0.5
      vertex -18.5271 -5.8164 -0.5
    endloop
  endfacet
  facet normal 0 0 -1
    outer loop
      vertex -25.9182 0.987568 -0.5
      vertex -18.5271 -5.8164 -0.5
      vertex -20.4955 -5.97951 -0.5
    endloop
  endfacet
  facet normal 0 0 -1
    outer loop
      vertex -25.9182 0.987568 -0.5
      vertex -20.4955 -5.97951 -0.5
      vertex -22.4102 -5.49464 -0.5
    endloop
  endfacet
  facet normal 0 0 -1
    outer loop
      vertex -25.9182 0.987568 -0.5
      vertex -22.4102 -5.49464 -0.5
      vertex -24.0637 -4.41434 -0.5
    endloop
  endfacet
  facet normal 0 0 -1
    outer loop
      vertex -25.9182 0.987568 -0.5
      vertex -24.0637 -4.41434 -0.5
      vertex -25.2768 -2.85568 -0.5
    endloop
  endfacet
  facet normal 0 0 -1
    outer loop
      vertex -25.9182 0.987568 -0.5
      vertex -25.2768 -2.85568 -0.5
      vertex -25.9182 -0.987568 -0.5
    endloop
  endfacet
  facet normal 0 0 -1
    outer loop
      vertex -18.2322 -1.76777 -0.5
      vertex -15.6504 -3.32659 -0.5
      vertex -15.472 -3.87565 -0.5
    endloop
  endfacet
  facet normal 0 0 -1
    outer loop
      vertex -25.9182 0.987568 -0.5
      vertex -21.7678 -1.76777 -0.5
      vertex -18.5271 -5.8164 -0.5
    endloop
  endfacet
  facet normal 0 0 -1
    outer loop
      vertex -18.2322 -1.76777 -0.5
      vertex -15.472 -3.87565 -0.5
      vertex -20 -2.5 -0.5
    endloop
  endfacet
  facet normal 0 0 -1
    outer loop
      vertex -16 0 -0.5
      vertex -15.6504 -3.32659 -0.5
      vertex -18.2322 -1.76777 -0.5
    endloop
  endfacet
  facet normal 0 0 -1
    outer loop
      vertex -16 0 -0.5
      vertex -18.2322 -1.76777 -0.5
      vertex -17.5 0 -0.5
    endloop
  endfacet
  facet normal 0 0 -1
    outer loop
      vertex -21.7678 1.76777 -0.5
      vertex -25.9182 0.987568 -0.5
      vertex -20 2.5 -0.5
    endloop
  endfacet
  facet normal 0 0 -1
    outer loop
      vertex -20 2.5 -0.5
      vertex -15.6504 3.32659 -0.5
      vertex -18.2322 1.76777 -0.5
    endloop
  endfacet
  facet normal 0 0 -1
    outer loop
      vertex -25.9182 0.987568 -0.5
      vertex -15.472 3.87565 -0.5
      vertex -20 2.5 -0.5
    endloop
  endfacet
  facet normal 0 0 -1
    outer loop
      vertex -22.5 0 -0.5
      vertex -25.9182 0.987568 -0.5
      vertex -21.7678 1.76777 -0.5
    endloop
  endfacet
  facet normal 0 0 -1
    outer loop
      vertex -21.7678 -1.76777 -0.5
      vertex -25.9182 0.987568 -0.5
      vertex -22.5 0 -0.5
    endloop
  endfacet
  facet normal 0 0 -1
    outer loop
      vertex -18.2322 1.76777 -0.5
      vertex -16 0 -0.5
      vertex -17.5 0 -0.5
    endloop
  endfacet
  facet normal 0 0 -1
    outer loop
      vertex -20 -2.5 -0.5
      vertex -16.7183 -5.023 -0.5
      vertex -21.7678 -1.76777 -0.5
    endloop
  endfacet
  facet normal 0 0 -1
    outer loop
      vertex 15.9363 4.41434 -0.5
      vertex 15.6504 3.32659 -0.5
      vertex 15.4852 3.8348 -0.5
    endloop
  endfacet
  facet normal 0 0 -1
    outer loop
      vertex 16 0 -0.5
      vertex 15.6504 3.32659 -0.5
      vertex 15.9363 4.41434 -0.5
    endloop
  endfacet
  facet normal 0 0 -1
    outer loop
      vertex 16 0 -0.5
      vertex 15.9363 4.41434 -0.5
      vertex 17.5898 5.49464 -0.5
    endloop
  endfacet
  facet normal 0 0 -1
    outer loop
      vertex 16 0 -0.5
      vertex 17.5898 5.49464 -0.5
      vertex 15.6504 -3.32659 -0.5
    endloop
  endfacet
  facet normal 0 0 -1
    outer loop
      vertex 17.5898 5.49464 -0.5
      vertex 19.5045 5.97951 -0.5
      vertex 15.6504 -3.32659 -0.5
    endloop
  endfacet
  facet normal 0 0 -1
    outer loop
      vertex 21.7678 1.76777 -0.5
      vertex 25.6749 1.9482 -0.5
      vertex 22.5 0 -0.5
    endloop
  endfacet
  facet normal 0 0 -1
    outer loop
      vertex 20 -2.5 -0.5
      vertex 25.6749 -1.9482 -0.5
      vertex 15.6504 -3.32659 -0.5
    endloop
  endfacet
  facet normal 0 0 -1
    outer loop
      vertex 25.6749 -1.9482 -0.5
      vertex 24.7348 -3.68528 -0.5
      vertex 15.6504 -3.32659 -0.5
    endloop
  endfacet
  facet normal 0 0 -1
    outer loop
      vertex 24.7348 -3.68528 -0.5
      vertex 23.2817 -5.023 -0.5
      vertex 15.6504 -3.32659 -0.5
    endloop
  endfacet
  facet normal 0 0 -1
    outer loop
      vertex 23.2817 -5.023 -0.5
      vertex 21.4729 -5.8164 -0.5
      vertex 15.6504 -3.32659 -0.5
    endloop
  endfacet
  facet normal 0 0 -1
    outer loop
      vertex 21.4729 -5.8164 -0.5
      vertex 19.5045 -5.97951 -0.5
      vertex 15.6504 -3.32659 -0.5
    endloop
  endfacet
  facet normal 0 0 -1
    outer loop
      vertex 19.5045 -5.97951 -0.5
      vertex 17.5898 -5.49464 -0.5
      vertex 15.6504 -3.32659 -0.5
    endloop
  endfacet
  facet normal 0 0 -1
    outer loop
      vertex 17.5898 -5.49464 -0.5
      vertex 15.9363 -4.41434 -0.5
      vertex 15.6504 -3.32659 -0.5
    endloop
  endfacet
  facet normal 0 0 -1
    outer loop
      vertex 15.9363 -4.41434 -0.5
      vertex 15.4852 -3.8348 -0.5
      vertex 15.6504 -3.32659 -0.5
    endloop
  endfacet
  facet normal 0 0 -1
    outer loop
      vertex 20 -2.5 -0.5
      vertex 15.6504 -3.32659 -0.5
      vertex 18.2322 -1.76777 -0.5
    endloop
  endfacet
  facet normal 0 0 -1
    outer loop
      vertex 21.7678 -1.76777 -0.5
      vertex 25.6749 -1.9482 -0.5
      vertex 20 -2.5 -0.5
    endloop
  endfacet
  facet normal 0 0 -1
    outer loop
      vertex 22.5 0 -0.5
      vertex 26 0 -0.5
      vertex 21.7678 -1.76777 -0.5
    endloop
  endfacet
  facet normal 0 0 -1
    outer loop
      vertex 26 0 -0.5
      vertex 25.6749 -1.9482 -0.5
      vertex 21.7678 -1.76777 -0.5
    endloop
  endfacet
  facet normal 0 0 -1
    outer loop
      vertex 25.6749 1.9482 -0.5
      vertex 26 0 -0.5
      vertex 22.5 0 -0.5
    endloop
  endfacet
  facet normal 0 0 -1
    outer loop
      vertex 23.2817 5.023 -0.5
      vertex 24.7348 3.68528 -0.5
      vertex 21.7678 1.76777 -0.5
    endloop
  endfacet
  facet normal 0 0 -1
    outer loop
      vertex 21.7678 1.76777 -0.5
      vertex 24.7348 3.68528 -0.5
      vertex 25.6749 1.9482 -0.5
    endloop
  endfacet
  facet normal 0 0 -1
    outer loop
      vertex 21.4729 5.8164 -0.5
      vertex 23.2817 5.023 -0.5
      vertex 20 2.5 -0.5
    endloop
  endfacet
  facet normal 0 0 -1
    outer loop
      vertex 19.5045 5.97951 -0.5
      vertex 21.4729 5.8164 -0.5
      vertex 18.2322 1.76777 -0.5
    endloop
  endfacet
  facet normal 0 0 -1
    outer loop
      vertex 19.5045 5.97951 -0.5
      vertex 18.2322 1.76777 -0.5
      vertex 15.6504 -3.32659 -0.5
    endloop
  endfacet
  facet normal 0 0 -1
    outer loop
      vertex 18.2322 1.76777 -0.5
      vertex 17.5 0 -0.5
      vertex 15.6504 -3.32659 -0.5
    endloop
  endfacet
  facet normal 0 0 -1
    outer loop
      vertex 18.2322 -1.76777 -0.5
      vertex 15.6504 -3.32659 -0.5
      vertex 17.5 0 -0.5
    endloop
  endfacet
  facet normal 0 0 -1
    outer loop
      vertex 18.2322 1.76777 -0.5
      vertex 21.4729 5.8164 -0.5
      vertex 20 2.5 -0.5
    endloop
  endfacet
  facet normal 0 0 -1
    outer loop
      vertex 20 2.5 -0.5
      vertex 23.2817 5.023 -0.5
      vertex 21.7678 1.76777 -0.5
    endloop
  endfacet
endsolid OpenSCAD_Model
